<svg width="144" height="40" viewBox="0 0 144 40" fill="none" xmlns="http://www.w3.org/2000/svg">
<rect x="0.5" width="143" height="40" rx="8" fill="#FDF9F1"/>
<path d="M36.7232 26H34.3326L38.6852 13.6364H41.4501L45.8088 26H43.4181L40.1159 16.1719H40.0194L36.7232 26ZM36.8017 21.1523H43.3216V22.9513H36.8017V21.1523ZM47.4372 26V13.6364H49.6226V18.2607H49.7132C49.8258 18.0353 49.9848 17.7958 50.1901 17.5423C50.3953 17.2847 50.673 17.0653 51.0232 16.8842C51.3733 16.6991 51.82 16.6065 52.3634 16.6065C53.0798 16.6065 53.7257 16.7897 54.3012 17.1559C54.8808 17.5181 55.3396 18.0554 55.6776 18.7678C56.0197 19.4761 56.1908 20.3454 56.1908 21.3757C56.1908 22.3939 56.0238 23.2592 55.6897 23.9716C55.3557 24.6839 54.9009 25.2273 54.3254 25.6016C53.7499 25.9759 53.0979 26.163 52.3694 26.163C51.8382 26.163 51.3975 26.0745 51.0473 25.8974C50.6972 25.7203 50.4155 25.507 50.2021 25.2575C49.9929 25.0039 49.8299 24.7644 49.7132 24.5391H49.5864V26H47.4372ZM49.5803 21.3636C49.5803 21.9633 49.6649 22.4885 49.8339 22.9393C50.007 23.39 50.2545 23.7422 50.5764 23.9957C50.9024 24.2453 51.2968 24.37 51.7597 24.37C52.2426 24.37 52.6471 24.2412 52.9731 23.9837C53.2991 23.7221 53.5446 23.3659 53.7096 22.9151C53.8786 22.4603 53.9632 21.9432 53.9632 21.3636C53.9632 20.7881 53.8807 20.277 53.7156 19.8303C53.5506 19.3835 53.3051 19.0334 52.9791 18.7798C52.6531 18.5263 52.2467 18.3995 51.7597 18.3995C51.2928 18.3995 50.8964 18.5223 50.5704 18.7678C50.2444 19.0133 49.9969 19.3574 49.8279 19.8001C49.6628 20.2428 49.5803 20.764 49.5803 21.3636ZM62.0934 26.1811C61.1879 26.1811 60.4031 25.9819 59.739 25.5835C59.0749 25.185 58.5598 24.6276 58.1935 23.9112C57.8313 23.1948 57.6502 22.3577 57.6502 21.3999C57.6502 20.442 57.8313 19.6029 58.1935 18.8825C58.5598 18.162 59.0749 17.6026 59.739 17.2042C60.4031 16.8058 61.1879 16.6065 62.0934 16.6065C62.9989 16.6065 63.7837 16.8058 64.4478 17.2042C65.1119 17.6026 65.625 18.162 65.9872 18.8825C66.3535 19.6029 66.5366 20.442 66.5366 21.3999C66.5366 22.3577 66.3535 23.1948 65.9872 23.9112C65.625 24.6276 65.1119 25.185 64.4478 25.5835C63.7837 25.9819 62.9989 26.1811 62.0934 26.1811ZM62.1055 24.4304C62.5965 24.4304 63.007 24.2956 63.337 24.0259C63.667 23.7522 63.9125 23.386 64.0735 22.9272C64.2385 22.4684 64.321 21.9573 64.321 21.3938C64.321 20.8263 64.2385 20.3132 64.0735 19.8544C63.9125 19.3916 63.667 19.0233 63.337 18.7496C63.007 18.476 62.5965 18.3391 62.1055 18.3391C61.6024 18.3391 61.1838 18.476 60.8498 18.7496C60.5198 19.0233 60.2723 19.3916 60.1072 19.8544C59.9463 20.3132 59.8658 20.8263 59.8658 21.3938C59.8658 21.9573 59.9463 22.4684 60.1072 22.9272C60.2723 23.386 60.5198 23.7522 60.8498 24.0259C61.1838 24.2956 61.6024 24.4304 62.1055 24.4304ZM74.3016 22.1001V16.7273H76.487V26H74.368V24.3519H74.2714C74.0621 24.8711 73.718 25.2957 73.2391 25.6257C72.7642 25.9557 72.1786 26.1207 71.4823 26.1207C70.8746 26.1207 70.3373 25.9859 69.8705 25.7163C69.4076 25.4426 69.0454 25.0462 68.7838 24.527C68.5222 24.0038 68.3914 23.3719 68.3914 22.6314V16.7273H70.5768V22.2933C70.5768 22.8809 70.7378 23.3478 71.0597 23.6939C71.3817 24.04 71.8043 24.2131 72.3275 24.2131C72.6495 24.2131 72.9614 24.1346 73.2632 23.9776C73.5651 23.8207 73.8126 23.5872 74.0058 23.2773C74.203 22.9634 74.3016 22.571 74.3016 22.1001ZM83.3645 16.7273V18.4176H78.0339V16.7273H83.3645ZM79.35 14.5057H81.5353V23.2109C81.5353 23.5047 81.5796 23.7301 81.6681 23.8871C81.7607 24.04 81.8815 24.1446 82.0304 24.201C82.1793 24.2573 82.3443 24.2855 82.5254 24.2855C82.6622 24.2855 82.787 24.2754 82.8997 24.2553C83.0164 24.2352 83.1049 24.2171 83.1653 24.201L83.5336 25.9094C83.4168 25.9497 83.2498 25.994 83.0325 26.0423C82.8192 26.0906 82.5576 26.1187 82.2477 26.1268C81.7003 26.1429 81.2073 26.0604 80.7686 25.8793C80.33 25.6941 79.9818 25.4084 79.7243 25.022C79.4707 24.6357 79.3459 24.1527 79.35 23.5732V14.5057ZM97.2993 13.6364H99.539V21.7138C99.539 22.5992 99.3297 23.378 98.9111 24.0501C98.4966 24.7222 97.913 25.2474 97.1604 25.6257C96.4078 26 95.5284 26.1871 94.5223 26.1871C93.5121 26.1871 92.6307 26 91.8781 25.6257C91.1255 25.2474 90.5419 24.7222 90.1274 24.0501C89.7129 23.378 89.5056 22.5992 89.5056 21.7138V13.6364H91.7453V21.5266C91.7453 22.0418 91.858 22.5006 92.0834 22.9031C92.3128 23.3055 92.6347 23.6214 93.0493 23.8509C93.4638 24.0762 93.9548 24.1889 94.5223 24.1889C95.0898 24.1889 95.5808 24.0762 95.9953 23.8509C96.4139 23.6214 96.7358 23.3055 96.9612 22.9031C97.1866 22.5006 97.2993 22.0418 97.2993 21.5266V13.6364ZM109.206 19.1783L107.213 19.3956C107.157 19.1944 107.058 19.0052 106.918 18.8281C106.781 18.651 106.596 18.5082 106.362 18.3995C106.129 18.2908 105.843 18.2365 105.505 18.2365C105.05 18.2365 104.668 18.3351 104.358 18.5323C104.052 18.7295 103.901 18.9851 103.905 19.299C103.901 19.5687 104 19.788 104.201 19.957C104.406 20.1261 104.744 20.2649 105.215 20.3736L106.797 20.7116C107.674 20.9008 108.326 21.2006 108.753 21.6112C109.183 22.0217 109.401 22.5589 109.405 23.223C109.401 23.8066 109.23 24.3217 108.892 24.7685C108.558 25.2112 108.093 25.5573 107.497 25.8068C106.902 26.0563 106.217 26.1811 105.445 26.1811C104.31 26.1811 103.396 25.9437 102.704 25.4688C102.012 24.9898 101.599 24.3237 101.466 23.4705L103.597 23.2653C103.694 23.6838 103.899 23.9998 104.213 24.2131C104.527 24.4264 104.935 24.533 105.439 24.533C105.958 24.533 106.374 24.4264 106.688 24.2131C107.006 23.9998 107.165 23.7362 107.165 23.4222C107.165 23.1566 107.063 22.9373 106.857 22.7642C106.656 22.5911 106.342 22.4583 105.915 22.3658L104.334 22.0337C103.444 21.8486 102.786 21.5367 102.36 21.098C101.933 20.6553 101.722 20.0959 101.726 19.4197C101.722 18.8482 101.877 18.3532 102.191 17.9347C102.509 17.5121 102.949 17.1861 103.513 16.9567C104.08 16.7232 104.734 16.6065 105.475 16.6065C106.561 16.6065 107.417 16.8379 108.04 17.3008C108.668 17.7636 109.057 18.3894 109.206 19.1783Z" fill="#DBA73B"/>
</svg>
