<svg width="176" height="71" viewBox="0 0 176 71" fill="none" xmlns="http://www.w3.org/2000/svg">
<g filter="url(#filter0_d_3323_987)">
<rect x="3.23535" y="2" width="169.823" height="63.8387" rx="8" fill="white"/>
<rect x="3.59422" y="2.35887" width="169.105" height="63.121" rx="7.64113" stroke="#EFF0F6" stroke-width="0.717742"/>
<path d="M43.1343 34.6957C43.1208 32.4601 44.1678 30.7752 46.2822 29.5328C45.0996 27.8938 43.3105 26.9923 40.9521 26.8186C38.7191 26.6481 36.276 28.0774 35.3815 28.0774C34.4361 28.0774 32.2742 26.8776 30.5732 26.8776C27.0627 26.9301 23.332 29.5852 23.332 34.9874C23.332 36.5838 23.6336 38.2327 24.2368 39.9307C25.0432 42.1663 27.9505 47.6439 30.9832 47.5554C32.569 47.5193 33.6906 46.4671 35.7542 46.4671C37.7568 46.4671 38.7937 47.5554 40.5625 47.5554C43.6223 47.5127 46.2517 42.5334 47.0175 40.2913C42.9141 38.4195 43.1343 34.8104 43.1343 34.6957ZM39.573 24.6977C41.291 22.7244 41.1351 20.928 41.0843 20.2822C39.5662 20.3675 37.811 21.282 36.8114 22.4064C35.7102 23.6127 35.063 25.1042 35.2019 26.7858C36.8419 26.9071 38.3396 26.0909 39.573 24.6977Z" fill="#121933"/>
<path d="M68.1867 26.9194H65.5961V19.6115H68.2081C68.9432 19.6115 69.576 19.7578 70.1065 20.0504C70.6369 20.3406 71.0449 20.7581 71.3304 21.3029C71.6182 21.8477 71.7622 22.4995 71.7622 23.2583C71.7622 24.0196 71.6182 24.6738 71.3304 25.2209C71.0449 25.7681 70.6346 26.1879 70.0993 26.4805C69.5664 26.7731 68.9289 26.9194 68.1867 26.9194ZM67.1412 25.5956H68.1225C68.5792 25.5956 68.9634 25.5147 69.275 25.3529C69.589 25.1888 69.8246 24.9354 69.9816 24.5929C70.1409 24.248 70.2206 23.8031 70.2206 23.2583C70.2206 22.7183 70.1409 22.2771 69.9816 21.9345C69.8246 21.5919 69.5902 21.3398 69.2786 21.178C68.967 21.0162 68.5828 20.9354 68.126 20.9354H67.1412V25.5956ZM75.4981 27.0265C74.9438 27.0265 74.4645 26.9087 74.0601 26.6732C73.658 26.4353 73.3476 26.1047 73.1287 25.6812C72.9099 25.2554 72.8005 24.7618 72.8005 24.2004C72.8005 23.6342 72.9099 23.1394 73.1287 22.716C73.3476 22.2901 73.658 21.9595 74.0601 21.724C74.4645 21.4861 74.9438 21.3671 75.4981 21.3671C76.0524 21.3671 76.5305 21.4861 76.9326 21.724C77.337 21.9595 77.6486 22.2901 77.8675 22.716C78.0863 23.1394 78.1958 23.6342 78.1958 24.2004C78.1958 24.7618 78.0863 25.2554 77.8675 25.6812C77.6486 26.1047 77.337 26.4353 76.9326 26.6732C76.5305 26.9087 76.0524 27.0265 75.4981 27.0265ZM75.5052 25.8489C75.7574 25.8489 75.9679 25.7776 76.1368 25.6348C76.3057 25.4897 76.433 25.2923 76.5186 25.0425C76.6067 24.7927 76.6507 24.5084 76.6507 24.1897C76.6507 23.8709 76.6067 23.5866 76.5186 23.3368C76.433 23.0871 76.3057 22.8896 76.1368 22.7445C75.9679 22.5994 75.7574 22.5268 75.5052 22.5268C75.2507 22.5268 75.0366 22.5994 74.8629 22.7445C74.6917 22.8896 74.562 23.0871 74.474 23.3368C74.3884 23.5866 74.3455 23.8709 74.3455 24.1897C74.3455 24.5084 74.3884 24.7927 74.474 25.0425C74.562 25.2923 74.6917 25.4897 74.8629 25.6348C75.0366 25.7776 75.2507 25.8489 75.5052 25.8489ZM80.2715 26.9194L78.78 21.4385H80.3179L81.1672 25.121H81.2172L82.1021 21.4385H83.6115L84.5107 25.0996H84.5571L85.3921 21.4385H86.9265L85.4385 26.9194H83.8292L82.8871 23.4724H82.8193L81.8773 26.9194H80.2715ZM89.401 23.7508V26.9194H87.8809V21.4385H89.3297V22.4055H89.3939C89.5152 22.0867 89.7186 21.8346 90.0041 21.649C90.2895 21.4611 90.6357 21.3671 91.0424 21.3671C91.4231 21.3671 91.7549 21.4504 92.038 21.6169C92.3211 21.7834 92.5411 22.0213 92.6981 22.3306C92.8552 22.6375 92.9337 23.0038 92.9337 23.4296V26.9194H91.4136V23.7008C91.4159 23.3654 91.3303 23.1037 91.1566 22.9158C90.983 22.7255 90.7439 22.6303 90.4394 22.6303C90.2348 22.6303 90.054 22.6743 89.897 22.7623C89.7424 22.8504 89.6211 22.9788 89.533 23.1477C89.4474 23.3142 89.4034 23.5153 89.401 23.7508ZM95.7954 19.6115V26.9194H94.2753V19.6115H95.7954ZM99.633 27.0265C99.0787 27.0265 98.5994 26.9087 98.195 26.6732C97.793 26.4353 97.4825 26.1047 97.2637 25.6812C97.0448 25.2554 96.9354 24.7618 96.9354 24.2004C96.9354 23.6342 97.0448 23.1394 97.2637 22.716C97.4825 22.2901 97.793 21.9595 98.195 21.724C98.5994 21.4861 99.0787 21.3671 99.633 21.3671C100.187 21.3671 100.665 21.4861 101.067 21.724C101.472 21.9595 101.784 22.2901 102.002 22.716C102.221 23.1394 102.331 23.6342 102.331 24.2004C102.331 24.7618 102.221 25.2554 102.002 25.6812C101.784 26.1047 101.472 26.4353 101.067 26.6732C100.665 26.9087 100.187 27.0265 99.633 27.0265ZM99.6402 25.8489C99.8923 25.8489 100.103 25.7776 100.272 25.6348C100.441 25.4897 100.568 25.2923 100.654 25.0425C100.742 24.7927 100.786 24.5084 100.786 24.1897C100.786 23.8709 100.742 23.5866 100.654 23.3368C100.568 23.0871 100.441 22.8896 100.272 22.7445C100.103 22.5994 99.8923 22.5268 99.6402 22.5268C99.3856 22.5268 99.1715 22.5994 98.9979 22.7445C98.8266 22.8896 98.6969 23.0871 98.6089 23.3368C98.5233 23.5866 98.4805 23.8709 98.4805 24.1897C98.4805 24.5084 98.5233 24.7927 98.6089 25.0425C98.6969 25.2923 98.8266 25.4897 98.9979 25.6348C99.1715 25.7776 99.3856 25.8489 99.6402 25.8489ZM105.026 27.0229C104.676 27.0229 104.364 26.9623 104.091 26.8409C103.817 26.7172 103.601 26.5352 103.441 26.295C103.284 26.0523 103.206 25.7502 103.206 25.3886C103.206 25.0841 103.262 24.8284 103.373 24.6214C103.485 24.4145 103.637 24.248 103.83 24.1219C104.023 23.9958 104.242 23.9006 104.487 23.8364C104.734 23.7722 104.993 23.727 105.265 23.7008C105.583 23.6675 105.84 23.6366 106.035 23.608C106.23 23.5771 106.372 23.5319 106.46 23.4724C106.548 23.413 106.592 23.3249 106.592 23.2084V23.187C106.592 22.961 106.521 22.7861 106.378 22.6624C106.238 22.5387 106.038 22.4769 105.778 22.4769C105.505 22.4769 105.287 22.5375 105.125 22.6589C104.964 22.7778 104.857 22.9277 104.804 23.1085L103.398 22.9943C103.47 22.6612 103.61 22.3734 103.819 22.1307C104.029 21.8857 104.299 21.6978 104.629 21.567C104.963 21.4337 105.348 21.3671 105.786 21.3671C106.09 21.3671 106.382 21.4028 106.66 21.4742C106.941 21.5455 107.189 21.6562 107.406 21.806C107.624 21.9559 107.797 22.1486 107.923 22.3841C108.049 22.6172 108.112 22.8967 108.112 23.2227V26.9194H106.671V26.1594H106.628C106.54 26.3307 106.422 26.4817 106.274 26.6126C106.127 26.741 105.95 26.8421 105.743 26.9159C105.536 26.9872 105.297 27.0229 105.026 27.0229ZM105.461 25.9738C105.685 25.9738 105.882 25.9298 106.053 25.8418C106.225 25.7514 106.359 25.6301 106.456 25.4778C106.554 25.3256 106.603 25.1531 106.603 24.9604V24.3788C106.555 24.4097 106.49 24.4383 106.407 24.4644C106.326 24.4882 106.234 24.5108 106.132 24.5322C106.029 24.5513 105.927 24.5691 105.825 24.5858C105.723 24.6 105.63 24.6131 105.547 24.625C105.368 24.6512 105.212 24.6928 105.079 24.7499C104.946 24.807 104.842 24.8843 104.769 24.9818C104.695 25.077 104.658 25.1959 104.658 25.3387C104.658 25.5456 104.733 25.7038 104.883 25.8133C105.035 25.9203 105.228 25.9738 105.461 25.9738ZM111.455 27.0086C111.038 27.0086 110.661 26.9016 110.324 26.6875C109.988 26.471 109.722 26.1534 109.524 25.7348C109.329 25.3137 109.232 24.7975 109.232 24.1861C109.232 23.5581 109.333 23.0359 109.535 22.6196C109.737 22.2009 110.006 21.8881 110.341 21.6811C110.679 21.4718 111.049 21.3671 111.451 21.3671C111.758 21.3671 112.014 21.4195 112.218 21.5241C112.425 21.6264 112.592 21.7549 112.718 21.9095C112.846 22.0618 112.944 22.2116 113.01 22.3591H113.057V19.6115H114.573V26.9194H113.075V26.0416H113.01C112.939 26.1939 112.838 26.3449 112.707 26.4948C112.579 26.6423 112.411 26.7648 112.204 26.8623C111.999 26.9599 111.75 27.0086 111.455 27.0086ZM111.936 25.799C112.181 25.799 112.388 25.7324 112.557 25.5992C112.729 25.4636 112.859 25.2744 112.95 25.0318C113.043 24.7891 113.089 24.5049 113.089 24.179C113.089 23.8531 113.044 23.57 112.953 23.3297C112.863 23.0894 112.732 22.9039 112.561 22.773C112.39 22.6422 112.181 22.5768 111.936 22.5768C111.687 22.5768 111.476 22.6446 111.305 22.7802C111.134 22.9158 111.004 23.1037 110.916 23.344C110.828 23.5842 110.784 23.8626 110.784 24.179C110.784 24.4977 110.828 24.7796 110.916 25.0247C111.006 25.2673 111.136 25.4576 111.305 25.5956C111.476 25.7312 111.687 25.799 111.936 25.799ZM120.912 27.0265C120.358 27.0265 119.879 26.9087 119.474 26.6732C119.072 26.4353 118.762 26.1047 118.543 25.6812C118.324 25.2554 118.215 24.7618 118.215 24.2004C118.215 23.6342 118.324 23.1394 118.543 22.716C118.762 22.2901 119.072 21.9595 119.474 21.724C119.879 21.4861 120.358 21.3671 120.912 21.3671C121.467 21.3671 121.945 21.4861 122.347 21.724C122.751 21.9595 123.063 22.2901 123.282 22.716C123.501 23.1394 123.61 23.6342 123.61 24.2004C123.61 24.7618 123.501 25.2554 123.282 25.6812C123.063 26.1047 122.751 26.4353 122.347 26.6732C121.945 26.9087 121.467 27.0265 120.912 27.0265ZM120.92 25.8489C121.172 25.8489 121.382 25.7776 121.551 25.6348C121.72 25.4897 121.847 25.2923 121.933 25.0425C122.021 24.7927 122.065 24.5084 122.065 24.1897C122.065 23.8709 122.021 23.5866 121.933 23.3368C121.847 23.0871 121.72 22.8896 121.551 22.7445C121.382 22.5994 121.172 22.5268 120.92 22.5268C120.665 22.5268 120.451 22.5994 120.277 22.7445C120.106 22.8896 119.976 23.0871 119.888 23.3368C119.803 23.5866 119.76 23.8709 119.76 24.1897C119.76 24.5084 119.803 24.7927 119.888 25.0425C119.976 25.2923 120.106 25.4897 120.277 25.6348C120.451 25.7776 120.665 25.8489 120.92 25.8489ZM126.262 23.7508V26.9194H124.742V21.4385H126.191V22.4055H126.255C126.376 22.0867 126.58 21.8346 126.865 21.649C127.151 21.4611 127.497 21.3671 127.904 21.3671C128.284 21.3671 128.616 21.4504 128.899 21.6169C129.182 21.7834 129.402 22.0213 129.559 22.3306C129.716 22.6375 129.795 23.0038 129.795 23.4296V26.9194H128.275V23.7008C128.277 23.3654 128.191 23.1037 128.018 22.9158C127.844 22.7255 127.605 22.6303 127.3 22.6303C127.096 22.6303 126.915 22.6743 126.758 22.7623C126.603 22.8504 126.482 22.9788 126.394 23.1477C126.308 23.3142 126.264 23.5153 126.262 23.7508ZM136.521 21.4385V22.5804H133.22V21.4385H136.521ZM133.97 20.1254H135.49V25.2352C135.49 25.3755 135.511 25.485 135.554 25.5635C135.597 25.6396 135.656 25.6931 135.732 25.724C135.811 25.755 135.901 25.7704 136.003 25.7704C136.075 25.7704 136.146 25.7645 136.218 25.7526C136.289 25.7383 136.344 25.7276 136.382 25.7205L136.621 26.8516C136.545 26.8754 136.438 26.9028 136.3 26.9337C136.162 26.967 135.994 26.9872 135.797 26.9944C135.43 27.0086 135.109 26.9599 134.833 26.8481C134.559 26.7363 134.347 26.5626 134.194 26.3271C134.042 26.0916 133.967 25.7942 133.97 25.435V20.1254ZM139.292 23.7508V26.9194H137.772V19.6115H139.25V22.4055H139.314C139.438 22.082 139.637 21.8286 139.913 21.6455C140.189 21.4599 140.535 21.3671 140.952 21.3671C141.332 21.3671 141.664 21.4504 141.947 21.6169C142.233 21.7811 142.454 22.0178 142.611 22.327C142.77 22.6339 142.849 23.0014 142.847 23.4296V26.9194H141.326V23.7008C141.329 23.363 141.243 23.1001 141.07 22.9122C140.898 22.7243 140.658 22.6303 140.349 22.6303C140.142 22.6303 139.959 22.6743 139.799 22.7623C139.642 22.8504 139.518 22.9788 139.428 23.1477C139.34 23.3142 139.295 23.5153 139.292 23.7508ZM146.684 27.0265C146.12 27.0265 145.635 26.9123 145.228 26.6839C144.824 26.4532 144.512 26.1273 144.293 25.7062C144.075 25.2828 143.965 24.782 143.965 24.2039C143.965 23.6401 144.075 23.1453 144.293 22.7195C144.512 22.2937 144.82 21.9618 145.218 21.724C145.617 21.4861 146.086 21.3671 146.624 21.3671C146.985 21.3671 147.322 21.4254 147.633 21.542C147.947 21.6562 148.221 21.8286 148.454 22.0594C148.69 22.2901 148.873 22.5804 149.004 22.9301C149.134 23.2774 149.2 23.6842 149.2 24.1504V24.5679H144.572V23.6259H147.769C147.769 23.407 147.721 23.2131 147.626 23.0442C147.531 22.8753 147.399 22.7433 147.23 22.6482C147.064 22.5506 146.87 22.5019 146.649 22.5019C146.418 22.5019 146.213 22.5554 146.035 22.6624C145.859 22.7671 145.721 22.9086 145.621 23.0871C145.521 23.2631 145.47 23.4594 145.467 23.6758V24.5715C145.467 24.8427 145.517 25.077 145.617 25.2744C145.72 25.4719 145.863 25.6241 146.049 25.7312C146.235 25.8382 146.455 25.8918 146.709 25.8918C146.878 25.8918 147.033 25.868 147.173 25.8204C147.313 25.7728 147.434 25.7014 147.533 25.6063C147.633 25.5111 147.709 25.3946 147.762 25.2566L149.168 25.3494C149.096 25.6872 148.95 25.9822 148.729 26.2343C148.51 26.4841 148.227 26.6792 147.88 26.8195C147.535 26.9575 147.136 27.0265 146.684 27.0265Z" fill="#121933"/>
<path d="M66.9898 46.9194H65.3178L69.0747 36.4796H70.8945L74.6515 46.9194H72.9795L70.028 38.3759H69.9464L66.9898 46.9194ZM67.2701 42.8312H72.694V44.1565H67.2701V42.8312ZM76.1803 49.8557V39.0895H77.6688V40.3588H77.7962C77.8846 40.1957 78.012 40.0071 78.1786 39.793C78.3451 39.5789 78.5762 39.392 78.8718 39.2323C79.1675 39.0691 79.5583 38.9876 80.0443 38.9876C80.6764 38.9876 81.2405 39.1473 81.7367 39.4667C82.2328 39.7862 82.622 40.2467 82.904 40.8482C83.1895 41.4497 83.3322 42.1736 83.3322 43.0198C83.3322 43.866 83.1912 44.5915 82.9091 45.1964C82.6271 45.798 82.2396 46.2618 81.7469 46.5881C81.2541 46.9109 80.6917 47.0724 80.0596 47.0724C79.5838 47.0724 79.1947 46.9925 78.8922 46.8328C78.5932 46.673 78.3587 46.4861 78.1887 46.272C78.0188 46.0579 77.888 45.8676 77.7962 45.7011H77.7045V49.8557H76.1803ZM77.6739 43.0045C77.6739 43.555 77.7538 44.0376 77.9135 44.4522C78.0732 44.8668 78.3043 45.1913 78.6068 45.4258C78.9092 45.6569 79.2796 45.7725 79.718 45.7725C80.1734 45.7725 80.554 45.6518 80.8599 45.4105C81.1657 45.1659 81.3968 44.8345 81.5532 44.4165C81.7129 43.9985 81.7927 43.5278 81.7927 43.0045C81.7927 42.4879 81.7146 42.024 81.5583 41.6128C81.4053 41.2016 81.1742 40.8771 80.865 40.6392C80.5591 40.4013 80.1768 40.2824 79.718 40.2824C79.2762 40.2824 78.9024 40.3962 78.5966 40.6239C78.2941 40.8516 78.0647 41.1693 77.9084 41.5771C77.7521 41.985 77.6739 42.4607 77.6739 43.0045ZM85.1835 49.8557V39.0895H86.672V40.3588H86.7994C86.8878 40.1957 87.0152 40.0071 87.1817 39.793C87.3482 39.5789 87.5793 39.392 87.875 39.2323C88.1707 39.0691 88.5615 38.9876 89.0474 38.9876C89.6796 38.9876 90.2437 39.1473 90.7399 39.4667C91.236 39.7862 91.6251 40.2467 91.9072 40.8482C92.1927 41.4497 92.3354 42.1736 92.3354 43.0198C92.3354 43.866 92.1944 44.5915 91.9123 45.1964C91.6302 45.798 91.2428 46.2618 90.75 46.5881C90.2573 46.9109 89.6948 47.0724 89.0627 47.0724C88.587 47.0724 88.1978 46.9925 87.8954 46.8328C87.5963 46.673 87.3618 46.4861 87.1919 46.272C87.022 46.0579 86.8912 45.8676 86.7994 45.7011H86.7077V49.8557H85.1835ZM86.6771 43.0045C86.6771 43.555 86.7569 44.0376 86.9167 44.4522C87.0764 44.8668 87.3075 45.1913 87.6099 45.4258C87.9124 45.6569 88.2828 45.7725 88.7212 45.7725C89.1766 45.7725 89.5572 45.6518 89.8631 45.4105C90.1689 45.1659 90.4 44.8345 90.5563 44.4165C90.7161 43.9985 90.7959 43.5278 90.7959 43.0045C90.7959 42.4879 90.7178 42.024 90.5614 41.6128C90.4085 41.2016 90.1774 40.8771 89.8682 40.6392C89.5623 40.4013 89.18 40.2824 88.7212 40.2824C88.2794 40.2824 87.9056 40.3962 87.5997 40.6239C87.2973 40.8516 87.0679 41.1693 86.9116 41.5771C86.7552 41.985 86.6771 42.4607 86.6771 43.0045ZM103.946 39.2221C103.891 38.7395 103.667 38.3657 103.273 38.1006C102.878 37.8321 102.382 37.6979 101.784 37.6979C101.356 37.6979 100.986 37.7658 100.673 37.9018C100.36 38.0343 100.117 38.2178 99.9439 38.4523C99.774 38.6834 99.689 38.9468 99.689 39.2424C99.689 39.4905 99.7468 39.7046 99.8624 39.8847C99.9813 40.0649 100.136 40.2161 100.326 40.3384C100.52 40.4574 100.727 40.5576 100.948 40.6392C101.169 40.7174 101.381 40.7819 101.585 40.8329L102.605 41.098C102.938 41.1795 103.279 41.29 103.629 41.4293C103.98 41.5687 104.304 41.7522 104.603 41.9799C104.902 42.2076 105.143 42.4896 105.327 42.8261C105.514 43.1625 105.607 43.5652 105.607 44.0342C105.607 44.6255 105.454 45.1506 105.149 45.6094C104.846 46.0681 104.406 46.4301 103.828 46.6951C103.254 46.9602 102.559 47.0928 101.743 47.0928C100.962 47.0928 100.285 46.9687 99.7145 46.7206C99.1436 46.4725 98.6967 46.1208 98.3739 45.6654C98.051 45.2066 97.8726 44.6629 97.8386 44.0342H99.4189C99.4495 44.4114 99.5718 44.7258 99.7859 44.9772C100.003 45.2253 100.28 45.4105 100.617 45.5329C100.957 45.6518 101.329 45.7113 101.733 45.7113C102.178 45.7113 102.574 45.6416 102.921 45.5023C103.271 45.3596 103.546 45.1625 103.747 44.911C103.947 44.6561 104.047 44.3587 104.047 44.0189C104.047 43.7096 103.959 43.4565 103.782 43.2594C103.609 43.0623 103.373 42.8991 103.074 42.77C102.778 42.6408 102.443 42.527 102.07 42.4284L100.836 42.092C100 41.8643 99.3373 41.5296 98.8479 41.0878C98.362 40.646 98.119 40.0615 98.119 39.3342C98.119 38.7327 98.2821 38.2076 98.6084 37.759C98.9346 37.3105 99.3764 36.9621 99.9337 36.714C100.491 36.4626 101.12 36.3368 101.82 36.3368C102.527 36.3368 103.15 36.4609 103.691 36.7089C104.234 36.957 104.663 37.2986 104.975 37.7336C105.288 38.1652 105.451 38.6613 105.465 39.2221H103.946ZM111.166 39.0895V40.3129H106.889V39.0895H111.166ZM108.036 37.2136H109.56V44.6204C109.56 44.9161 109.604 45.1387 109.693 45.2882C109.781 45.4343 109.895 45.5346 110.034 45.589C110.177 45.6399 110.332 45.6654 110.498 45.6654C110.62 45.6654 110.727 45.6569 110.819 45.6399C110.911 45.6229 110.982 45.6094 111.033 45.5992L111.309 46.8583C111.22 46.8922 111.094 46.9262 110.931 46.9602C110.768 46.9976 110.564 47.018 110.32 47.0214C109.919 47.0282 109.545 46.9568 109.198 46.8073C108.852 46.6578 108.571 46.4267 108.357 46.114C108.143 45.8014 108.036 45.4088 108.036 44.9365V37.2136ZM116.209 47.0775C115.475 47.0775 114.835 46.9092 114.288 46.5728C113.741 46.2364 113.316 45.7657 113.013 45.1608C112.711 44.5558 112.56 43.849 112.56 43.0402C112.56 42.2279 112.711 41.5177 113.013 40.9094C113.316 40.3011 113.741 39.8287 114.288 39.4922C114.835 39.1558 115.475 38.9876 116.209 38.9876C116.943 38.9876 117.584 39.1558 118.131 39.4922C118.678 39.8287 119.103 40.3011 119.406 40.9094C119.708 41.5177 119.859 42.2279 119.859 43.0402C119.859 43.849 119.708 44.5558 119.406 45.1608C119.103 45.7657 118.678 46.2364 118.131 46.5728C117.584 46.9092 116.943 47.0775 116.209 47.0775ZM116.215 45.798C116.69 45.798 117.085 45.6722 117.397 45.4207C117.71 45.1693 117.941 44.8345 118.09 44.4165C118.243 43.9985 118.32 43.538 118.32 43.0351C118.32 42.5355 118.243 42.0767 118.09 41.6587C117.941 41.2373 117.71 40.8992 117.397 40.6443C117.085 40.3894 116.69 40.262 116.215 40.262C115.735 40.262 115.338 40.3894 115.022 40.6443C114.709 40.8992 114.476 41.2373 114.323 41.6587C114.174 42.0767 114.099 42.5355 114.099 43.0351C114.099 43.538 114.174 43.9985 114.323 44.4165C114.476 44.8345 114.709 45.1693 115.022 45.4207C115.338 45.6722 115.735 45.798 116.215 45.798ZM121.704 46.9194V39.0895H123.177V40.3333H123.259C123.402 39.9119 123.653 39.5806 124.013 39.3393C124.377 39.0946 124.788 38.9723 125.247 38.9723C125.342 38.9723 125.454 38.9757 125.583 38.9825C125.716 38.9893 125.82 38.9978 125.894 39.008V40.4659C125.833 40.4489 125.725 40.4302 125.568 40.4098C125.412 40.386 125.256 40.3741 125.099 40.3741C124.739 40.3741 124.418 40.4506 124.136 40.6035C123.857 40.753 123.636 40.962 123.473 41.2305C123.31 41.4956 123.228 41.798 123.228 42.1379V46.9194H121.704ZM130.451 47.0775C129.68 47.0775 129.015 46.9126 128.458 46.583C127.904 46.2499 127.476 45.7827 127.173 45.1812C126.874 44.5762 126.725 43.8677 126.725 43.0555C126.725 42.2534 126.874 41.5466 127.173 40.9349C127.476 40.3231 127.897 39.8457 128.438 39.5024C128.981 39.1592 129.617 38.9876 130.344 38.9876C130.786 38.9876 131.214 39.0606 131.629 39.2068C132.043 39.3529 132.415 39.5823 132.745 39.8949C133.075 40.2076 133.335 40.6137 133.525 41.1133C133.715 41.6094 133.811 42.2127 133.811 42.9229V43.4633H127.586V42.3214H132.317C132.317 41.9204 132.235 41.5653 132.072 41.256C131.909 40.9433 131.68 40.697 131.384 40.5168C131.092 40.3367 130.749 40.2467 130.354 40.2467C129.926 40.2467 129.552 40.352 129.233 40.5627C128.917 40.77 128.672 41.0419 128.499 41.3783C128.329 41.7114 128.244 42.0733 128.244 42.4641V43.3562C128.244 43.8796 128.336 44.3248 128.519 44.6918C128.706 45.0588 128.966 45.3392 129.299 45.5329C129.632 45.7232 130.021 45.8184 130.467 45.8184C130.755 45.8184 131.019 45.7776 131.257 45.696C131.495 45.611 131.7 45.4853 131.873 45.3188C132.047 45.1523 132.179 44.9467 132.271 44.702L133.714 44.962C133.598 45.3868 133.391 45.7589 133.092 46.0783C132.796 46.3944 132.424 46.6408 131.975 46.8175C131.53 46.9908 131.022 47.0775 130.451 47.0775Z" fill="#121933"/>
</g>
<defs>
<filter id="filter0_d_3323_987" x="0.364384" y="0.564516" width="175.565" height="69.5808" filterUnits="userSpaceOnUse" color-interpolation-filters="sRGB">
<feFlood flood-opacity="0" result="BackgroundImageFix"/>
<feColorMatrix in="SourceAlpha" type="matrix" values="0 0 0 0 0 0 0 0 0 0 0 0 0 0 0 0 0 0 127 0" result="hardAlpha"/>
<feOffset dy="1.43548"/>
<feGaussianBlur stdDeviation="1.43548"/>
<feColorMatrix type="matrix" values="0 0 0 0 0 0 0 0 0 0 0 0 0 0 0 0 0 0 0.1 0"/>
<feBlend mode="normal" in2="BackgroundImageFix" result="effect1_dropShadow_3323_987"/>
<feBlend mode="normal" in="SourceGraphic" in2="effect1_dropShadow_3323_987" result="shape"/>
</filter>
</defs>
</svg>
