<svg width="788" height="870" viewBox="0 0 788 870" fill="none" xmlns="http://www.w3.org/2000/svg">
<circle cx="398.432" cy="388.597" r="388.597" fill="#8D7EFF"/>
<circle cx="398.433" cy="388.598" r="302.09" fill="#6B5AED"/>
<circle cx="398.433" cy="388.598" r="225.194" fill="#8D7EFF"/>
<path d="M105.594 867.648C105.594 867.648 130.924 838.758 139.531 801.337C148.138 763.917 150.352 761.716 146.417 729.523C142.482 697.331 140.269 668.44 137.809 641.751C135.35 615.062 128.956 580.668 138.301 570.487C147.647 560.307 161.91 544.073 169.041 533.343C176.173 522.612 191.913 504.727 199.29 497.849C206.668 490.97 217.489 480.239 220.685 478.038C223.882 475.836 241.097 456.026 262 463.73C282.903 471.434 301.594 516.833 304.299 523.987C307.004 531.141 323.727 554.253 323.727 554.253C323.727 554.253 325.202 567.186 312.906 569.662C312.906 569.662 319.054 583.144 313.889 597.452C313.889 597.452 319.546 622.215 319.3 633.496C319.054 644.776 314.627 662.936 307.004 673.942C299.38 684.948 295.445 694.304 293.232 697.605C291.018 700.907 285.854 705.86 282.657 707.236C282.657 707.236 287.083 744.381 279.952 772.171C272.82 799.961 271.098 805.739 266.426 810.691C266.426 810.691 266.18 818.946 262.737 822.523C259.294 826.1 252.162 833.804 251.178 838.482C250.195 843.159 244.292 852.79 241.833 857.743C239.374 862.695 238.636 868.198 238.636 868.198L105.594 867.648Z" fill="white"/>
<path d="M223.012 540.7C222.808 541.195 223.101 541.803 223.522 542.078C223.944 542.352 224.453 542.379 224.94 542.405C230.012 542.669 235.059 543.491 239.987 544.856C241.982 545.408 243.975 546.057 245.772 547.171C247.67 548.349 249.496 550.087 251.666 550.003C252.271 548.453 251.611 546.576 250.498 545.43C249.385 544.284 247.91 543.705 246.479 543.155C244.756 542.492 243.032 541.829 241.309 541.167C239.535 540.484 237.753 539.8 235.912 539.398C233.391 538.847 230.811 538.839 228.256 538.99C226.924 539.067 223.743 538.925 223.012 540.7Z" fill="#CCE5FF"/>
<path d="M271.711 688.352C271.392 686.787 271.144 685.21 270.943 683.624C270.865 684.625 270.813 685.617 270.796 686.591C270.796 686.591 264.144 653.225 260.703 643.471C257.262 633.718 259.097 622.682 259.097 622.682C259.097 622.682 260.703 602.405 261.391 597.785C262.079 593.165 265.979 584.952 266.667 581.615C267.355 578.279 268.044 573.145 270.108 571.092C272.173 569.038 273.778 559.028 275.843 552.868C277.908 546.709 280.202 535.158 280.202 535.158C280.202 535.158 280.445 535.639 280.901 536.481C280.891 535.831 280.887 535.181 280.898 534.532C281.077 523.698 284.539 513.199 284.854 502.369C285.019 496.682 281.961 476.568 274.078 478.598C278.091 490.381 281.536 501.523 279.197 514.374C276.696 528.108 267.527 540.631 255.364 543.986C252.536 544.767 249.551 545.083 246.971 546.598C244.392 548.113 242.278 551.333 242.997 554.491C243.396 556.238 244.605 557.792 244.461 559.588C244.133 563.686 238.223 563.291 235.91 566.491C233.564 569.738 236.043 574.366 237.938 577.963C244.187 589.827 243.624 604.597 241.863 618.227C240.102 631.857 237.338 645.752 239.819 659.241C243.106 677.106 255.073 691.456 260.225 708.761C263.694 720.415 263.909 733.252 260.832 745.043C260.034 748.101 259.012 751.312 259.744 754.391C260.476 757.469 263.938 759.901 266.229 758.01C266.888 757.466 267.335 756.668 267.841 755.948C270.753 751.81 276.211 750.202 280.567 752.198C281.417 752.589 282.246 753.101 283.093 753.505C285.154 732.548 283.155 711.891 282.729 707.923C282.606 707.835 282.481 707.75 282.36 707.659C276.609 703.345 273.252 695.906 271.711 688.352Z" fill="#CCE5FF"/>
<path d="M223.388 558.178C223.388 558.178 226.966 566.756 246.696 567.557C246.696 567.557 228.397 572.475 223.388 558.178Z" fill="#A9C2E8"/>
<path d="M245.846 489.865C245.846 489.865 241.235 501.623 247.133 505.822C253.031 510.022 263.004 514.341 270.511 513.981C278.017 513.621 279.626 503.903 280.376 500.783C281.127 497.664 281.663 480.986 267.186 477.387C252.709 473.788 247.455 486.385 245.846 489.865Z" fill="#CCE5FF"/>
<path d="M252.497 508.792L268.106 477.385L271.857 479.416L255.885 510.823L252.497 508.792Z" fill="white"/>
<path d="M258.305 511.094L273.188 479.958L274.276 481.176L258.91 511.772L258.305 511.094Z" fill="white"/>
<path d="M320.698 565.194C320.587 564.776 320.444 564.366 320.258 563.966C318.572 560.337 314.378 559.4 311.46 556.937C309.554 555.328 308.201 553.056 306.884 550.828C302.508 543.423 298.13 536.018 293.754 528.613C290.677 523.407 287.727 518.164 285.609 512.379C285.675 513.14 285.644 513.96 285.466 514.701C283.557 522.641 280.585 530.273 279.37 538.38C277.419 551.407 280.11 564.988 277.483 577.866C275.515 587.515 270.676 596.156 268.33 605.699C266.343 613.783 266.199 622.278 266.292 630.662C266.476 647.397 267.544 664.121 269.489 680.716C270.077 685.735 270.776 690.852 272.871 695.337C275.332 700.607 279.519 704.594 282.866 709.203C282.741 707.935 282.658 707.236 282.658 707.236C284.634 706.386 287.36 704.169 289.678 701.82C288.227 700.405 286.832 698.921 285.539 697.319C281.043 691.752 277.711 684.651 277.657 677.149C277.605 669.892 280.745 662.759 285.728 658.114C289.772 654.343 295.552 650.868 295.274 644.986C295.087 641.048 292.106 638.135 290.011 634.964C284.394 626.462 284.955 614.128 289.785 605.042C294.616 595.955 303.021 589.824 311.902 586.216C313.224 585.679 314.641 585.1 315.941 584.373C315.743 575.892 312.906 569.662 312.906 569.662C316.624 568.914 319.077 567.207 320.698 565.194Z" fill="#CCE5FF"/>
<path d="M207.437 833.221C208.818 822.775 207.647 812.142 206.475 801.663C203.367 773.857 199.332 743.85 181.595 724.066C175.466 717.23 167.542 711.265 165.462 701.866C164.153 695.954 165.468 689.701 164.808 683.654C163.742 673.878 157.755 665.831 153.567 657.168C146.233 641.999 144.294 623.668 148.26 607.003C149.281 602.715 150.665 598.095 149.163 593.989C148.271 591.55 146.395 589.451 146.372 586.816C146.355 584.955 147.286 583.27 148.184 581.703C151.262 576.334 154.34 570.965 157.419 565.596C159.112 562.642 160.824 559.663 163.049 557.191C169.717 549.783 180.937 546.777 183.893 536.797C184.825 533.651 184.739 530.226 185.592 527.054C186.89 522.229 190.201 518.466 193.418 514.94C201.799 505.753 212.394 492.874 219.928 478.605C216.031 481.684 206.165 491.439 199.289 497.85C191.912 504.729 176.172 522.613 169.04 533.344C161.909 544.075 147.646 560.309 138.3 570.489C128.955 580.669 135.349 615.063 137.808 641.752C140.268 668.442 142.481 697.332 146.416 729.524C150.351 761.716 148.137 763.918 139.53 801.338C130.923 838.758 105.593 867.649 105.593 867.649L201.999 868.048C202.297 864.279 202.431 860.467 202.898 856.724C203.888 848.783 206.388 841.154 207.437 833.221Z" fill="#CCE5FF"/>
<path d="M286.589 705.274C286.589 705.274 275.056 698.537 271.168 691.454L271.977 703.171C271.977 703.171 272.498 706.441 275.421 706.908C278.344 707.376 283.249 707.843 286.589 705.274Z" fill="#A9C2E8"/>
<path d="M280.206 535.157C280.206 535.157 296.494 567.497 315.305 568.78C315.305 568.78 310.029 571.09 303.835 569.294C297.641 567.497 278.372 580.844 278.142 590.854C277.913 600.864 274.701 612.67 275.848 618.83C276.996 624.99 290.53 647.833 298.33 649.373C298.33 649.373 287.791 648.887 282.73 642.957C282.73 642.957 284.795 647.834 280.895 652.711C276.996 657.587 271.031 673.5 270.802 686.59C270.802 686.59 264.149 653.224 260.708 643.471C257.267 633.717 259.102 622.681 259.102 622.681C259.102 622.681 260.708 602.404 261.397 597.784C262.085 593.164 265.985 584.951 266.673 581.614C267.361 578.278 268.049 573.144 270.114 571.091C272.179 569.037 273.784 559.028 275.849 552.867C277.912 546.707 280.206 535.157 280.206 535.157Z" fill="#8A9CB8"/>
<path d="M211.574 538.23C209.887 540.516 208.16 542.816 205.988 544.515C201.191 548.27 194.955 548.588 189.101 548.651C188.318 548.66 187.452 548.702 186.888 549.309C185.664 550.624 186.973 552.85 188.234 554.121C190.837 556.742 193.439 559.363 196.041 561.985C197.623 563.578 199.277 565.296 199.861 567.585C200.445 569.875 199.43 572.843 197.332 573.246C196.051 573.492 194.331 572.952 193.728 574.241C193.171 575.429 194.302 576.663 194.888 577.834C196.14 580.332 194.693 583.654 192.487 585.106C190.28 586.558 187.589 586.641 185.03 586.684C178.052 586.803 171.073 586.921 164.095 587.04C170.712 589.713 177.038 593.285 182.889 597.654C184.176 598.614 185.604 600.058 185.236 601.74C184.581 604.737 179.738 603.506 178.445 606.231C180.708 607.836 183.275 608.902 185.926 609.338C185.366 613.13 181.911 615.336 178.908 617.205C170.997 622.128 163.742 628.367 157.455 635.654C161.091 636.631 165.037 636.084 168.351 634.145C168.752 634.987 168.468 636.154 167.739 636.651C168.579 636.435 169.419 636.219 170.259 636.003C168.848 638.589 166.305 640.057 164.104 641.821C161.902 643.586 159.798 646.199 160.058 649.215C161.914 647.672 164.041 646.541 166.282 645.907C165.533 647.789 164.784 649.671 164.036 651.553C166.408 650.195 168.78 648.838 171.152 647.48C171.162 649.421 171.172 651.362 171.182 653.304C183.24 640.029 193.48 624.692 201.437 607.991C205.696 599.051 209.321 589.665 211.384 579.8C213.379 570.252 213.905 560.303 216.78 551.04C218.452 545.651 220.886 540.609 223.15 535.497C226.734 527.407 231.881 517.538 233.174 508.608C231.122 508.891 229.724 512.345 228.588 514.041C226.755 516.779 224.902 519.5 223.031 522.204C219.286 527.612 215.468 532.956 211.574 538.23Z" fill="#A9C2E8"/>
<path d="M170.104 655.856C171.729 652.877 173.466 650.024 175.31 647.231C177.151 644.443 179.115 641.749 181.23 639.193L184.455 635.483C185.515 634.25 186.547 632.992 187.537 631.698C189.531 629.12 191.329 626.373 192.957 623.49C194.592 620.612 196.066 617.606 197.502 614.575L201.827 605.452C204.665 599.365 207.409 593.206 209.383 586.76C209.883 585.153 210.303 583.519 210.664 581.877C210.855 581.057 210.975 580.224 211.135 579.399L211.513 576.865L212.878 566.652C213.819 559.842 214.968 552.955 217.352 546.464C217.631 545.646 217.979 544.859 218.309 544.063C218.638 543.26 218.984 542.516 219.321 541.739C219.993 540.197 220.653 538.646 221.305 537.09C222.605 533.977 223.873 530.844 225.121 527.701C226.369 524.558 227.599 521.404 228.814 518.243L230.625 513.497C231.229 511.92 231.808 510.319 232.457 508.733C233.749 505.577 235.165 502.496 236.688 499.477C238.216 496.462 239.848 493.505 241.697 490.691L242.396 489.646L243.062 488.63L244.353 486.51C245.221 485.085 246.09 483.624 247.128 482.278C248.16 480.938 249.291 479.642 250.632 478.635L251.122 478.242C251.286 478.112 251.47 478.014 251.643 477.899L252.697 477.237C253.059 477.041 253.437 476.883 253.806 476.704C254.18 476.537 254.544 476.336 254.935 476.234C258.004 475.141 261.228 475.008 264.348 475.278C267.448 475.562 270.641 476.249 273.504 477.84C276.391 479.365 278.906 481.743 280.814 484.591C281.781 486.009 282.579 487.557 283.246 489.162C283.91 490.769 284.465 492.432 284.864 494.137C285.689 497.54 286.063 501.053 286.098 504.548C286.151 508.049 285.859 511.536 285.352 514.973C285.102 516.694 284.776 518.397 284.417 520.09C284.036 521.785 283.636 523.442 283.237 525.102C282.443 528.424 281.674 531.755 280.92 535.09C279.397 541.76 278.011 548.458 276.403 555.14C276 556.81 275.556 558.475 275.036 560.136C274.767 560.966 274.483 561.793 274.089 562.618L273.781 563.235L273.502 563.757C273.32 564.107 273.152 564.468 273 564.839C272.37 566.315 272.002 567.964 271.41 569.639C271.112 570.472 270.751 571.314 270.27 572.08C269.794 572.848 269.22 573.536 268.596 574.143L268.594 574.146L268.836 573.67C268.186 577.619 267.301 581.472 266.062 585.248C265.749 586.189 265.412 587.123 265.037 588.044C264.84 588.5 264.667 588.966 264.446 589.413C264.241 589.858 264.001 590.334 263.851 590.729C263.143 592.354 262.736 594.255 262.442 596.155C262.267 597.099 262.18 598.076 262.046 599.035C261.952 600.007 261.838 600.974 261.764 601.952C261.596 603.903 261.468 605.863 261.352 607.83C261.102 611.762 260.911 615.711 260.483 619.686C260.439 620.182 260.359 620.682 260.295 621.18C260.232 621.678 260.162 622.176 260.061 622.678C259.879 623.715 259.693 624.599 259.564 625.539C259.306 627.409 259.279 629.33 259.394 631.248C259.51 633.167 259.727 635.091 260.063 637.001C260.382 638.913 260.777 640.817 261.223 642.711C262.107 646.501 263.163 650.254 264.238 654.004C264.778 655.876 265.343 657.746 265.869 659.65C266.393 661.548 266.891 663.454 267.35 665.371C271.036 680.691 273.016 696.575 272.633 712.465C272.509 716.434 272.251 720.399 271.807 724.34C271.332 728.276 270.704 732.189 269.866 736.046C269.016 739.9 267.965 743.694 266.742 747.412C265.464 751.109 263.996 754.717 262.326 758.197C263.765 754.588 265.105 750.94 266.19 747.194C267.27 743.448 268.209 739.655 268.927 735.808C269.619 731.955 270.183 728.078 270.574 724.175C270.933 720.269 271.167 716.351 271.238 712.425C271.52 696.717 269.498 680.993 265.772 665.853C265.308 663.959 264.807 662.077 264.279 660.206C263.754 658.339 263.18 656.473 262.627 654.59C261.519 650.831 260.477 647.04 259.575 643.189C259.123 641.264 258.72 639.318 258.393 637.35C258.049 635.385 257.822 633.382 257.701 631.363C257.583 629.345 257.61 627.293 257.891 625.258C258.029 624.247 258.248 623.206 258.405 622.306C258.498 621.844 258.565 621.368 258.627 620.888C258.688 620.409 258.766 619.937 258.809 619.45C259.638 611.695 259.612 603.742 260.874 595.831C261.201 593.856 261.617 591.865 262.467 589.941C262.674 589.433 262.873 589.051 263.075 588.62C263.285 588.205 263.454 587.759 263.643 587.328C264.006 586.455 264.337 585.56 264.646 584.654C265.867 581.027 266.773 577.209 267.427 573.401C267.458 573.216 267.541 573.058 267.655 572.94L267.669 572.925L267.672 572.922C268.208 572.397 268.691 571.82 269.092 571.173C269.498 570.529 269.809 569.807 270.082 569.045C270.627 567.521 271.008 565.806 271.704 564.164C271.872 563.755 272.06 563.35 272.265 562.957L272.579 562.371L272.831 561.859C273.163 561.166 273.436 560.382 273.691 559.594C274.189 558.006 274.626 556.37 275.025 554.715C276.619 548.096 278.009 541.373 279.534 534.699C280.289 531.358 281.061 528.021 281.856 524.69C282.256 523.024 282.659 521.357 283.028 519.713C283.38 518.056 283.698 516.39 283.941 514.711C284.436 511.356 284.72 507.96 284.668 504.571C284.634 501.185 284.271 497.804 283.484 494.559C283.104 492.932 282.576 491.356 281.95 489.84C281.321 488.326 280.572 486.873 279.67 485.552C277.888 482.896 275.567 480.701 272.881 479.282C270.208 477.8 267.249 477.153 264.23 476.874C261.232 476.613 258.192 476.753 255.378 477.757C255.016 477.848 254.687 478.035 254.346 478.188C254.009 478.351 253.664 478.493 253.334 478.671L252.376 479.274C252.219 479.379 252.051 479.465 251.902 479.584L251.456 479.945C250.235 480.858 249.193 482.052 248.221 483.312C247.246 484.575 246.403 485.989 245.54 487.406L244.232 489.555L243.533 490.621L242.849 491.644C241.051 494.379 239.441 497.292 237.934 500.266C236.432 503.244 235.03 506.294 233.76 509.399C233.127 510.943 232.551 512.536 231.943 514.124L230.129 518.878C228.912 522.044 227.681 525.203 226.43 528.353C225.179 531.503 223.908 534.645 222.602 537.77C221.947 539.332 221.285 540.891 220.608 542.443C219.923 544.01 219.242 545.509 218.675 547.078C216.368 553.354 215.227 560.125 214.293 566.899C213.824 570.293 213.411 573.705 212.927 577.119L212.545 579.68C212.38 580.537 212.253 581.407 212.056 582.253C211.682 583.952 211.249 585.633 210.738 587.277C208.718 593.872 205.944 600.083 203.095 606.197L198.768 615.325C197.321 618.377 195.832 621.415 194.165 624.35C192.506 627.288 190.657 630.113 188.622 632.743C187.611 634.065 186.561 635.344 185.487 636.593L182.275 640.288C180.208 642.785 178.274 645.436 176.459 648.187C174.645 650.932 172.914 653.778 171.333 656.677L171.324 656.692C171.118 657.07 170.678 657.189 170.341 656.958C170.005 656.727 169.898 656.234 170.104 655.856Z" fill="#121933"/>
<path d="M310.196 570.612C307.294 570.612 302.618 570.16 298.495 567.728C295.101 565.726 290.179 561.325 285.837 557.442C282.023 554.031 278.421 550.81 276.561 549.827C276.203 549.638 276.051 549.161 276.22 548.762C276.389 548.362 276.817 548.193 277.172 548.38C279.183 549.443 282.681 552.571 286.73 556.192C291.023 560.031 295.888 564.382 299.162 566.313C305.173 569.859 312.741 568.878 312.818 568.868C313.208 568.81 313.567 569.127 313.614 569.565C313.662 570.003 313.383 570.403 312.992 570.456C312.874 570.473 311.809 570.612 310.196 570.612Z" fill="#121933"/>
<path d="M296.088 650.146C295.81 650.146 295.524 650.135 295.23 650.109C288.555 649.546 276.775 641.57 274.232 630.831C271.975 621.306 273.407 610.409 274.263 603.899C274.375 603.047 274.476 602.275 274.557 601.597C275.151 596.61 274.96 588.477 274.906 586.63C273.586 585.511 268.193 580.711 266.917 575.953C266.803 575.53 267.017 575.084 267.396 574.957C267.772 574.83 268.173 575.07 268.287 575.493C269.573 580.291 275.964 585.517 276.028 585.569C276.206 585.713 276.315 585.94 276.324 586.186C276.338 586.585 276.661 596.048 275.975 601.809C275.893 602.493 275.79 603.272 275.678 604.132C274.838 610.521 273.433 621.215 275.614 630.422C278.078 640.821 289.784 648.045 295.337 648.514C300.837 648.973 303.247 644.147 303.347 643.941C303.418 643.794 303.529 643.675 303.661 643.602C304.51 642.371 306.164 632.358 307.376 625.021C307.649 623.372 307.922 621.719 308.193 620.113C310.008 609.318 313.171 597.344 313.203 597.225C313.315 596.801 313.713 596.56 314.092 596.686C314.471 596.811 314.687 597.257 314.574 597.681C314.543 597.8 311.4 609.698 309.598 620.409C309.328 622.014 309.056 623.665 308.783 625.313C306.375 639.89 305.523 643.982 304.504 644.898C303.967 645.895 301.364 650.146 296.088 650.146ZM303.837 643.535H303.836H303.837Z" fill="#121933"/>
<path d="M267.716 670.462C267.59 670.462 267.463 670.425 267.347 670.347C267.008 670.118 266.9 669.627 267.103 669.249C267.157 669.15 272.437 659.304 273.654 653.606C274.684 648.79 277.36 646.468 278.586 645.631C277.382 642.206 276.973 637.32 276.956 637.099C276.919 636.659 277.209 636.27 277.603 636.23C278.001 636.194 278.345 636.514 278.38 636.955C278.385 637.01 278.844 642.49 280.148 645.651C280.228 645.845 280.235 646.068 280.168 646.269C280.1 646.469 279.963 646.632 279.787 646.718C279.644 646.79 276.201 648.579 275.047 653.979C273.777 659.919 268.551 669.663 268.329 670.076C268.195 670.324 267.959 670.462 267.716 670.462Z" fill="#121933"/>
<path d="M282.249 708.04C280.331 708.04 273.502 707.826 271.389 704.84L272.511 703.847C274.113 706.111 280.364 706.476 282.644 706.437L282.671 708.037C282.588 708.038 282.444 708.04 282.249 708.04Z" fill="#121933"/>
<path d="M215.316 558.185C214.003 558.578 212.747 558.797 211.452 558.96C210.165 559.121 208.872 559.19 207.582 559.18C205.002 559.166 202.429 558.801 199.935 558.111C197.441 557.417 195.039 556.359 192.792 554.998C190.555 553.615 188.482 551.926 186.616 550C188.561 551.826 190.692 553.394 192.956 554.643C195.23 555.87 197.63 556.781 200.092 557.331C202.554 557.876 205.067 558.097 207.565 557.979C208.813 557.923 210.058 557.791 211.287 557.572C212.507 557.356 213.756 557.062 214.881 556.66L214.913 556.649C215.29 556.515 215.692 556.747 215.812 557.169C215.932 557.59 215.725 558.041 215.348 558.175C215.338 558.179 215.326 558.182 215.316 558.185Z" fill="#121933"/>
<path d="M204.805 599.592C201.472 597.593 197.9 595.907 194.304 594.421C190.697 592.942 187.022 591.643 183.285 590.612C179.55 589.571 175.772 588.691 171.95 588.119C168.135 587.465 164.281 587.184 160.423 586.987C164.282 587.05 168.152 587.199 171.994 587.722C175.844 588.164 179.663 588.916 183.449 589.833C187.239 590.741 190.977 591.921 194.66 593.289C198.347 594.672 201.958 596.224 205.491 598.187C205.845 598.384 205.99 598.865 205.814 599.261C205.637 599.657 205.208 599.818 204.854 599.621C204.848 599.618 204.843 599.615 204.837 599.612L204.805 599.592Z" fill="#121933"/>
<path d="M193.425 624.833C193.465 624.848 193.38 624.821 193.348 624.81C193.311 624.793 193.241 624.788 193.19 624.776C193.082 624.75 192.958 624.739 192.833 624.73C192.591 624.697 192.321 624.721 192.061 624.717C191.797 624.731 191.528 624.768 191.261 624.791C190.992 624.826 190.722 624.885 190.452 624.93C189.911 625.023 189.372 625.186 188.832 625.321C188.296 625.497 187.756 625.654 187.223 625.846C185.082 626.596 183.006 627.618 180.947 628.667C178.899 629.752 176.878 630.914 174.894 632.152C172.9 633.374 170.954 634.691 169.001 636C170.889 634.579 172.773 633.147 174.712 631.807C176.642 630.45 178.614 629.165 180.627 627.951C182.655 626.77 184.704 625.613 186.87 624.711C187.41 624.482 187.963 624.285 188.511 624.07C189.072 623.895 189.626 623.693 190.204 623.556C190.494 623.49 190.78 623.41 191.074 623.355C191.372 623.31 191.666 623.253 191.969 623.219C192.278 623.202 192.577 623.159 192.902 623.181C193.061 623.183 193.221 623.188 193.394 623.217C193.483 623.232 193.556 623.232 193.656 623.26C193.761 623.291 193.818 623.29 193.99 623.364C194.353 623.539 194.52 624.01 194.363 624.415C194.209 624.821 193.788 625.008 193.425 624.833Z" fill="#121933"/>
<path d="M189.535 631.403C187.323 632.023 185.083 632.944 182.929 633.966C180.77 635.004 178.646 636.158 176.6 637.474C174.559 638.794 172.546 640.19 170.643 641.763C169.668 642.516 168.754 643.357 167.82 644.173C166.892 644.997 166.018 645.894 165.112 646.753C165.976 645.846 166.812 644.898 167.704 644.021C168.602 643.152 169.482 642.255 170.426 641.445C172.267 639.757 174.229 638.238 176.232 636.788C178.238 635.343 180.335 634.053 182.484 632.874C184.648 631.704 186.829 630.655 189.188 629.851C189.567 629.721 189.966 629.96 190.082 630.383C190.197 630.807 189.984 631.254 189.606 631.383C189.595 631.386 189.584 631.39 189.574 631.393L189.535 631.403Z" fill="#121933"/>
<path d="M274.893 586.237C274.956 584.258 275.254 582.41 275.713 580.567C276.176 578.739 276.832 576.965 277.724 575.348C278.164 574.538 278.666 573.769 279.231 573.064C279.79 572.355 280.403 571.699 281.076 571.135C282.401 569.971 283.947 569.175 285.533 568.652C283.982 569.302 282.516 570.211 281.304 571.443C280.687 572.042 280.138 572.723 279.645 573.445C279.148 574.164 278.715 574.936 278.346 575.743C277.596 577.35 277.082 579.085 276.755 580.855C276.431 582.613 276.266 584.465 276.323 586.195L276.324 586.236C276.339 586.678 276.03 587.05 275.635 587.066C275.24 587.082 274.908 586.737 274.893 586.295C274.892 586.277 274.892 586.256 274.893 586.237Z" fill="#121933"/>
<path d="M271.588 621.049C268.444 621.049 262.327 620.139 259.493 613.508C259.323 613.11 259.474 612.632 259.83 612.441C260.186 612.25 260.614 612.419 260.784 612.818C262.212 616.157 264.732 618.27 268.274 619.098C270.979 619.731 273.297 619.34 273.319 619.337C273.713 619.268 274.076 619.568 274.136 620.004C274.198 620.44 273.931 620.85 273.542 620.918C273.514 620.923 272.756 621.049 271.588 621.049Z" fill="#121933"/>
<path d="M286.361 705.424C286.311 705.424 286.259 705.418 286.208 705.405C277.258 703.21 270.838 692.352 270.569 691.891C270.419 691.633 270.414 691.301 270.558 691.038C281.455 670.994 288.557 670.81 292.95 672.417C299.177 674.695 298.393 681.013 297.372 684.576C295.32 691.732 287.287 704.542 286.947 705.084C286.81 705.3 286.592 705.424 286.361 705.424ZM272.021 691.428C273.254 693.378 278.846 701.664 286.052 703.719C287.502 701.37 294.233 690.285 296.01 684.087C297.536 678.762 296.357 675.348 292.506 673.939C288.604 672.515 282.249 672.794 272.021 691.428Z" fill="#121933"/>
<path d="M303.978 645.121C303.738 645.121 303.514 644.987 303.381 644.763C301.588 641.733 289.501 630.455 289.378 630.341C289.202 630.177 289.106 629.926 289.122 629.669C289.153 629.209 289.912 618.37 295.251 613.705C300.194 609.387 303.695 607.967 305.954 609.357C307.93 610.575 308.658 613.753 308.183 619.072C307.77 623.696 307.52 627.31 307.32 630.214C306.896 636.36 306.683 639.445 305.6 642.637C305.589 642.671 305.576 642.703 305.56 642.734L304.606 644.702C304.486 644.949 304.259 645.107 304.009 645.12C303.998 645.121 303.988 645.121 303.978 645.121ZM290.585 629.382C292.321 631.009 300.949 639.141 303.866 642.874L304.28 642.02C305.275 639.059 305.483 636.051 305.894 630.092C306.095 627.18 306.345 623.555 306.761 618.914C307.161 614.43 306.644 611.611 305.265 610.76C303.633 609.752 300.39 611.25 296.133 614.967C291.831 618.725 290.772 627.412 290.585 629.382Z" fill="#121933"/>
<path d="M269.641 514.801C262.265 514.801 252.669 510.711 246.75 506.498C240.407 501.981 244.994 490.049 245.193 489.543C245.199 489.527 245.205 489.512 245.213 489.497L245.37 489.155C247.2 485.155 252.766 472.983 267.344 476.606C272.384 477.859 276.165 480.758 278.582 485.223C281.836 491.234 281.652 498.568 281.069 500.991C281.016 501.216 280.956 501.475 280.892 501.764C280.036 505.551 278.033 514.422 270.543 514.781C270.246 514.794 269.945 514.801 269.641 514.801ZM246.495 490.206C246.291 490.743 242.315 501.443 247.517 505.147C253.492 509.4 263.286 513.523 270.481 513.181C276.906 512.873 278.66 505.104 279.504 501.371C279.571 501.073 279.631 500.806 279.687 500.575C280.141 498.686 280.434 491.735 277.357 486.052C275.15 481.976 271.676 479.323 267.032 478.168C253.542 474.813 248.348 486.156 246.642 489.884L246.495 490.206Z" fill="#121933"/>
<path d="M320.058 555.608C316.05 555.608 313.287 553.759 313.139 553.658C313.031 553.583 312.941 553.478 312.881 553.353C312.823 553.231 307.035 541.088 304.579 533.202C303.229 528.868 302.971 526.2 303.79 525.043C304.133 524.559 304.591 524.429 304.901 524.463C305.153 524.493 305.372 524.67 305.477 524.928C307.033 528.758 324.119 553.516 324.291 553.765C324.438 553.977 324.48 554.256 324.403 554.509C324.327 554.762 324.143 554.956 323.913 555.026C322.543 555.445 321.246 555.608 320.058 555.608ZM314.044 552.391C314.804 552.844 318.183 554.644 322.476 553.754C319.474 549.39 307.777 532.31 304.759 526.774C304.719 527.612 304.885 529.32 305.93 532.675C308.175 539.883 313.274 550.761 314.044 552.391Z" fill="#121933"/>
<path d="M221.99 556.066C222.737 557.247 223.621 558.299 224.525 559.311C225.438 560.314 226.417 561.235 227.454 562.056C228.496 562.866 229.589 563.591 230.747 564.158C231.91 564.717 233.117 565.086 234.38 565.392C236.885 566.013 239.427 566.436 241.987 566.76C244.548 567.075 247.132 567.337 249.668 567.906C247.1 567.582 244.524 567.491 241.945 567.272C239.365 567.078 236.781 566.722 234.238 566.126C232.978 565.831 231.682 565.45 230.469 564.871C229.267 564.261 228.129 563.508 227.085 562.618C225.003 560.841 223.229 558.613 221.99 556.066Z" fill="#121933"/>
<path d="M223.97 540.061C225.875 539.285 227.91 538.946 229.939 538.77C230.957 538.687 231.978 538.686 233.002 538.703C233.513 538.723 234.023 538.76 234.533 538.799C235.042 538.858 235.553 538.9 236.061 538.973C238.096 539.244 240.103 539.751 242.071 540.399C244.027 541.089 245.94 541.929 247.786 542.924C249.632 543.923 251.396 545.092 253.1 546.352C253.929 547.021 254.783 547.648 255.576 548.367L256.779 549.423L257.932 550.545C260.993 553.547 263.73 556.933 266.068 560.62C263.241 557.394 260.307 554.328 257.159 551.589L255.976 550.569L254.762 549.599C253.967 548.929 253.116 548.354 252.292 547.736C250.598 546.583 248.898 545.439 247.101 544.51C243.54 542.589 239.769 541.155 235.872 540.361C233.924 539.961 231.946 539.719 229.956 539.659C227.966 539.585 225.96 539.682 223.97 540.061Z" fill="#121933"/>
<path d="M186.447 802.715C188.172 804.073 189.956 805.331 191.761 806.546C193.565 807.761 195.391 808.933 197.25 810.034C200.972 812.218 204.768 814.251 208.699 815.872C212.618 817.515 216.645 818.841 220.751 819.566C224.847 820.316 229.033 820.435 233.084 819.623L233.098 819.62C233.487 819.542 233.859 819.832 233.928 820.267C233.997 820.7 233.742 821.114 233.356 821.195C231.229 821.641 229.071 821.84 226.918 821.828C224.764 821.804 222.628 821.522 220.517 821.133C218.404 820.741 216.337 820.125 214.294 819.449C212.252 818.77 210.25 817.954 208.287 817.047C206.321 816.148 204.394 815.151 202.501 814.085C200.606 813.025 198.745 811.891 196.925 810.684C193.28 808.279 189.761 805.64 186.447 802.715Z" fill="#121933"/>
<path d="M238.637 869.8C238.635 869.8 238.633 869.8 238.631 869.8L105.587 869.249C105.012 869.247 104.494 868.859 104.272 868.265C104.05 867.672 104.168 866.987 104.571 866.527C104.822 866.241 129.737 837.491 138.144 800.939C139.245 796.152 140.248 791.913 141.133 788.173C147.141 762.786 148.391 757.503 144.998 729.74C141.986 705.093 140.013 682.742 138.105 661.127C137.518 654.475 136.964 648.192 136.385 641.916C135.918 636.848 135.293 631.37 134.69 626.073C132.003 602.507 129.226 578.138 137.301 569.341C143.872 562.183 160.006 544.253 167.892 532.387C175.342 521.178 191.27 503.241 198.373 496.619C200.662 494.485 203.332 491.932 205.914 489.464C211.943 483.7 217.637 478.256 219.934 476.674C220.298 476.424 221.036 475.758 221.889 474.987C227.853 469.602 243.696 455.3 262.446 462.209C271.584 465.578 281.249 476.002 291.174 493.197C299.867 508.256 305.384 522.754 305.615 523.364C308.211 530.23 324.671 553.017 324.837 553.246C325.004 553.477 325.111 553.756 325.145 554.051C325.161 554.189 326.506 567.245 314.913 570.796C316.426 575.044 319.398 585.924 315.389 597.56C316.215 601.245 320.961 622.926 320.729 633.536C320.476 645.151 315.976 663.603 308.134 674.924C303.143 682.128 299.81 688.506 297.375 693.164C296.144 695.518 295.173 697.378 294.376 698.567C292.268 701.711 287.639 706.269 284.202 708.212C284.875 714.822 287.742 747.615 281.327 772.613C274.208 800.354 272.404 806.335 267.821 811.408C267.679 813.559 266.978 820.303 263.711 823.697C254.857 832.895 252.931 837.139 252.571 838.849C251.816 842.441 248.624 848.271 245.809 853.414C244.761 855.328 243.772 857.135 243.084 858.521C240.787 863.146 240.058 868.385 240.051 868.437C239.945 869.22 239.343 869.8 238.637 869.8ZM108.836 866.061L237.452 866.593C237.837 864.576 238.753 860.651 240.584 856.966C241.301 855.521 242.305 853.686 243.369 851.742C245.939 847.049 249.136 841.208 249.786 838.117C250.568 834.396 254.487 828.912 261.764 821.352C264.22 818.799 264.93 812.753 264.996 810.638C265.009 810.219 265.17 809.82 265.443 809.531C269.81 804.901 271.431 799.575 278.577 771.731C285.542 744.592 281.283 707.817 281.239 707.448C281.152 706.714 281.526 706.009 282.144 705.743C285.055 704.491 290.044 699.694 292.088 696.646C292.786 695.604 293.722 693.814 294.907 691.548C297.241 687.082 300.768 680.334 305.873 672.964C313.07 662.575 317.625 644.719 317.87 633.459C318.108 622.525 312.56 598.095 312.504 597.85C312.429 597.519 312.449 597.17 312.564 596.854C317.411 583.425 311.689 570.518 311.631 570.389C311.427 569.938 311.425 569.404 311.626 568.952C311.828 568.499 312.208 568.178 312.653 568.088C322.418 566.122 322.467 557.006 322.343 554.885C320.085 551.75 305.573 531.467 302.982 524.613C302.788 524.1 283.353 473.287 261.553 465.252C244.283 458.888 229.32 472.394 223.689 477.48C222.682 478.389 221.955 479.045 221.435 479.403C219.328 480.854 213.455 486.469 207.775 491.899C205.186 494.374 202.509 496.933 200.206 499.081C193.209 505.605 177.522 523.267 170.19 534.3C162.181 546.351 145.92 564.425 139.299 571.637C132.247 579.32 135.054 603.944 137.53 625.67C138.136 630.986 138.762 636.483 139.233 641.589C139.812 647.871 140.366 654.159 140.954 660.815C142.859 682.4 144.829 704.721 147.835 729.309C151.306 757.705 150.03 763.095 143.902 788.995C143.017 792.73 142.016 796.963 140.917 801.738C133.817 832.595 115.258 857.964 108.836 866.061Z" fill="#121933"/>
<path d="M258.113 733.87C258.03 735.572 257.878 737.273 257.574 738.944C256.886 742.739 255.438 746.3 254.001 749.823C253.599 750.81 253.131 751.875 252.254 752.341C250.828 753.099 249.175 751.864 248.234 750.445C246.493 747.818 245.874 744.438 245.891 741.167C245.907 737.896 246.507 734.67 246.982 731.443C247.8 725.885 248.238 720.097 246.824 714.692C246.338 712.832 245.635 711.031 245.382 709.115C245.129 707.198 245.405 705.061 246.626 703.687C251.509 698.194 254.75 710.201 255.66 713.303C257.601 719.911 258.451 726.922 258.113 733.87Z" fill="#CCE5FF"/>
<path d="M261.682 768.81C262.15 769.646 263.046 770.033 263.895 770.297C265.343 770.748 266.839 770.999 268.341 771.044C269.278 771.072 270.233 771.017 271.119 770.674C272.334 770.204 273.344 769.222 274.171 768.12C275.84 765.902 277.454 762.539 276.408 759.616C275.582 757.307 273.795 756.306 271.689 756.864C268.629 757.678 259.169 764.317 261.682 768.81Z" fill="#CCE5FF"/>
<path d="M267.812 782.682C268.535 782.874 269.283 783.008 270.021 782.908C274.375 782.317 274.602 774.16 269.996 774.191C265.951 774.218 262.45 781.261 267.812 782.682Z" fill="#CCE5FF"/>
<path d="M161.929 619.234C160.702 620.085 159.519 621.012 158.336 621.937C158.182 620.585 158.685 619.215 159.461 618.163C160.237 617.111 161.266 616.334 162.314 615.637C167.254 612.347 172.948 610.489 178.694 610.294C179.441 610.268 179.816 610.733 179.278 611.384C178.957 611.772 177.806 611.667 177.369 611.777C175.596 612.223 173.803 613.143 172.103 613.855C168.587 615.328 165.126 617.015 161.929 619.234Z" fill="#A9C2E8"/>
<path d="M171.66 595.953C170.597 595.592 169.52 595.227 168.409 595.176C166.876 595.105 165.328 595.66 164.116 596.712C164.805 596.113 169.619 597.802 170.592 597.995C172.802 598.434 175.013 598.87 177.223 599.309C179.258 599.713 181.091 599.232 178.213 598.184C176.043 597.393 173.843 596.696 171.66 595.953Z" fill="#A9C2E8"/>
<path d="M191.827 578.523C191.732 578.329 191.577 578.179 191.408 578.063C190.636 577.53 189.622 577.677 188.798 578.099C187.973 578.521 187.267 579.184 186.486 579.699C184.935 580.72 183.073 581.14 181.289 580.87C180.269 580.716 178.894 580.244 178.072 581.226C177.343 582.099 177.648 582.883 178.428 583.491C179.6 584.407 182.112 584.66 183.529 584.569C185.297 584.455 193.41 581.766 191.827 578.523Z" fill="#A9C2E8"/>
<mask id="mask0_3334_12203" style="mask-type:luminance" maskUnits="userSpaceOnUse" x="189" y="224" width="189" height="294">
<path d="M189.414 224.985V517.921H229.732C232.696 510.128 235.754 502.29 236.759 500.414C238.903 496.417 248.764 474.831 259.482 475.631C270.201 476.43 285.349 479.468 285.492 504.572C285.492 504.572 284.918 510.54 283.771 517.921H377.828V224.985H189.414Z" fill="white"/>
</mask>
<g mask="url(#mask0_3334_12203)">
<path d="M361.985 240.362H200.731V507.776H361.985V240.362Z" fill="white"/>
<path d="M361.983 240.362V507.776H200.729V240.362H361.983ZM361.983 234.542H200.729C197.856 234.542 195.527 237.147 195.527 240.362V507.776C195.527 510.991 197.856 513.596 200.729 513.596H361.983C364.856 513.596 367.185 510.99 367.185 507.776V240.362C367.185 237.148 364.855 234.542 361.983 234.542Z" fill="#121933"/>
<path d="M252.949 390.885H198.7V409.046H252.949V390.885Z" fill="#121933"/>
<path d="M364.011 390.885H309.762V409.046H364.011V390.885Z" fill="#121933"/>
<path d="M362.09 432.462H200.624V469.739H362.09V432.462Z" fill="#121933"/>
<path fill-rule="evenodd" clip-rule="evenodd" d="M305.387 498.06H257.324C257.046 498.06 256.819 497.807 256.819 497.496C256.819 497.185 257.046 496.932 257.324 496.932H305.387C305.665 496.932 305.892 497.185 305.892 497.496C305.892 497.807 305.665 498.06 305.387 498.06Z" fill="#121933"/>
<path d="M219.731 317.067C219.939 316.933 220.01 316.636 219.89 316.405C219.77 316.173 219.505 316.093 219.298 316.227L195.698 331.472C195.695 331.474 195.693 331.477 195.691 331.479L196.554 332.039L219.731 317.067Z" fill="#121933"/>
<path d="M219.732 321.288C219.939 321.154 220.011 320.857 219.891 320.625C219.771 320.393 219.506 320.314 219.299 320.448L198.951 333.592L199.817 334.153L219.732 321.288Z" fill="#121933"/>
<path d="M219.732 325.51C219.939 325.376 220.011 325.079 219.891 324.848C219.771 324.616 219.506 324.537 219.299 324.67L202.213 335.707L203.079 336.268L219.732 325.51Z" fill="#121933"/>
<path d="M219.732 329.73C219.939 329.596 220.01 329.299 219.891 329.068C219.771 328.836 219.506 328.757 219.299 328.89L205.473 337.82L206.339 338.382L219.732 329.73Z" fill="#121933"/>
<path d="M219.734 333.948C219.941 333.814 220.012 333.517 219.893 333.286C219.773 333.053 219.508 332.974 219.301 333.108L208.737 339.931L209.603 340.493L219.734 333.948Z" fill="#121933"/>
<path d="M219.733 338.171C219.94 338.036 220.011 337.74 219.892 337.508C219.772 337.276 219.507 337.197 219.3 337.331L211.998 342.047L212.863 342.609L219.733 338.171Z" fill="#121933"/>
<path d="M219.733 342.391C219.94 342.257 220.011 341.96 219.892 341.729C219.772 341.497 219.507 341.418 219.3 341.551L215.259 344.161L216.125 344.722L219.733 342.391Z" fill="#121933"/>
<path d="M195.904 302.241C195.697 302.107 195.626 301.81 195.745 301.578C195.865 301.347 196.13 301.267 196.337 301.401L219.937 316.645C219.94 316.648 219.942 316.651 219.945 316.653L219.081 317.213L195.904 302.241Z" fill="#121933"/>
<path d="M195.904 306.462C195.697 306.327 195.626 306.031 195.745 305.799C195.865 305.567 196.13 305.488 196.337 305.622L216.685 318.765L215.819 319.327L195.904 306.462Z" fill="#121933"/>
<path d="M195.904 310.684C195.697 310.55 195.626 310.253 195.745 310.021C195.865 309.79 196.13 309.711 196.337 309.844L213.423 320.881L212.558 321.442L195.904 310.684Z" fill="#121933"/>
<path d="M195.904 314.902C195.697 314.768 195.626 314.471 195.745 314.24C195.865 314.007 196.13 313.928 196.337 314.062L210.162 322.992L209.297 323.554L195.904 314.902Z" fill="#121933"/>
<path d="M195.904 319.122C195.697 318.988 195.626 318.691 195.745 318.459C195.865 318.227 196.13 318.148 196.337 318.282L206.901 325.105L206.035 325.667L195.904 319.122Z" fill="#121933"/>
<path d="M195.904 323.345C195.697 323.21 195.626 322.914 195.745 322.682C195.865 322.45 196.13 322.371 196.337 322.504L203.639 327.221L202.773 327.782L195.904 323.345Z" fill="#121933"/>
<path d="M195.904 327.565C195.697 327.431 195.626 327.134 195.745 326.903C195.865 326.671 196.13 326.591 196.337 326.725L200.378 329.335L199.512 329.896L195.904 327.565Z" fill="#121933"/>
<path d="M219.731 287.328C219.939 287.194 220.01 286.897 219.89 286.665C219.77 286.434 219.505 286.354 219.298 286.488L195.698 301.732C195.695 301.735 195.693 301.738 195.691 301.74L196.554 302.3L219.731 287.328Z" fill="#121933"/>
<path d="M219.732 291.55C219.939 291.415 220.011 291.119 219.891 290.887C219.771 290.655 219.506 290.576 219.299 290.709L198.951 303.853L199.817 304.415L219.732 291.55Z" fill="#121933"/>
<path d="M219.732 295.771C219.939 295.637 220.01 295.34 219.891 295.108C219.771 294.877 219.506 294.798 219.299 294.931L202.213 305.968L203.078 306.529L219.732 295.771Z" fill="#121933"/>
<path d="M219.732 299.989C219.939 299.855 220.01 299.558 219.891 299.327C219.771 299.094 219.506 299.015 219.299 299.149L205.473 308.079L206.339 308.64L219.732 299.989Z" fill="#121933"/>
<path d="M219.734 304.209C219.941 304.075 220.012 303.778 219.893 303.546C219.773 303.314 219.508 303.235 219.301 303.369L208.737 310.192L209.603 310.753L219.734 304.209Z" fill="#121933"/>
<path d="M219.733 308.431C219.94 308.297 220.011 308.001 219.892 307.769C219.772 307.537 219.507 307.458 219.3 307.591L211.998 312.308L212.863 312.869L219.733 308.431Z" fill="#121933"/>
<path d="M219.732 312.652C219.939 312.518 220.01 312.221 219.89 311.99C219.77 311.758 219.505 311.678 219.298 311.812L215.258 314.422L216.124 314.982L219.732 312.652Z" fill="#121933"/>
<path d="M219.731 257.46C219.939 257.325 220.01 257.029 219.89 256.797C219.77 256.566 219.505 256.486 219.298 256.619L195.698 271.864C195.695 271.866 195.693 271.869 195.691 271.872L196.554 272.431L219.731 257.46Z" fill="#121933"/>
<path d="M219.732 261.681C219.939 261.547 220.011 261.251 219.891 261.019C219.771 260.787 219.506 260.708 219.299 260.841L198.951 273.985L199.817 274.546L219.732 261.681Z" fill="#121933"/>
<path d="M219.732 265.903C219.939 265.768 220.01 265.472 219.891 265.24C219.771 265.009 219.506 264.93 219.299 265.062L202.213 276.1L203.078 276.661L219.732 265.903Z" fill="#121933"/>
<path d="M219.732 270.121C219.939 269.987 220.01 269.69 219.891 269.458C219.771 269.226 219.506 269.147 219.299 269.281L205.473 278.211L206.339 278.772L219.732 270.121Z" fill="#121933"/>
<path d="M219.734 274.341C219.941 274.206 220.012 273.91 219.893 273.678C219.773 273.446 219.508 273.367 219.301 273.5L208.737 280.324L209.603 280.885L219.734 274.341Z" fill="#121933"/>
<path d="M219.733 278.563C219.94 278.429 220.011 278.133 219.892 277.901C219.772 277.669 219.507 277.59 219.3 277.723L211.998 282.44L212.863 283.001L219.733 278.563Z" fill="#121933"/>
<path d="M219.732 282.784C219.939 282.65 220.01 282.353 219.89 282.121C219.77 281.89 219.505 281.81 219.298 281.944L215.258 284.554L216.124 285.115L219.732 282.784Z" fill="#121933"/>
<path d="M195.904 272.503C195.697 272.368 195.626 272.072 195.745 271.84C195.865 271.609 196.13 271.529 196.337 271.662L219.937 286.907C219.94 286.909 219.942 286.912 219.945 286.915L219.081 287.474L195.904 272.503Z" fill="#121933"/>
<path d="M195.904 276.723C195.697 276.589 195.626 276.293 195.745 276.061C195.865 275.829 196.13 275.75 196.337 275.883L216.685 289.027L215.819 289.588L195.904 276.723Z" fill="#121933"/>
<path d="M195.904 280.943C195.697 280.808 195.626 280.512 195.745 280.28C195.865 280.049 196.13 279.97 196.337 280.102L213.423 291.14L212.558 291.701L195.904 280.943Z" fill="#121933"/>
<path d="M195.904 285.164C195.697 285.03 195.626 284.733 195.745 284.501C195.865 284.269 196.13 284.19 196.337 284.324L210.162 293.254L209.297 293.815L195.904 285.164Z" fill="#121933"/>
<path d="M195.904 289.384C195.697 289.249 195.626 288.953 195.745 288.721C195.865 288.489 196.13 288.41 196.337 288.543L206.901 295.367L206.035 295.928L195.904 289.384Z" fill="#121933"/>
<path d="M195.904 293.606C195.697 293.472 195.626 293.175 195.745 292.944C195.865 292.711 196.13 292.633 196.337 292.766L203.639 297.483L202.773 298.044L195.904 293.606Z" fill="#121933"/>
<path d="M195.904 297.827C195.697 297.693 195.626 297.396 195.745 297.164C195.865 296.933 196.13 296.853 196.337 296.987L200.378 299.596L199.512 300.158L195.904 297.827Z" fill="#121933"/>
<path d="M195.904 242.637C195.697 242.503 195.626 242.206 195.745 241.975C195.865 241.743 196.13 241.663 196.337 241.798L219.937 257.042C219.94 257.045 219.942 257.048 219.945 257.05L219.081 257.61L195.904 242.637Z" fill="#121933"/>
<path d="M195.904 246.858C195.697 246.724 195.626 246.427 195.745 246.196C195.865 245.963 196.13 245.885 196.337 246.018L216.685 259.162L215.819 259.723L195.904 246.858Z" fill="#121933"/>
<path d="M195.904 251.08C195.697 250.946 195.626 250.649 195.745 250.418C195.865 250.186 196.13 250.107 196.337 250.241L213.423 261.278L212.558 261.839L195.904 251.08Z" fill="#121933"/>
<path d="M195.904 255.299C195.697 255.164 195.626 254.868 195.745 254.636C195.865 254.404 196.13 254.325 196.337 254.458L210.162 263.389L209.297 263.95L195.904 255.299Z" fill="#121933"/>
<path d="M195.904 259.518C195.697 259.384 195.626 259.088 195.745 258.856C195.865 258.624 196.13 258.545 196.337 258.678L206.901 265.502L206.035 266.063L195.904 259.518Z" fill="#121933"/>
<path d="M195.904 263.741C195.697 263.607 195.626 263.31 195.745 263.078C195.865 262.846 196.13 262.767 196.337 262.901L203.639 267.618L202.773 268.179L195.904 263.741Z" fill="#121933"/>
<path d="M195.904 267.962C195.697 267.827 195.626 267.531 195.745 267.299C195.865 267.068 196.13 266.988 196.337 267.121L200.378 269.731L199.512 270.293L195.904 267.962Z" fill="#121933"/>
<path d="M367.004 418.672C367.212 418.537 367.282 418.241 367.162 418.009C367.042 417.777 366.777 417.698 366.57 417.831L342.97 433.076C342.967 433.078 342.965 433.081 342.962 433.083L343.826 433.643L367.004 418.672Z" fill="#121933"/>
<path d="M367.005 422.893C367.212 422.759 367.283 422.463 367.163 422.231C367.043 421.999 366.778 421.92 366.571 422.053L346.223 435.197L347.089 435.758L367.005 422.893Z" fill="#121933"/>
<path d="M367.005 427.114C367.212 426.98 367.283 426.684 367.163 426.452C367.043 426.22 366.778 426.141 366.571 426.275L349.485 437.312L350.35 437.873L367.005 427.114Z" fill="#121933"/>
<path d="M367.004 431.333C367.212 431.199 367.282 430.902 367.162 430.67C367.042 430.438 366.777 430.359 366.57 430.493L352.745 439.423L353.611 439.984L367.004 431.333Z" fill="#121933"/>
<path d="M367.003 435.553C367.211 435.419 367.281 435.123 367.161 434.891C367.041 434.659 366.776 434.58 366.569 434.714L356.006 441.537L356.871 442.099L367.003 435.553Z" fill="#121933"/>
<path d="M367.002 439.775C367.21 439.641 367.28 439.344 367.16 439.113C367.04 438.88 366.775 438.801 366.568 438.935L359.266 443.652L360.132 444.213L367.002 439.775Z" fill="#121933"/>
<path d="M367.005 443.996C367.212 443.861 367.283 443.565 367.163 443.333C367.043 443.101 366.778 443.022 366.571 443.156L362.53 445.766L363.395 446.327L367.005 443.996Z" fill="#121933"/>
<path d="M367.004 388.806C367.212 388.672 367.282 388.376 367.162 388.144C367.042 387.912 366.777 387.833 366.57 387.966L342.97 403.211C342.967 403.213 342.965 403.216 342.962 403.218L343.826 403.778L367.004 388.806Z" fill="#121933"/>
<path d="M367.005 393.029C367.212 392.895 367.283 392.598 367.163 392.367C367.043 392.134 366.778 392.055 366.571 392.189L346.223 405.333L347.089 405.894L367.005 393.029Z" fill="#121933"/>
<path d="M367.005 397.249C367.212 397.115 367.283 396.819 367.163 396.587C367.043 396.355 366.778 396.276 366.571 396.409L349.485 407.446L350.35 408.008L367.005 397.249Z" fill="#121933"/>
<path d="M367.004 401.47C367.212 401.335 367.282 401.039 367.162 400.807C367.042 400.575 366.777 400.496 366.57 400.629L352.745 409.56L353.611 410.12L367.004 401.47Z" fill="#121933"/>
<path d="M367.003 405.689C367.211 405.555 367.281 405.258 367.161 405.027C367.041 404.794 366.776 404.716 366.569 404.849L356.006 411.673L356.871 412.234L367.003 405.689Z" fill="#121933"/>
<path d="M367.002 409.91C367.21 409.776 367.28 409.479 367.16 409.248C367.04 409.015 366.775 408.936 366.568 409.07L359.266 413.786L360.132 414.348L367.002 409.91Z" fill="#121933"/>
<path d="M367.005 414.131C367.212 413.996 367.283 413.7 367.163 413.468C367.043 413.236 366.778 413.157 366.571 413.29L362.53 415.9L363.395 416.462L367.005 414.131Z" fill="#121933"/>
<path d="M343.179 403.846C342.972 403.712 342.901 403.416 343.021 403.184C343.141 402.952 343.406 402.873 343.613 403.006L367.213 418.251C367.216 418.253 367.218 418.256 367.22 418.258L366.357 418.817L343.179 403.846Z" fill="#121933"/>
<path d="M343.179 408.068C342.972 407.934 342.901 407.637 343.021 407.406C343.141 407.173 343.406 407.094 343.613 407.229L363.961 420.372L363.095 420.934L343.179 408.068Z" fill="#121933"/>
<path d="M343.179 412.289C342.972 412.155 342.901 411.859 343.021 411.627C343.141 411.395 343.406 411.316 343.613 411.449L360.699 422.486L359.833 423.048L343.179 412.289Z" fill="#121933"/>
<path d="M343.179 416.507C342.972 416.373 342.901 416.077 343.021 415.845C343.141 415.613 343.406 415.534 343.613 415.668L357.438 424.598L356.572 425.159L343.179 416.507Z" fill="#121933"/>
<path d="M343.179 420.728C342.972 420.594 342.901 420.298 343.021 420.066C343.141 419.834 343.406 419.755 343.613 419.888L354.176 426.712L353.311 427.273L343.179 420.728Z" fill="#121933"/>
<path d="M343.179 424.95C342.972 424.816 342.901 424.519 343.021 424.287C343.141 424.055 343.406 423.976 343.613 424.11L350.915 428.827L350.049 429.388L343.179 424.95Z" fill="#121933"/>
<path d="M343.179 429.171C342.972 429.036 342.901 428.74 343.021 428.508C343.141 428.277 343.406 428.197 343.613 428.33L347.653 430.94L346.787 431.502L343.179 429.171Z" fill="#121933"/>
<path d="M343.179 373.982C342.972 373.848 342.901 373.551 343.021 373.32C343.141 373.088 343.406 373.008 343.613 373.142L367.213 388.387C367.216 388.389 367.218 388.392 367.22 388.394L366.357 388.954L343.179 373.982Z" fill="#121933"/>
<path d="M343.179 378.204C342.972 378.07 342.901 377.773 343.021 377.542C343.141 377.309 343.406 377.23 343.613 377.364L363.961 390.508L363.095 391.069L343.179 378.204Z" fill="#121933"/>
<path d="M343.179 382.425C342.972 382.291 342.901 381.995 343.021 381.763C343.141 381.531 343.406 381.452 343.613 381.585L360.699 392.622L359.833 393.184L343.179 382.425Z" fill="#121933"/>
<path d="M343.179 386.643C342.972 386.509 342.901 386.213 343.021 385.981C343.141 385.749 343.406 385.67 343.613 385.803L357.438 394.733L356.572 395.295L343.179 386.643Z" fill="#121933"/>
<path d="M343.179 390.864C342.972 390.73 342.901 390.433 343.021 390.202C343.141 389.969 343.406 389.89 343.613 390.024L354.176 396.847L353.311 397.409L343.179 390.864Z" fill="#121933"/>
<path d="M343.179 395.086C342.972 394.952 342.901 394.655 343.021 394.423C343.141 394.191 343.406 394.112 343.613 394.246L350.915 398.962L350.049 399.524L343.179 395.086Z" fill="#121933"/>
<path d="M343.179 399.306C342.972 399.172 342.901 398.876 343.021 398.644C343.141 398.412 343.406 398.333 343.613 398.466L347.653 401.076L346.787 401.637L343.179 399.306Z" fill="#121933"/>
<path d="M367.004 359.068C367.212 358.934 367.282 358.637 367.162 358.406C367.042 358.174 366.777 358.094 366.57 358.228L342.97 373.473C342.967 373.475 342.965 373.478 342.962 373.48L343.826 374.04L367.004 359.068Z" fill="#121933"/>
<path d="M367.005 363.289C367.212 363.155 367.283 362.858 367.163 362.626C367.043 362.394 366.778 362.315 366.571 362.449L346.223 375.593L347.089 376.154L367.005 363.289Z" fill="#121933"/>
<path d="M367.005 367.511C367.212 367.377 367.283 367.08 367.163 366.849C367.043 366.617 366.778 366.538 366.571 366.671L349.485 377.708L350.35 378.269L367.005 367.511Z" fill="#121933"/>
<path d="M367.004 371.729C367.212 371.595 367.282 371.299 367.162 371.067C367.042 370.835 366.777 370.756 366.57 370.889L352.745 379.819L353.611 380.38L367.004 371.729Z" fill="#121933"/>
<path d="M367.003 375.949C367.211 375.815 367.281 375.518 367.161 375.287C367.041 375.054 366.776 374.975 366.569 375.109L356.006 381.932L356.871 382.494L367.003 375.949Z" fill="#121933"/>
<path d="M367.002 380.172C367.21 380.037 367.28 379.741 367.16 379.509C367.04 379.277 366.775 379.198 366.568 379.331L359.266 384.048L360.132 384.61L367.002 380.172Z" fill="#121933"/>
<path d="M367.006 384.392C367.213 384.258 367.284 383.961 367.164 383.73C367.044 383.498 366.779 383.419 366.572 383.552L362.531 386.162L363.397 386.723L367.006 384.392Z" fill="#121933"/>
<path d="M367.004 329.204C367.212 329.07 367.282 328.773 367.162 328.541C367.042 328.31 366.777 328.23 366.57 328.364L342.97 343.608C342.967 343.611 342.965 343.613 342.962 343.616L343.826 344.176L367.004 329.204Z" fill="#121933"/>
<path d="M367.005 333.422C367.212 333.287 367.283 332.991 367.163 332.759C367.043 332.527 366.778 332.448 366.571 332.581L346.223 345.725L347.089 346.287L367.005 333.422Z" fill="#121933"/>
<path d="M367.005 337.647C367.212 337.513 367.283 337.216 367.163 336.984C367.043 336.753 366.778 336.674 366.571 336.807L349.485 347.844L350.35 348.405L367.005 337.647Z" fill="#121933"/>
<path d="M367.004 341.864C367.212 341.73 367.282 341.433 367.162 341.202C367.042 340.969 366.777 340.89 366.57 341.024L352.745 349.954L353.611 350.516L367.004 341.864Z" fill="#121933"/>
<path d="M367.003 346.085C367.211 345.951 367.281 345.654 367.161 345.422C367.041 345.19 366.776 345.111 366.569 345.245L356.006 352.068L356.871 352.629L367.003 346.085Z" fill="#121933"/>
<path d="M367.002 350.307C367.21 350.173 367.28 349.877 367.16 349.645C367.04 349.413 366.775 349.334 366.568 349.467L359.266 354.184L360.132 354.745L367.002 350.307Z" fill="#121933"/>
<path d="M367.006 354.525C367.213 354.391 367.284 354.094 367.164 353.863C367.044 353.631 366.779 353.551 366.572 353.685L362.531 356.295L363.397 356.856L367.006 354.525Z" fill="#121933"/>
<path d="M343.179 344.243C342.972 344.109 342.901 343.812 343.021 343.58C343.141 343.349 343.406 343.269 343.613 343.403L367.213 358.647C367.216 358.65 367.218 358.653 367.22 358.655L366.357 359.215L343.179 344.243Z" fill="#121933"/>
<path d="M343.179 348.464C342.972 348.329 342.901 348.033 343.021 347.801C343.141 347.569 343.406 347.49 343.613 347.623L363.961 360.767L363.095 361.329L343.179 348.464Z" fill="#121933"/>
<path d="M343.179 352.686C342.972 352.552 342.901 352.255 343.021 352.023C343.141 351.792 343.406 351.713 343.613 351.846L360.699 362.883L359.833 363.444L343.179 352.686Z" fill="#121933"/>
<path d="M343.179 356.906C342.972 356.772 342.901 356.475 343.021 356.243C343.141 356.011 343.406 355.932 343.613 356.066L357.438 364.997L356.572 365.558L343.179 356.906Z" fill="#121933"/>
<path d="M343.179 361.124C342.972 360.99 342.901 360.693 343.021 360.461C343.141 360.229 343.406 360.15 343.613 360.284L354.176 367.107L353.311 367.668L343.179 361.124Z" fill="#121933"/>
<path d="M343.179 365.346C342.972 365.212 342.901 364.916 343.021 364.684C343.141 364.452 343.406 364.373 343.613 364.507L350.915 369.224L350.049 369.785L343.179 365.346Z" fill="#121933"/>
<path d="M343.179 369.567C342.972 369.433 342.901 369.136 343.021 368.905C343.141 368.673 343.406 368.593 343.613 368.727L347.653 371.337L346.787 371.898L343.179 369.567Z" fill="#121933"/>
<path d="M343.179 314.378C342.972 314.244 342.901 313.948 343.021 313.716C343.141 313.484 343.406 313.405 343.613 313.539L367.213 328.784C367.216 328.786 367.218 328.789 367.22 328.791L366.357 329.351L343.179 314.378Z" fill="#121933"/>
<path d="M343.179 318.597C342.972 318.462 342.901 318.166 343.021 317.934C343.141 317.702 343.406 317.623 343.613 317.756L363.961 330.9L363.095 331.462L343.179 318.597Z" fill="#121933"/>
<path d="M343.179 322.819C342.972 322.684 342.901 322.388 343.021 322.156C343.141 321.925 343.406 321.846 343.613 321.978L360.699 333.016L359.833 333.577L343.179 322.819Z" fill="#121933"/>
<path d="M343.179 327.039C342.972 326.905 342.901 326.608 343.021 326.376C343.141 326.144 343.406 326.065 343.613 326.199L357.438 335.129L356.572 335.69L343.179 327.039Z" fill="#121933"/>
<path d="M343.179 331.26C342.972 331.125 342.901 330.829 343.021 330.597C343.141 330.365 343.406 330.286 343.613 330.419L354.176 337.243L353.311 337.804L343.179 331.26Z" fill="#121933"/>
<path d="M343.179 335.482C342.972 335.348 342.901 335.051 343.021 334.82C343.141 334.587 343.406 334.509 343.613 334.642L350.915 339.359L350.049 339.92L343.179 335.482Z" fill="#121933"/>
<path d="M343.179 339.703C342.972 339.569 342.901 339.272 343.021 339.04C343.141 338.809 343.406 338.729 343.613 338.863L347.653 341.472L346.787 342.034L343.179 339.703Z" fill="#121933"/>
<path d="M367.004 299.509C367.212 299.375 367.282 299.079 367.162 298.847C367.042 298.615 366.777 298.536 366.57 298.669L342.97 313.914C342.967 313.916 342.965 313.919 342.962 313.921L343.826 314.481L367.004 299.509Z" fill="#121933"/>
<path d="M367.005 303.73C367.212 303.596 367.283 303.3 367.163 303.068C367.043 302.836 366.778 302.757 366.571 302.89L346.223 316.034L347.089 316.595L367.005 303.73Z" fill="#121933"/>
<path d="M367.005 307.952C367.212 307.818 367.283 307.522 367.163 307.29C367.043 307.058 366.778 306.979 366.571 307.112L349.485 318.149L350.35 318.711L367.005 307.952Z" fill="#121933"/>
<path d="M367.004 312.171C367.212 312.036 367.282 311.74 367.162 311.508C367.042 311.276 366.777 311.197 366.57 311.331L352.745 320.261L353.611 320.821L367.004 312.171Z" fill="#121933"/>
<path d="M367.003 316.39C367.211 316.256 367.281 315.96 367.161 315.728C367.041 315.496 366.776 315.417 366.569 315.55L356.006 322.374L356.871 322.935L367.003 316.39Z" fill="#121933"/>
<path d="M367.002 320.613C367.21 320.479 367.28 320.182 367.16 319.951C367.04 319.718 366.775 319.639 366.568 319.773L359.266 324.49L360.132 325.051L367.002 320.613Z" fill="#121933"/>
<path d="M367.006 324.834C367.213 324.699 367.284 324.403 367.164 324.171C367.044 323.94 366.779 323.86 366.572 323.993L362.531 326.603L363.397 327.165L367.006 324.834Z" fill="#121933"/>
<path d="M367.004 269.643C367.212 269.509 367.282 269.212 367.162 268.981C367.042 268.749 366.777 268.669 366.57 268.803L342.97 284.048C342.967 284.05 342.965 284.053 342.962 284.055L343.826 284.615L367.004 269.643Z" fill="#121933"/>
<path d="M367.005 273.864C367.212 273.73 367.283 273.433 367.163 273.202C367.043 272.969 366.778 272.89 366.571 273.024L346.223 286.168L347.089 286.729L367.005 273.864Z" fill="#121933"/>
<path d="M367.005 278.086C367.212 277.952 367.283 277.655 367.163 277.424C367.043 277.192 366.778 277.113 366.571 277.246L349.485 288.283L350.35 288.844L367.005 278.086Z" fill="#121933"/>
<path d="M367.004 282.306C367.212 282.172 367.282 281.876 367.162 281.644C367.042 281.412 366.777 281.333 366.57 281.466L352.745 290.397L353.611 290.958L367.004 282.306Z" fill="#121933"/>
<path d="M367.003 286.524C367.211 286.39 367.281 286.093 367.161 285.862C367.041 285.629 366.776 285.551 366.569 285.684L356.006 292.508L356.871 293.069L367.003 286.524Z" fill="#121933"/>
<path d="M367.002 290.747C367.21 290.613 367.28 290.316 367.16 290.084C367.04 289.852 366.775 289.773 366.568 289.907L359.266 294.623L360.132 295.185L367.002 290.747Z" fill="#121933"/>
<path d="M367.006 294.967C367.213 294.833 367.284 294.537 367.164 294.305C367.044 294.073 366.779 293.994 366.572 294.127L362.531 296.737L363.397 297.299L367.006 294.967Z" fill="#121933"/>
<path d="M343.179 284.687C342.972 284.553 342.901 284.256 343.021 284.025C343.141 283.793 343.406 283.713 343.613 283.847L367.213 299.092C367.216 299.093 367.218 299.097 367.22 299.099L366.357 299.659L343.179 284.687Z" fill="#121933"/>
<path d="M343.179 288.905C342.972 288.771 342.901 288.474 343.021 288.243C343.141 288.01 343.406 287.931 343.613 288.065L363.961 301.209L363.095 301.77L343.179 288.905Z" fill="#121933"/>
<path d="M343.179 293.127C342.972 292.993 342.901 292.696 343.021 292.465C343.141 292.233 343.406 292.154 343.613 292.287L360.699 303.324L359.833 303.886L343.179 293.127Z" fill="#121933"/>
<path d="M343.179 297.348C342.972 297.214 342.901 296.918 343.021 296.686C343.141 296.454 343.406 296.375 343.613 296.508L357.438 305.439L356.572 306L343.179 297.348Z" fill="#121933"/>
<path d="M343.179 301.568C342.972 301.434 342.901 301.137 343.021 300.906C343.141 300.673 343.406 300.594 343.613 300.728L354.176 307.551L353.311 308.113L343.179 301.568Z" fill="#121933"/>
<path d="M343.179 305.791C342.972 305.657 342.901 305.36 343.021 305.128C343.141 304.896 343.406 304.817 343.613 304.951L350.915 309.667L350.049 310.229L343.179 305.791Z" fill="#121933"/>
<path d="M343.179 310.011C342.972 309.877 342.901 309.581 343.021 309.349C343.141 309.117 343.406 309.038 343.613 309.171L347.653 311.781L346.787 312.342L343.179 310.011Z" fill="#121933"/>
<path d="M343.179 254.822C342.972 254.688 342.901 254.391 343.021 254.16C343.141 253.928 343.406 253.848 343.613 253.982L367.213 269.226C367.216 269.229 367.218 269.232 367.22 269.234L366.357 269.794L343.179 254.822Z" fill="#121933"/>
<path d="M343.179 259.044C342.972 258.91 342.901 258.613 343.021 258.381C343.141 258.149 343.406 258.07 343.613 258.204L363.961 271.347L363.095 271.909L343.179 259.044Z" fill="#121933"/>
<path d="M343.179 263.265C342.972 263.131 342.901 262.834 343.021 262.603C343.141 262.371 343.406 262.292 343.613 262.425L360.699 273.462L359.833 274.023L343.179 263.265Z" fill="#121933"/>
<path d="M343.179 267.485C342.972 267.351 342.901 267.054 343.021 266.823C343.141 266.59 343.406 266.511 343.613 266.645L357.438 275.576L356.572 276.137L343.179 267.485Z" fill="#121933"/>
<path d="M343.179 271.703C342.972 271.569 342.901 271.272 343.021 271.041C343.141 270.808 343.406 270.729 343.613 270.863L354.176 277.686L353.311 278.248L343.179 271.703Z" fill="#121933"/>
<path d="M343.179 275.928C342.972 275.794 342.901 275.498 343.021 275.266C343.141 275.034 343.406 274.955 343.613 275.089L350.915 279.806L350.049 280.367L343.179 275.928Z" fill="#121933"/>
<path d="M343.179 280.146C342.972 280.012 342.901 279.715 343.021 279.484C343.141 279.252 343.406 279.172 343.613 279.306L347.653 281.916L346.787 282.477L343.179 280.146Z" fill="#121933"/>
<path d="M367.004 239.907C367.212 239.772 367.282 239.476 367.162 239.244C367.042 239.013 366.777 238.933 366.57 239.067L342.97 254.312C342.967 254.314 342.965 254.317 342.962 254.319L343.826 254.879L367.004 239.907Z" fill="#121933"/>
<path d="M367.005 244.128C367.212 243.994 367.283 243.697 367.163 243.465C367.043 243.233 366.778 243.154 366.571 243.288L346.223 256.431L347.089 256.993L367.005 244.128Z" fill="#121933"/>
<path d="M367.005 248.35C367.212 248.215 367.283 247.919 367.163 247.687C367.043 247.456 366.778 247.377 366.571 247.51L349.485 258.547L350.35 259.109L367.005 248.35Z" fill="#121933"/>
<path d="M367.004 252.568C367.212 252.434 367.282 252.137 367.162 251.906C367.042 251.673 366.777 251.594 366.57 251.728L352.745 260.658L353.611 261.22L367.004 252.568Z" fill="#121933"/>
<path d="M367.003 256.788C367.211 256.654 367.281 256.357 367.161 256.125C367.041 255.893 366.776 255.814 366.569 255.948L356.006 262.771L356.871 263.333L367.003 256.788Z" fill="#121933"/>
<path d="M367.002 261.011C367.21 260.876 367.28 260.58 367.16 260.348C367.04 260.116 366.775 260.037 366.568 260.17L359.266 264.887L360.132 265.448L367.002 261.011Z" fill="#121933"/>
<path d="M367.005 265.228C367.212 265.094 367.283 264.797 367.163 264.566C367.043 264.334 366.778 264.254 366.571 264.388L362.53 266.998L363.395 267.559L367.005 265.228Z" fill="#121933"/>
<path d="M281.485 369.631L267.012 360.283V341.586L281.485 332.237L295.958 341.586V360.283L281.485 369.631ZM267.624 359.888L281.485 368.842L295.346 359.888V341.981L281.485 333.028L267.624 341.981V359.888Z" fill="#121933"/>
<path d="M281.358 320.115C261.785 320.115 245.862 304.193 245.862 284.622C245.862 265.051 261.786 249.129 281.358 249.129C300.931 249.129 316.854 265.051 316.854 284.622C316.855 304.193 300.931 320.115 281.358 320.115ZM281.358 249.741C262.123 249.741 246.474 265.388 246.474 284.622C246.474 303.856 262.123 319.503 281.358 319.503C300.594 319.503 316.242 303.856 316.242 284.622C316.242 265.388 300.594 249.741 281.358 249.741Z" fill="#121933"/>
<path d="M281.361 316.337C264.151 316.337 250.15 302.338 250.15 285.131C250.15 267.925 264.151 253.925 281.361 253.925C298.572 253.925 312.573 267.924 312.573 285.131C312.573 302.339 298.572 316.337 281.361 316.337ZM281.361 254.536C264.489 254.536 250.762 268.261 250.762 285.131C250.762 302.001 264.489 315.725 281.361 315.725C298.234 315.725 311.961 302.001 311.961 285.131C311.961 268.261 298.234 254.536 281.361 254.536Z" fill="#121933"/>
</g>
<path d="M170.104 655.86C171.729 652.881 173.466 650.028 175.309 647.235C177.15 644.447 179.114 641.753 181.23 639.197L184.454 635.486C185.514 634.254 186.547 632.996 187.537 631.701C189.53 629.124 191.328 626.377 192.957 623.494C194.592 620.616 196.066 617.61 197.502 614.579L201.827 605.456C204.665 599.368 207.409 593.21 209.383 586.764C209.883 585.156 210.302 583.523 210.664 581.88C210.855 581.061 210.975 580.228 211.135 579.403L211.513 576.869L212.878 566.656C213.819 559.845 214.968 552.959 217.352 546.468C217.631 545.65 217.979 544.863 218.308 544.067C218.638 543.264 218.984 542.52 219.32 541.743C219.993 540.2 220.652 538.65 221.304 537.094C222.605 533.981 223.872 530.848 225.121 527.705C226.369 524.562 227.599 521.408 228.813 518.247L230.625 513.501C231.228 511.924 231.807 510.323 232.457 508.737C233.749 505.581 235.165 502.5 236.688 499.481C238.216 496.466 239.848 493.509 241.697 490.695L242.396 489.65L243.062 488.634L244.353 486.514C245.221 485.089 246.089 483.628 247.127 482.282C248.16 480.942 249.29 479.646 250.632 478.639L251.122 478.245C251.286 478.116 251.47 478.018 251.643 477.903L252.697 477.241C253.059 477.045 253.437 476.887 253.806 476.708C254.179 476.541 254.543 476.34 254.934 476.238C258.003 475.145 261.227 475.012 264.348 475.282C267.448 475.566 270.641 476.253 273.503 477.844C276.391 479.369 278.906 481.746 280.814 484.595C281.78 486.012 282.579 487.561 283.245 489.166C283.909 490.773 284.465 492.436 284.864 494.141C285.688 497.544 286.063 501.057 286.098 504.552C286.15 508.053 285.859 511.54 285.351 514.977C285.102 516.697 284.776 518.401 284.417 520.094C284.036 521.789 283.636 523.446 283.237 525.105C282.443 528.428 281.674 531.759 280.92 535.094C279.396 541.764 278.011 548.462 276.402 555.143C276 556.814 275.556 558.479 275.036 560.14C274.767 560.97 274.482 561.797 274.089 562.622L273.781 563.239L273.502 563.761C273.32 564.111 273.152 564.472 273 564.843C272.369 566.319 272.001 567.968 271.409 569.642C271.111 570.476 270.751 571.318 270.27 572.083C269.794 572.852 269.22 573.54 268.596 574.147L268.593 574.15L268.836 573.674C268.186 577.623 267.3 581.476 266.062 585.252C265.749 586.193 265.412 587.127 265.036 588.047C264.84 588.504 264.667 588.97 264.446 589.417C264.241 589.862 264.001 590.338 263.85 590.733C263.143 592.358 262.736 594.259 262.442 596.159C262.267 597.103 262.18 598.08 262.046 599.039C261.952 600.011 261.838 600.978 261.764 601.956C261.596 603.907 261.468 605.867 261.351 607.834C261.102 611.766 260.911 615.715 260.483 619.69C260.439 620.186 260.359 620.686 260.295 621.184C260.231 621.682 260.161 622.18 260.061 622.682C259.879 623.719 259.693 624.603 259.564 625.543C259.306 627.413 259.279 629.334 259.393 631.252C259.509 633.171 259.727 635.095 260.062 637.005C260.382 638.917 260.777 640.821 261.223 642.715C262.106 646.505 263.163 650.258 264.238 654.008C264.777 655.879 265.343 657.75 265.868 659.654C266.393 661.552 266.891 663.458 267.35 665.375C271.036 680.695 273.016 696.579 272.633 712.469C272.508 716.438 272.251 720.403 271.807 724.344C271.332 728.28 270.704 732.193 269.866 736.05C269.016 739.904 267.965 743.698 266.741 747.416C265.464 751.113 263.996 754.721 262.326 758.201C263.765 754.592 265.104 750.944 266.19 747.197C267.27 743.452 268.209 739.659 268.927 735.811C269.619 731.959 270.183 728.081 270.573 724.179C270.933 720.273 271.167 716.355 271.237 712.429C271.519 696.721 269.498 680.997 265.772 665.857C265.308 663.963 264.806 662.081 264.279 660.21C263.754 658.343 263.18 656.477 262.627 654.594C261.519 650.835 260.477 647.044 259.575 643.193C259.123 641.268 258.72 639.322 258.392 637.353C258.049 635.389 257.821 633.386 257.701 631.367C257.583 629.349 257.61 627.297 257.891 625.262C258.028 624.251 258.248 623.21 258.404 622.31C258.498 621.848 258.565 621.372 258.626 620.892C258.688 620.413 258.766 619.941 258.809 619.454C259.638 611.699 259.611 603.746 260.874 595.835C261.2 593.86 261.617 591.869 262.466 589.945C262.674 589.436 262.872 589.055 263.075 588.624C263.285 588.209 263.453 587.763 263.643 587.332C264.006 586.458 264.337 585.564 264.645 584.658C265.867 581.031 266.773 577.213 267.426 573.405C267.458 573.22 267.541 573.062 267.655 572.944L267.669 572.929L267.672 572.926C268.208 572.401 268.69 571.824 269.092 571.177C269.497 570.533 269.809 569.811 270.082 569.049C270.627 567.525 271.008 565.809 271.703 564.168C271.872 563.759 272.06 563.354 272.265 562.961L272.578 562.375L272.831 561.863C273.163 561.17 273.436 560.386 273.691 559.598C274.188 558.01 274.626 556.374 275.024 554.719C276.619 548.1 278.009 541.377 279.534 534.703C280.289 531.362 281.061 528.024 281.856 524.694C282.256 523.028 282.659 521.361 283.028 519.717C283.379 518.06 283.698 516.394 283.941 514.715C284.436 511.36 284.72 507.964 284.668 504.575C284.634 501.189 284.271 497.808 283.484 494.563C283.104 492.936 282.576 491.36 281.95 489.844C281.321 488.329 280.572 486.877 279.67 485.556C277.888 482.9 275.566 480.705 272.88 479.286C270.208 477.804 267.248 477.157 264.229 476.878C261.232 476.617 258.191 476.757 255.377 477.761C255.015 477.852 254.686 478.039 254.346 478.192C254.009 478.355 253.664 478.497 253.334 478.675L252.376 479.278C252.219 479.383 252.051 479.469 251.902 479.588L251.456 479.949C250.235 480.862 249.193 482.056 248.22 483.316C247.245 484.579 246.403 485.993 245.54 487.41L244.232 489.558L243.533 490.625L242.849 491.648C241.05 494.383 239.441 497.296 237.934 500.27C236.432 503.248 235.03 506.298 233.76 509.403C233.127 510.947 232.55 512.54 231.943 514.128L230.129 518.882C228.912 522.048 227.681 525.207 226.43 528.357C225.179 531.507 223.908 534.649 222.602 537.774C221.947 539.336 221.285 540.895 220.607 542.447C219.922 544.013 219.241 545.512 218.675 547.081C216.367 553.358 215.227 560.129 214.292 566.903C213.824 570.297 213.41 573.709 212.926 577.123L212.545 579.684C212.38 580.541 212.253 581.411 212.055 582.257C211.682 583.956 211.249 585.637 210.738 587.281C208.717 593.876 205.944 600.087 203.095 606.201L198.767 615.329C197.321 618.381 195.832 621.419 194.165 624.354C192.506 627.292 190.656 630.117 188.622 632.747C187.611 634.069 186.561 635.348 185.487 636.597L182.275 640.292C180.208 642.789 178.274 645.44 176.459 648.191C174.645 650.936 172.914 653.782 171.332 656.681L171.324 656.696C171.118 657.074 170.678 657.192 170.341 656.962C170.005 656.731 169.898 656.238 170.104 655.86Z" fill="#121933"/>
<path d="M427.515 357.775L558.278 354.959C560.194 354.917 561.778 356.622 561.815 358.767C561.852 360.911 560.328 362.683 558.412 362.724C558.372 362.725 558.318 362.725 558.278 362.724L427.515 359.908C426.989 359.897 426.571 359.41 426.58 358.821C426.591 358.246 427.006 357.787 427.515 357.775Z" fill="#121933"/>
<path d="M397.443 267.456L514.878 203.048C516.599 202.104 518.679 202.9 519.522 204.826C520.366 206.752 519.655 209.078 517.933 210.022C517.898 210.042 517.848 210.067 517.812 210.085L398.248 269.388C397.766 269.627 397.203 269.384 396.99 268.845C396.782 268.32 396.986 267.706 397.443 267.456Z" fill="#121933"/>
<path d="M398.248 448.295L517.813 507.598C519.565 508.467 520.356 510.761 519.579 512.722C518.802 514.683 516.752 515.567 514.999 514.698C514.963 514.681 514.914 514.655 514.878 514.635L397.443 450.227C396.97 449.968 396.775 449.329 397.006 448.8C397.232 448.285 397.783 448.065 398.248 448.295Z" fill="#121933"/>
<path d="M134.3 357.775L3.53791 354.959C1.62126 354.917 0.037579 356.622 0.000657087 358.767C-0.0362648 360.911 1.48743 362.683 3.40407 362.724C3.44429 362.725 3.49835 362.725 3.53791 362.724L134.3 359.908C134.826 359.897 135.245 359.41 135.235 358.821C135.225 358.246 134.809 357.787 134.3 357.775Z" fill="#121933"/>
<path d="M164.373 267.456L46.9372 203.048C45.2157 202.104 43.1362 202.9 42.2929 204.826C41.449 206.752 42.1604 209.078 43.8819 210.022C43.9175 210.042 43.967 210.067 44.0032 210.085L163.568 269.388C164.049 269.627 164.612 269.384 164.826 268.845C165.033 268.32 164.83 267.706 164.373 267.456Z" fill="#121933"/>
<path d="M163.567 448.295L44.0027 507.598C42.2502 508.467 41.4597 510.761 42.2364 512.722C43.013 514.683 45.0635 515.567 46.816 514.698C46.8523 514.681 46.9017 514.655 46.9373 514.635L164.373 450.227C164.846 449.968 165.041 449.329 164.809 448.8C164.583 448.285 164.033 448.065 163.567 448.295Z" fill="#121933"/>
<circle cx="260.353" cy="376.87" r="5.23727" fill="#121933"/>
<path d="M262.259 379.137C262.051 379.46 261.766 379.743 261.422 379.97C261.614 379.226 261.471 378.336 260.201 377.704L260.201 377.705C259.778 377.519 259.294 377.29 258.85 377.002C258.024 376.468 257.789 375.357 258.341 374.542C258.545 374.241 258.818 373.976 259.144 373.761C258.953 374.505 259.094 375.395 260.366 376.027L260.366 376.026C260.788 376.213 261.273 376.441 261.717 376.729C262.523 377.252 262.778 378.33 262.259 379.137Z" fill="white"/>
<path d="M260.737 375.575C261.271 375.628 261.748 375.237 261.8 374.703C261.853 374.168 261.462 373.692 260.927 373.639C260.393 373.587 259.917 373.977 259.864 374.512C259.811 375.047 260.202 375.523 260.737 375.575Z" fill="#DBA73B"/>
<path d="M259.587 380.011C260.122 380.064 260.598 379.673 260.651 379.138C260.703 378.603 260.313 378.127 259.778 378.075C259.243 378.022 258.767 378.413 258.715 378.948C258.662 379.482 259.053 379.958 259.587 380.011Z" fill="#DBA73B"/>
<path d="M271.198 380.453C272.592 380.453 273.745 379.751 273.745 378.299C273.745 376.79 272.457 376.473 271.439 376.213C270.718 376.04 270.141 375.896 270.141 375.425C270.141 374.983 270.612 374.781 271.083 374.781C271.631 374.781 272.111 375.05 272.111 375.636H273.544C273.544 374.291 272.669 373.464 271.121 373.464C269.631 373.464 268.68 374.194 268.68 375.483C268.68 376.934 269.91 377.232 270.929 377.482C271.659 377.645 272.275 377.79 272.275 378.319C272.275 378.818 271.736 379.107 271.189 379.107C270.592 379.107 270.054 378.789 270.054 378.145H268.583C268.583 379.587 269.651 380.453 271.198 380.453Z" fill="#121933"/>
<path d="M271.198 380.453C272.592 380.453 273.745 379.751 273.745 378.299C273.745 376.79 272.457 376.473 271.439 376.213C270.718 376.04 270.141 375.896 270.141 375.425C270.141 374.983 270.612 374.781 271.083 374.781C271.631 374.781 272.111 375.05 272.111 375.636H273.544C273.544 374.291 272.669 373.464 271.121 373.464C269.631 373.464 268.68 374.194 268.68 375.483C268.68 376.934 269.91 377.232 270.929 377.482C271.659 377.645 272.275 377.79 272.275 378.319C272.275 378.818 271.736 379.107 271.189 379.107C270.592 379.107 270.054 378.789 270.054 378.145H268.583C268.583 379.587 269.651 380.453 271.198 380.453Z" fill="#121933"/>
<path d="M277.284 380.475C278.89 380.475 280.091 379.292 280.091 377.725C280.091 376.158 278.89 374.985 277.284 374.985C275.679 374.985 274.477 376.158 274.477 377.725C274.477 379.292 275.679 380.475 277.284 380.475ZM277.284 379.148C276.477 379.148 275.9 378.571 275.9 377.725C275.9 376.889 276.477 376.302 277.284 376.302C278.092 376.302 278.668 376.889 278.668 377.725C278.668 378.571 278.092 379.148 277.284 379.148Z" fill="#121933"/>
<path d="M277.284 380.475C278.89 380.475 280.091 379.292 280.091 377.725C280.091 376.158 278.89 374.985 277.284 374.985C275.679 374.985 274.477 376.158 274.477 377.725C274.477 379.292 275.679 380.475 277.284 380.475ZM277.284 379.148C276.477 379.148 275.9 378.571 275.9 377.725C275.9 376.889 276.477 376.302 277.284 376.302C278.092 376.302 278.668 376.889 278.668 377.725C278.668 378.571 278.092 379.148 277.284 379.148Z" fill="#121933"/>
<path d="M281.098 380.32H282.501V373.265H281.098V380.32Z" fill="#121933"/>
<path d="M281.098 380.32H282.501V373.265H281.098V380.32Z" fill="#121933"/>
<path d="M288.082 375.132L287.938 375.622C287.486 375.227 286.9 374.987 286.227 374.987C284.67 374.987 283.506 376.16 283.506 377.727C283.506 379.294 284.67 380.476 286.227 380.476C286.89 380.476 287.467 380.245 287.909 379.851L288.034 380.322H289.13V375.132H288.082ZM286.342 379.15C285.525 379.15 284.929 378.534 284.929 377.727C284.929 376.91 285.525 376.304 286.342 376.304C287.159 376.304 287.755 376.91 287.755 377.727C287.755 378.544 287.159 379.15 286.342 379.15Z" fill="#121933"/>
<path d="M288.082 375.132L287.938 375.622C287.486 375.227 286.9 374.987 286.227 374.987C284.67 374.987 283.506 376.16 283.506 377.727C283.506 379.294 284.67 380.476 286.227 380.476C286.89 380.476 287.467 380.245 287.909 379.851L288.034 380.322H289.13V375.132H288.082ZM286.342 379.15C285.525 379.15 284.929 378.534 284.929 377.727C284.929 376.91 285.525 376.304 286.342 376.304C287.159 376.304 287.755 376.91 287.755 377.727C287.755 378.544 287.159 379.15 286.342 379.15Z" fill="#121933"/>
<path d="M292.894 380.475C294.25 380.475 295.317 379.59 295.557 378.283H294.144C293.904 378.84 293.462 379.148 292.894 379.148C292.144 379.148 291.558 378.523 291.558 377.725C291.558 376.918 292.135 376.302 292.894 376.302C293.452 376.302 293.923 376.61 294.144 377.119H295.538C295.288 375.841 294.25 374.985 292.904 374.985C291.328 374.985 290.135 376.158 290.135 377.715C290.135 379.273 291.328 380.475 292.894 380.475Z" fill="#121933"/>
<path d="M292.894 380.475C294.25 380.475 295.317 379.59 295.557 378.283H294.144C293.904 378.84 293.462 379.148 292.894 379.148C292.144 379.148 291.558 378.523 291.558 377.725C291.558 376.918 292.135 376.302 292.894 376.302C293.452 376.302 293.923 376.61 294.144 377.119H295.538C295.288 375.841 294.25 374.985 292.904 374.985C291.328 374.985 290.135 376.158 290.135 377.715C290.135 379.273 291.328 380.475 292.894 380.475Z" fill="#121933"/>
<path d="M301.525 377.713C301.525 376.214 300.429 374.983 298.834 374.983C297.296 374.983 296.142 376.166 296.142 377.723C296.142 379.28 297.305 380.473 298.834 380.473C300.045 380.473 301.035 379.752 301.41 378.617H299.939C299.727 378.992 299.324 379.223 298.834 379.223C298.151 379.223 297.69 378.828 297.565 378.117H301.496C301.515 377.983 301.525 377.848 301.525 377.713ZM298.834 376.185C299.468 376.185 299.92 376.531 300.122 377.166H297.603C297.767 376.551 298.209 376.185 298.834 376.185Z" fill="#121933"/>
<path d="M301.525 377.713C301.525 376.214 300.429 374.983 298.834 374.983C297.296 374.983 296.142 376.166 296.142 377.723C296.142 379.28 297.305 380.473 298.834 380.473C300.045 380.473 301.035 379.752 301.41 378.617H299.939C299.727 378.992 299.324 379.223 298.834 379.223C298.151 379.223 297.69 378.828 297.565 378.117H301.496C301.515 377.983 301.525 377.848 301.525 377.713ZM298.834 376.185C299.468 376.185 299.92 376.531 300.122 377.166H297.603C297.767 376.551 298.209 376.185 298.834 376.185Z" fill="#121933"/>
<path fill-rule="evenodd" clip-rule="evenodd" d="M270.762 267.775C268.047 267.775 265.847 269.976 265.847 272.691V279.765C265.847 281.069 266.365 282.319 267.286 283.241L282.984 298.939C284.491 300.445 286.899 300.882 288.797 299.64C292.347 297.315 295.386 294.276 297.711 290.725C298.953 288.827 298.517 286.419 297.01 284.913L281.312 269.215C280.391 268.293 279.14 267.775 277.837 267.775H270.762ZM272.605 276.377C273.623 276.377 274.448 275.552 274.448 274.534C274.448 273.516 273.623 272.691 272.605 272.691C271.587 272.691 270.762 273.516 270.762 274.534C270.762 275.552 271.587 276.377 272.605 276.377Z" fill="#DBA73B"/>
</svg>
