<svg width="21" height="21" viewBox="0 0 21 21" fill="none" xmlns="http://www.w3.org/2000/svg">
<g clip-path="url(#clip0_3323_4074)">
<path d="M12.1667 7.00163H13.8334V8.66829C13.8334 9.12663 14.2084 9.50163 14.6667 9.50163C15.1251 9.50163 15.5001 9.12663 15.5001 8.66829V7.00163H17.1667C17.6251 7.00163 18.0001 6.62663 18.0001 6.16829C18.0001 5.70996 17.6251 5.33496 17.1667 5.33496H15.5001V3.66829C15.5001 3.20996 15.1251 2.83496 14.6667 2.83496C14.2084 2.83496 13.8334 3.20996 13.8334 3.66829V5.33496H12.1667C11.7084 5.33496 11.3334 5.70996 11.3334 6.16829C11.3334 6.62663 11.7084 7.00163 12.1667 7.00163ZM16.5084 13.06L14.3917 12.8183C13.8834 12.76 13.3834 12.935 13.0251 13.2933L11.4917 14.8266C9.1334 13.6266 7.20007 11.7016 6.00007 9.33496L7.54173 7.79329C7.90007 7.43496 8.07507 6.92663 8.01673 6.42663L7.77507 4.32663C7.6834 3.48496 6.96673 2.84329 6.12507 2.84329H4.6834C3.74173 2.84329 2.9584 3.62663 3.01673 4.56829C3.4584 11.685 9.15007 17.3683 16.2584 17.81C17.2001 17.8683 17.9834 17.085 17.9834 16.1433V14.7016C17.9917 13.8683 17.3501 13.1516 16.5084 13.06Z" fill="white"/>
</g>
<defs>
<clipPath id="clip0_3323_4074">
<rect width="20" height="20" fill="white" transform="translate(0.5 0.334961)"/>
</clipPath>
</defs>
</svg>
