<svg width="122" height="40" viewBox="0 0 122 40" fill="none" xmlns="http://www.w3.org/2000/svg">
<rect width="122" height="40" rx="8" fill="#FDF9F1"/>
<path d="M40.3129 17.8079H38.0551C37.9907 17.4376 37.872 17.1096 37.699 16.8239C37.5259 16.5341 37.3106 16.2886 37.053 16.0874C36.7954 15.8861 36.5016 15.7352 36.1716 15.6346C35.8456 15.5299 35.4935 15.4776 35.1151 15.4776C34.443 15.4776 33.8474 15.6467 33.3282 15.9847C32.809 16.3188 32.4026 16.8098 32.1088 17.4577C31.815 18.1017 31.6681 18.8885 31.6681 19.8182C31.6681 20.764 31.815 21.5608 32.1088 22.2088C32.4066 22.8527 32.8131 23.3397 33.3282 23.6697C33.8474 23.9957 34.441 24.1587 35.1091 24.1587C35.4794 24.1587 35.8255 24.1104 36.1475 24.0138C36.4735 23.9132 36.7652 23.7663 37.0228 23.5732C37.2844 23.38 37.5038 23.1425 37.6808 22.8608C37.8619 22.5791 37.9867 22.2571 38.0551 21.8949L40.3129 21.907C40.2284 22.4946 40.0453 23.0459 39.7636 23.5611C39.4859 24.0762 39.1217 24.531 38.6709 24.9254C38.2201 25.3158 37.6929 25.6217 37.0892 25.843C36.4855 26.0604 35.8154 26.169 35.0789 26.169C33.9923 26.169 33.0223 25.9175 32.1691 25.4144C31.3159 24.9113 30.6438 24.1849 30.1528 23.2351C29.6618 22.2853 29.4163 21.1463 29.4163 19.8182C29.4163 18.486 29.6638 17.3471 30.1588 16.4013C30.6539 15.4515 31.328 14.725 32.1812 14.2219C33.0344 13.7189 34.0003 13.4673 35.0789 13.4673C35.7671 13.4673 36.407 13.5639 36.9987 13.7571C37.5903 13.9503 38.1175 14.234 38.5803 14.6083C39.0432 14.9786 39.4235 15.4334 39.7213 15.9727C40.0232 16.5079 40.2204 17.1197 40.3129 17.8079ZM44.9357 26.1871C44.3481 26.1871 43.8189 26.0825 43.348 25.8732C42.8812 25.6599 42.5109 25.346 42.2372 24.9315C41.9676 24.5169 41.8327 24.0058 41.8327 23.3981C41.8327 22.8749 41.9293 22.4422 42.1225 22.1001C42.3157 21.758 42.5793 21.4844 42.9134 21.2791C43.2474 21.0739 43.6237 20.9189 44.0423 20.8143C44.4648 20.7056 44.9015 20.6271 45.3523 20.5788C45.8956 20.5225 46.3363 20.4722 46.6744 20.4279C47.0124 20.3796 47.2579 20.3072 47.4109 20.2106C47.5678 20.11 47.6463 19.955 47.6463 19.7457V19.7095C47.6463 19.2547 47.5115 18.9026 47.2418 18.6531C46.9722 18.4035 46.5838 18.2788 46.0767 18.2788C45.5414 18.2788 45.1168 18.3955 44.8029 18.6289C44.493 18.8623 44.2837 19.138 44.1751 19.456L42.1346 19.1662C42.2956 18.6027 42.5612 18.1319 42.9315 17.7536C43.3017 17.3712 43.7545 17.0855 44.2898 16.8963C44.825 16.7031 45.4167 16.6065 46.0646 16.6065C46.5114 16.6065 46.9561 16.6589 47.3988 16.7635C47.8415 16.8681 48.246 17.0412 48.6122 17.2827C48.9785 17.5201 49.2723 17.8441 49.4936 18.2546C49.719 18.6651 49.8317 19.1783 49.8317 19.794V26H47.7308V24.7262H47.6584C47.5256 24.9838 47.3384 25.2253 47.0969 25.4506C46.8595 25.672 46.5597 25.8511 46.1974 25.9879C45.8393 26.1207 45.4187 26.1871 44.9357 26.1871ZM45.5032 24.5813C45.9419 24.5813 46.3222 24.4948 46.6442 24.3217C46.9661 24.1446 47.2137 23.9112 47.3867 23.6214C47.5638 23.3317 47.6523 23.0157 47.6523 22.6737V21.581C47.5839 21.6373 47.4672 21.6896 47.3022 21.7379C47.1412 21.7862 46.9601 21.8285 46.7589 21.8647C46.5576 21.9009 46.3584 21.9331 46.1612 21.9613C45.964 21.9895 45.793 22.0136 45.6481 22.0337C45.3221 22.078 45.0303 22.1504 44.7727 22.2511C44.5152 22.3517 44.3119 22.4925 44.163 22.6737C44.0141 22.8507 43.9396 23.0801 43.9396 23.3619C43.9396 23.7643 44.0865 24.0682 44.3803 24.2734C44.6741 24.4787 45.0484 24.5813 45.5032 24.5813ZM52.0291 26V16.7273H54.1481V18.2727H54.2447C54.4137 17.7375 54.7035 17.3249 55.114 17.0352C55.5285 16.7414 56.0014 16.5945 56.5327 16.5945C56.6534 16.5945 56.7882 16.6005 56.9371 16.6126C57.0901 16.6206 57.2169 16.6347 57.3175 16.6548V18.6651C57.2249 18.6329 57.078 18.6048 56.8768 18.5806C56.6796 18.5524 56.4884 18.5384 56.3033 18.5384C55.9048 18.5384 55.5466 18.6249 55.2287 18.7979C54.9148 18.967 54.6673 19.2024 54.4862 19.5043C54.305 19.8061 54.2145 20.1542 54.2145 20.5487V26H52.0291ZM62.4926 26.1811C61.5629 26.1811 60.76 25.9879 60.0839 25.6016C59.4118 25.2112 58.8946 24.6598 58.5324 23.9474C58.1702 23.2311 57.9891 22.3879 57.9891 21.418C57.9891 20.4641 58.1702 19.627 58.5324 18.9066C58.8986 18.1822 59.4098 17.6187 60.0658 17.2163C60.7218 16.8098 61.4925 16.6065 62.3779 16.6065C62.9494 16.6065 63.4887 16.6991 63.9958 16.8842C64.507 17.0653 64.9577 17.3471 65.3481 17.7294C65.7425 18.1117 66.0524 18.5987 66.2778 19.1903C66.5032 19.7779 66.6159 20.4782 66.6159 21.2912V21.9613H59.0154V20.4883H64.521C64.517 20.0697 64.4265 19.6974 64.2494 19.3714C64.0723 19.0414 63.8248 18.7818 63.5068 18.5927C63.1929 18.4035 62.8267 18.3089 62.4081 18.3089C61.9614 18.3089 61.569 18.4176 61.2309 18.6349C60.8928 18.8482 60.6292 19.13 60.4401 19.4801C60.2549 19.8262 60.1604 20.2066 60.1563 20.6211V21.907C60.1563 22.4463 60.2549 22.9091 60.4521 23.2955C60.6494 23.6778 60.925 23.9716 61.2792 24.1768C61.6334 24.3781 62.0479 24.4787 62.5228 24.4787C62.8408 24.4787 63.1285 24.4344 63.3861 24.3459C63.6437 24.2533 63.867 24.1185 64.0562 23.9414C64.2454 23.7643 64.3882 23.545 64.4848 23.2834L66.5253 23.5128C66.3965 24.0521 66.151 24.523 65.7888 24.9254C65.4306 25.3239 64.9718 25.6338 64.4124 25.8551C63.853 26.0724 63.213 26.1811 62.4926 26.1811ZM72.5698 26.1811C71.6401 26.1811 70.8372 25.9879 70.161 25.6016C69.4889 25.2112 68.9718 24.6598 68.6096 23.9474C68.2473 23.2311 68.0662 22.3879 68.0662 21.418C68.0662 20.4641 68.2473 19.627 68.6096 18.9066C68.9758 18.1822 69.4869 17.6187 70.1429 17.2163C70.7989 16.8098 71.5697 16.6065 72.4551 16.6065C73.0266 16.6065 73.5659 16.6991 74.073 16.8842C74.5841 17.0653 75.0349 17.3471 75.4252 17.7294C75.8197 18.1117 76.1296 18.5987 76.3549 19.1903C76.5803 19.7779 76.693 20.4782 76.693 21.2912V21.9613H69.0925V20.4883H74.5982C74.5942 20.0697 74.5036 19.6974 74.3265 19.3714C74.1494 19.0414 73.9019 18.7818 73.584 18.5927C73.2701 18.4035 72.9038 18.3089 72.4853 18.3089C72.0385 18.3089 71.6461 18.4176 71.3081 18.6349C70.97 18.8482 70.7064 19.13 70.5172 19.4801C70.3321 19.8262 70.2375 20.2066 70.2335 20.6211V21.907C70.2335 22.4463 70.3321 22.9091 70.5293 23.2955C70.7265 23.6778 71.0022 23.9716 71.3564 24.1768C71.7105 24.3781 72.1251 24.4787 72.6 24.4787C72.9179 24.4787 73.2057 24.4344 73.4632 24.3459C73.7208 24.2533 73.9442 24.1185 74.1333 23.9414C74.3225 23.7643 74.4654 23.545 74.562 23.2834L76.6025 23.5128C76.4737 24.0521 76.2282 24.523 75.8659 24.9254C75.5078 25.3239 75.0489 25.6338 74.4895 25.8551C73.9301 26.0724 73.2902 26.1811 72.5698 26.1811ZM78.5418 26V16.7273H80.6608V18.2727H80.7574C80.9264 17.7375 81.2162 17.3249 81.6267 17.0352C82.0412 16.7414 82.5141 16.5945 83.0454 16.5945C83.1661 16.5945 83.3009 16.6005 83.4498 16.6126C83.6028 16.6206 83.7296 16.6347 83.8302 16.6548V18.6651C83.7376 18.6329 83.5907 18.6048 83.3895 18.5806C83.1923 18.5524 83.0011 18.5384 82.816 18.5384C82.4175 18.5384 82.0593 18.6249 81.7414 18.7979C81.4275 18.967 81.18 19.2024 80.9988 19.5043C80.8177 19.8061 80.7272 20.1542 80.7272 20.5487V26H78.5418ZM92.6109 19.1783L90.6187 19.3956C90.5624 19.1944 90.4637 19.0052 90.3229 18.8281C90.186 18.651 90.0009 18.5082 89.7675 18.3995C89.5341 18.2908 89.2483 18.2365 88.9102 18.2365C88.4555 18.2365 88.0731 18.3351 87.7632 18.5323C87.4574 18.7295 87.3064 18.9851 87.3105 19.299C87.3064 19.5687 87.405 19.788 87.6063 19.957C87.8115 20.1261 88.1496 20.2649 88.6205 20.3736L90.2021 20.7116C91.0795 20.9008 91.7315 21.2006 92.1581 21.6112C92.5887 22.0217 92.8061 22.5589 92.8101 23.223C92.8061 23.8066 92.635 24.3217 92.297 24.7685C91.9629 25.2112 91.4981 25.5573 90.9024 25.8068C90.3068 26.0563 89.6226 26.1811 88.8499 26.1811C87.7149 26.1811 86.8013 25.9437 86.1091 25.4688C85.4169 24.9898 85.0044 24.3237 84.8715 23.4705L87.0026 23.2653C87.0992 23.6838 87.3044 23.9998 87.6183 24.2131C87.9323 24.4264 88.3408 24.533 88.8438 24.533C89.363 24.533 89.7796 24.4264 90.0935 24.2131C90.4114 23.9998 90.5704 23.7362 90.5704 23.4222C90.5704 23.1566 90.4678 22.9373 90.2625 22.7642C90.0613 22.5911 89.7474 22.4583 89.3208 22.3658L87.7391 22.0337C86.8496 21.8486 86.1916 21.5367 85.765 21.098C85.3384 20.6553 85.1271 20.0959 85.1311 19.4197C85.1271 18.8482 85.282 18.3532 85.596 17.9347C85.9139 17.5121 86.3546 17.1861 86.9181 16.9567C87.4855 16.7232 88.1395 16.6065 88.8801 16.6065C89.9667 16.6065 90.8219 16.8379 91.4458 17.3008C92.0736 17.7636 92.462 18.3894 92.6109 19.1783Z" fill="#DBA73B"/>
</svg>
