<svg width="38" height="38" viewBox="0 0 38 38" fill="none" xmlns="http://www.w3.org/2000/svg">
<path d="M6.87744 11.92L7.91744 10.86C9.07744 9.7 10.9974 9.7 12.1974 10.94L12.2374 11C13.2174 12 14.5174 12.48 15.9374 12.62C17.8774 12.8 19.7574 13.84 20.9974 15.72C22.3574 17.88 22.3374 20.76 20.9174 22.9C20.3819 23.747 19.6616 24.4618 18.8106 24.991C17.9597 25.5202 17 25.8501 16.0035 25.9559C15.007 26.0617 13.9995 25.9407 13.0564 25.602C12.1132 25.2633 11.2589 24.7156 10.5574 24C9.43744 22.9 8.79744 21.48 8.63744 20C8.47744 18.54 7.89744 17.16 6.87744 16.14C5.71744 15 5.71744 13.08 6.87744 11.92ZM15.2774 28C12.9374 28 10.7574 27.1 9.13744 25.44C7.73744 24 6.85744 22.2 6.63744 20.24C6.57744 19.64 6.39744 18.86 5.91744 18.14C4.71744 19.8 3.99744 21.8 3.99744 24C3.99744 27.28 5.59744 30.18 8.05744 32H33.9974V30C33.9974 22.8 29.2174 16.7 22.6774 14.7C24.4574 17.5 24.4174 21.24 22.5974 24C20.9974 26.5 18.2374 28 15.2774 28ZM25.5574 11.12H28.0974C29.8374 11.12 31.3574 12.34 31.3574 14.52V16H33.8574V14C33.8574 11 31.1974 8.72 28.0974 8.72H25.5574C23.8974 8.72 22.4774 7.08 22.4774 5.4C22.4774 3.72 23.8974 2.48 25.5574 2.48V0C22.4774 0 19.9974 2.48 19.9974 5.56C19.9974 8.64 22.4774 11.12 25.5574 11.12ZM4.99744 11.1C5.11744 10.9 5.27744 10.7 5.45744 10.5L6.49744 9.46C6.67744 9.28 6.87744 9.14 7.07744 9L4.25744 6.14C4.53744 5.6 4.43744 4.9 3.99744 4.44C3.71104 4.16121 3.32713 4.00521 2.92744 4.00521C2.52775 4.00521 2.14384 4.16121 1.85744 4.44C1.57744 4.72 1.43744 5.06 1.41744 5.42C1.05744 5.44 0.717441 5.58 0.437441 5.86C-0.142559 6.44 -0.142559 7.4 0.437441 8C0.897442 8.44 1.57744 8.54 2.13744 8.26L4.99744 11.1ZM32.7774 4.78C33.7974 3.76 34.4374 2.38 34.4374 0.84H31.9374C31.9374 2.5 30.5374 3.9 28.8774 3.9V6.38C32.5974 6.38 35.5174 9.42 35.5174 13.14V18H37.9974V13.14C38.0074 11.3954 37.5222 9.6838 36.5982 8.20398C35.6742 6.72415 34.3493 5.53685 32.7774 4.78ZM5.99744 38H33.9974C36.2174 38 37.9974 36.22 37.9974 34H1.99744C1.99744 35.0609 2.41887 36.0783 3.16901 36.8284C3.91916 37.5786 4.93658 38 5.99744 38Z" fill="#DBA73B"/>
</svg>
