<svg width="34" height="38" viewBox="0 0 34 38" fill="none" xmlns="http://www.w3.org/2000/svg">
<path d="M10.3839 12.8128L10.6056 12.7938C10.6859 12.7849 10.7626 12.7561 10.8288 12.7099L10.8273 12.7114C11.0394 13.443 11.2991 14.2125 11.6237 15.0184C12.0401 16.073 12.4502 16.9391 12.9094 17.7751L12.8461 17.6485C12.8081 18.2248 12.7622 18.817 12.702 19.3902C12.6756 19.7283 12.607 20.0619 12.4977 20.383L12.5057 20.3545C12.4867 20.3624 12.4597 23.6479 12.4597 23.6479C12.4603 24.6674 12.8039 25.657 13.4352 26.4574C14.0665 27.2579 14.9488 27.8227 15.94 28.0608L15.9717 28.0672C16.0157 27.9528 16.0932 27.8545 16.1941 27.785C16.295 27.7155 16.4145 27.6781 16.537 27.6776H17.4458C17.5672 27.6793 17.6854 27.7166 17.7857 27.7851C17.8859 27.8535 17.9638 27.95 18.0095 28.0624L18.0111 28.0672C19.0107 27.8361 19.9031 27.2743 20.5437 26.4728C21.1842 25.6713 21.5355 24.6771 21.5405 23.6511C21.5405 23.6511 21.4851 20.3782 21.4566 20.3561C21.3622 20.05 21.2975 19.7356 21.2634 19.4171L21.2618 19.3933C21.2064 18.817 21.17 18.2391 21.1177 17.6516C21.5088 16.9454 21.9189 16.0809 22.2799 15.1895L22.3401 15.0216C22.6647 14.2157 22.9164 13.4477 23.1365 12.7146C23.2016 12.7608 23.2773 12.7897 23.3566 12.7985H23.3582L23.5815 12.8175C23.8506 12.846 24.0882 12.6244 24.1103 12.2808L24.351 9.22324V9.22007C24.3509 9.09704 24.3059 8.97825 24.2247 8.88589C24.1434 8.79353 24.0313 8.7339 23.9092 8.71814H23.8791C24.09 7.12603 23.9594 5.50726 23.496 3.96956L23.5165 4.05031C23.0699 3.05866 22.3907 2.18939 21.5365 1.51626C20.6822 0.843124 19.6782 0.385999 18.6096 0.183673L18.5685 0.17734C18.0504 0.0734662 17.5244 0.0141364 16.9962 0H16.9629C16.4104 0.00989477 15.86 0.0724579 15.3193 0.18684L15.3763 0.17734C14.3083 0.375581 13.3033 0.82678 12.4455 1.49317C11.5876 2.15955 10.9019 3.02174 10.4457 4.00756L10.4283 4.05031C9.97239 5.58209 9.85089 7.19392 10.072 8.77672L10.0657 8.71814C9.94331 8.73138 9.83013 8.78924 9.74776 8.88067C9.66538 8.9721 9.61959 9.09068 9.61914 9.21374V9.22482L9.85982 12.2823C9.88198 12.6339 10.1227 12.846 10.3823 12.8175L10.3839 12.8128Z" fill="#DBA73B"/>
<path d="M33.9541 33.0483C33.8433 28.2348 33.3619 27.1455 33.1023 26.4076C32.9993 26.1115 32.9154 24.1101 29.6093 22.8117C27.5826 22.0137 24.9668 21.9979 22.7532 21.0621V23.6652C22.7509 24.9997 22.2846 26.2918 21.4342 27.3202C20.5837 28.3486 19.4021 29.0492 18.0917 29.302L18.0553 29.3084C18.0316 29.4488 17.9593 29.5765 17.8511 29.6691C17.7429 29.7617 17.6056 29.8133 17.4631 29.815H17.4346V31.7785C17.4346 32.6998 17.8006 33.5834 18.4521 34.2349C19.1036 34.8864 19.9872 35.2524 20.9086 35.2524C21.8299 35.2524 22.7136 34.8864 23.365 34.2349C24.0165 33.5834 24.3825 32.6998 24.3825 31.7785V30.4072C23.9043 30.3371 23.4684 30.0942 23.1573 29.7244C22.8461 29.3545 22.6812 28.8835 22.6939 28.4004C22.7065 27.9172 22.8958 27.4555 23.2259 27.1024C23.556 26.7494 24.004 26.5296 24.4852 26.4846C24.9664 26.4396 25.4475 26.5725 25.8373 26.8582C26.2271 27.1439 26.4988 27.5625 26.6008 28.0349C26.7028 28.5073 26.6282 29.0008 26.391 29.4219C26.1538 29.843 25.7705 30.1626 25.3136 30.3202L25.2993 30.3249V31.8529C25.2993 33.0178 24.8366 34.135 24.0128 34.9587C23.1891 35.7824 22.0719 36.2452 20.907 36.2452C19.7421 36.2452 18.6249 35.7824 17.8012 34.9587C16.9774 34.135 16.5147 33.0178 16.5147 31.8529V31.7737V31.7769V29.796C16.3791 29.7868 16.2506 29.7321 16.15 29.6407C16.0494 29.5493 15.9827 29.4266 15.9605 29.2925V29.2894C14.6487 29.0392 13.4648 28.3407 12.6114 27.3134C11.7581 26.2862 11.2885 24.9942 11.2832 23.6588V21.0352C9.06009 21.9899 6.4285 22.0089 4.39068 22.8086C1.07506 24.1053 0.999056 26.102 0.897719 26.4028C0.644376 27.1439 0.156693 28.2285 0.0458553 33.0452C0.0268546 33.6785 0.0458554 34.6491 1.95542 35.4978C6.1134 37.1287 11.47 37.6354 16.7506 37.9996H17.2573C22.549 37.6386 27.8977 37.1335 32.0525 35.4978C33.9541 34.6539 33.9715 33.688 33.9541 33.0483ZM10.7084 31.0849H8.73549V33.0657H7.32628V31.0913H5.35338V29.682H7.32628V27.7091H8.73549V29.682H10.7084V31.0849Z" fill="#DBA73B"/>
<path d="M25.7348 28.4356C25.7345 28.153 25.6221 27.8805 25.4222 27.6808C25.2223 27.4812 24.9513 27.369 24.6687 27.3691C24.3862 27.3692 24.1152 27.4816 23.9155 27.6814C23.7157 27.8812 23.6035 28.1522 23.6035 28.4348C23.6035 28.7173 23.7157 28.9883 23.9155 29.1881C24.1152 29.388 24.3862 29.5003 24.6687 29.5004C24.9513 29.5005 25.2223 29.3884 25.4222 29.1887C25.6221 28.989 25.7345 28.7181 25.7348 28.4356Z" fill="#DBA73B"/>
</svg>
