<svg width="144" height="40" viewBox="0 0 144 40" fill="none" xmlns="http://www.w3.org/2000/svg">
<rect x="0.5" width="143" height="40" rx="8" fill="#D9F9E6"/>
<path d="M28.8261 17.8079H26.5683C26.5039 17.4376 26.3852 17.1096 26.2121 16.8239C26.0391 16.5341 25.8238 16.2886 25.5662 16.0874C25.3086 15.8861 25.0148 15.7352 24.6848 15.6346C24.3588 15.5299 24.0066 15.4776 23.6283 15.4776C22.9562 15.4776 22.3606 15.6467 21.8414 15.9847C21.3222 16.3188 20.9157 16.8098 20.6219 17.4577C20.3281 18.1017 20.1812 18.8885 20.1812 19.8182C20.1812 20.764 20.3281 21.5608 20.6219 22.2088C20.9198 22.8527 21.3262 23.3397 21.8414 23.6697C22.3606 23.9957 22.9542 24.1587 23.6223 24.1587C23.9926 24.1587 24.3387 24.1104 24.6606 24.0138C24.9866 23.9132 25.2784 23.7663 25.536 23.5732C25.7976 23.38 26.0169 23.1425 26.194 22.8608C26.3751 22.5791 26.4999 22.2571 26.5683 21.8949L28.8261 21.907C28.7416 22.4946 28.5585 23.0459 28.2768 23.5611C27.9991 24.0762 27.6348 24.531 27.1841 24.9254C26.7333 25.3158 26.2061 25.6217 25.6024 25.843C24.9987 26.0604 24.3286 26.169 23.5921 26.169C22.5055 26.169 21.5355 25.9175 20.6823 25.4144C19.8291 24.9113 19.157 24.1849 18.666 23.2351C18.175 22.2853 17.9295 21.1463 17.9295 19.8182C17.9295 18.486 18.177 17.3471 18.672 16.4013C19.167 15.4515 19.8412 14.725 20.6944 14.2219C21.5476 13.7189 22.5135 13.4673 23.5921 13.4673C24.2803 13.4673 24.9202 13.5639 25.5119 13.7571C26.1035 13.9503 26.6307 14.234 27.0935 14.6083C27.5564 14.9786 27.9367 15.4334 28.2345 15.9727C28.5364 16.5079 28.7336 17.1197 28.8261 17.8079ZM34.8253 26.1811C33.9198 26.1811 33.135 25.9819 32.4709 25.5835C31.8069 25.185 31.2917 24.6276 30.9255 23.9112C30.5633 23.1948 30.3821 22.3577 30.3821 21.3999C30.3821 20.442 30.5633 19.6029 30.9255 18.8825C31.2917 18.162 31.8069 17.6026 32.4709 17.2042C33.135 16.8058 33.9198 16.6065 34.8253 16.6065C35.7309 16.6065 36.5157 16.8058 37.1797 17.2042C37.8438 17.6026 38.3569 18.162 38.7191 18.8825C39.0854 19.6029 39.2685 20.442 39.2685 21.3999C39.2685 22.3577 39.0854 23.1948 38.7191 23.9112C38.3569 24.6276 37.8438 25.185 37.1797 25.5835C36.5157 25.9819 35.7309 26.1811 34.8253 26.1811ZM34.8374 24.4304C35.3284 24.4304 35.7389 24.2956 36.0689 24.0259C36.399 23.7522 36.6445 23.386 36.8054 22.9272C36.9705 22.4684 37.053 21.9573 37.053 21.3938C37.053 20.8263 36.9705 20.3132 36.8054 19.8544C36.6445 19.3916 36.399 19.0233 36.0689 18.7496C35.7389 18.476 35.3284 18.3391 34.8374 18.3391C34.3343 18.3391 33.9158 18.476 33.5817 18.7496C33.2517 19.0233 33.0042 19.3916 32.8392 19.8544C32.6782 20.3132 32.5977 20.8263 32.5977 21.3938C32.5977 21.9573 32.6782 22.4684 32.8392 22.9272C33.0042 23.386 33.2517 23.7522 33.5817 24.0259C33.9158 24.2956 34.3343 24.4304 34.8374 24.4304ZM41.1234 26V16.7273H43.2121V18.3029H43.3208C43.514 17.7717 43.8339 17.3571 44.2807 17.0593C44.7274 16.7575 45.2607 16.6065 45.8805 16.6065C46.5083 16.6065 47.0375 16.7595 47.4682 17.0653C47.9028 17.3672 48.2087 17.7797 48.3858 18.3029H48.4824C48.6876 17.7878 49.0338 17.3772 49.5207 17.0714C50.0117 16.7615 50.5933 16.6065 51.2654 16.6065C52.1186 16.6065 52.8149 16.8762 53.3542 17.4155C53.8935 17.9548 54.1631 18.7416 54.1631 19.7759V26H51.9717V20.114C51.9717 19.5385 51.8188 19.1179 51.5129 18.8523C51.207 18.5826 50.8328 18.4478 50.39 18.4478C49.8628 18.4478 49.4503 18.6128 49.1525 18.9428C48.8587 19.2688 48.7118 19.6934 48.7118 20.2166V26H46.5687V20.0234C46.5687 19.5445 46.4238 19.1622 46.134 18.8764C45.8483 18.5907 45.474 18.4478 45.0111 18.4478C44.6972 18.4478 44.4115 18.5283 44.1539 18.6893C43.8963 18.8462 43.6911 19.0696 43.5381 19.3594C43.3852 19.6451 43.3087 19.9792 43.3087 20.3615V26H41.1234ZM56.3802 26V16.7273H58.5656V26H56.3802ZM57.4789 15.4112C57.1328 15.4112 56.835 15.2965 56.5854 15.0671C56.3359 14.8337 56.2112 14.554 56.2112 14.228C56.2112 13.898 56.3359 13.6183 56.5854 13.3888C56.835 13.1554 57.1328 13.0387 57.4789 13.0387C57.8291 13.0387 58.1269 13.1554 58.3724 13.3888C58.6219 13.6183 58.7467 13.898 58.7467 14.228C58.7467 14.554 58.6219 14.8337 58.3724 15.0671C58.1269 15.2965 57.8291 15.4112 57.4789 15.4112ZM62.9982 20.5668V26H60.8128V16.7273H62.9016V18.3029H63.0103C63.2236 17.7837 63.5636 17.3712 64.0305 17.0653C64.5014 16.7595 65.0829 16.6065 65.7752 16.6065C66.4151 16.6065 66.9725 16.7434 67.4474 17.017C67.9263 17.2907 68.2966 17.6871 68.5582 18.2063C68.8238 18.7255 68.9546 19.3554 68.9506 20.0959V26H66.7652V20.4339C66.7652 19.8142 66.6042 19.3292 66.2823 18.979C65.9643 18.6289 65.5236 18.4538 64.9602 18.4538C64.5778 18.4538 64.2378 18.5384 63.9399 18.7074C63.6461 18.8724 63.4147 19.1119 63.2457 19.4258C63.0807 19.7397 62.9982 20.12 62.9982 20.5668ZM75.2049 29.6705C74.4201 29.6705 73.7459 29.5638 73.1825 29.3505C72.619 29.1412 72.1663 28.8595 71.8242 28.5053C71.4821 28.1512 71.2446 27.7588 71.1118 27.3281L73.0799 26.8512C73.1684 27.0323 73.2972 27.2114 73.4662 27.3885C73.6353 27.5696 73.8626 27.7185 74.1484 27.8352C74.4382 27.956 74.8024 28.0163 75.2411 28.0163C75.8609 28.0163 76.374 27.8654 76.7805 27.5636C77.187 27.2657 77.3902 26.7747 77.3902 26.0906V24.3338H77.2816C77.1689 24.5592 77.0039 24.7906 76.7865 25.0281C76.5732 25.2655 76.2895 25.4647 75.9353 25.6257C75.5852 25.7867 75.1445 25.8672 74.6132 25.8672C73.9009 25.8672 73.2549 25.7002 72.6754 25.3661C72.0999 25.0281 71.6411 24.525 71.299 23.8569C70.9609 23.1848 70.7919 22.3436 70.7919 21.3335C70.7919 20.3152 70.9609 19.456 71.299 18.7557C71.6411 18.0514 72.1019 17.5181 72.6814 17.1559C73.261 16.7897 73.9069 16.6065 74.6193 16.6065C75.1626 16.6065 75.6093 16.6991 75.9595 16.8842C76.3136 17.0653 76.5954 17.2847 76.8046 17.5423C77.0139 17.7958 77.1729 18.0353 77.2816 18.2607H77.4023V16.7273H79.5575V26.1509C79.5575 26.9438 79.3683 27.5998 78.99 28.119C78.6117 28.6381 78.0945 29.0265 77.4385 29.2841C76.7825 29.5417 76.038 29.6705 75.2049 29.6705ZM75.223 24.1527C75.6858 24.1527 76.0802 24.04 76.4062 23.8146C76.7322 23.5893 76.9797 23.2653 77.1487 22.8427C77.3178 22.4201 77.4023 21.913 77.4023 21.3214C77.4023 20.7378 77.3178 20.2267 77.1487 19.788C76.9837 19.3493 76.7382 19.0092 76.4122 18.7678C76.0903 18.5223 75.6938 18.3995 75.223 18.3995C74.736 18.3995 74.3295 18.5263 74.0035 18.7798C73.6775 19.0334 73.432 19.3815 73.267 19.8242C73.102 20.2629 73.0195 20.762 73.0195 21.3214C73.0195 21.8888 73.102 22.3859 73.267 22.8125C73.436 23.2351 73.6835 23.5651 74.0095 23.8026C74.3396 24.036 74.744 24.1527 75.223 24.1527ZM92.8297 17.0352C92.7733 16.5079 92.5359 16.0974 92.1173 15.8036C91.7028 15.5098 91.1635 15.3629 90.4994 15.3629C90.0326 15.3629 89.6321 15.4334 89.2981 15.5742C88.964 15.7151 88.7085 15.9062 88.5314 16.1477C88.3543 16.3892 88.2637 16.6649 88.2597 16.9748C88.2597 17.2324 88.3181 17.4557 88.4348 17.6449C88.5555 17.834 88.7185 17.995 88.9238 18.1278C89.129 18.2566 89.3564 18.3653 89.606 18.4538C89.8555 18.5424 90.107 18.6168 90.3606 18.6772L91.5197 18.967C91.9865 19.0756 92.4353 19.2225 92.8659 19.4077C93.3006 19.5928 93.6889 19.8262 94.031 20.108C94.3771 20.3897 94.6508 20.7298 94.8521 21.1282C95.0533 21.5266 95.1539 21.9935 95.1539 22.5288C95.1539 23.2532 94.9688 23.8911 94.5985 24.4425C94.2282 24.9898 93.693 25.4184 92.9927 25.7283C92.2964 26.0342 91.4533 26.1871 90.4632 26.1871C89.5013 26.1871 88.6662 26.0382 87.9579 25.7404C87.2536 25.4426 86.7022 25.0079 86.3038 24.4364C85.9093 23.8649 85.696 23.1687 85.6638 22.3477H87.8673C87.8995 22.7783 88.0323 23.1365 88.2658 23.4222C88.4992 23.708 88.803 23.9213 89.1773 24.0621C89.5556 24.203 89.9782 24.2734 90.4451 24.2734C90.9321 24.2734 91.3587 24.201 91.7249 24.0561C92.0952 23.9072 92.385 23.7019 92.5942 23.4403C92.8035 23.1747 92.9102 22.8648 92.9142 22.5107C92.9102 22.1887 92.8156 21.9231 92.6305 21.7138C92.4453 21.5005 92.1857 21.3234 91.8517 21.1825C91.5217 21.0376 91.1353 20.9089 90.6926 20.7962L89.286 20.4339C88.2678 20.1723 87.4628 19.7759 86.8712 19.2447C86.2836 18.7094 85.9898 17.9991 85.9898 17.1136C85.9898 16.3852 86.187 15.7473 86.5815 15.1999C86.9799 14.6526 87.5212 14.228 88.2054 13.9261C88.8896 13.6203 89.6643 13.4673 90.5296 13.4673C91.407 13.4673 92.1757 13.6203 92.8357 13.9261C93.4998 14.228 94.021 14.6486 94.3993 15.1879C94.7776 15.7231 94.9728 16.3389 94.9849 17.0352H92.8297ZM101.099 26.1811C100.193 26.1811 99.4084 25.9819 98.7444 25.5835C98.0803 25.185 97.5651 24.6276 97.1989 23.9112C96.8367 23.1948 96.6556 22.3577 96.6556 21.3999C96.6556 20.442 96.8367 19.6029 97.1989 18.8825C97.5651 18.162 98.0803 17.6026 98.7444 17.2042C99.4084 16.8058 100.193 16.6065 101.099 16.6065C102.004 16.6065 102.789 16.8058 103.453 17.2042C104.117 17.6026 104.63 18.162 104.993 18.8825C105.359 19.6029 105.542 20.442 105.542 21.3999C105.542 22.3577 105.359 23.1948 104.993 23.9112C104.63 24.6276 104.117 25.185 103.453 25.5835C102.789 25.9819 102.004 26.1811 101.099 26.1811ZM101.111 24.4304C101.602 24.4304 102.012 24.2956 102.342 24.0259C102.672 23.7522 102.918 23.386 103.079 22.9272C103.244 22.4684 103.326 21.9573 103.326 21.3938C103.326 20.8263 103.244 20.3132 103.079 19.8544C102.918 19.3916 102.672 19.0233 102.342 18.7496C102.012 18.476 101.602 18.3391 101.111 18.3391C100.608 18.3391 100.189 18.476 99.8552 18.7496C99.5251 19.0233 99.2776 19.3916 99.1126 19.8544C98.9516 20.3132 98.8711 20.8263 98.8711 21.3938C98.8711 21.9573 98.9516 22.4684 99.1126 22.9272C99.2776 23.386 99.5251 23.7522 99.8552 24.0259C100.189 24.2956 100.608 24.4304 101.111 24.4304ZM111.442 26.1811C110.536 26.1811 109.751 25.9819 109.087 25.5835C108.423 25.185 107.908 24.6276 107.542 23.9112C107.179 23.1948 106.998 22.3577 106.998 21.3999C106.998 20.442 107.179 19.6029 107.542 18.8825C107.908 18.162 108.423 17.6026 109.087 17.2042C109.751 16.8058 110.536 16.6065 111.442 16.6065C112.347 16.6065 113.132 16.8058 113.796 17.2042C114.46 17.6026 114.973 18.162 115.335 18.8825C115.702 19.6029 115.885 20.442 115.885 21.3999C115.885 22.3577 115.702 23.1948 115.335 23.9112C114.973 24.6276 114.46 25.185 113.796 25.5835C113.132 25.9819 112.347 26.1811 111.442 26.1811ZM111.454 24.4304C111.945 24.4304 112.355 24.2956 112.685 24.0259C113.015 23.7522 113.261 23.386 113.422 22.9272C113.587 22.4684 113.669 21.9573 113.669 21.3938C113.669 20.8263 113.587 20.3132 113.422 19.8544C113.261 19.3916 113.015 19.0233 112.685 18.7496C112.355 18.476 111.945 18.3391 111.454 18.3391C110.951 18.3391 110.532 18.476 110.198 18.7496C109.868 19.0233 109.62 19.3916 109.455 19.8544C109.294 20.3132 109.214 20.8263 109.214 21.3938C109.214 21.9573 109.294 22.4684 109.455 22.9272C109.62 23.386 109.868 23.7522 110.198 24.0259C110.532 24.2956 110.951 24.4304 111.454 24.4304ZM119.925 20.5668V26H117.74V16.7273H119.828V18.3029H119.937C120.15 17.7837 120.49 17.3712 120.957 17.0653C121.428 16.7595 122.01 16.6065 122.702 16.6065C123.342 16.6065 123.899 16.7434 124.374 17.017C124.853 17.2907 125.223 17.6871 125.485 18.2063C125.751 18.7255 125.881 19.3554 125.877 20.0959V26H123.692V20.4339C123.692 19.8142 123.531 19.3292 123.209 18.979C122.891 18.6289 122.45 18.4538 121.887 18.4538C121.505 18.4538 121.165 18.5384 120.867 18.7074C120.573 18.8724 120.341 19.1119 120.172 19.4258C120.007 19.7397 119.925 20.12 119.925 20.5668Z" fill="#2F9461"/>
</svg>
