<svg width="1280" height="277" viewBox="0 0 1280 277" fill="none" xmlns="http://www.w3.org/2000/svg">
<rect width="14.8591" height="12.397" transform="matrix(0.524016 -0.851708 0.879249 0.476362 445.877 174.351)" fill="#FDA5A5" fill-opacity="0.85"/>
<rect width="19.1716" height="10.8175" transform="matrix(-0.796202 -0.605031 0.65332 -0.757082 859.543 164.984)" fill="#3DBD96" fill-opacity="0.35"/>
<rect width="10.8269" height="5.78989" transform="matrix(-0.220914 0.975293 -0.980682 -0.195609 535.392 159.893)" fill="#ECB43C" fill-opacity="0.35"/>
<rect width="20.984" height="5.8032" transform="matrix(-0.0743114 0.997235 -0.997854 -0.0654781 547.599 255.348)" fill="#56B8A5"/>
<rect width="18.7793" height="11.0401" transform="matrix(-0.554254 0.832348 -0.862635 -0.505827 404.776 83.1694)" fill="#56B8A5" fill-opacity="0.35"/>
<rect width="12.5254" height="9.53203" transform="matrix(-0.774886 0.632101 -0.679578 -0.733604 17.292 130.621)" fill="#3DBD96" fill-opacity="0.65"/>
<rect width="32.4854" height="5.7964" transform="matrix(-0.166428 0.986054 -0.989135 -0.147012 133.932 103.892)" fill="#ECB43C"/>
<rect width="42.9187" height="9.81105" transform="matrix(-0.344475 -0.938796 0.95156 -0.307463 957.195 108.984)" fill="#56B8A5" fill-opacity="0.45"/>
<rect width="46.8714" height="5.75605" transform="matrix(0.395454 0.918486 -0.935052 0.354512 380.732 137.71)" fill="#3DBD96" fill-opacity="0.9"/>
<rect x="186.827" y="236.256" width="22.3542" height="9.26546" fill="#3DBD96" fill-opacity="0.9"/>
<rect width="28.0653" height="8.31361" transform="matrix(0.65332 -0.757082 0.796202 0.605031 1140.29 237.53)" fill="#56B8A5" fill-opacity="0.6"/>
<rect width="15.502" height="9.31307" transform="matrix(0.965652 -0.259838 0.292231 0.956348 420.108 21.1685)" fill="#ECB43C" fill-opacity="0.75"/>
<rect width="38.8596" height="8.24095" transform="matrix(0.752552 0.658533 -0.704881 0.709325 38.9922 157.348)" fill="#ECB43C" fill-opacity="0.85"/>
<rect width="10.7988" height="12.5826" transform="matrix(-0.0743114 -0.997235 0.997854 -0.0654781 1220.31 116.621)" fill="#ECB43C" fill-opacity="0.6"/>
<rect width="11.2406" height="10.8056" transform="matrix(-0.806474 -0.59127 0.639841 -0.768507 757.822 241.348)" fill="#3DBD96" fill-opacity="0.6"/>
<rect width="8.78999" height="6.72125" transform="matrix(-0.998793 0.0491198 -0.0557614 -0.998444 9.1543 30.0757)" fill="#56B8A5" fill-opacity="0.75"/>
<rect width="8.71092" height="8.07505" transform="matrix(0.929012 0.370049 -0.412138 0.911121 1029.08 8.43799)" fill="#FDA5A5" fill-opacity="0.45"/>
<rect width="47.2636" height="9.44998" transform="matrix(0.853931 -0.520386 0.569062 0.822295 973.471 226.075)" fill="#FDA5A5" fill-opacity="0.45"/>
<rect width="48.5956" height="10.7481" transform="matrix(0.853931 -0.520386 0.569062 0.822295 211.24 195.53)" fill="#ECB43C" fill-opacity="0.85"/>
<rect width="10.0306" height="10.6746" transform="matrix(0.909288 0.416168 -0.46118 0.887307 311.103 110.611)" fill="#3DBD96" fill-opacity="0.65"/>
<rect width="26.2547" height="5.76804" transform="matrix(-0.344475 -0.938796 0.95156 -0.307463 357.719 243.893)" fill="#56B8A5" fill-opacity="0.9"/>
<rect width="32.4643" height="9.86498" transform="matrix(0.129739 -0.991548 0.993428 0.114463 524.542 224.802)" fill="#3DBD96" fill-opacity="0.6"/>
<rect width="13.8763" height="8.20456" transform="matrix(-0.796202 0.605031 -0.65332 -0.757082 213.953 91.1665)" fill="#56B8A5" fill-opacity="0.35"/>
<rect width="42.6215" height="10.5597" transform="matrix(0.986586 0.163245 -0.184671 0.9828 1073.84 162.439)" fill="#56B8A5" fill-opacity="0.65"/>
<rect width="32.1623" height="10.9017" transform="matrix(0.717169 0.696899 -0.741006 0.671498 1256.93 138.256)" fill="#ECB43C" fill-opacity="0.75"/>
<rect width="35.4626" height="5.73301" transform="matrix(-0.477172 -0.87881 0.902178 -0.431364 253.285 222.256)" fill="#56B8A5"/>
<rect width="27.4812" height="7.12861" transform="matrix(-0.292231 -0.956348 0.965652 -0.259838 1048.07 144.621)" fill="#FDA5A5" fill-opacity="0.6"/>
<ellipse cx="916.256" cy="180.492" rx="3.58273" ry="3.81794" transform="rotate(-90 916.256 180.492)" fill="#FDA5A5"/>
<ellipse cx="171.657" cy="8.67352" rx="8.67364" ry="9.24307" transform="rotate(-90 171.657 8.67352)" fill="#3DBD96" fill-opacity="0.65"/>
<ellipse cx="737.227" cy="161.401" rx="8.67364" ry="9.24307" transform="rotate(-90 737.227 161.401)" fill="#3DBD96" fill-opacity="0.35"/>
<ellipse cx="303.217" cy="219.946" rx="7.40092" ry="7.88678" transform="rotate(-90 303.217 219.946)" fill="#FDA5A5"/>
<ellipse cx="1211.93" cy="132.128" rx="6.12819" ry="6.5305" transform="rotate(-90 1211.93 132.128)" fill="#ECB43C" fill-opacity="0.9"/>
<ellipse cx="1004.42" cy="102.856" rx="6.12819" ry="6.5305" transform="rotate(-90 1004.42 102.856)" fill="#ECB43C" fill-opacity="0.9"/>
<ellipse cx="501.234" cy="195.765" rx="6.12819" ry="6.5305" transform="rotate(-90 501.234 195.765)" fill="#56B8A5" fill-opacity="0.6"/>
<ellipse cx="611.093" cy="102.856" rx="4.85546" ry="5.17422" transform="rotate(-90 611.093 102.856)" fill="#FDA5A5" fill-opacity="0.35"/>
<ellipse cx="390.019" cy="214.855" rx="7.40092" ry="7.88678" transform="rotate(-90 390.019 214.855)" fill="#56B8A5" fill-opacity="0.65"/>
<ellipse cx="1087.15" cy="161.401" rx="7.40092" ry="7.88678" transform="rotate(-90 1087.15 161.401)" fill="#FDA5A5" fill-opacity="0.6"/>
<ellipse cx="1154.96" cy="120.674" rx="8.67364" ry="9.24307" transform="rotate(-90 1154.96 120.674)" fill="#3DBD96" fill-opacity="0.6"/>
<ellipse cx="12.2939" cy="66.5832" rx="4.21909" ry="4.49608" transform="rotate(-90 12.2939 66.5832)" fill="#3DBD96" fill-opacity="0.9"/>
<ellipse cx="1263.46" cy="190.675" rx="3.58273" ry="3.81794" transform="rotate(-90 1263.46 190.675)" fill="#3DBD96" fill-opacity="0.75"/>
<ellipse cx="109.268" cy="189.402" rx="8.67364" ry="9.24307" transform="rotate(-90 109.268 189.402)" fill="#ECB43C" fill-opacity="0.85"/>
<ellipse cx="217.093" cy="83.1291" rx="4.21909" ry="4.49608" transform="rotate(-90 217.093 83.1291)" fill="#ECB43C" fill-opacity="0.6"/>
<ellipse cx="208.955" cy="48.7648" rx="4.21909" ry="4.49608" transform="rotate(-90 208.955 48.7648)" fill="#FDA5A5"/>
<ellipse cx="656.528" cy="94.5833" rx="8.03728" ry="8.56493" transform="rotate(-90 656.528 94.5833)" fill="#ECB43C" fill-opacity="0.75"/>
<ellipse cx="870.821" cy="88.22" rx="8.03728" ry="8.56493" transform="rotate(-90 870.821 88.22)" fill="#56B8A5" fill-opacity="0.35"/>
<ellipse cx="994.921" cy="147.402" rx="6.12819" ry="6.5305" transform="rotate(-90 994.921 147.402)" fill="#FDA5A5" fill-opacity="0.65"/>
<ellipse cx="763.675" cy="34.7645" rx="5.49182" ry="5.85236" transform="rotate(-90 763.675 34.7645)" fill="#ECB43C" fill-opacity="0.35"/>
<ellipse cx="623.299" cy="39.2194" rx="8.67364" ry="9.24307" transform="rotate(-90 623.299 39.2194)" fill="#FDA5A5" fill-opacity="0.65"/>
<ellipse cx="594.139" cy="196.401" rx="5.49182" ry="5.85236" transform="rotate(-90 594.139 196.401)" fill="#3DBD96" fill-opacity="0.45"/>
<ellipse cx="920.326" cy="114.31" rx="3.58273" ry="3.81794" transform="rotate(-90 920.326 114.31)" fill="#3DBD96" fill-opacity="0.9"/>
<ellipse cx="741.296" cy="41.7649" rx="6.12819" ry="6.5305" transform="rotate(-90 741.296 41.7649)" fill="#56B8A5" fill-opacity="0.65"/>
<ellipse cx="65.1891" cy="37.31" rx="2.94637" ry="3.13979" transform="rotate(-90 65.1891 37.31)" fill="#56B8A5" fill-opacity="0.85"/>
<ellipse cx="240.828" cy="114.31" rx="3.58273" ry="3.81794" transform="rotate(-90 240.828 114.31)" fill="#ECB43C" fill-opacity="0.45"/>
<ellipse cx="19.0755" cy="114.947" rx="5.49182" ry="5.85236" transform="rotate(-90 19.0755 114.947)" fill="#FDA5A5" fill-opacity="0.35"/>
<ellipse cx="582.611" cy="227.583" rx="7.40092" ry="7.88678" transform="rotate(-90 582.611 227.583)" fill="#FDA5A5" fill-opacity="0.75"/>
</svg>
