<svg width="90" height="88" viewBox="0 0 90 88" fill="none" xmlns="http://www.w3.org/2000/svg">
<g clip-path="url(#clip0_3323_4251)">
<path fill-rule="evenodd" clip-rule="evenodd" d="M81.7368 42.5868V62.0003C81.7368 64.6245 80.6703 67.0039 78.9527 68.7215C77.2352 70.4391 74.8557 71.5056 72.2317 71.5056H14.6864C12.0622 71.5056 9.68275 70.4391 7.96516 68.7215C6.24759 67.0039 5.18115 64.6245 5.18115 62.0003V26.0346C5.18115 23.399 6.25695 21.0101 7.98771 19.2908C9.70354 17.5865 12.0738 16.5293 14.6864 16.5293H55.6794C55.0928 17.9933 54.6738 19.5427 54.4465 21.1535H14.6864C14.2752 21.1535 13.8762 21.2042 13.4951 21.2996L42.6057 47.3586L42.6077 47.3605C43.0935 47.7904 43.8237 47.7907 44.3097 47.3609L44.3123 47.3586L57.7602 35.3139C58.6372 36.5902 59.6582 37.7598 60.7998 38.7993L57.5595 41.7014L76.9566 63.2314C77.0585 62.8383 77.1126 62.4259 77.1126 62.0003V43.8197C78.7235 43.5924 80.2728 43.1734 81.7368 42.5868ZM54.1149 44.7867L73.792 66.6272C73.3023 66.7923 72.7778 66.8814 72.2317 66.8814H14.6864C14.1972 66.8814 13.7253 66.8099 13.2802 66.6764L34.0502 45.9063L39.5274 50.8093L39.5335 50.8147C41.7723 52.8047 45.1457 52.8047 47.3845 50.8147L47.3909 50.809L54.1149 44.7867ZM30.5997 42.8174L10.0104 63.4065C9.87689 62.9615 9.80532 62.4895 9.80532 62.0003V26.0346C9.80532 25.476 9.89864 24.9399 10.0709 24.4406L30.5997 42.8174Z" fill="white"/>
<path d="M74.2864 37.0806C81.5223 37.0806 87.3882 31.2147 87.3882 23.9788C87.3882 16.7428 81.5223 10.877 74.2864 10.877C67.0505 10.877 61.1846 16.7428 61.1846 23.9788C61.1846 31.2147 67.0505 37.0806 74.2864 37.0806Z" fill="#DBA73B" stroke="white" stroke-width="4.62417"/>
</g>
<defs>
<clipPath id="clip0_3323_4251">
<rect width="89.4006" height="86.3178" fill="white" transform="translate(0.299805 0.858398)"/>
</clipPath>
</defs>
</svg>
