<svg width="292" height="40" viewBox="0 0 292 40" fill="none" xmlns="http://www.w3.org/2000/svg">
<rect x="0.5" width="291" height="40" rx="8" fill="#FDF9F1"/>
<path d="M31.0168 26V13.6364H38.9373V15.5138H33.2565V18.8704H38.394V20.7479H33.2565V26H31.0168ZM40.7484 26V16.7273H42.8673V18.2727H42.9639C43.1329 17.7375 43.4227 17.3249 43.8332 17.0352C44.2478 16.7414 44.7207 16.5945 45.2519 16.5945C45.3726 16.5945 45.5075 16.6005 45.6564 16.6126C45.8093 16.6206 45.9361 16.6347 46.0367 16.6548V18.6651C45.9441 18.6329 45.7972 18.6048 45.596 18.5806C45.3988 18.5524 45.2076 18.5384 45.0225 18.5384C44.6241 18.5384 44.2659 18.6249 43.9479 18.7979C43.634 18.967 43.3865 19.2024 43.2054 19.5043C43.0243 19.8061 42.9337 20.1542 42.9337 20.5487V26H40.7484ZM51.2119 26.1811C50.2822 26.1811 49.4793 25.9879 48.8031 25.6016C48.131 25.2112 47.6139 24.6598 47.2516 23.9474C46.8894 23.2311 46.7083 22.3879 46.7083 21.418C46.7083 20.4641 46.8894 19.627 47.2516 18.9066C47.6179 18.1822 48.129 17.6187 48.785 17.2163C49.441 16.8098 50.2118 16.6065 51.0972 16.6065C51.6687 16.6065 52.208 16.6991 52.7151 16.8842C53.2262 17.0653 53.677 17.3471 54.0673 17.7294C54.4618 18.1117 54.7716 18.5987 54.997 19.1903C55.2224 19.7779 55.3351 20.4782 55.3351 21.2912V21.9613H47.7346V20.4883H53.2403C53.2363 20.0697 53.1457 19.6974 52.9686 19.3714C52.7915 19.0414 52.544 18.7818 52.2261 18.5927C51.9122 18.4035 51.5459 18.3089 51.1274 18.3089C50.6806 18.3089 50.2882 18.4176 49.9502 18.6349C49.6121 18.8482 49.3485 19.13 49.1593 19.4801C48.9742 19.8262 48.8796 20.2066 48.8756 20.6211V21.907C48.8756 22.4463 48.9742 22.9091 49.1714 23.2955C49.3686 23.6778 49.6443 23.9716 49.9984 24.1768C50.3526 24.3781 50.7671 24.4787 51.2421 24.4787C51.56 24.4787 51.8478 24.4344 52.1053 24.3459C52.3629 24.2533 52.5863 24.1185 52.7754 23.9414C52.9646 23.7643 53.1075 23.545 53.2041 23.2834L55.2445 23.5128C55.1158 24.0521 54.8703 24.523 54.508 24.9254C54.1498 25.3239 53.691 25.6338 53.1316 25.8551C52.5722 26.0724 51.9323 26.1811 51.2119 26.1811ZM63.3718 29.4773V24.5391H63.2812C63.1685 24.7644 63.0055 25.0039 62.7922 25.2575C62.5789 25.507 62.2972 25.7203 61.947 25.8974C61.5969 26.0745 61.1562 26.163 60.625 26.163C59.8965 26.163 59.2445 25.9759 58.669 25.6016C58.0935 25.2273 57.6387 24.6839 57.3046 23.9716C56.9706 23.2592 56.8036 22.3939 56.8036 21.3757C56.8036 20.3454 56.9726 19.4761 57.3107 18.7678C57.6528 18.0554 58.1136 17.5181 58.6931 17.1559C59.2727 16.7897 59.9186 16.6065 60.631 16.6065C61.1743 16.6065 61.621 16.6991 61.9712 16.8842C62.3213 17.0653 62.599 17.2847 62.8043 17.5423C63.0095 17.7958 63.1685 18.0353 63.2812 18.2607H63.414V16.7273H65.5632V29.4773H63.3718ZM61.2347 24.37C61.6975 24.37 62.0919 24.2453 62.4179 23.9957C62.7439 23.7422 62.9914 23.39 63.1605 22.9393C63.3295 22.4885 63.414 21.9633 63.414 21.3636C63.414 20.764 63.3295 20.2428 63.1605 19.8001C62.9955 19.3574 62.75 19.0133 62.424 18.7678C62.102 18.5223 61.7056 18.3995 61.2347 18.3995C60.7477 18.3995 60.3412 18.5263 60.0152 18.7798C59.6892 19.0334 59.4437 19.3835 59.2787 19.8303C59.1137 20.277 59.0312 20.7881 59.0312 21.3636C59.0312 21.9432 59.1137 22.4603 59.2787 22.9151C59.4478 23.3659 59.6953 23.7221 60.0213 23.9837C60.3513 24.2412 60.7558 24.37 61.2347 24.37ZM73.7191 22.1001V16.7273H75.9044V26H73.7855V24.3519H73.6889C73.4796 24.8711 73.1355 25.2957 72.6566 25.6257C72.1817 25.9557 71.5961 26.1207 70.8998 26.1207C70.2921 26.1207 69.7548 25.9859 69.288 25.7163C68.8251 25.4426 68.4629 25.0462 68.2013 24.527C67.9397 24.0038 67.8089 23.3719 67.8089 22.6314V16.7273H69.9943V22.2933C69.9943 22.8809 70.1553 23.3478 70.4772 23.6939C70.7992 24.04 71.2218 24.2131 71.745 24.2131C72.067 24.2131 72.3789 24.1346 72.6807 23.9776C72.9826 23.8207 73.2301 23.5872 73.4233 23.2773C73.6205 22.9634 73.7191 22.571 73.7191 22.1001ZM82.2568 26.1811C81.3271 26.1811 80.5242 25.9879 79.8481 25.6016C79.1759 25.2112 78.6588 24.6598 78.2966 23.9474C77.9343 23.2311 77.7532 22.3879 77.7532 21.418C77.7532 20.4641 77.9343 19.627 78.2966 18.9066C78.6628 18.1822 79.1739 17.6187 79.8299 17.2163C80.486 16.8098 81.2567 16.6065 82.1421 16.6065C82.7136 16.6065 83.2529 16.6991 83.76 16.8842C84.2711 17.0653 84.7219 17.3471 85.1123 17.7294C85.5067 18.1117 85.8166 18.5987 86.0419 19.1903C86.2673 19.7779 86.38 20.4782 86.38 21.2912V21.9613H78.7795V20.4883H84.2852C84.2812 20.0697 84.1906 19.6974 84.0135 19.3714C83.8365 19.0414 83.5889 18.7818 83.271 18.5927C82.9571 18.4035 82.5908 18.3089 82.1723 18.3089C81.7255 18.3089 81.3331 18.4176 80.9951 18.6349C80.657 18.8482 80.3934 19.13 80.2042 19.4801C80.0191 19.8262 79.9245 20.2066 79.9205 20.6211V21.907C79.9205 22.4463 80.0191 22.9091 80.2163 23.2955C80.4135 23.6778 80.6892 23.9716 81.0434 24.1768C81.3975 24.3781 81.8121 24.4787 82.287 24.4787C82.6049 24.4787 82.8927 24.4344 83.1503 24.3459C83.4078 24.2533 83.6312 24.1185 83.8204 23.9414C84.0095 23.7643 84.1524 23.545 84.249 23.2834L86.2895 23.5128C86.1607 24.0521 85.9152 24.523 85.553 24.9254C85.1948 25.3239 84.736 25.6338 84.1765 25.8551C83.6171 26.0724 82.9772 26.1811 82.2568 26.1811ZM90.4142 20.5668V26H88.2288V16.7273H90.3176V18.3029H90.4263C90.6396 17.7837 90.9797 17.3712 91.4465 17.0653C91.9174 16.7595 92.4989 16.6065 93.1912 16.6065C93.8311 16.6065 94.3885 16.7434 94.8634 17.017C95.3423 17.2907 95.7126 17.6871 95.9742 18.2063C96.2398 18.7255 96.3706 19.3554 96.3666 20.0959V26H94.1812V20.4339C94.1812 19.8142 94.0203 19.3292 93.6983 18.979C93.3803 18.6289 92.9396 18.4538 92.3762 18.4538C91.9939 18.4538 91.6538 18.5384 91.356 18.7074C91.0622 18.8724 90.8307 19.1119 90.6617 19.4258C90.4967 19.7397 90.4142 20.12 90.4142 20.5668ZM103.219 16.7273V18.4176H97.8879V16.7273H103.219ZM99.204 14.5057H101.389V23.2109C101.389 23.5047 101.434 23.7301 101.522 23.8871C101.615 24.04 101.735 24.1446 101.884 24.201C102.033 24.2573 102.198 24.2855 102.379 24.2855C102.516 24.2855 102.641 24.2754 102.754 24.2553C102.87 24.2352 102.959 24.2171 103.019 24.201L103.388 25.9094C103.271 25.9497 103.104 25.994 102.886 26.0423C102.673 26.0906 102.412 26.1187 102.102 26.1268C101.554 26.1429 101.061 26.0604 100.623 25.8793C100.184 25.6941 99.8358 25.4084 99.5783 25.022C99.3247 24.6357 99.1999 24.1527 99.204 23.5732V14.5057ZM107.431 13.6364V26H105.245V13.6364H107.431ZM111.036 29.4773C110.739 29.4773 110.463 29.4531 110.209 29.4048C109.96 29.3606 109.761 29.3082 109.612 29.2479L110.119 27.5455C110.437 27.638 110.72 27.6823 110.97 27.6783C111.219 27.6742 111.439 27.5958 111.628 27.4428C111.821 27.2939 111.984 27.0444 112.117 26.6942L112.304 26.1932L108.942 16.7273H111.26L113.397 23.7301H113.493L115.636 16.7273H117.961L114.248 27.1229C114.075 27.6139 113.846 28.0344 113.56 28.3846C113.274 28.7388 112.924 29.0084 112.509 29.1935C112.099 29.3827 111.608 29.4773 111.036 29.4773ZM125.374 26H122.983L127.336 13.6364H130.101L134.46 26H132.069L128.767 16.1719H128.67L125.374 26ZM125.453 21.1523H131.972V22.9513H125.453V21.1523ZM143.171 19.1783L141.179 19.3956C141.122 19.1944 141.024 19.0052 140.883 18.8281C140.746 18.651 140.561 18.5082 140.328 18.3995C140.094 18.2908 139.808 18.2365 139.47 18.2365C139.016 18.2365 138.633 18.3351 138.323 18.5323C138.017 18.7295 137.866 18.9851 137.871 19.299C137.866 19.5687 137.965 19.788 138.166 19.957C138.372 20.1261 138.71 20.2649 139.181 20.3736L140.762 20.7116C141.64 20.9008 142.292 21.2006 142.718 21.6112C143.149 22.0217 143.366 22.5589 143.37 23.223C143.366 23.8066 143.195 24.3217 142.857 24.7685C142.523 25.2112 142.058 25.5573 141.462 25.8068C140.867 26.0563 140.183 26.1811 139.41 26.1811C138.275 26.1811 137.361 25.9437 136.669 25.4688C135.977 24.9898 135.564 24.3237 135.432 23.4705L137.563 23.2653C137.659 23.6838 137.864 23.9998 138.178 24.2131C138.492 24.4264 138.901 24.533 139.404 24.533C139.923 24.533 140.34 24.4264 140.654 24.2131C140.971 23.9998 141.13 23.7362 141.13 23.4222C141.13 23.1566 141.028 22.9373 140.823 22.7642C140.621 22.5911 140.307 22.4583 139.881 22.3658L138.299 22.0337C137.41 21.8486 136.752 21.5367 136.325 21.098C135.898 20.6553 135.687 20.0959 135.691 19.4197C135.687 18.8482 135.842 18.3532 136.156 17.9347C136.474 17.5121 136.915 17.1861 137.478 16.9567C138.046 16.7232 138.7 16.6065 139.44 16.6065C140.527 16.6065 141.382 16.8379 142.006 17.3008C142.634 17.7636 143.022 18.3894 143.171 19.1783ZM147.164 23.0902L147.158 20.4521H147.508L150.841 16.7273H153.394L149.295 21.2912H148.843L147.164 23.0902ZM145.172 26V13.6364H147.358V26H145.172ZM150.992 26L147.973 21.7802L149.446 20.2408L153.606 26H150.992ZM158.574 26.1811C157.644 26.1811 156.842 25.9879 156.165 25.6016C155.493 25.2112 154.976 24.6598 154.614 23.9474C154.252 23.2311 154.071 22.3879 154.071 21.418C154.071 20.4641 154.252 19.627 154.614 18.9066C154.98 18.1822 155.491 17.6187 156.147 17.2163C156.803 16.8098 157.574 16.6065 158.459 16.6065C159.031 16.6065 159.57 16.6991 160.077 16.8842C160.588 17.0653 161.039 17.3471 161.43 17.7294C161.824 18.1117 162.134 18.5987 162.359 19.1903C162.585 19.7779 162.697 20.4782 162.697 21.2912V21.9613H155.097V20.4883H160.603C160.599 20.0697 160.508 19.6974 160.331 19.3714C160.154 19.0414 159.906 18.7818 159.588 18.5927C159.274 18.4035 158.908 18.3089 158.49 18.3089C158.043 18.3089 157.651 18.4176 157.312 18.6349C156.974 18.8482 156.711 19.13 156.522 19.4801C156.336 19.8262 156.242 20.2066 156.238 20.6211V21.907C156.238 22.4463 156.336 22.9091 156.534 23.2955C156.731 23.6778 157.007 23.9716 157.361 24.1768C157.715 24.3781 158.129 24.4787 158.604 24.4787C158.922 24.4787 159.21 24.4344 159.468 24.3459C159.725 24.2533 159.949 24.1185 160.138 23.9414C160.327 23.7643 160.47 23.545 160.566 23.2834L162.607 23.5128C162.478 24.0521 162.233 24.523 161.87 24.9254C161.512 25.3239 161.053 25.6338 160.494 25.8551C159.934 26.0724 159.295 26.1811 158.574 26.1811ZM167.987 26.163C167.259 26.163 166.607 25.9759 166.031 25.6016C165.456 25.2273 165.001 24.6839 164.667 23.9716C164.333 23.2592 164.166 22.3939 164.166 21.3757C164.166 20.3454 164.335 19.4761 164.673 18.7678C165.015 18.0554 165.476 17.5181 166.055 17.1559C166.635 16.7897 167.281 16.6065 167.993 16.6065C168.537 16.6065 168.983 16.6991 169.333 16.8842C169.684 17.0653 169.961 17.2847 170.167 17.5423C170.372 17.7958 170.531 18.0353 170.644 18.2607H170.734V13.6364H172.925V26H170.776V24.5391H170.644C170.531 24.7644 170.368 25.0039 170.155 25.2575C169.941 25.507 169.659 25.7203 169.309 25.8974C168.959 26.0745 168.519 26.163 167.987 26.163ZM168.597 24.37C169.06 24.37 169.454 24.2453 169.78 23.9957C170.106 23.7422 170.354 23.39 170.523 22.9393C170.692 22.4885 170.776 21.9633 170.776 21.3636C170.776 20.764 170.692 20.2428 170.523 19.8001C170.358 19.3574 170.112 19.0133 169.786 18.7678C169.464 18.5223 169.068 18.3995 168.597 18.3995C168.11 18.3995 167.704 18.5263 167.378 18.7798C167.052 19.0334 166.806 19.3835 166.641 19.8303C166.476 20.277 166.394 20.7881 166.394 21.3636C166.394 21.9432 166.476 22.4603 166.641 22.9151C166.81 23.3659 167.058 23.7221 167.384 23.9837C167.714 24.2412 168.118 24.37 168.597 24.37ZM184.174 21.8466H186.202L187.404 23.4041L188.261 24.4183L190.319 27.0625H188.146L186.746 25.2876L186.148 24.4425L184.174 21.8466ZM190.615 19.8182C190.615 21.1503 190.366 22.2913 189.867 23.2411C189.372 24.1869 188.695 24.9113 187.838 25.4144C186.985 25.9175 186.017 26.169 184.934 26.169C183.852 26.169 182.882 25.9175 182.025 25.4144C181.171 24.9073 180.495 24.1809 179.996 23.2351C179.501 22.2853 179.254 21.1463 179.254 19.8182C179.254 18.486 179.501 17.3471 179.996 16.4013C180.495 15.4515 181.171 14.725 182.025 14.2219C182.882 13.7189 183.852 13.4673 184.934 13.4673C186.017 13.4673 186.985 13.7189 187.838 14.2219C188.695 14.725 189.372 15.4515 189.867 16.4013C190.366 17.3471 190.615 18.486 190.615 19.8182ZM188.363 19.8182C188.363 18.8804 188.217 18.0896 187.923 17.4457C187.633 16.7977 187.23 16.3087 186.715 15.9787C186.2 15.6446 185.607 15.4776 184.934 15.4776C184.262 15.4776 183.669 15.6446 183.154 15.9787C182.638 16.3087 182.234 16.7977 181.94 17.4457C181.65 18.0896 181.505 18.8804 181.505 19.8182C181.505 20.7559 181.65 21.5488 181.94 22.1967C182.234 22.8407 182.638 23.3297 183.154 23.6637C183.669 23.9937 184.262 24.1587 184.934 24.1587C185.607 24.1587 186.2 23.9937 186.715 23.6637C187.23 23.3297 187.633 22.8407 187.923 22.1967C188.217 21.5488 188.363 20.7559 188.363 19.8182ZM198.563 22.1001V16.7273H200.748V26H198.629V24.3519H198.533C198.323 24.8711 197.979 25.2957 197.5 25.6257C197.025 25.9557 196.44 26.1207 195.744 26.1207C195.136 26.1207 194.599 25.9859 194.132 25.7163C193.669 25.4426 193.307 25.0462 193.045 24.527C192.783 24.0038 192.653 23.3719 192.653 22.6314V16.7273H194.838V22.2933C194.838 22.8809 194.999 23.3478 195.321 23.6939C195.643 24.04 196.066 24.2131 196.589 24.2131C196.911 24.2131 197.223 24.1346 197.524 23.9776C197.826 23.8207 198.074 23.5872 198.267 23.2773C198.464 22.9634 198.563 22.571 198.563 22.1001ZM207.101 26.1811C206.171 26.1811 205.368 25.9879 204.692 25.6016C204.02 25.2112 203.503 24.6598 203.14 23.9474C202.778 23.2311 202.597 22.3879 202.597 21.418C202.597 20.4641 202.778 19.627 203.14 18.9066C203.507 18.1822 204.018 17.6187 204.674 17.2163C205.33 16.8098 206.1 16.6065 206.986 16.6065C207.557 16.6065 208.097 16.6991 208.604 16.8842C209.115 17.0653 209.566 17.3471 209.956 17.7294C210.35 18.1117 210.66 18.5987 210.886 19.1903C211.111 19.7779 211.224 20.4782 211.224 21.2912V21.9613H203.623V20.4883H209.129C209.125 20.0697 209.034 19.6974 208.857 19.3714C208.68 19.0414 208.433 18.7818 208.115 18.5927C207.801 18.4035 207.435 18.3089 207.016 18.3089C206.569 18.3089 206.177 18.4176 205.839 18.6349C205.501 18.8482 205.237 19.13 205.048 19.4801C204.863 19.8262 204.768 20.2066 204.764 20.6211V21.907C204.764 22.4463 204.863 22.9091 205.06 23.2955C205.257 23.6778 205.533 23.9716 205.887 24.1768C206.241 24.3781 206.656 24.4787 207.131 24.4787C207.449 24.4787 207.736 24.4344 207.994 24.3459C208.252 24.2533 208.475 24.1185 208.664 23.9414C208.853 23.7643 208.996 23.545 209.093 23.2834L211.133 23.5128C211.004 24.0521 210.759 24.523 210.397 24.9254C210.039 25.3239 209.58 25.6338 209.02 25.8551C208.461 26.0724 207.821 26.1811 207.101 26.1811ZM220.401 19.1783L218.409 19.3956C218.353 19.1944 218.254 19.0052 218.113 18.8281C217.977 18.651 217.791 18.5082 217.558 18.3995C217.325 18.2908 217.039 18.2365 216.701 18.2365C216.246 18.2365 215.864 18.3351 215.554 18.5323C215.248 18.7295 215.097 18.9851 215.101 19.299C215.097 19.5687 215.196 19.788 215.397 19.957C215.602 20.1261 215.94 20.2649 216.411 20.3736L217.993 20.7116C218.87 20.9008 219.522 21.2006 219.949 21.6112C220.379 22.0217 220.597 22.5589 220.601 23.223C220.597 23.8066 220.426 24.3217 220.087 24.7685C219.753 25.2112 219.289 25.5573 218.693 25.8068C218.097 26.0563 217.413 26.1811 216.64 26.1811C215.505 26.1811 214.592 25.9437 213.9 25.4688C213.207 24.9898 212.795 24.3237 212.662 23.4705L214.793 23.2653C214.89 23.6838 215.095 23.9998 215.409 24.2131C215.723 24.4264 216.131 24.533 216.634 24.533C217.154 24.533 217.57 24.4264 217.884 24.2131C218.202 23.9998 218.361 23.7362 218.361 23.4222C218.361 23.1566 218.258 22.9373 218.053 22.7642C217.852 22.5911 217.538 22.4583 217.111 22.3658L215.53 22.0337C214.64 21.8486 213.982 21.5367 213.556 21.098C213.129 20.6553 212.918 20.0959 212.922 19.4197C212.918 18.8482 213.073 18.3532 213.386 17.9347C213.704 17.5121 214.145 17.1861 214.709 16.9567C215.276 16.7232 215.93 16.6065 216.671 16.6065C217.757 16.6065 218.612 16.8379 219.236 17.3008C219.864 17.7636 220.253 18.3894 220.401 19.1783ZM227.033 16.7273V18.4176H221.702V16.7273H227.033ZM223.018 14.5057H225.204V23.2109C225.204 23.5047 225.248 23.7301 225.337 23.8871C225.429 24.04 225.55 24.1446 225.699 24.201C225.848 24.2573 226.013 24.2855 226.194 24.2855C226.331 24.2855 226.455 24.2754 226.568 24.2553C226.685 24.2352 226.773 24.2171 226.834 24.201L227.202 25.9094C227.085 25.9497 226.918 25.994 226.701 26.0423C226.488 26.0906 226.226 26.1187 225.916 26.1268C225.369 26.1429 224.876 26.0604 224.437 25.8793C223.998 25.6941 223.65 25.4084 223.393 25.022C223.139 24.6357 223.014 24.1527 223.018 23.5732V14.5057ZM228.861 26V16.7273H231.046V26H228.861ZM229.959 15.4112C229.613 15.4112 229.315 15.2965 229.066 15.0671C228.816 14.8337 228.692 14.554 228.692 14.228C228.692 13.898 228.816 13.6183 229.066 13.3888C229.315 13.1554 229.613 13.0387 229.959 13.0387C230.31 13.0387 230.607 13.1554 230.853 13.3888C231.102 13.6183 231.227 13.898 231.227 14.228C231.227 14.554 231.102 14.8337 230.853 15.0671C230.607 15.2965 230.31 15.4112 229.959 15.4112ZM237.338 26.1811C236.432 26.1811 235.648 25.9819 234.984 25.5835C234.32 25.185 233.804 24.6276 233.438 23.9112C233.076 23.1948 232.895 22.3577 232.895 21.3999C232.895 20.442 233.076 19.6029 233.438 18.8825C233.804 18.162 234.32 17.6026 234.984 17.2042C235.648 16.8058 236.432 16.6065 237.338 16.6065C238.244 16.6065 239.028 16.8058 239.692 17.2042C240.356 17.6026 240.87 18.162 241.232 18.8825C241.598 19.6029 241.781 20.442 241.781 21.3999C241.781 22.3577 241.598 23.1948 241.232 23.9112C240.87 24.6276 240.356 25.185 239.692 25.5835C239.028 25.9819 238.244 26.1811 237.338 26.1811ZM237.35 24.4304C237.841 24.4304 238.252 24.2956 238.582 24.0259C238.912 23.7522 239.157 23.386 239.318 22.9272C239.483 22.4684 239.566 21.9573 239.566 21.3938C239.566 20.8263 239.483 20.3132 239.318 19.8544C239.157 19.3916 238.912 19.0233 238.582 18.7496C238.252 18.476 237.841 18.3391 237.35 18.3391C236.847 18.3391 236.428 18.476 236.094 18.7496C235.764 19.0233 235.517 19.3916 235.352 19.8544C235.191 20.3132 235.11 20.8263 235.11 21.3938C235.11 21.9573 235.191 22.4684 235.352 22.9272C235.517 23.386 235.764 23.7522 236.094 24.0259C236.428 24.2956 236.847 24.4304 237.35 24.4304ZM245.821 20.5668V26H243.636V16.7273H245.725V18.3029H245.833C246.047 17.7837 246.387 17.3712 246.854 17.0653C247.325 16.7595 247.906 16.6065 248.598 16.6065C249.238 16.6065 249.796 16.7434 250.271 17.017C250.75 17.2907 251.12 17.6871 251.381 18.2063C251.647 18.7255 251.778 19.3554 251.774 20.0959V26H249.588V20.4339C249.588 19.8142 249.427 19.3292 249.106 18.979C248.788 18.6289 248.347 18.4538 247.783 18.4538C247.401 18.4538 247.061 18.5384 246.763 18.7074C246.469 18.8724 246.238 19.1119 246.069 19.4258C245.904 19.7397 245.821 20.12 245.821 20.5668ZM261.324 19.1783L259.332 19.3956C259.276 19.1944 259.177 19.0052 259.036 18.8281C258.899 18.651 258.714 18.5082 258.481 18.3995C258.247 18.2908 257.962 18.2365 257.624 18.2365C257.169 18.2365 256.787 18.3351 256.477 18.5323C256.171 18.7295 256.02 18.9851 256.024 19.299C256.02 19.5687 256.118 19.788 256.32 19.957C256.525 20.1261 256.863 20.2649 257.334 20.3736L258.916 20.7116C259.793 20.9008 260.445 21.2006 260.871 21.6112C261.302 22.0217 261.519 22.5589 261.523 23.223C261.519 23.8066 261.348 24.3217 261.01 24.7685C260.676 25.2112 260.211 25.5573 259.616 25.8068C259.02 26.0563 258.336 26.1811 257.563 26.1811C256.428 26.1811 255.515 25.9437 254.822 25.4688C254.13 24.9898 253.718 24.3237 253.585 23.4705L255.716 23.2653C255.813 23.6838 256.018 23.9998 256.332 24.2131C256.646 24.4264 257.054 24.533 257.557 24.533C258.076 24.533 258.493 24.4264 258.807 24.2131C259.125 23.9998 259.284 23.7362 259.284 23.4222C259.284 23.1566 259.181 22.9373 258.976 22.7642C258.775 22.5911 258.461 22.4583 258.034 22.3658L256.452 22.0337C255.563 21.8486 254.905 21.5367 254.478 21.098C254.052 20.6553 253.84 20.0959 253.845 19.4197C253.84 18.8482 253.995 18.3532 254.309 17.9347C254.627 17.5121 255.068 17.1861 255.631 16.9567C256.199 16.7232 256.853 16.6065 257.593 16.6065C258.68 16.6065 259.535 16.8379 260.159 17.3008C260.787 17.7636 261.175 18.3894 261.324 19.1783Z" fill="#DBA73B"/>
</svg>
