<svg width="176" height="70" viewBox="0 0 176 70" fill="none" xmlns="http://www.w3.org/2000/svg">
<g filter="url(#filter0_d_3323_992)">
<rect x="3.05811" y="2" width="169.706" height="63.6675" rx="8" fill="white"/>
<rect x="3.4146" y="2.35649" width="168.993" height="62.9545" rx="7.64351" stroke="#EFF0F6" stroke-width="0.712985"/>
<g clip-path="url(#clip0_3323_992)">
<path d="M36.5402 33.2558L41.0048 28.805L26.5842 20.7251C25.6285 20.2103 24.7332 20.1381 23.948 20.701L36.5402 33.2558ZM41.7658 38.4668L46.4071 35.8643C47.313 35.3586 47.8097 34.6421 47.8097 33.8474C47.8097 33.0541 47.313 32.3361 46.4086 31.8304L42.2067 29.4778L37.4763 34.192L41.7658 38.4668ZM23.172 21.7953C23.0754 22.0918 23.021 22.423 23.021 22.7857V44.9195C23.021 45.493 23.1478 45.9867 23.3773 46.3796L35.6026 34.1905L23.172 21.7953ZM36.5402 35.1238L24.3829 47.2451C24.6154 47.3339 24.866 47.3805 25.1303 47.3805C25.6013 47.3805 26.092 47.242 26.5918 46.9651L40.5655 39.1426L36.5402 35.1238Z" fill="#121933"/>
</g>
<path d="M69.0052 25.8335H66.4317V18.574H69.0264C69.7566 18.574 70.3852 18.7193 70.9122 19.01C71.4392 19.2983 71.8444 19.713 72.128 20.2542C72.414 20.7953 72.5569 21.4428 72.5569 22.1967C72.5569 22.9529 72.414 23.6027 72.128 24.1462C71.8444 24.6897 71.4368 25.1068 70.9051 25.3975C70.3758 25.6882 69.7425 25.8335 69.0052 25.8335ZM67.9666 24.5184H68.9414C69.3951 24.5184 69.7767 24.4381 70.0863 24.2774C70.3982 24.1143 70.6322 23.8627 70.7881 23.5224C70.9465 23.1797 71.0256 22.7378 71.0256 22.1967C71.0256 21.6602 70.9465 21.2219 70.7881 20.8816C70.6322 20.5413 70.3994 20.2908 70.0898 20.1301C69.7803 19.9694 69.3986 19.8891 68.9449 19.8891H67.9666V24.5184ZM76.2681 25.9398C75.7175 25.9398 75.2413 25.8229 74.8396 25.5889C74.4402 25.3526 74.1319 25.0241 73.9145 24.6035C73.6971 24.1805 73.5883 23.6902 73.5883 23.1325C73.5883 22.57 73.6971 22.0785 73.9145 21.6579C74.1319 21.2349 74.4402 20.9064 74.8396 20.6725C75.2413 20.4361 75.7175 20.318 76.2681 20.318C76.8187 20.318 77.2937 20.4361 77.6931 20.6725C78.0948 20.9064 78.4044 21.2349 78.6218 21.6579C78.8392 22.0785 78.9479 22.57 78.9479 23.1325C78.9479 23.6902 78.8392 24.1805 78.6218 24.6035C78.4044 25.0241 78.0948 25.3526 77.6931 25.5889C77.2937 25.8229 76.8187 25.9398 76.2681 25.9398ZM76.2752 24.7701C76.5257 24.7701 76.7348 24.6992 76.9026 24.5574C77.0704 24.4133 77.1968 24.2171 77.2819 23.969C77.3693 23.7209 77.413 23.4385 77.413 23.1218C77.413 22.8052 77.3693 22.5228 77.2819 22.2746C77.1968 22.0265 77.0704 21.8304 76.9026 21.6862C76.7348 21.5421 76.5257 21.47 76.2752 21.47C76.0224 21.47 75.8097 21.5421 75.6372 21.6862C75.467 21.8304 75.3382 22.0265 75.2508 22.2746C75.1657 22.5228 75.1232 22.8052 75.1232 23.1218C75.1232 23.4385 75.1657 23.7209 75.2508 23.969C75.3382 24.2171 75.467 24.4133 75.6372 24.5574C75.8097 24.6992 76.0224 24.7701 76.2752 24.7701ZM81.0099 25.8335L79.5283 20.3889H81.056L81.8996 24.047H81.9493L82.8283 20.3889H84.3277L85.221 24.0257H85.2671L86.0965 20.3889H87.6207L86.1426 25.8335H84.544L83.6082 22.4093H83.5408L82.605 25.8335H81.0099ZM90.0789 22.6858V25.8335H88.5689V20.3889H90.008V21.3495H90.0718C90.1923 21.0328 90.3944 20.7823 90.6779 20.598C90.9615 20.4113 91.3053 20.318 91.7094 20.318C92.0875 20.318 92.4172 20.4007 92.6984 20.5661C92.9796 20.7315 93.1982 20.9678 93.3542 21.275C93.5101 21.5799 93.5881 21.9438 93.5881 22.3668V25.8335H92.0781V22.6362C92.0804 22.303 91.9954 22.0431 91.8229 21.8564C91.6504 21.6673 91.4129 21.5728 91.1104 21.5728C90.9072 21.5728 90.7276 21.6165 90.5716 21.704C90.418 21.7914 90.2975 21.919 90.21 22.0868C90.125 22.2522 90.0813 22.4519 90.0789 22.6858ZM96.4309 18.574V25.8335H94.9208V18.574H96.4309ZM100.243 25.9398C99.6925 25.9398 99.2163 25.8229 98.8146 25.5889C98.4152 25.3526 98.1068 25.0241 97.8894 24.6035C97.672 24.1805 97.5633 23.6902 97.5633 23.1325C97.5633 22.57 97.672 22.0785 97.8894 21.6579C98.1068 21.2349 98.4152 20.9064 98.8146 20.6725C99.2163 20.4361 99.6925 20.318 100.243 20.318C100.794 20.318 101.269 20.4361 101.668 20.6725C102.07 20.9064 102.379 21.2349 102.597 21.6579C102.814 22.0785 102.923 22.57 102.923 23.1325C102.923 23.6902 102.814 24.1805 102.597 24.6035C102.379 25.0241 102.07 25.3526 101.668 25.5889C101.269 25.8229 100.794 25.9398 100.243 25.9398ZM100.25 24.7701C100.501 24.7701 100.71 24.6992 100.878 24.5574C101.045 24.4133 101.172 24.2171 101.257 23.969C101.344 23.7209 101.388 23.4385 101.388 23.1218C101.388 22.8052 101.344 22.5228 101.257 22.2746C101.172 22.0265 101.045 21.8304 100.878 21.6862C100.71 21.5421 100.501 21.47 100.25 21.47C99.9973 21.47 99.7846 21.5421 99.6121 21.6862C99.442 21.8304 99.3132 22.0265 99.2258 22.2746C99.1407 22.5228 99.0982 22.8052 99.0982 23.1218C99.0982 23.4385 99.1407 23.7209 99.2258 23.969C99.3132 24.2171 99.442 24.4133 99.6121 24.5574C99.7846 24.6992 99.9973 24.7701 100.25 24.7701ZM105.6 25.9363C105.253 25.9363 104.943 25.876 104.671 25.7555C104.399 25.6326 104.184 25.4519 104.026 25.2132C103.87 24.9721 103.792 24.672 103.792 24.3128C103.792 24.0104 103.848 23.7563 103.959 23.5507C104.07 23.3451 104.221 23.1797 104.412 23.0545C104.604 22.9292 104.821 22.8347 105.065 22.7709C105.31 22.7071 105.568 22.6622 105.837 22.6362C106.154 22.6031 106.409 22.5724 106.603 22.544C106.797 22.5133 106.937 22.4684 107.025 22.4093C107.112 22.3503 107.156 22.2628 107.156 22.147V22.1258C107.156 21.9013 107.085 21.7276 106.943 21.6047C106.804 21.4818 106.605 21.4204 106.348 21.4204C106.076 21.4204 105.86 21.4806 105.699 21.6012C105.538 21.7193 105.432 21.8682 105.38 22.0478L103.984 21.9344C104.054 21.6035 104.194 21.3176 104.402 21.0765C104.61 20.8331 104.878 20.6465 105.206 20.5165C105.537 20.3842 105.92 20.318 106.355 20.318C106.657 20.318 106.947 20.3534 107.223 20.4243C107.502 20.4952 107.749 20.6051 107.964 20.754C108.182 20.9029 108.353 21.0943 108.478 21.3282C108.603 21.5598 108.666 21.8375 108.666 22.1612V25.8335H107.234V25.0785H107.191C107.104 25.2486 106.987 25.3987 106.841 25.5287C106.694 25.6563 106.518 25.7567 106.312 25.83C106.107 25.9008 105.869 25.9363 105.6 25.9363ZM106.032 24.8942C106.254 24.8942 106.451 24.8504 106.621 24.763C106.791 24.6732 106.924 24.5527 107.021 24.4014C107.118 24.2502 107.167 24.0789 107.167 23.8875V23.3097C107.119 23.3404 107.054 23.3688 106.972 23.3948C106.891 23.4184 106.8 23.4408 106.699 23.4621C106.597 23.481 106.496 23.4987 106.394 23.5153C106.292 23.5295 106.2 23.5425 106.117 23.5543C105.94 23.5803 105.785 23.6216 105.653 23.6783C105.521 23.7351 105.418 23.8119 105.345 23.9087C105.271 24.0033 105.235 24.1214 105.235 24.2632C105.235 24.4688 105.309 24.6259 105.458 24.7346C105.609 24.841 105.801 24.8942 106.032 24.8942ZM111.986 25.9221C111.573 25.9221 111.198 25.8158 110.863 25.6031C110.53 25.388 110.265 25.0726 110.069 24.6567C109.875 24.2384 109.778 23.7256 109.778 23.1183C109.778 22.4944 109.879 21.9757 110.079 21.5622C110.28 21.1463 110.547 20.8355 110.88 20.6299C111.216 20.422 111.584 20.318 111.983 20.318C112.288 20.318 112.542 20.37 112.745 20.474C112.951 20.5756 113.116 20.7032 113.241 20.8568C113.369 21.008 113.466 21.1569 113.532 21.3034H113.578V18.574H115.084V25.8335H113.596V24.9615H113.532C113.461 25.1127 113.361 25.2628 113.231 25.4117C113.103 25.5582 112.936 25.6799 112.731 25.7768C112.528 25.8737 112.279 25.9221 111.986 25.9221ZM112.465 24.7205C112.708 24.7205 112.914 24.6543 113.082 24.522C113.252 24.3873 113.382 24.1994 113.472 23.9584C113.564 23.7173 113.61 23.4349 113.61 23.1112C113.61 22.7874 113.565 22.5062 113.475 22.2676C113.385 22.0289 113.255 21.8446 113.085 21.7146C112.915 21.5846 112.708 21.5196 112.465 21.5196C112.217 21.5196 112.008 21.587 111.838 21.7217C111.667 21.8564 111.539 22.0431 111.451 22.2817C111.364 22.5204 111.32 22.7969 111.32 23.1112C111.32 23.4278 111.364 23.7079 111.451 23.9513C111.541 24.1923 111.67 24.3814 111.838 24.5184C112.008 24.6531 112.217 24.7205 112.465 24.7205ZM121.381 25.9398C120.831 25.9398 120.355 25.8229 119.953 25.5889C119.554 25.3526 119.245 25.0241 119.028 24.6035C118.81 24.1805 118.702 23.6902 118.702 23.1325C118.702 22.57 118.81 22.0785 119.028 21.6579C119.245 21.2349 119.554 20.9064 119.953 20.6725C120.355 20.4361 120.831 20.318 121.381 20.318C121.932 20.318 122.407 20.4361 122.806 20.6725C123.208 20.9064 123.518 21.2349 123.735 21.6579C123.952 22.0785 124.061 22.57 124.061 23.1325C124.061 23.6902 123.952 24.1805 123.735 24.6035C123.518 25.0241 123.208 25.3526 122.806 25.5889C122.407 25.8229 121.932 25.9398 121.381 25.9398ZM121.389 24.7701C121.639 24.7701 121.848 24.6992 122.016 24.5574C122.184 24.4133 122.31 24.2171 122.395 23.969C122.483 23.7209 122.526 23.4385 122.526 23.1218C122.526 22.8052 122.483 22.5228 122.395 22.2746C122.31 22.0265 122.184 21.8304 122.016 21.6862C121.848 21.5421 121.639 21.47 121.389 21.47C121.136 21.47 120.923 21.5421 120.75 21.6862C120.58 21.8304 120.452 22.0265 120.364 22.2746C120.279 22.5228 120.236 22.8052 120.236 23.1218C120.236 23.4385 120.279 23.7209 120.364 23.969C120.452 24.2171 120.58 24.4133 120.75 24.5574C120.923 24.6992 121.136 24.7701 121.389 24.7701ZM126.696 22.6858V25.8335H125.186V20.3889H126.625V21.3495H126.689C126.809 21.0328 127.011 20.7823 127.295 20.598C127.578 20.4113 127.922 20.318 128.326 20.318C128.704 20.318 129.034 20.4007 129.315 20.5661C129.596 20.7315 129.815 20.9678 129.971 21.275C130.127 21.5799 130.205 21.9438 130.205 22.3668V25.8335H128.695V22.6362C128.697 22.303 128.612 22.0431 128.44 21.8564C128.267 21.6673 128.03 21.5728 127.727 21.5728C127.524 21.5728 127.344 21.6165 127.188 21.704C127.035 21.7914 126.914 21.919 126.827 22.0868C126.742 22.2522 126.698 22.4519 126.696 22.6858ZM136.886 20.3889V21.5232H133.608V20.3889H136.886ZM134.352 19.0844H135.862V24.1604C135.862 24.2998 135.883 24.4085 135.926 24.4865C135.968 24.5621 136.027 24.6153 136.103 24.646C136.181 24.6768 136.271 24.6921 136.372 24.6921C136.443 24.6921 136.514 24.6862 136.585 24.6744C136.656 24.6602 136.71 24.6496 136.748 24.6425L136.986 25.7661C136.91 25.7898 136.804 25.817 136.667 25.8477C136.53 25.8808 136.363 25.9008 136.167 25.9079C135.803 25.9221 135.484 25.8737 135.21 25.7626C134.938 25.6515 134.727 25.479 134.575 25.2451C134.424 25.0111 134.35 24.7157 134.352 24.3589V19.0844ZM139.64 22.6858V25.8335H138.13V18.574H139.597V21.3495H139.661C139.784 21.0281 139.982 20.7764 140.256 20.5945C140.531 20.4101 140.874 20.318 141.288 20.318C141.666 20.318 141.996 20.4007 142.277 20.5661C142.561 20.7292 142.78 20.9643 142.936 21.2715C143.095 21.5763 143.173 21.9414 143.17 22.3668V25.8335H141.66V22.6362C141.663 22.3006 141.577 22.0395 141.405 21.8528C141.235 21.6661 140.996 21.5728 140.689 21.5728C140.483 21.5728 140.301 21.6165 140.143 21.704C139.987 21.7914 139.864 21.919 139.774 22.0868C139.687 22.2522 139.642 22.4519 139.64 22.6858ZM146.982 25.9398C146.422 25.9398 145.94 25.8264 145.536 25.5995C145.134 25.3703 144.825 25.0466 144.607 24.6283C144.39 24.2077 144.281 23.7102 144.281 23.136C144.281 22.5759 144.39 22.0844 144.607 21.6614C144.825 21.2384 145.131 20.9088 145.526 20.6725C145.923 20.4361 146.388 20.318 146.922 20.318C147.281 20.318 147.616 20.3759 147.925 20.4917C148.237 20.6051 148.509 20.7764 148.741 21.0057C148.975 21.2349 149.156 21.5232 149.286 21.8706C149.416 22.2156 149.481 22.6197 149.481 23.0828V23.4976H144.884V22.5618H148.06C148.06 22.3444 148.013 22.1518 147.918 21.984C147.824 21.8162 147.693 21.685 147.525 21.5905C147.359 21.4936 147.167 21.4452 146.947 21.4452C146.718 21.4452 146.515 21.4984 146.337 21.6047C146.162 21.7087 146.025 21.8493 145.926 22.0265C145.827 22.2014 145.776 22.3963 145.774 22.6114V23.5011C145.774 23.7705 145.823 24.0033 145.923 24.1994C146.024 24.3955 146.167 24.5468 146.351 24.6531C146.536 24.7595 146.754 24.8126 147.007 24.8126C147.175 24.8126 147.329 24.789 147.468 24.7417C147.607 24.6945 147.727 24.6236 147.826 24.5291C147.925 24.4345 148.001 24.3187 148.053 24.1817L149.45 24.2738C149.379 24.6094 149.233 24.9024 149.014 25.1529C148.796 25.401 148.515 25.5948 148.17 25.7342C147.827 25.8713 147.431 25.9398 146.982 25.9398Z" fill="#121933"/>
<path d="M73.9586 39.7391C73.8607 39.4319 73.729 39.1568 73.5636 38.9137C73.4016 38.6672 73.2075 38.4579 72.9813 38.2858C72.7551 38.1102 72.4968 37.9769 72.2065 37.8857C71.9196 37.7946 71.6039 37.749 71.2596 37.749C70.6755 37.749 70.1489 37.8992 69.6797 38.1997C69.2104 38.5001 68.8391 38.9407 68.5656 39.5213C68.2956 40.0986 68.1605 40.8059 68.1605 41.6431C68.1605 42.4837 68.2972 43.1943 68.5707 43.775C68.8441 44.3556 69.2189 44.7962 69.6949 45.0966C70.1709 45.3971 70.7127 45.5473 71.3203 45.5473C71.8841 45.5473 72.3753 45.4325 72.7939 45.2029C73.2159 44.9734 73.5417 44.6493 73.7712 44.2307C74.0042 43.8087 74.1206 43.3125 74.1206 42.7419L74.5257 42.8179H71.5583V41.5266H75.6347V42.7065C75.6347 43.5775 75.449 44.3337 75.0777 44.9751C74.7097 45.6131 74.2 46.106 73.5484 46.4537C72.9003 46.8014 72.1576 46.9753 71.3203 46.9753C70.3818 46.9753 69.5581 46.7592 68.8492 46.3271C68.1436 45.895 67.5934 45.2823 67.1984 44.4889C66.8034 43.6922 66.6059 42.747 66.6059 41.6532C66.6059 40.8261 66.7207 40.0834 66.9503 39.4251C67.1798 38.7668 67.5022 38.2081 67.9175 37.749C68.3361 37.2865 68.8273 36.9337 69.391 36.6907C69.9582 36.4442 70.5776 36.321 71.2494 36.321C71.8098 36.321 72.3314 36.4037 72.8142 36.5691C73.3003 36.7346 73.7324 36.9692 74.1105 37.273C74.492 37.5768 74.8076 37.9381 75.0574 38.3567C75.3073 38.7719 75.476 39.2327 75.5638 39.7391H73.9586ZM80.9183 46.9905C80.1892 46.9905 79.5528 46.8234 79.0093 46.4892C78.4658 46.1549 78.0438 45.6874 77.7433 45.0865C77.4429 44.4856 77.2927 43.7834 77.2927 42.9799C77.2927 42.1731 77.4429 41.4675 77.7433 40.8633C78.0438 40.259 78.4658 39.7897 79.0093 39.4555C79.5528 39.1213 80.1892 38.9542 80.9183 38.9542C81.6475 38.9542 82.2839 39.1213 82.8274 39.4555C83.3709 39.7897 83.7929 40.259 84.0934 40.8633C84.3938 41.4675 84.544 42.1731 84.544 42.9799C84.544 43.7834 84.3938 44.4856 84.0934 45.0865C83.7929 45.6874 83.3709 46.1549 82.8274 46.4892C82.2839 46.8234 81.6475 46.9905 80.9183 46.9905ZM80.9234 45.7195C81.396 45.7195 81.7876 45.5945 82.0982 45.3447C82.4088 45.0949 82.6384 44.7624 82.7869 44.3472C82.9388 43.9319 83.0148 43.4745 83.0148 42.9749C83.0148 42.4786 82.9388 42.0229 82.7869 41.6076C82.6384 41.189 82.4088 40.8531 82.0982 40.5999C81.7876 40.3467 81.396 40.2202 80.9234 40.2202C80.4474 40.2202 80.0524 40.3467 79.7385 40.5999C79.4279 40.8531 79.1966 41.189 79.0447 41.6076C78.8962 42.0229 78.8219 42.4786 78.8219 42.9749C78.8219 43.4745 78.8962 43.9319 79.0447 44.3472C79.1966 44.7624 79.4279 45.0949 79.7385 45.3447C80.0524 45.5945 80.4474 45.7195 80.9234 45.7195ZM89.653 46.9905C88.9238 46.9905 88.2874 46.8234 87.7439 46.4892C87.2004 46.1549 86.7784 45.6874 86.478 45.0865C86.1775 44.4856 86.0273 43.7834 86.0273 42.9799C86.0273 42.1731 86.1775 41.4675 86.478 40.8633C86.7784 40.259 87.2004 39.7897 87.7439 39.4555C88.2874 39.1213 88.9238 38.9542 89.653 38.9542C90.3822 38.9542 91.0185 39.1213 91.562 39.4555C92.1055 39.7897 92.5275 40.259 92.828 40.8633C93.1284 41.4675 93.2787 42.1731 93.2787 42.9799C93.2787 43.7834 93.1284 44.4856 92.828 45.0865C92.5275 45.6874 92.1055 46.1549 91.562 46.4892C91.0185 46.8234 90.3822 46.9905 89.653 46.9905ZM89.658 45.7195C90.1307 45.7195 90.5223 45.5945 90.8328 45.3447C91.1434 45.0949 91.373 44.7624 91.5215 44.3472C91.6734 43.9319 91.7494 43.4745 91.7494 42.9749C91.7494 42.4786 91.6734 42.0229 91.5215 41.6076C91.373 41.189 91.1434 40.8531 90.8328 40.5999C90.5223 40.3467 90.1307 40.2202 89.658 40.2202C89.182 40.2202 88.7871 40.3467 88.4731 40.5999C88.1625 40.8531 87.9313 41.189 87.7794 41.6076C87.6308 42.0229 87.5566 42.4786 87.5566 42.9749C87.5566 43.4745 87.6308 43.9319 87.7794 44.3472C87.9313 44.7624 88.1625 45.0949 88.4731 45.3447C88.7871 45.5945 89.182 45.7195 89.658 45.7195ZM98.3724 49.9123C97.7546 49.9123 97.2229 49.8313 96.7773 49.6692C96.3351 49.5072 95.9738 49.2928 95.6936 49.0261C95.4134 48.7594 95.2041 48.4674 95.0657 48.1501L96.3671 47.6133C96.4583 47.7619 96.5798 47.9188 96.7317 48.0843C96.887 48.2531 97.0963 48.3965 97.3596 48.5147C97.6263 48.6328 97.969 48.6919 98.3876 48.6919C98.9615 48.6919 99.4358 48.5518 99.8105 48.2716C100.185 47.9948 100.373 47.5526 100.373 46.9449V45.4156H100.276C100.185 45.581 100.054 45.765 99.8814 45.9676C99.7126 46.1701 99.4797 46.3457 99.1826 46.4942C98.8855 46.6428 98.499 46.717 98.023 46.717C97.4086 46.717 96.8549 46.5736 96.3621 46.2866C95.8726 45.9963 95.4843 45.5692 95.1974 45.0055C94.9138 44.4383 94.772 43.7412 94.772 42.9141C94.772 42.087 94.9121 41.3781 95.1923 40.7873C95.4759 40.1965 95.8641 39.7442 96.357 39.4302C96.8499 39.1129 97.4086 38.9542 98.0331 38.9542C98.5159 38.9542 98.9058 39.0352 99.2029 39.1973C99.4999 39.3559 99.7312 39.5416 99.8966 39.7543C100.065 39.967 100.195 40.1543 100.287 40.3164H100.398V39.0555H101.882V47.0057C101.882 47.6741 101.726 48.2227 101.416 48.6514C101.105 49.0801 100.685 49.3975 100.155 49.6034C99.6282 49.8093 99.0341 49.9123 98.3724 49.9123ZM98.3572 45.4612C98.7927 45.4612 99.1607 45.3599 99.4611 45.1574C99.765 44.9514 99.9945 44.6577 100.15 44.2763C100.308 43.8914 100.388 43.4306 100.388 42.8938C100.388 42.3706 100.31 41.9098 100.155 41.5114C99.9996 41.1131 99.7717 40.8025 99.4713 40.5797C99.1708 40.3535 98.7995 40.2404 98.3572 40.2404C97.9015 40.2404 97.5217 40.3586 97.2179 40.5949C96.914 40.8278 96.6845 41.1451 96.5292 41.5469C96.3773 41.9486 96.3013 42.3976 96.3013 42.8938C96.3013 43.4036 96.3789 43.8509 96.5342 44.2358C96.6895 44.6206 96.9191 44.9211 97.2229 45.1371C97.5301 45.3532 97.9082 45.4612 98.3572 45.4612ZM105.569 36.4628V46.8335H104.055V36.4628H105.569ZM111.101 46.9905C110.334 46.9905 109.674 46.8267 109.121 46.4993C108.57 46.1684 108.145 45.7043 107.845 45.1067C107.548 44.5058 107.399 43.802 107.399 42.9951C107.399 42.1984 107.548 41.4962 107.845 40.8886C108.145 40.2809 108.564 39.8066 109.1 39.4656C109.641 39.1247 110.272 38.9542 110.994 38.9542C111.433 38.9542 111.859 39.0268 112.27 39.1719C112.682 39.3171 113.052 39.545 113.379 39.8556C113.707 40.1661 113.965 40.5696 114.154 41.0658C114.343 41.5587 114.438 42.1579 114.438 42.8635V43.4002H108.255V42.2659H112.954C112.954 41.8676 112.873 41.5148 112.711 41.2076C112.549 40.897 112.321 40.6523 112.027 40.4733C111.737 40.2944 111.396 40.205 111.004 40.205C110.579 40.205 110.208 40.3096 109.89 40.5189C109.576 40.7248 109.333 40.9949 109.161 41.3291C108.992 41.66 108.908 42.0195 108.908 42.4077V43.2939C108.908 43.8138 108.999 44.256 109.181 44.6206C109.367 44.9852 109.625 45.2637 109.956 45.4561C110.287 45.6452 110.674 45.7397 111.116 45.7397C111.403 45.7397 111.664 45.6992 111.901 45.6182C112.137 45.5338 112.341 45.4089 112.513 45.2435C112.686 45.078 112.817 44.8738 112.908 44.6307L114.342 44.889C114.227 45.311 114.021 45.6806 113.724 45.998C113.43 46.3119 113.06 46.5567 112.615 46.7322C112.173 46.9044 111.668 46.9905 111.101 46.9905ZM120.298 46.8335V36.4628H123.995C124.802 36.4628 125.47 36.6097 126 36.9034C126.53 37.1971 126.927 37.5988 127.19 38.1085C127.453 38.6149 127.585 39.1854 127.585 39.8201C127.585 40.4582 127.452 41.0321 127.185 41.5418C126.922 42.0482 126.523 42.4499 125.99 42.747C125.46 43.0407 124.793 43.1875 123.99 43.1875H121.448V41.8608H123.848C124.358 41.8608 124.771 41.7731 125.089 41.5975C125.406 41.4186 125.639 41.1755 125.787 40.8683C125.936 40.5611 126.01 40.2117 126.01 39.8201C126.01 39.4285 125.936 39.0808 125.787 38.777C125.639 38.4731 125.404 38.2351 125.083 38.063C124.766 37.8908 124.348 37.8047 123.828 37.8047H121.863V46.8335H120.298ZM130.955 36.4628V46.8335H129.44V36.4628H130.955ZM135.398 47.0057C134.905 47.0057 134.459 46.9145 134.061 46.7322C133.662 46.5465 133.347 46.2782 133.114 45.9271C132.884 45.576 132.769 45.1456 132.769 44.6358C132.769 44.1969 132.854 43.8357 133.023 43.5521C133.191 43.2686 133.419 43.0441 133.706 42.8787C133.993 42.7132 134.314 42.5883 134.668 42.5039C135.023 42.4195 135.384 42.3554 135.752 42.3115C136.218 42.2575 136.596 42.2136 136.886 42.1798C137.177 42.1427 137.388 42.0836 137.519 42.0026C137.651 41.9216 137.717 41.7899 137.717 41.6076V41.5722C137.717 41.13 137.592 40.7873 137.342 40.5442C137.096 40.3012 136.728 40.1796 136.238 40.1796C135.728 40.1796 135.327 40.2927 135.033 40.5189C134.743 40.7417 134.542 40.9899 134.43 41.2633L133.007 40.9392C133.176 40.4666 133.423 40.0851 133.747 39.7948C134.074 39.5011 134.451 39.2884 134.876 39.1568C135.301 39.0217 135.749 38.9542 136.218 38.9542C136.528 38.9542 136.858 38.9913 137.205 39.0656C137.556 39.1365 137.884 39.2682 138.188 39.4606C138.495 39.653 138.746 39.9281 138.942 40.286C139.138 40.6405 139.236 41.1013 139.236 41.6684V46.8335H137.757V45.7701H137.697C137.599 45.9659 137.452 46.1583 137.256 46.3474C137.06 46.5364 136.809 46.6934 136.501 46.8183C136.194 46.9432 135.826 47.0057 135.398 47.0057ZM135.727 45.7904C136.145 45.7904 136.503 45.7076 136.8 45.5422C137.101 45.3768 137.329 45.1607 137.484 44.8941C137.643 44.624 137.722 44.3353 137.722 44.0281V43.0255C137.668 43.0795 137.563 43.1302 137.408 43.1774C137.256 43.2213 137.082 43.2601 136.886 43.2939C136.691 43.3243 136.5 43.353 136.314 43.38C136.128 43.4036 135.973 43.4239 135.848 43.4407C135.555 43.4779 135.286 43.5403 135.043 43.6281C134.803 43.7159 134.611 43.8425 134.466 44.0079C134.324 44.1699 134.253 44.386 134.253 44.6561C134.253 45.0308 134.392 45.3144 134.668 45.5068C134.945 45.6958 135.298 45.7904 135.727 45.7904ZM142.074 49.7503C141.848 49.7503 141.642 49.7317 141.456 49.6946C141.27 49.6608 141.132 49.6237 141.041 49.5831L141.405 48.3425C141.682 48.4168 141.929 48.4489 142.145 48.4387C142.361 48.4286 142.551 48.3476 142.717 48.1957C142.886 48.0437 143.034 47.7956 143.162 47.4513L143.35 46.9348L140.504 39.0555H142.124L144.094 45.0915H144.175L146.145 39.0555H147.771L144.565 47.8716C144.417 48.2767 144.228 48.6193 143.998 48.8995C143.768 49.1831 143.495 49.3958 143.178 49.5376C142.86 49.6794 142.492 49.7503 142.074 49.7503Z" fill="#121933"/>
</g>
<defs>
<filter id="filter0_d_3323_992" x="0.206165" y="0.57403" width="175.41" height="69.3714" filterUnits="userSpaceOnUse" color-interpolation-filters="sRGB">
<feFlood flood-opacity="0" result="BackgroundImageFix"/>
<feColorMatrix in="SourceAlpha" type="matrix" values="0 0 0 0 0 0 0 0 0 0 0 0 0 0 0 0 0 0 127 0" result="hardAlpha"/>
<feOffset dy="1.42597"/>
<feGaussianBlur stdDeviation="1.42597"/>
<feColorMatrix type="matrix" values="0 0 0 0 0 0 0 0 0 0 0 0 0 0 0 0 0 0 0.1 0"/>
<feBlend mode="normal" in2="BackgroundImageFix" result="effect1_dropShadow_3323_992"/>
<feBlend mode="normal" in="SourceGraphic" in2="effect1_dropShadow_3323_992" result="shape"/>
</filter>
<clipPath id="clip0_3323_992">
<rect width="24.9545" height="27.0935" fill="white" transform="translate(23.0215 20.2871)"/>
</clipPath>
</defs>
</svg>
