<svg width="41" height="37" viewBox="0 0 41 37" fill="none" xmlns="http://www.w3.org/2000/svg">
<path d="M13.9491 8.73499C15.1073 8.73499 16.2181 8.2749 17.0371 7.45593C17.856 6.63695 18.3161 5.52619 18.3161 4.36798C18.3161 3.20978 17.856 2.09902 17.0371 1.28004C16.2181 0.461071 15.1073 0.000976563 13.9491 0.000976562C12.7909 0.000976563 11.6802 0.461071 10.8612 1.28004C10.0422 2.09902 9.58212 3.20978 9.58212 4.36798C9.58212 5.52619 10.0422 6.63695 10.8612 7.45593C11.6802 8.2749 12.7909 8.73499 13.9491 8.73499ZM7.96196 15.2145C8.13019 15.0128 8.30647 14.818 8.49036 14.6305V33.8453C8.49002 34.4038 8.70371 34.9412 9.08748 35.347C9.47125 35.7528 9.99593 35.9961 10.5536 36.0268C11.1113 36.0576 11.6595 35.8735 12.0856 35.5124C12.5117 35.1513 12.7832 34.6406 12.8443 34.0855L13.7199 26.203H14.1784L15.054 34.0855C15.1151 34.6406 15.3866 35.1513 15.8126 35.5124C16.2387 35.8735 16.787 36.0576 17.3447 36.0268C17.9023 35.9961 18.427 35.7528 18.8108 35.347C19.1945 34.9412 19.4082 34.4038 19.4079 33.8453V18.9538C19.5716 18.0848 20.1841 16.826 21.1503 15.6436C22.0161 16.7081 22.598 17.8337 22.8229 18.683C22.8 20.4855 21.349 27.2315 20.7529 29.9379C20.7201 30.0832 20.7177 30.2336 20.746 30.3798C20.7743 30.5261 20.8326 30.6648 20.9172 30.7873C21.0019 30.9098 21.111 31.0135 21.2378 31.0916C21.3645 31.1698 21.5061 31.2208 21.6536 31.2415C25.6855 31.795 29.1692 31.7939 33.1672 31.2851C33.9129 31.1901 34.3485 30.3637 34.0778 29.6617C33.2731 27.5732 31.963 23.2356 31.963 17.1175V13.923C32.3888 14.2505 32.8364 14.6807 33.2819 15.2145C34.4359 16.5978 35.152 18.1819 35.2459 19.1667C35.294 19.5935 35.5078 19.9844 35.8413 20.2551C36.1748 20.5257 36.6013 20.6545 37.0289 20.6137C37.4565 20.5729 37.8509 20.3658 38.1272 20.0369C38.4035 19.708 38.5395 19.2837 38.5059 18.8555C38.3279 16.9821 37.1958 14.7931 35.7973 13.1173C34.4391 11.4884 32.3921 9.82675 30.0961 9.82675H25.0435C23.6428 9.82675 22.313 10.389 21.1547 11.1893C20.0007 10.389 18.6742 9.82675 17.2768 9.82675H11.1477C8.85173 9.82675 6.80579 11.4884 5.44656 13.1173C4.04912 14.7931 2.91588 16.9821 2.73792 18.8555C2.70436 19.2837 2.84037 19.708 3.11665 20.0369C3.39293 20.3658 3.78736 20.5729 4.21494 20.6137C4.64253 20.6545 5.06903 20.5257 5.40253 20.2551C5.73604 19.9844 5.94985 19.5935 5.99789 19.1667C6.09178 18.1819 6.80797 16.5978 7.96305 15.2145" fill="#DBA73B"/>
<path d="M0.848633 23.4736C0.848633 22.7498 1.13619 22.0555 1.64805 21.5437C2.15991 21.0318 2.85414 20.7443 3.57801 20.7443C4.30189 20.7443 4.99612 21.0318 5.50798 21.5437C6.01983 22.0555 6.30739 22.7498 6.30739 23.4736V34.937C6.30739 35.2266 6.19237 35.5043 5.98763 35.709C5.78288 35.9138 5.50519 36.0288 5.21564 36.0288C4.92609 36.0288 4.6484 35.9138 4.44366 35.709C4.23891 35.5043 4.12389 35.2266 4.12389 34.937V23.4736C4.12389 23.3289 4.06638 23.19 3.96401 23.0877C3.86163 22.9853 3.72279 22.9278 3.57801 22.9278C3.43324 22.9278 3.29439 22.9853 3.19202 23.0877C3.08965 23.19 3.03214 23.3289 3.03214 23.4736V24.5796C3.03214 24.8691 2.91711 25.1468 2.71237 25.3516C2.50763 25.5563 2.22994 25.6713 1.94038 25.6713C1.65083 25.6713 1.37314 25.5563 1.1684 25.3516C0.963657 25.1468 0.848633 24.8691 0.848633 24.5796V23.4736ZM27.5966 8.73499C28.7548 8.73499 29.8655 8.2749 30.6845 7.45593C31.5035 6.63695 31.9636 5.52619 31.9636 4.36798C31.9636 3.20978 31.5035 2.09902 30.6845 1.28004C29.8655 0.461071 28.7548 0.000976563 27.5966 0.000976562C26.4384 0.000976563 25.3276 0.461071 24.5086 1.28004C23.6896 2.09902 23.2295 3.20978 23.2295 4.36798C23.2295 5.52619 23.6896 6.63695 24.5086 7.45593C25.3276 8.2749 26.4384 8.73499 27.5966 8.73499ZM37.4223 20.7443C36.6984 20.7443 36.0042 21.0318 35.4924 21.5437C34.9805 22.0555 34.6929 22.7498 34.6929 23.4736V24.5796C34.6929 24.8691 34.808 25.1468 35.0127 25.3516C35.2175 25.5563 35.4951 25.6713 35.7847 25.6713C36.0742 25.6713 36.3519 25.5563 36.5567 25.3516C36.7614 25.1468 36.8764 24.8691 36.8764 24.5796V23.4736C36.8764 23.3289 36.934 23.19 37.0363 23.0877C37.1387 22.9853 37.2775 22.9278 37.4223 22.9278C37.5671 22.9278 37.7059 22.9853 37.8083 23.0877C37.9107 23.19 37.9682 23.3289 37.9682 23.4736V34.937C37.9682 35.2266 38.0832 35.5043 38.288 35.709C38.4927 35.9138 38.7704 36.0288 39.06 36.0288C39.3495 36.0288 39.6272 35.9138 39.8319 35.709C40.0367 35.5043 40.1517 35.2266 40.1517 34.937V23.4736C40.1517 22.7498 39.8642 22.0555 39.3523 21.5437C38.8404 21.0318 38.1462 20.7443 37.4223 20.7443ZM22.1378 35.3606V32.9195C23.4376 33.0875 24.7449 33.1903 26.055 33.2274L25.3563 35.7908C25.2526 36.1742 25.0131 36.5069 24.6824 36.7269C24.3516 36.9469 23.9522 37.0392 23.5585 36.9865C23.1648 36.9339 22.8036 36.74 22.5422 36.4409C22.2809 36.1418 22.1371 35.7579 22.1378 35.3606ZM29.8379 35.7908L29.1239 33.1739C30.4399 33.0908 31.7516 32.9506 33.0553 32.7535V35.3606C33.055 35.7572 32.9108 36.1401 32.6496 36.4383C32.3883 36.7366 32.0277 36.93 31.6347 36.9825C31.2417 37.035 30.843 36.9432 30.5125 36.7241C30.1821 36.5049 29.9424 36.1733 29.8379 35.7908Z" fill="#DBA73B"/>
</svg>
