<svg width="42" height="38" viewBox="0 0 42 38" fill="none" xmlns="http://www.w3.org/2000/svg">
<path d="M38.0996 34.2H41.8996V38H0.0996094V34.2H3.89961V1.9C3.89961 1.39609 4.09979 0.912816 4.45611 0.556497C4.81243 0.200178 5.2957 0 5.79961 0H36.1996C36.7035 0 37.1868 0.200178 37.5431 0.556497C37.8994 0.912816 38.0996 1.39609 38.0996 1.9V34.2ZM19.0996 11.4H15.2996V15.2H19.0996V19H22.8996V15.2H26.6996V11.4H22.8996V7.6H19.0996V11.4ZM24.7996 34.2H28.5996V22.8H13.3996V34.2H17.1996V26.6H24.7996V34.2Z" fill="#DBA73B"/>
</svg>
