<svg width="144" height="40" viewBox="0 0 144 40" fill="none" xmlns="http://www.w3.org/2000/svg">
<rect x="0.5" width="143" height="40" rx="8" fill="#FDF9F1"/>
<path d="M42.5232 26V13.6364H44.7629V18.8704H50.4919V13.6364H52.7377V26H50.4919V20.7479H44.7629V26H42.5232ZM59.1217 26.1811C58.2162 26.1811 57.4314 25.9819 56.7673 25.5835C56.1032 25.185 55.5881 24.6276 55.2219 23.9112C54.8596 23.1948 54.6785 22.3577 54.6785 21.3999C54.6785 20.442 54.8596 19.6029 55.2219 18.8825C55.5881 18.162 56.1032 17.6026 56.7673 17.2042C57.4314 16.8058 58.2162 16.6065 59.1217 16.6065C60.0273 16.6065 60.8121 16.8058 61.4761 17.2042C62.1402 17.6026 62.6533 18.162 63.0155 18.8825C63.3818 19.6029 63.5649 20.442 63.5649 21.3999C63.5649 22.3577 63.3818 23.1948 63.0155 23.9112C62.6533 24.6276 62.1402 25.185 61.4761 25.5835C60.8121 25.9819 60.0273 26.1811 59.1217 26.1811ZM59.1338 24.4304C59.6248 24.4304 60.0353 24.2956 60.3653 24.0259C60.6953 23.7522 60.9408 23.386 61.1018 22.9272C61.2668 22.4684 61.3493 21.9573 61.3493 21.3938C61.3493 20.8263 61.2668 20.3132 61.1018 19.8544C60.9408 19.3916 60.6953 19.0233 60.3653 18.7496C60.0353 18.476 59.6248 18.3391 59.1338 18.3391C58.6307 18.3391 58.2122 18.476 57.8781 18.7496C57.5481 19.0233 57.3006 19.3916 57.1356 19.8544C56.9746 20.3132 56.8941 20.8263 56.8941 21.3938C56.8941 21.9573 56.9746 22.4684 57.1356 22.9272C57.3006 23.386 57.5481 23.7522 57.8781 24.0259C58.2122 24.2956 58.6307 24.4304 59.1338 24.4304ZM67.0678 26L64.4478 16.7273H66.6754L68.3054 23.2472H68.3899L70.0561 16.7273H72.2596L73.9258 23.2109H74.0163L75.6222 16.7273H77.8558L75.2298 26H72.9538L71.2152 19.7337H71.0884L69.3498 26H67.0678ZM83.1517 15.5138V13.6364H93.0161V15.5138H89.1947V26H86.9731V15.5138H83.1517ZM97.5211 26.1811C96.6156 26.1811 95.8308 25.9819 95.1667 25.5835C94.5027 25.185 93.9875 24.6276 93.6213 23.9112C93.2591 23.1948 93.0779 22.3577 93.0779 21.3999C93.0779 20.442 93.2591 19.6029 93.6213 18.8825C93.9875 18.162 94.5027 17.6026 95.1667 17.2042C95.8308 16.8058 96.6156 16.6065 97.5211 16.6065C98.4267 16.6065 99.2115 16.8058 99.8755 17.2042C100.54 17.6026 101.053 18.162 101.415 18.8825C101.781 19.6029 101.964 20.442 101.964 21.3999C101.964 22.3577 101.781 23.1948 101.415 23.9112C101.053 24.6276 100.54 25.185 99.8755 25.5835C99.2115 25.9819 98.4267 26.1811 97.5211 26.1811ZM97.5332 24.4304C98.0242 24.4304 98.4347 24.2956 98.7647 24.0259C99.0948 23.7522 99.3403 23.386 99.5012 22.9272C99.6663 22.4684 99.7488 21.9573 99.7488 21.3938C99.7488 20.8263 99.6663 20.3132 99.5012 19.8544C99.3403 19.3916 99.0948 19.0233 98.7647 18.7496C98.4347 18.476 98.0242 18.3391 97.5332 18.3391C97.0301 18.3391 96.6116 18.476 96.2775 18.7496C95.9475 19.0233 95.7 19.3916 95.535 19.8544C95.374 20.3132 95.2935 20.8263 95.2935 21.3938C95.2935 21.9573 95.374 22.4684 95.535 22.9272C95.7 23.386 95.9475 23.7522 96.2775 24.0259C96.6116 24.2956 97.0301 24.4304 97.5332 24.4304Z" fill="#DBA73B"/>
</svg>
