<svg width="212" height="40" viewBox="0 0 212 40" fill="none" xmlns="http://www.w3.org/2000/svg">
<rect width="212" height="40" rx="8" fill="#FDF9F1"/>
<path d="M26.5328 13.6364H28.7544V22.3295C28.7504 23.1264 28.5814 23.8126 28.2473 24.3881C27.9133 24.9596 27.4464 25.4003 26.8468 25.7102C26.2511 26.0161 25.5569 26.169 24.764 26.169C24.0396 26.169 23.3876 26.0402 22.8081 25.7827C22.2325 25.5211 21.7757 25.1347 21.4377 24.6236C21.0996 24.1125 20.9306 23.4766 20.9306 22.7159H23.1582C23.1622 23.05 23.2347 23.3377 23.3755 23.5792C23.5204 23.8207 23.7196 24.0058 23.9732 24.1346C24.2267 24.2634 24.5185 24.3278 24.8485 24.3278C25.2067 24.3278 25.5106 24.2533 25.7601 24.1044C26.0096 23.9515 26.1988 23.7261 26.3276 23.4283C26.4604 23.1304 26.5288 22.7642 26.5328 22.3295V13.6364ZM35.1325 26.1811C34.2269 26.1811 33.4421 25.9819 32.7781 25.5835C32.114 25.185 31.5988 24.6276 31.2326 23.9112C30.8704 23.1948 30.6893 22.3577 30.6893 21.3999C30.6893 20.442 30.8704 19.6029 31.2326 18.8825C31.5988 18.162 32.114 17.6026 32.7781 17.2042C33.4421 16.8058 34.2269 16.6065 35.1325 16.6065C36.038 16.6065 36.8228 16.8058 37.4869 17.2042C38.1509 17.6026 38.6641 18.162 39.0263 18.8825C39.3925 19.6029 39.5756 20.442 39.5756 21.3999C39.5756 22.3577 39.3925 23.1948 39.0263 23.9112C38.6641 24.6276 38.1509 25.185 37.4869 25.5835C36.8228 25.9819 36.038 26.1811 35.1325 26.1811ZM35.1445 24.4304C35.6355 24.4304 36.046 24.2956 36.3761 24.0259C36.7061 23.7522 36.9516 23.386 37.1126 22.9272C37.2776 22.4684 37.3601 21.9573 37.3601 21.3938C37.3601 20.8263 37.2776 20.3132 37.1126 19.8544C36.9516 19.3916 36.7061 19.0233 36.3761 18.7496C36.046 18.476 35.6355 18.3391 35.1445 18.3391C34.6415 18.3391 34.2229 18.476 33.8888 18.7496C33.5588 19.0233 33.3113 19.3916 33.1463 19.8544C32.9853 20.3132 32.9048 20.8263 32.9048 21.3938C32.9048 21.9573 32.9853 22.4684 33.1463 22.9272C33.3113 23.386 33.5588 23.7522 33.8888 24.0259C34.2229 24.2956 34.6415 24.4304 35.1445 24.4304ZM41.4305 26V16.7273H43.6159V26H41.4305ZM42.5292 15.4112C42.1831 15.4112 41.8853 15.2965 41.6357 15.0671C41.3862 14.8337 41.2615 14.554 41.2615 14.228C41.2615 13.898 41.3862 13.6183 41.6357 13.3888C41.8853 13.1554 42.1831 13.0387 42.5292 13.0387C42.8794 13.0387 43.1772 13.1554 43.4227 13.3888C43.6722 13.6183 43.797 13.898 43.797 14.228C43.797 14.554 43.6722 14.8337 43.4227 15.0671C43.1772 15.2965 42.8794 15.4112 42.5292 15.4112ZM48.0485 20.5668V26H45.8631V16.7273H47.9519V18.3029H48.0605C48.2739 17.7837 48.6139 17.3712 49.0808 17.0653C49.5517 16.7595 50.1332 16.6065 50.8255 16.6065C51.4654 16.6065 52.0228 16.7434 52.4977 17.017C52.9766 17.2907 53.3469 17.6871 53.6085 18.2063C53.8741 18.7255 54.0049 19.3554 54.0009 20.0959V26H51.8155V20.4339C51.8155 19.8142 51.6545 19.3292 51.3326 18.979C51.0146 18.6289 50.5739 18.4538 50.0105 18.4538C49.6281 18.4538 49.2881 18.5384 48.9902 18.7074C48.6964 18.8724 48.465 19.1119 48.296 19.4258C48.131 19.7397 48.0485 20.12 48.0485 20.5668ZM59.9925 15.5138V13.6364H69.8569V15.5138H66.0355V26H63.8139V15.5138H59.9925ZM73.8473 20.5668V26H71.6619V13.6364H73.799V18.3029H73.9077C74.125 17.7797 74.4611 17.3672 74.9158 17.0653C75.3746 16.7595 75.9582 16.6065 76.6665 16.6065C77.3105 16.6065 77.8719 16.7414 78.3509 17.011C78.8298 17.2807 79.2 17.6751 79.4616 18.1942C79.7273 18.7134 79.8601 19.3473 79.8601 20.0959V26H77.6747V20.4339C77.6747 19.8101 77.5137 19.3252 77.1918 18.979C76.8738 18.6289 76.4271 18.4538 75.8516 18.4538C75.4652 18.4538 75.1191 18.5384 74.8132 18.7074C74.5114 18.8724 74.2739 19.1119 74.1009 19.4258C73.9318 19.7397 73.8473 20.12 73.8473 20.5668ZM86.1928 26.1811C85.2631 26.1811 84.4602 25.9879 83.7841 25.6016C83.112 25.2112 82.5948 24.6598 82.2326 23.9474C81.8704 23.2311 81.6893 22.3879 81.6893 21.418C81.6893 20.4641 81.8704 19.627 82.2326 18.9066C82.5988 18.1822 83.11 17.6187 83.766 17.2163C84.422 16.8098 85.1927 16.6065 86.0781 16.6065C86.6496 16.6065 87.1889 16.6991 87.696 16.8842C88.2071 17.0653 88.6579 17.3471 89.0483 17.7294C89.4427 18.1117 89.7526 18.5987 89.978 19.1903C90.2034 19.7779 90.3161 20.4782 90.3161 21.2912V21.9613H82.7156V20.4883H88.2212C88.2172 20.0697 88.1267 19.6974 87.9496 19.3714C87.7725 19.0414 87.525 18.7818 87.207 18.5927C86.8931 18.4035 86.5269 18.3089 86.1083 18.3089C85.6616 18.3089 85.2692 18.4176 84.9311 18.6349C84.593 18.8482 84.3294 19.13 84.1403 19.4801C83.9551 19.8262 83.8606 20.2066 83.8565 20.6211V21.907C83.8565 22.4463 83.9551 22.9091 84.1523 23.2955C84.3496 23.6778 84.6252 23.9716 84.9794 24.1768C85.3336 24.3781 85.7481 24.4787 86.223 24.4787C86.541 24.4787 86.8287 24.4344 87.0863 24.3459C87.3439 24.2533 87.5672 24.1185 87.7564 23.9414C87.9455 23.7643 88.0884 23.545 88.185 23.2834L90.2255 23.5128C90.0967 24.0521 89.8512 24.523 89.489 24.9254C89.1308 25.3239 88.672 25.6338 88.1126 25.8551C87.5531 26.0724 86.9132 26.1811 86.1928 26.1811ZM99.0802 26L95.5908 13.6364H97.9996L100.227 22.7219H100.342L102.72 13.6364H104.912L107.296 22.728H107.405L109.633 13.6364H112.041L108.552 26H106.343L103.867 17.3249H103.771L101.29 26H99.0802ZM115.22 26.1871C114.632 26.1871 114.103 26.0825 113.632 25.8732C113.165 25.6599 112.795 25.346 112.521 24.9315C112.252 24.5169 112.117 24.0058 112.117 23.3981C112.117 22.8749 112.214 22.4422 112.407 22.1001C112.6 21.758 112.863 21.4844 113.198 21.2791C113.532 21.0739 113.908 20.9189 114.326 20.8143C114.749 20.7056 115.186 20.6271 115.636 20.5788C116.18 20.5225 116.62 20.4722 116.959 20.4279C117.297 20.3796 117.542 20.3072 117.695 20.2106C117.852 20.11 117.93 19.955 117.93 19.7457V19.7095C117.93 19.2547 117.796 18.9026 117.526 18.6531C117.256 18.4035 116.868 18.2788 116.361 18.2788C115.826 18.2788 115.401 18.3955 115.087 18.6289C114.777 18.8623 114.568 19.138 114.459 19.456L112.419 19.1662C112.58 18.6027 112.845 18.1319 113.216 17.7536C113.586 17.3712 114.039 17.0855 114.574 16.8963C115.109 16.7031 115.701 16.6065 116.349 16.6065C116.796 16.6065 117.24 16.6589 117.683 16.7635C118.126 16.8681 118.53 17.0412 118.896 17.2827C119.263 17.5201 119.556 17.8441 119.778 18.2546C120.003 18.6651 120.116 19.1783 120.116 19.794V26H118.015V24.7262H117.943C117.81 24.9838 117.623 25.2253 117.381 25.4506C117.144 25.672 116.844 25.8511 116.482 25.9879C116.123 26.1207 115.703 26.1871 115.22 26.1871ZM115.787 24.5813C116.226 24.5813 116.606 24.4948 116.928 24.3217C117.25 24.1446 117.498 23.9112 117.671 23.6214C117.848 23.3317 117.937 23.0157 117.937 22.6737V21.581C117.868 21.6373 117.751 21.6896 117.586 21.7379C117.425 21.7862 117.244 21.8285 117.043 21.8647C116.842 21.9009 116.643 21.9331 116.445 21.9613C116.248 21.9895 116.077 22.0136 115.932 22.0337C115.606 22.078 115.314 22.1504 115.057 22.2511C114.799 22.3517 114.596 22.4925 114.447 22.6737C114.298 22.8507 114.224 23.0801 114.224 23.3619C114.224 23.7643 114.371 24.0682 114.665 24.2734C114.958 24.4787 115.333 24.5813 115.787 24.5813ZM122.313 26V16.7273H124.499V26H122.313ZM123.412 15.4112C123.066 15.4112 122.768 15.2965 122.519 15.0671C122.269 14.8337 122.144 14.554 122.144 14.228C122.144 13.898 122.269 13.6183 122.519 13.3888C122.768 13.1554 123.066 13.0387 123.412 13.0387C123.762 13.0387 124.06 13.1554 124.305 13.3888C124.555 13.6183 124.68 13.898 124.68 14.228C124.68 14.554 124.555 14.8337 124.305 15.0671C124.06 15.2965 123.762 15.4112 123.412 15.4112ZM131.376 16.7273V18.4176H126.046V16.7273H131.376ZM127.362 14.5057H129.547V23.2109C129.547 23.5047 129.591 23.7301 129.68 23.8871C129.772 24.04 129.893 24.1446 130.042 24.201C130.191 24.2573 130.356 24.2855 130.537 24.2855C130.674 24.2855 130.799 24.2754 130.911 24.2553C131.028 24.2352 131.117 24.2171 131.177 24.201L131.545 25.9094C131.429 25.9497 131.262 25.994 131.044 26.0423C130.831 26.0906 130.569 26.1187 130.259 26.1268C129.712 26.1429 129.219 26.0604 128.78 25.8793C128.342 25.6941 127.994 25.4084 127.736 25.022C127.482 24.6357 127.358 24.1527 127.362 23.5732V14.5057ZM133.204 26V16.7273H135.389V26H133.204ZM134.303 15.4112C133.957 15.4112 133.659 15.2965 133.409 15.0671C133.16 14.8337 133.035 14.554 133.035 14.228C133.035 13.898 133.16 13.6183 133.409 13.3888C133.659 13.1554 133.957 13.0387 134.303 13.0387C134.653 13.0387 134.951 13.1554 135.196 13.3888C135.446 13.6183 135.57 13.898 135.57 14.228C135.57 14.554 135.446 14.8337 135.196 15.0671C134.951 15.2965 134.653 15.4112 134.303 15.4112ZM139.822 20.5668V26H137.637V16.7273H139.725V18.3029H139.834C140.047 17.7837 140.387 17.3712 140.854 17.0653C141.325 16.7595 141.907 16.6065 142.599 16.6065C143.239 16.6065 143.796 16.7434 144.271 17.017C144.75 17.2907 145.12 17.6871 145.382 18.2063C145.648 18.7255 145.778 19.3554 145.774 20.0959V26H143.589V20.4339C143.589 19.8142 143.428 19.3292 143.106 18.979C142.788 18.6289 142.347 18.4538 141.784 18.4538C141.402 18.4538 141.061 18.5384 140.764 18.7074C140.47 18.8724 140.238 19.1119 140.069 19.4258C139.904 19.7397 139.822 20.12 139.822 20.5668ZM152.029 29.6705C151.244 29.6705 150.57 29.5638 150.006 29.3505C149.443 29.1412 148.99 28.8595 148.648 28.5053C148.306 28.1512 148.068 27.7588 147.936 27.3281L149.904 26.8512C149.992 27.0323 150.121 27.2114 150.29 27.3885C150.459 27.5696 150.686 27.7185 150.972 27.8352C151.262 27.956 151.626 28.0163 152.065 28.0163C152.685 28.0163 153.198 27.8654 153.604 27.5636C154.011 27.2657 154.214 26.7747 154.214 26.0906V24.3338H154.105C153.993 24.5592 153.828 24.7906 153.61 25.0281C153.397 25.2655 153.113 25.4647 152.759 25.6257C152.409 25.7867 151.968 25.8672 151.437 25.8672C150.725 25.8672 150.079 25.7002 149.499 25.3661C148.924 25.0281 148.465 24.525 148.123 23.8569C147.785 23.1848 147.616 22.3436 147.616 21.3335C147.616 20.3152 147.785 19.456 148.123 18.7557C148.465 18.0514 148.926 17.5181 149.505 17.1559C150.085 16.7897 150.731 16.6065 151.443 16.6065C151.986 16.6065 152.433 16.6991 152.783 16.8842C153.137 17.0653 153.419 17.2847 153.628 17.5423C153.838 17.7958 153.997 18.0353 154.105 18.2607H154.226V16.7273H156.381V26.1509C156.381 26.9438 156.192 27.5998 155.814 28.119C155.435 28.6381 154.918 29.0265 154.262 29.2841C153.606 29.5417 152.862 29.6705 152.029 29.6705ZM152.047 24.1527C152.51 24.1527 152.904 24.04 153.23 23.8146C153.556 23.5893 153.803 23.2653 153.972 22.8427C154.142 22.4201 154.226 21.913 154.226 21.3214C154.226 20.7378 154.142 20.2267 153.972 19.788C153.807 19.3493 153.562 19.0092 153.236 18.7678C152.914 18.5223 152.518 18.3995 152.047 18.3995C151.56 18.3995 151.153 18.5263 150.827 18.7798C150.501 19.0334 150.256 19.3815 150.091 19.8242C149.926 20.2629 149.843 20.762 149.843 21.3214C149.843 21.8888 149.926 22.3859 150.091 22.8125C150.26 23.2351 150.507 23.5651 150.833 23.8026C151.163 24.036 151.568 24.1527 152.047 24.1527ZM162.934 26V13.6364H165.174V24.1225H170.619V26H162.934ZM172.467 26V16.7273H174.652V26H172.467ZM173.565 15.4112C173.219 15.4112 172.921 15.2965 172.672 15.0671C172.422 14.8337 172.298 14.554 172.298 14.228C172.298 13.898 172.422 13.6183 172.672 13.3888C172.921 13.1554 173.219 13.0387 173.565 13.0387C173.915 13.0387 174.213 13.1554 174.459 13.3888C174.708 13.6183 174.833 13.898 174.833 14.228C174.833 14.554 174.708 14.8337 174.459 15.0671C174.213 15.2965 173.915 15.4112 173.565 15.4112ZM184.228 19.1783L182.236 19.3956C182.18 19.1944 182.081 19.0052 181.94 18.8281C181.803 18.651 181.618 18.5082 181.385 18.3995C181.151 18.2908 180.866 18.2365 180.527 18.2365C180.073 18.2365 179.69 18.3351 179.38 18.5323C179.075 18.7295 178.924 18.9851 178.928 19.299C178.924 19.5687 179.022 19.788 179.223 19.957C179.429 20.1261 179.767 20.2649 180.238 20.3736L181.819 20.7116C182.697 20.9008 183.349 21.2006 183.775 21.6112C184.206 22.0217 184.423 22.5589 184.427 23.223C184.423 23.8066 184.252 24.3217 183.914 24.7685C183.58 25.2112 183.115 25.5573 182.52 25.8068C181.924 26.0563 181.24 26.1811 180.467 26.1811C179.332 26.1811 178.419 25.9437 177.726 25.4688C177.034 24.9898 176.622 24.3237 176.489 23.4705L178.62 23.2653C178.716 23.6838 178.922 23.9998 179.236 24.2131C179.549 24.4264 179.958 24.533 180.461 24.533C180.98 24.533 181.397 24.4264 181.711 24.2131C182.029 23.9998 182.188 23.7362 182.188 23.4222C182.188 23.1566 182.085 22.9373 181.88 22.7642C181.678 22.5911 181.365 22.4583 180.938 22.3658L179.356 22.0337C178.467 21.8486 177.809 21.5367 177.382 21.098C176.956 20.6553 176.744 20.0959 176.748 19.4197C176.744 18.8482 176.899 18.3532 177.213 17.9347C177.531 17.5121 177.972 17.1861 178.535 16.9567C179.103 16.7232 179.757 16.6065 180.497 16.6065C181.584 16.6065 182.439 16.8379 183.063 17.3008C183.691 17.7636 184.079 18.3894 184.228 19.1783ZM190.86 16.7273V18.4176H185.529V16.7273H190.86ZM186.845 14.5057H189.03V23.2109C189.03 23.5047 189.075 23.7301 189.163 23.8871C189.256 24.04 189.377 24.1446 189.525 24.201C189.674 24.2573 189.839 24.2855 190.021 24.2855C190.157 24.2855 190.282 24.2754 190.395 24.2553C190.512 24.2352 190.6 24.2171 190.66 24.201L191.029 25.9094C190.912 25.9497 190.745 25.994 190.528 26.0423C190.314 26.0906 190.053 26.1187 189.743 26.1268C189.195 26.1429 188.702 26.0604 188.264 25.8793C187.825 25.6941 187.477 25.4084 187.219 25.022C186.966 24.6357 186.841 24.1527 186.845 23.5732V14.5057Z" fill="#DBA73B"/>
</svg>
