<svg width="17" height="17" viewBox="0 0 17 17" fill="none" xmlns="http://www.w3.org/2000/svg">
<path d="M3.61395 2.11353C3.61372 2.585 3.4262 3.03707 3.09265 3.37028C2.75911 3.70349 2.30685 3.89056 1.83538 3.89032C1.36391 3.89008 0.911848 3.70257 0.578635 3.36902C0.245423 3.03547 0.0583582 2.58322 0.058594 2.11175C0.0588297 1.64028 0.246346 1.18822 0.579893 0.855003C0.913439 0.52179 1.36569 0.334725 1.83716 0.334961C2.30863 0.335197 2.7607 0.522714 3.09391 0.85626C3.42712 1.18981 3.61419 1.64206 3.61395 2.11353ZM3.66728 5.20669H0.111924V16.335H3.66728V5.20669ZM9.28475 5.20669H5.74717V16.335H9.24919V10.4953C9.24919 7.24213 13.489 6.93993 13.489 10.4953V16.335H16.9999V9.28646C16.9999 3.80232 10.7247 4.00676 9.24919 6.69994L9.28475 5.20669Z" fill="white"/>
</svg>
