<svg width="21" height="21" viewBox="0 0 21 21" fill="none" xmlns="http://www.w3.org/2000/svg">
<g clip-path="url(#clip0_3323_4069)">
<path d="M17.1665 3.66797H3.83317C2.9165 3.66797 2.17484 4.41797 2.17484 5.33464L2.1665 15.3346C2.1665 16.2513 2.9165 17.0013 3.83317 17.0013H17.1665C18.0832 17.0013 18.8332 16.2513 18.8332 15.3346V5.33464C18.8332 4.41797 18.0832 3.66797 17.1665 3.66797ZM16.3332 15.3346H4.6665C4.20817 15.3346 3.83317 14.9596 3.83317 14.5013V7.0013L9.6165 10.618C10.1582 10.9596 10.8415 10.9596 11.3832 10.618L17.1665 7.0013V14.5013C17.1665 14.9596 16.7915 15.3346 16.3332 15.3346ZM10.4998 9.5013L3.83317 5.33464H17.1665L10.4998 9.5013Z" fill="white"/>
</g>
<defs>
<clipPath id="clip0_3323_4069">
<rect width="20" height="20" fill="white" transform="translate(0.5 0.334961)"/>
</clipPath>
</defs>
</svg>
