<svg width="186" height="41" viewBox="0 0 186 41" fill="none" xmlns="http://www.w3.org/2000/svg">
<rect x="0.5" y="0.839844" width="185" height="40" rx="8" fill="#FDF9F1"/>
<path d="M24.6476 14.4762H26.8692V23.1694C26.8652 23.9663 26.6961 24.6525 26.3621 25.228C26.028 25.7995 25.5612 26.2402 24.9615 26.5501C24.3659 26.8559 23.6716 27.0089 22.8788 27.0089C22.1543 27.0089 21.5024 26.8801 20.9228 26.6225C20.3473 26.3609 19.8905 25.9746 19.5524 25.4634C19.2144 24.9523 19.0453 24.3164 19.0453 23.5558H21.2729C21.277 23.8898 21.3494 24.1776 21.4903 24.419C21.6352 24.6605 21.8344 24.8456 22.0879 24.9744C22.3415 25.1032 22.6333 25.1676 22.9633 25.1676C23.3215 25.1676 23.6253 25.0932 23.8749 24.9442C24.1244 24.7913 24.3136 24.5659 24.4423 24.2681C24.5752 23.9703 24.6436 23.604 24.6476 23.1694V14.4762ZM33.2472 27.021C32.3417 27.021 31.5569 26.8217 30.8928 26.4233C30.2287 26.0249 29.7136 25.4674 29.3473 24.7511C28.9851 24.0347 28.804 23.1976 28.804 22.2397C28.804 21.2818 28.9851 20.4427 29.3473 19.7223C29.7136 19.0019 30.2287 18.4425 30.8928 18.044C31.5569 17.6456 32.3417 17.4464 33.2472 17.4464C34.1527 17.4464 34.9375 17.6456 35.6016 18.044C36.2657 18.4425 36.7788 19.0019 37.141 19.7223C37.5073 20.4427 37.6904 21.2818 37.6904 22.2397C37.6904 23.1976 37.5073 24.0347 37.141 24.7511C36.7788 25.4674 36.2657 26.0249 35.6016 26.4233C34.9375 26.8217 34.1527 27.021 33.2472 27.021ZM33.2593 25.2702C33.7503 25.2702 34.1608 25.1354 34.4908 24.8658C34.8208 24.5921 35.0663 24.2259 35.2273 23.767C35.3923 23.3082 35.4748 22.7971 35.4748 22.2337C35.4748 21.6662 35.3923 21.1531 35.2273 20.6942C35.0663 20.2314 34.8208 19.8632 34.4908 19.5895C34.1608 19.3158 33.7503 19.179 33.2593 19.179C32.7562 19.179 32.3376 19.3158 32.0036 19.5895C31.6736 19.8632 31.4261 20.2314 31.2611 20.6942C31.1001 21.1531 31.0196 21.6662 31.0196 22.2337C31.0196 22.7971 31.1001 23.3082 31.2611 23.767C31.4261 24.2259 31.6736 24.5921 32.0036 24.8658C32.3376 25.1354 32.7562 25.2702 33.2593 25.2702ZM39.5452 26.8398V17.5671H41.7306V26.8398H39.5452ZM40.644 16.2511C40.2978 16.2511 40 16.1364 39.7505 15.907C39.501 15.6735 39.3762 15.3938 39.3762 15.0678C39.3762 14.7378 39.501 14.4581 39.7505 14.2287C40 13.9953 40.2978 13.8786 40.644 13.8786C40.9941 13.8786 41.2919 13.9953 41.5374 14.2287C41.7869 14.4581 41.9117 14.7378 41.9117 15.0678C41.9117 15.3938 41.7869 15.6735 41.5374 15.907C41.2919 16.1364 40.9941 16.2511 40.644 16.2511ZM46.1632 21.4066V26.8398H43.9778V17.5671H46.0666V19.1428H46.1753C46.3886 18.6236 46.7287 18.2111 47.1955 17.9052C47.6664 17.5993 48.248 17.4464 48.9402 17.4464C49.5801 17.4464 50.1375 17.5832 50.6124 17.8569C51.0914 18.1306 51.4616 18.527 51.7232 19.0462C51.9889 19.5653 52.1197 20.1952 52.1156 20.9357V26.8398H49.9303V21.2738C49.9303 20.654 49.7693 20.169 49.4473 19.8189C49.1294 19.4687 48.6887 19.2937 48.1252 19.2937C47.7429 19.2937 47.4028 19.3782 47.105 19.5472C46.8112 19.7122 46.5798 19.9517 46.4107 20.2656C46.2457 20.5795 46.1632 20.9599 46.1632 21.4066ZM58.1073 16.3537V14.4762H67.9716V16.3537H64.1503V26.8398H61.9287V16.3537H58.1073ZM71.962 21.4066V26.8398H69.7767V14.4762H71.9138V19.1428H72.0224C72.2397 18.6196 72.5758 18.207 73.0306 17.9052C73.4894 17.5993 74.073 17.4464 74.7813 17.4464C75.4252 17.4464 75.9867 17.5812 76.4656 17.8509C76.9445 18.1205 77.3148 18.5149 77.5764 19.0341C77.842 19.5533 77.9748 20.1871 77.9748 20.9357V26.8398H75.7895V21.2738C75.7895 20.65 75.6285 20.165 75.3065 19.8189C74.9886 19.4687 74.5418 19.2937 73.9663 19.2937C73.5799 19.2937 73.2338 19.3782 72.928 19.5472C72.6261 19.7122 72.3887 19.9517 72.2156 20.2656C72.0466 20.5795 71.962 20.9599 71.962 21.4066ZM84.3076 27.021C83.3779 27.021 82.575 26.8278 81.8988 26.4414C81.2267 26.051 80.7096 25.4996 80.3473 24.7873C79.9851 24.0709 79.804 23.2277 79.804 22.2578C79.804 21.304 79.9851 20.4669 80.3473 19.7464C80.7136 19.022 81.2247 18.4586 81.8807 18.0561C82.5367 17.6496 83.3075 17.4464 84.1929 17.4464C84.7644 17.4464 85.3037 17.5389 85.8108 17.7241C86.3219 17.9052 86.7727 18.1869 87.163 18.5692C87.5575 18.9516 87.8674 19.4386 88.0927 20.0302C88.3181 20.6178 88.4308 21.3181 88.4308 22.131V22.8011H80.8303V21.3281H86.336C86.332 20.9096 86.2414 20.5373 86.0643 20.2113C85.8872 19.8813 85.6397 19.6217 85.3218 19.4325C85.0079 19.2434 84.6416 19.1488 84.2231 19.1488C83.7763 19.1488 83.3839 19.2575 83.0459 19.4748C82.7078 19.6881 82.4442 19.9698 82.255 20.32C82.0699 20.6661 81.9753 21.0464 81.9713 21.4609V22.7468C81.9713 23.2861 82.0699 23.7489 82.2671 24.1353C82.4643 24.5176 82.74 24.8114 83.0941 25.0167C83.4483 25.2179 83.8629 25.3185 84.3378 25.3185C84.6557 25.3185 84.9435 25.2743 85.201 25.1857C85.4586 25.0932 85.682 24.9583 85.8711 24.7812C86.0603 24.6042 86.2032 24.3848 86.2998 24.1232L88.3402 24.3526C88.2115 24.8919 87.966 25.3628 87.6037 25.7653C87.2455 26.1637 86.7867 26.4736 86.2273 26.695C85.6679 26.9123 85.028 27.021 84.3076 27.021ZM108.97 14.4762V26.8398H106.978L101.152 18.4183H101.049V26.8398H98.8098V14.4762H100.814L106.634 22.9038H106.742V14.4762H108.97ZM115.419 27.021C114.489 27.021 113.686 26.8278 113.01 26.4414C112.338 26.051 111.821 25.4996 111.459 24.7873C111.096 24.0709 110.915 23.2277 110.915 22.2578C110.915 21.304 111.096 20.4669 111.459 19.7464C111.825 19.022 112.336 18.4586 112.992 18.0561C113.648 17.6496 114.419 17.4464 115.304 17.4464C115.876 17.4464 116.415 17.5389 116.922 17.7241C117.433 17.9052 117.884 18.1869 118.274 18.5692C118.669 18.9516 118.979 19.4386 119.204 20.0302C119.429 20.6178 119.542 21.3181 119.542 22.131V22.8011H111.942V21.3281H117.447C117.443 20.9096 117.353 20.5373 117.176 20.2113C116.999 19.8813 116.751 19.6217 116.433 19.4325C116.119 19.2434 115.753 19.1488 115.334 19.1488C114.888 19.1488 114.495 19.2575 114.157 19.4748C113.819 19.6881 113.556 19.9698 113.366 20.32C113.181 20.6661 113.087 21.0464 113.083 21.4609V22.7468C113.083 23.2861 113.181 23.7489 113.378 24.1353C113.576 24.5176 113.851 24.8114 114.205 25.0167C114.56 25.2179 114.974 25.3185 115.449 25.3185C115.767 25.3185 116.055 25.2743 116.312 25.1857C116.57 25.0932 116.793 24.9583 116.982 24.7812C117.172 24.6042 117.314 24.3848 117.411 24.1232L119.452 24.3526C119.323 24.8919 119.077 25.3628 118.715 25.7653C118.357 26.1637 117.898 26.4736 117.339 26.695C116.779 26.9123 116.139 27.021 115.419 27.021ZM126.021 17.5671V19.2575H120.691V17.5671H126.021ZM122.007 15.3455H124.192V24.0508C124.192 24.3446 124.236 24.57 124.325 24.7269C124.417 24.8799 124.538 24.9845 124.687 25.0408C124.836 25.0972 125.001 25.1254 125.182 25.1254C125.319 25.1254 125.444 25.1153 125.556 25.0952C125.673 25.075 125.762 25.0569 125.822 25.0408L126.19 26.7493C126.074 26.7895 125.907 26.8338 125.689 26.8821C125.476 26.9304 125.214 26.9586 124.904 26.9666C124.357 26.9827 123.864 26.9002 123.425 26.7191C122.987 26.534 122.639 26.2482 122.381 25.8619C122.127 25.4755 122.003 24.9925 122.007 24.413V15.3455ZM129.763 26.8398L127.143 17.5671H129.37L131 24.087H131.085L132.751 17.5671H134.954L136.621 24.0508H136.711L138.317 17.5671H140.551L137.925 26.8398H135.649L133.91 20.5735H133.783L132.045 26.8398H129.763ZM145.856 27.021C144.95 27.021 144.165 26.8217 143.501 26.4233C142.837 26.0249 142.322 25.4674 141.956 24.7511C141.594 24.0347 141.412 23.1976 141.412 22.2397C141.412 21.2818 141.594 20.4427 141.956 19.7223C142.322 19.0019 142.837 18.4425 143.501 18.044C144.165 17.6456 144.95 17.4464 145.856 17.4464C146.761 17.4464 147.546 17.6456 148.21 18.044C148.874 18.4425 149.387 19.0019 149.749 19.7223C150.116 20.4427 150.299 21.2818 150.299 22.2397C150.299 23.1976 150.116 24.0347 149.749 24.7511C149.387 25.4674 148.874 26.0249 148.21 26.4233C147.546 26.8217 146.761 27.021 145.856 27.021ZM145.868 25.2702C146.359 25.2702 146.769 25.1354 147.099 24.8658C147.429 24.5921 147.675 24.2259 147.836 23.767C148.001 23.3082 148.083 22.7971 148.083 22.2337C148.083 21.6662 148.001 21.1531 147.836 20.6942C147.675 20.2314 147.429 19.8632 147.099 19.5895C146.769 19.3158 146.359 19.179 145.868 19.179C145.365 19.179 144.946 19.3158 144.612 19.5895C144.282 19.8632 144.034 20.2314 143.869 20.6942C143.708 21.1531 143.628 21.6662 143.628 22.2337C143.628 22.7971 143.708 23.3082 143.869 23.767C144.034 24.2259 144.282 24.5921 144.612 24.8658C144.946 25.1354 145.365 25.2702 145.868 25.2702ZM152.154 26.8398V17.5671H154.273V19.1126H154.369C154.538 18.5773 154.828 18.1648 155.239 17.875C155.653 17.5812 156.126 17.4343 156.657 17.4343C156.778 17.4343 156.913 17.4403 157.062 17.4524C157.215 17.4605 157.341 17.4745 157.442 17.4947V19.505C157.349 19.4728 157.203 19.4446 157.001 19.4205C156.804 19.3923 156.613 19.3782 156.428 19.3782C156.029 19.3782 155.671 19.4647 155.353 19.6378C155.039 19.8068 154.792 20.0423 154.611 20.3441C154.43 20.646 154.339 20.9941 154.339 21.3885V26.8398H152.154ZM160.886 23.93L160.88 21.2919H161.23L164.563 17.5671H167.116L163.017 22.131H162.564L160.886 23.93ZM158.894 26.8398V14.4762H161.079V26.8398H158.894ZM164.713 26.8398L161.695 22.62L163.168 21.0806L167.327 26.8398H164.713Z" fill="#DBA73B"/>
</svg>
