<svg width="90" height="87" viewBox="0 0 90 87" fill="none" xmlns="http://www.w3.org/2000/svg">
<g clip-path="url(#clip0_3486_3611)">
<path fill-rule="evenodd" clip-rule="evenodd" d="M81.7368 42.2518V61.6653C81.7368 64.2895 80.6703 66.669 78.9527 68.3865C77.2352 70.1041 74.8557 71.1706 72.2317 71.1706H14.6864C12.0622 71.1706 9.68275 70.1041 7.96516 68.3865C6.24759 66.669 5.18115 64.2895 5.18115 61.6653V25.6996C5.18115 23.064 6.25695 20.6752 7.98771 18.9559C9.70354 17.2516 12.0738 16.1943 14.6864 16.1943H55.6794C55.0928 17.6583 54.6738 19.2078 54.4465 20.8185H14.6864C14.2752 20.8185 13.8762 20.8692 13.4951 20.9646L42.6057 47.0237L42.6077 47.0255C43.0935 47.4554 43.8237 47.4557 44.3097 47.026L44.3123 47.0237L57.7602 34.9789C58.6372 36.2552 59.6582 37.4248 60.7998 38.4643L57.5595 41.3665L76.9566 62.8964C77.0585 62.5034 77.1126 62.0909 77.1126 61.6653V43.4848C78.7235 43.2574 80.2728 42.8385 81.7368 42.2518ZM54.1149 44.4517L73.792 66.2923C73.3023 66.4574 72.7778 66.5464 72.2317 66.5464H14.6864C14.1972 66.5464 13.7253 66.4749 13.2802 66.3414L34.0502 45.5714L39.5274 50.4744L39.5335 50.4798C41.7723 52.4697 45.1457 52.4697 47.3845 50.4798L47.3909 50.4741L54.1149 44.4517ZM30.5997 42.4824L10.0104 63.0715C9.87689 62.6265 9.80532 62.1546 9.80532 61.6653V25.6996C9.80532 25.141 9.89864 24.6049 10.0709 24.1057L30.5997 42.4824Z" fill="white"/>
<path d="M74.2864 36.7461C81.5223 36.7461 87.3882 30.8802 87.3882 23.6443C87.3882 16.4084 81.5223 10.5425 74.2864 10.5425C67.0505 10.5425 61.1846 16.4084 61.1846 23.6443C61.1846 30.8802 67.0505 36.7461 74.2864 36.7461Z" fill="#DBA73B" stroke="white" stroke-width="4.62417"/>
</g>
<defs>
<clipPath id="clip0_3486_3611">
<rect width="89.4006" height="86.3178" fill="white" transform="translate(0.299805 0.523438)"/>
</clipPath>
</defs>
</svg>
