<svg width="144" height="41" viewBox="0 0 144 41" fill="none" xmlns="http://www.w3.org/2000/svg">
<rect x="0.5" y="0.839844" width="143" height="40" rx="8" fill="#FDF9F1"/>
<path d="M31.665 20.658C31.665 21.9902 31.4155 23.1312 30.9164 24.081C30.4214 25.0268 29.7453 25.7512 28.888 26.2543C28.0348 26.7573 27.0669 27.0089 25.9842 27.0089C24.9016 27.0089 23.9317 26.7573 23.0744 26.2543C22.2212 25.7472 21.5451 25.0207 21.046 24.0749C20.551 23.1251 20.3035 21.9862 20.3035 20.658C20.3035 19.3259 20.551 18.1869 21.046 17.2411C21.5451 16.2913 22.2212 15.5649 23.0744 15.0618C23.9317 14.5587 24.9016 14.3072 25.9842 14.3072C27.0669 14.3072 28.0348 14.5587 28.888 15.0618C29.7453 15.5649 30.4214 16.2913 30.9164 17.2411C31.4155 18.1869 31.665 19.3259 31.665 20.658ZM29.4132 20.658C29.4132 19.7203 29.2663 18.9295 28.9725 18.2855C28.6828 17.6375 28.2803 17.1486 27.7651 16.8185C27.25 16.4845 26.6564 16.3175 25.9842 16.3175C25.3121 16.3175 24.7185 16.4845 24.2033 16.8185C23.6882 17.1486 23.2837 17.6375 22.9899 18.2855C22.7002 18.9295 22.5553 19.7203 22.5553 20.658C22.5553 21.5958 22.7002 22.3886 22.9899 23.0366C23.2837 23.6805 23.6882 24.1695 24.2033 24.5036C24.7185 24.8336 25.3121 24.9986 25.9842 24.9986C26.6564 24.9986 27.25 24.8336 27.7651 24.5036C28.2803 24.1695 28.6828 23.6805 28.9725 23.0366C29.2663 22.3886 29.4132 21.5958 29.4132 20.658ZM39.596 22.94V17.5671H41.7814V26.8398H39.6624V25.1918H39.5658C39.3565 25.7109 39.0124 26.1355 38.5335 26.4656C38.0586 26.7956 37.473 26.9606 36.7768 26.9606C36.169 26.9606 35.6318 26.8258 35.1649 26.5561C34.7021 26.2824 34.3399 25.886 34.0783 25.3668C33.8167 24.8436 33.6859 24.2118 33.6859 23.4712V17.5671H35.8712V23.1332C35.8712 23.7208 36.0322 24.1876 36.3542 24.5337C36.6762 24.8799 37.0987 25.0529 37.6219 25.0529C37.9439 25.0529 38.2558 24.9744 38.5577 24.8175C38.8595 24.6605 39.107 24.4271 39.3002 24.1172C39.4974 23.8033 39.596 23.4109 39.596 22.94ZM44.0286 26.8398V17.5671H46.1476V19.1126H46.2442C46.4132 18.5773 46.703 18.1648 47.1135 17.875C47.528 17.5812 48.0009 17.4343 48.5322 17.4343C48.6529 17.4343 48.7877 17.4403 48.9367 17.4524C49.0896 17.4605 49.2164 17.4745 49.317 17.4947V19.505C49.2244 19.4728 49.0775 19.4446 48.8763 19.4205C48.6791 19.3923 48.4879 19.3782 48.3028 19.3782C47.9043 19.3782 47.5462 19.4647 47.2282 19.6378C46.9143 19.8068 46.6668 20.0423 46.4857 20.3441C46.3046 20.646 46.214 20.9941 46.214 21.3885V26.8398H44.0286ZM55.0823 26.8398V14.4762H59.7186C60.6684 14.4762 61.4653 14.6533 62.1092 15.0075C62.7572 15.3616 63.2462 15.8486 63.5762 16.4684C63.9103 17.0842 64.0773 17.7844 64.0773 18.5692C64.0773 19.3621 63.9103 20.0664 63.5762 20.6822C63.2422 21.2979 62.7492 21.7829 62.0972 22.1371C61.4452 22.4872 60.6423 22.6623 59.6884 22.6623H56.6156V20.821H59.3866C59.942 20.821 60.3968 20.7244 60.7509 20.5312C61.1051 20.3381 61.3667 20.0724 61.5357 19.7344C61.7088 19.3963 61.7953 19.0079 61.7953 18.5692C61.7953 18.1306 61.7088 17.7442 61.5357 17.4102C61.3667 17.0761 61.1031 16.8165 60.7449 16.6314C60.3907 16.4422 59.9339 16.3477 59.3745 16.3477H57.322V26.8398H55.0823ZM68.4284 27.027C67.8408 27.027 67.3116 26.9223 66.8407 26.7131C66.3738 26.4998 66.0036 26.1858 65.7299 25.7713C65.4602 25.3568 65.3254 24.8456 65.3254 24.2379C65.3254 23.7147 65.422 23.2821 65.6152 22.94C65.8084 22.5979 66.072 22.3242 66.406 22.119C66.7401 21.9137 67.1164 21.7588 67.5349 21.6541C67.9575 21.5455 68.3942 21.467 68.8449 21.4187C69.3883 21.3623 69.829 21.312 70.167 21.2678C70.5051 21.2195 70.7506 21.147 70.9035 21.0504C71.0605 20.9498 71.139 20.7949 71.139 20.5856V20.5494C71.139 20.0946 71.0042 19.7424 70.7345 19.4929C70.4649 19.2434 70.0765 19.1186 69.5694 19.1186C69.0341 19.1186 68.6095 19.2353 68.2956 19.4688C67.9857 19.7022 67.7764 19.9779 67.6677 20.2958L65.6273 20.006C65.7882 19.4426 66.0539 18.9717 66.4241 18.5934C66.7944 18.2111 67.2472 17.9253 67.7824 17.7362C68.3177 17.543 68.9093 17.4464 69.5573 17.4464C70.004 17.4464 70.4488 17.4987 70.8915 17.6033C71.3342 17.708 71.7387 17.881 72.1049 18.1225C72.4711 18.36 72.7649 18.6839 72.9863 19.0945C73.2117 19.505 73.3244 20.0181 73.3244 20.6339V26.8398H71.2235V25.5661H71.1511C71.0182 25.8236 70.8311 26.0651 70.5896 26.2905C70.3522 26.5118 70.0523 26.6909 69.6901 26.8278C69.3319 26.9606 68.9114 27.027 68.4284 27.027ZM68.9959 25.4212C69.4346 25.4212 69.8149 25.3346 70.1369 25.1616C70.4588 24.9845 70.7063 24.7511 70.8794 24.4613C71.0565 24.1715 71.145 23.8556 71.145 23.5135V22.4208C71.0766 22.4772 70.9599 22.5295 70.7949 22.5778C70.6339 22.6261 70.4528 22.6683 70.2516 22.7045C70.0503 22.7408 69.8511 22.773 69.6539 22.8011C69.4567 22.8293 69.2856 22.8535 69.1408 22.8736C68.8148 22.9179 68.523 22.9903 68.2654 23.0909C68.0078 23.1915 67.8046 23.3324 67.6557 23.5135C67.5068 23.6906 67.4323 23.92 67.4323 24.2017C67.4323 24.6042 67.5792 24.908 67.873 25.1133C68.1668 25.3185 68.5411 25.4212 68.9959 25.4212ZM75.5218 26.8398V17.5671H77.6408V19.1126H77.7373C77.9064 18.5773 78.1962 18.1648 78.6067 17.875C79.0212 17.5812 79.4941 17.4343 80.0253 17.4343C80.1461 17.4343 80.2809 17.4403 80.4298 17.4524C80.5828 17.4605 80.7095 17.4745 80.8101 17.4947V19.505C80.7176 19.4728 80.5707 19.4446 80.3695 19.4205C80.1722 19.3923 79.9811 19.3782 79.7959 19.3782C79.3975 19.3782 79.0393 19.4647 78.7214 19.6378C78.4074 19.8068 78.1599 20.0423 77.9788 20.3441C77.7977 20.646 77.7072 20.9941 77.7072 21.3885V26.8398H75.5218ZM87.3904 17.5671V19.2575H82.0598V17.5671H87.3904ZM83.3758 15.3455H85.5612V24.0508C85.5612 24.3446 85.6055 24.57 85.694 24.7269C85.7866 24.8799 85.9073 24.9845 86.0562 25.0408C86.2052 25.0972 86.3702 25.1254 86.5513 25.1254C86.6881 25.1254 86.8129 25.1153 86.9256 25.0952C87.0423 25.075 87.1308 25.0569 87.1912 25.0408L87.5594 26.7493C87.4427 26.7895 87.2757 26.8338 87.0584 26.8821C86.8451 26.9304 86.5835 26.9586 86.2736 26.9666C85.7262 26.9827 85.2332 26.9002 84.7945 26.7191C84.3558 26.534 84.0077 26.2482 83.7501 25.8619C83.4966 25.4755 83.3718 24.9925 83.3758 24.413V15.3455ZM91.4035 21.4066V26.8398H89.2181V17.5671H91.3069V19.1428H91.4155C91.6288 18.6236 91.9689 18.2111 92.4358 17.9052C92.9066 17.5993 93.4882 17.4464 94.1804 17.4464C94.8204 17.4464 95.3778 17.5832 95.8527 17.8569C96.3316 18.1306 96.7019 18.527 96.9635 19.0462C97.2291 19.5653 97.3599 20.1952 97.3559 20.9357V26.8398H95.1705V21.2738C95.1705 20.654 95.0095 20.169 94.6875 19.8189C94.3696 19.4687 93.9289 19.2937 93.3655 19.2937C92.9831 19.2937 92.643 19.3782 92.3452 19.5472C92.0514 19.7122 91.82 19.9517 91.651 20.2656C91.486 20.5795 91.4035 20.9599 91.4035 21.4066ZM103.683 27.021C102.753 27.021 101.95 26.8278 101.274 26.4414C100.602 26.051 100.085 25.4996 99.7223 24.7873C99.3601 24.0709 99.179 23.2277 99.179 22.2578C99.179 21.304 99.3601 20.4669 99.7223 19.7464C100.089 19.022 100.6 18.4586 101.256 18.0561C101.912 17.6496 102.682 17.4464 103.568 17.4464C104.139 17.4464 104.679 17.5389 105.186 17.7241C105.697 17.9052 106.148 18.1869 106.538 18.5692C106.932 18.9516 107.242 19.4386 107.468 20.0302C107.693 20.6178 107.806 21.3181 107.806 22.131V22.8011H100.205V21.3281H105.711C105.707 20.9096 105.616 20.5373 105.439 20.2113C105.262 19.8813 105.015 19.6217 104.697 19.4325C104.383 19.2434 104.017 19.1488 103.598 19.1488C103.151 19.1488 102.759 19.2575 102.421 19.4748C102.083 19.6881 101.819 19.9698 101.63 20.32C101.445 20.6661 101.35 21.0464 101.346 21.4609V22.7468C101.346 23.2861 101.445 23.7489 101.642 24.1353C101.839 24.5176 102.115 24.8114 102.469 25.0167C102.823 25.2179 103.238 25.3185 103.713 25.3185C104.031 25.3185 104.318 25.2743 104.576 25.1857C104.834 25.0932 105.057 24.9583 105.246 24.7812C105.435 24.6042 105.578 24.3848 105.675 24.1232L107.715 24.3526C107.586 24.8919 107.341 25.3628 106.979 25.7653C106.621 26.1637 106.162 26.4736 105.602 26.695C105.043 26.9123 104.403 27.021 103.683 27.021ZM109.655 26.8398V17.5671H111.774V19.1126H111.87C112.039 18.5773 112.329 18.1648 112.739 17.875C113.154 17.5812 113.627 17.4343 114.158 17.4343C114.279 17.4343 114.414 17.4403 114.563 17.4524C114.716 17.4605 114.842 17.4745 114.943 17.4947V19.505C114.85 19.4728 114.703 19.4446 114.502 19.4205C114.305 19.3923 114.114 19.3782 113.929 19.3782C113.53 19.3782 113.172 19.4647 112.854 19.6378C112.54 19.8068 112.293 20.0423 112.112 20.3441C111.931 20.646 111.84 20.9941 111.84 21.3885V26.8398H109.655ZM123.724 20.0181L121.731 20.2354C121.675 20.0342 121.577 19.8451 121.436 19.668C121.299 19.4909 121.114 19.348 120.88 19.2393C120.647 19.1307 120.361 19.0763 120.023 19.0763C119.568 19.0763 119.186 19.175 118.876 19.3722C118.57 19.5694 118.419 19.8249 118.423 20.1388C118.419 20.4085 118.518 20.6278 118.719 20.7969C118.924 20.9659 119.262 21.1048 119.733 21.2134L121.315 21.5515C122.192 21.7406 122.844 22.0405 123.271 22.451C123.702 22.8615 123.919 23.3988 123.923 24.0629C123.919 24.6464 123.748 25.1616 123.41 25.6083C123.076 26.051 122.611 26.3971 122.015 26.6467C121.42 26.8962 120.735 27.021 119.963 27.021C118.828 27.021 117.914 26.7835 117.222 26.3086C116.53 25.8297 116.117 25.1636 115.984 24.3104L118.115 24.1051C118.212 24.5237 118.417 24.8396 118.731 25.0529C119.045 25.2662 119.454 25.3729 119.957 25.3729C120.476 25.3729 120.892 25.2662 121.206 25.0529C121.524 24.8396 121.683 24.576 121.683 24.2621C121.683 23.9964 121.581 23.7771 121.375 23.604C121.174 23.431 120.86 23.2982 120.434 23.2056L118.852 22.8736C117.962 22.6884 117.304 22.3765 116.878 21.9379C116.451 21.4951 116.24 20.9357 116.244 20.2596C116.24 19.6881 116.395 19.1931 116.709 18.7745C117.027 18.3519 117.467 18.0259 118.031 17.7965C118.598 17.5631 119.252 17.4464 119.993 17.4464C121.08 17.4464 121.935 17.6778 122.559 18.1406C123.186 18.6035 123.575 19.2293 123.724 20.0181Z" fill="#DBA73B"/>
</svg>
