<svg width="144" height="40" viewBox="0 0 144 40" fill="none" xmlns="http://www.w3.org/2000/svg">
<rect x="0.5" width="143" height="40" rx="8" fill="#FDF9F1"/>
<path d="M39.393 19.8182C39.393 21.1503 39.1435 22.2913 38.6444 23.2411C38.1494 24.1869 37.4733 24.9113 36.616 25.4144C35.7628 25.9175 34.7949 26.169 33.7123 26.169C32.6296 26.169 31.6597 25.9175 30.8025 25.4144C29.9492 24.9073 29.2731 24.1809 28.7741 23.2351C28.279 22.2853 28.0315 21.1463 28.0315 19.8182C28.0315 18.486 28.279 17.3471 28.7741 16.4013C29.2731 15.4515 29.9492 14.725 30.8025 14.2219C31.6597 13.7189 32.6296 13.4673 33.7123 13.4673C34.7949 13.4673 35.7628 13.7189 36.616 14.2219C37.4733 14.725 38.1494 15.4515 38.6444 16.4013C39.1435 17.3471 39.393 18.486 39.393 19.8182ZM37.1412 19.8182C37.1412 18.8804 36.9943 18.0896 36.7006 17.4457C36.4108 16.7977 36.0083 16.3087 35.4932 15.9787C34.978 15.6446 34.3844 15.4776 33.7123 15.4776C33.0402 15.4776 32.4465 15.6446 31.9314 15.9787C31.4162 16.3087 31.0117 16.7977 30.718 17.4457C30.4282 18.0896 30.2833 18.8804 30.2833 19.8182C30.2833 20.7559 30.4282 21.5488 30.718 22.1967C31.0117 22.8407 31.4162 23.3297 31.9314 23.6637C32.4465 23.9937 33.0402 24.1587 33.7123 24.1587C34.3844 24.1587 34.978 23.9937 35.4932 23.6637C36.0083 23.3297 36.4108 22.8407 36.7006 22.1967C36.9943 21.5488 37.1412 20.7559 37.1412 19.8182ZM47.324 22.1001V16.7273H49.5094V26H47.3904V24.3519H47.2939C47.0846 24.8711 46.7405 25.2957 46.2615 25.6257C45.7866 25.9557 45.2011 26.1207 44.5048 26.1207C43.8971 26.1207 43.3598 25.9859 42.8929 25.7163C42.4301 25.4426 42.0679 25.0462 41.8063 24.527C41.5447 24.0038 41.4139 23.3719 41.4139 22.6314V16.7273H43.5993V22.2933C43.5993 22.8809 43.7602 23.3478 44.0822 23.6939C44.4042 24.04 44.8268 24.2131 45.35 24.2131C45.6719 24.2131 45.9838 24.1346 46.2857 23.9776C46.5875 23.8207 46.835 23.5872 47.0282 23.2773C47.2254 22.9634 47.324 22.571 47.324 22.1001ZM51.7567 26V16.7273H53.8756V18.2727H53.9722C54.1412 17.7375 54.431 17.3249 54.8415 17.0352C55.2561 16.7414 55.729 16.5945 56.2602 16.5945C56.3809 16.5945 56.5158 16.6005 56.6647 16.6126C56.8176 16.6206 56.9444 16.6347 57.045 16.6548V18.6651C56.9524 18.6329 56.8055 18.6048 56.6043 18.5806C56.4071 18.5524 56.2159 18.5384 56.0308 18.5384C55.6324 18.5384 55.2742 18.6249 54.9562 18.7979C54.6423 18.967 54.3948 19.2024 54.2137 19.5043C54.0326 19.8061 53.942 20.1542 53.942 20.5487V26H51.7567ZM64.4644 13.6364L67.6821 23.3679H67.8089L71.0205 13.6364H73.4836L69.1249 26H66.36L62.0074 13.6364H64.4644ZM76.7209 26.1871C76.1333 26.1871 75.604 26.0825 75.1332 25.8732C74.6663 25.6599 74.296 25.346 74.0224 24.9315C73.7527 24.5169 73.6179 24.0058 73.6179 23.3981C73.6179 22.8749 73.7145 22.4422 73.9077 22.1001C74.1009 21.758 74.3645 21.4844 74.6985 21.2791C75.0326 21.0739 75.4089 20.9189 75.8274 20.8143C76.25 20.7056 76.6867 20.6271 77.1374 20.5788C77.6808 20.5225 78.1214 20.4722 78.4595 20.4279C78.7976 20.3796 79.0431 20.3072 79.196 20.2106C79.353 20.11 79.4315 19.955 79.4315 19.7457V19.7095C79.4315 19.2547 79.2966 18.9026 79.027 18.6531C78.7573 18.4035 78.369 18.2788 77.8619 18.2788C77.3266 18.2788 76.902 18.3955 76.5881 18.6289C76.2782 18.8623 76.0689 19.138 75.9602 19.456L73.9197 19.1662C74.0807 18.6027 74.3464 18.1319 74.7166 17.7536C75.0869 17.3712 75.5397 17.0855 76.0749 16.8963C76.6102 16.7031 77.2018 16.6065 77.8498 16.6065C78.2965 16.6065 78.7412 16.6589 79.1839 16.7635C79.6267 16.8681 80.0311 17.0412 80.3974 17.2827C80.7636 17.5201 81.0574 17.8441 81.2788 18.2546C81.5041 18.6651 81.6168 19.1783 81.6168 19.794V26H79.516V24.7262H79.4435C79.3107 24.9838 79.1236 25.2253 78.8821 25.4506C78.6446 25.672 78.3448 25.8511 77.9826 25.9879C77.6244 26.1207 77.2038 26.1871 76.7209 26.1871ZM77.2884 24.5813C77.727 24.5813 78.1074 24.4948 78.4293 24.3217C78.7513 24.1446 78.9988 23.9112 79.1719 23.6214C79.349 23.3317 79.4375 23.0157 79.4375 22.6737V21.581C79.3691 21.6373 79.2524 21.6896 79.0874 21.7379C78.9264 21.7862 78.7453 21.8285 78.544 21.8647C78.3428 21.9009 78.1436 21.9331 77.9464 21.9613C77.7492 21.9895 77.5781 22.0136 77.4332 22.0337C77.1072 22.078 76.8155 22.1504 76.5579 22.2511C76.3003 22.3517 76.0971 22.4925 75.9482 22.6737C75.7992 22.8507 75.7248 23.0801 75.7248 23.3619C75.7248 23.7643 75.8717 24.0682 76.1655 24.2734C76.4593 24.4787 76.8336 24.5813 77.2884 24.5813ZM85.9996 13.6364V26H83.8143V13.6364H85.9996ZM94.157 22.1001V16.7273H96.3424V26H94.2235V24.3519H94.1269C93.9176 24.8711 93.5735 25.2957 93.0945 25.6257C92.6196 25.9557 92.0341 26.1207 91.3378 26.1207C90.7301 26.1207 90.1928 25.9859 89.7259 25.7163C89.2631 25.4426 88.9009 25.0462 88.6393 24.527C88.3777 24.0038 88.2469 23.3719 88.2469 22.6314V16.7273H90.4323V22.2933C90.4323 22.8809 90.5932 23.3478 90.9152 23.6939C91.2372 24.04 91.6598 24.2131 92.183 24.2131C92.5049 24.2131 92.8169 24.1346 93.1187 23.9776C93.4205 23.8207 93.6681 23.5872 93.8612 23.2773C94.0584 22.9634 94.157 22.571 94.157 22.1001ZM102.695 26.1811C101.765 26.1811 100.962 25.9879 100.286 25.6016C99.6139 25.2112 99.0968 24.6598 98.7346 23.9474C98.3723 23.2311 98.1912 22.3879 98.1912 21.418C98.1912 20.4641 98.3723 19.627 98.7346 18.9066C99.1008 18.1822 99.6119 17.6187 100.268 17.2163C100.924 16.8098 101.695 16.6065 102.58 16.6065C103.152 16.6065 103.691 16.6991 104.198 16.8842C104.709 17.0653 105.16 17.3471 105.55 17.7294C105.945 18.1117 106.255 18.5987 106.48 19.1903C106.705 19.7779 106.818 20.4782 106.818 21.2912V21.9613H99.2175V20.4883H104.723C104.719 20.0697 104.629 19.6974 104.452 19.3714C104.274 19.0414 104.027 18.7818 103.709 18.5927C103.395 18.4035 103.029 18.3089 102.61 18.3089C102.164 18.3089 101.771 18.4176 101.433 18.6349C101.095 18.8482 100.831 19.13 100.642 19.4801C100.457 19.8262 100.363 20.2066 100.358 20.6211V21.907C100.358 22.4463 100.457 22.9091 100.654 23.2955C100.852 23.6778 101.127 23.9716 101.481 24.1768C101.836 24.3781 102.25 24.4787 102.725 24.4787C103.043 24.4787 103.331 24.4344 103.588 24.3459C103.846 24.2533 104.069 24.1185 104.258 23.9414C104.448 23.7643 104.59 23.545 104.687 23.2834L106.727 23.5128C106.599 24.0521 106.353 24.523 105.991 24.9254C105.633 25.3239 105.174 25.6338 104.615 25.8551C104.055 26.0724 103.415 26.1811 102.695 26.1811ZM115.996 19.1783L114.003 19.3956C113.947 19.1944 113.849 19.0052 113.708 18.8281C113.571 18.651 113.386 18.5082 113.152 18.3995C112.919 18.2908 112.633 18.2365 112.295 18.2365C111.84 18.2365 111.458 18.3351 111.148 18.5323C110.842 18.7295 110.691 18.9851 110.695 19.299C110.691 19.5687 110.79 19.788 110.991 19.957C111.196 20.1261 111.534 20.2649 112.005 20.3736L113.587 20.7116C114.464 20.9008 115.116 21.2006 115.543 21.6112C115.974 22.0217 116.191 22.5589 116.195 23.223C116.191 23.8066 116.02 24.3217 115.682 24.7685C115.348 25.2112 114.883 25.5573 114.287 25.8068C113.692 26.0563 113.007 26.1811 112.235 26.1811C111.1 26.1811 110.186 25.9437 109.494 25.4688C108.802 24.9898 108.389 24.3237 108.256 23.4705L110.387 23.2653C110.484 23.6838 110.689 23.9998 111.003 24.2131C111.317 24.4264 111.726 24.533 112.229 24.533C112.748 24.533 113.164 24.4264 113.478 24.2131C113.796 23.9998 113.955 23.7362 113.955 23.4222C113.955 23.1566 113.853 22.9373 113.647 22.7642C113.446 22.5911 113.132 22.4583 112.706 22.3658L111.124 22.0337C110.234 21.8486 109.576 21.5367 109.15 21.098C108.723 20.6553 108.512 20.0959 108.516 19.4197C108.512 18.8482 108.667 18.3532 108.981 17.9347C109.299 17.5121 109.739 17.1861 110.303 16.9567C110.87 16.7232 111.524 16.6065 112.265 16.6065C113.351 16.6065 114.207 16.8379 114.831 17.3008C115.458 17.7636 115.847 18.3894 115.996 19.1783Z" fill="#DBA73B"/>
</svg>
