<svg width="176" height="41" viewBox="0 0 176 41" fill="none" xmlns="http://www.w3.org/2000/svg">
<rect x="0.5" y="0.334961" width="175" height="40" rx="8" fill="#FDF9F1"/>
<path d="M24.0832 26.335V13.9713H28.7196C29.6694 13.9713 30.4663 14.1484 31.1102 14.5026C31.7582 14.8567 32.2472 15.3437 32.5772 15.9635C32.9112 16.5793 33.0783 17.2796 33.0783 18.0644C33.0783 18.8572 32.9112 19.5615 32.5772 20.1773C32.2431 20.7931 31.7501 21.278 31.0981 21.6322C30.4462 21.9823 29.6432 22.1574 28.6894 22.1574H25.6166V20.3161H28.3876C28.943 20.3161 29.3977 20.2195 29.7519 20.0264C30.1061 19.8332 30.3677 19.5676 30.5367 19.2295C30.7098 18.8914 30.7963 18.503 30.7963 18.0644C30.7963 17.6257 30.7098 17.2393 30.5367 16.9053C30.3677 16.5712 30.1041 16.3116 29.7459 16.1265C29.3917 15.9374 28.9349 15.8428 28.3755 15.8428H26.3229V26.335H24.0832ZM37.4294 26.5221C36.8418 26.5221 36.3125 26.4175 35.8417 26.2082C35.3748 25.9949 35.0045 25.681 34.7309 25.2664C34.4612 24.8519 34.3264 24.3408 34.3264 23.733C34.3264 23.2098 34.423 22.7772 34.6162 22.4351C34.8093 22.093 35.073 21.8193 35.407 21.6141C35.741 21.4088 36.1174 21.2539 36.5359 21.1492C36.9585 21.0406 37.3952 20.9621 37.8459 20.9138C38.3892 20.8575 38.8299 20.8071 39.168 20.7629C39.5061 20.7146 39.7516 20.6421 39.9045 20.5455C40.0615 20.4449 40.14 20.29 40.14 20.0807V20.0445C40.14 19.5897 40.0051 19.2375 39.7355 18.988C39.4658 18.7385 39.0775 18.6137 38.5704 18.6137C38.0351 18.6137 37.6105 18.7304 37.2966 18.9639C36.9867 19.1973 36.7774 19.473 36.6687 19.7909L34.6282 19.5012C34.7892 18.9377 35.0549 18.4668 35.4251 18.0885C35.7954 17.7062 36.2482 17.4204 36.7834 17.2313C37.3187 17.0381 37.9103 16.9415 38.5583 16.9415C39.005 16.9415 39.4497 16.9938 39.8924 17.0985C40.3352 17.2031 40.7396 17.3762 41.1059 17.6176C41.4721 17.8551 41.7659 18.1791 41.9873 18.5896C42.2126 19.0001 42.3253 19.5132 42.3253 20.129V26.335H40.2245V25.0612H40.152C40.0192 25.3187 39.8321 25.5602 39.5906 25.7856C39.3531 26.007 39.0533 26.186 38.6911 26.3229C38.3329 26.4557 37.9123 26.5221 37.4294 26.5221ZM37.9968 24.9163C38.4355 24.9163 38.8159 24.8298 39.1378 24.6567C39.4598 24.4796 39.7073 24.2462 39.8804 23.9564C40.0575 23.6666 40.146 23.3507 40.146 23.0086V21.9159C40.0776 21.9723 39.9609 22.0246 39.7959 22.0729C39.6349 22.1212 39.4538 22.1634 39.2525 22.1997C39.0513 22.2359 38.8521 22.2681 38.6549 22.2963C38.4577 22.3244 38.2866 22.3486 38.1417 22.3687C37.8157 22.413 37.524 22.4854 37.2664 22.586C37.0088 22.6866 36.8056 22.8275 36.6566 23.0086C36.5077 23.1857 36.4333 23.4151 36.4333 23.6968C36.4333 24.0993 36.5802 24.4031 36.874 24.6084C37.1678 24.8137 37.5421 24.9163 37.9968 24.9163ZM44.5228 26.335V17.0622H46.6417V18.6077H46.7383C46.9074 18.0724 47.1971 17.6599 47.6076 17.3701C48.0222 17.0763 48.4951 16.9294 49.0263 16.9294C49.1471 16.9294 49.2819 16.9355 49.4308 16.9475C49.5837 16.9556 49.7105 16.9697 49.8111 16.9898V19.0001C49.7186 18.9679 49.5717 18.9397 49.3704 18.9156C49.1732 18.8874 48.9821 18.8733 48.7969 18.8733C48.3985 18.8733 48.0403 18.9598 47.7223 19.1329C47.4084 19.3019 47.1609 19.5374 46.9798 19.8392C46.7987 20.1411 46.7081 20.4892 46.7081 20.8836V26.335H44.5228ZM56.3914 17.0622V18.7526H51.0608V17.0622H56.3914ZM52.3768 14.8406H54.5622V23.5459C54.5622 23.8397 54.6065 24.0651 54.695 24.222C54.7876 24.375 54.9083 24.4796 55.0572 24.536C55.2061 24.5923 55.3711 24.6205 55.5522 24.6205C55.6891 24.6205 55.8138 24.6104 55.9265 24.5903C56.0433 24.5702 56.1318 24.5521 56.1922 24.536L56.5604 26.2444C56.4437 26.2847 56.2767 26.3289 56.0593 26.3772C55.846 26.4255 55.5844 26.4537 55.2745 26.4617C54.7272 26.4778 54.2342 26.3953 53.7955 26.2142C53.3568 26.0291 53.0087 25.7433 52.7511 25.357C52.4976 24.9706 52.3728 24.4877 52.3768 23.9081V14.8406ZM60.4044 20.9017V26.335H58.2191V17.0622H60.3078V18.6379H60.4165C60.6298 18.1187 60.9699 17.7062 61.4367 17.4003C61.9076 17.0944 62.4892 16.9415 63.1814 16.9415C63.8213 16.9415 64.3787 17.0783 64.8536 17.352C65.3326 17.6257 65.7028 18.0221 65.9644 18.5413C66.2301 19.0605 66.3609 19.6903 66.3568 20.4308V26.335H64.1715V20.7689C64.1715 20.1491 64.0105 19.6642 63.6885 19.314C63.3706 18.9639 62.9299 18.7888 62.3664 18.7888C61.9841 18.7888 61.644 18.8733 61.3462 19.0423C61.0524 19.2074 60.821 19.4468 60.6519 19.7607C60.4869 20.0747 60.4044 20.455 60.4044 20.9017ZM72.6835 26.5161C71.7539 26.5161 70.951 26.3229 70.2748 25.9365C69.6027 25.5461 69.0855 24.9948 68.7233 24.2824C68.3611 23.566 68.18 22.7229 68.18 21.7529C68.18 20.7991 68.3611 19.962 68.7233 19.2416C69.0896 18.5171 69.6007 17.9537 70.2567 17.5512C70.9127 17.1447 71.6834 16.9415 72.5688 16.9415C73.1403 16.9415 73.6796 17.0341 74.1867 17.2192C74.6979 17.4003 75.1486 17.682 75.539 18.0644C75.9334 18.4467 76.2433 18.9337 76.4687 19.5253C76.6941 20.1129 76.8068 20.8132 76.8068 21.6262V22.2963H69.2063V20.8232H74.712C74.7079 20.4047 74.6174 20.0324 74.4403 19.7064C74.2632 19.3764 74.0157 19.1168 73.6978 18.9276C73.3838 18.7385 73.0176 18.6439 72.599 18.6439C72.1523 18.6439 71.7599 18.7526 71.4218 18.9699C71.0838 19.1832 70.8201 19.4649 70.631 19.8151C70.4459 20.1612 70.3513 20.5415 70.3473 20.9561V22.2419C70.3473 22.7812 70.4459 23.2441 70.6431 23.6304C70.8403 24.0128 71.116 24.3066 71.4701 24.5118C71.8243 24.713 72.2388 24.8137 72.7137 24.8137C73.0317 24.8137 73.3194 24.7694 73.577 24.6808C73.8346 24.5883 74.058 24.4535 74.2471 24.2764C74.4363 24.0993 74.5791 23.8799 74.6757 23.6183L76.7162 23.8477C76.5874 24.387 76.3419 24.8579 75.9797 25.2604C75.6215 25.6588 75.1627 25.9687 74.6033 26.1901C74.0439 26.4074 73.404 26.5161 72.6835 26.5161ZM78.6556 26.335V17.0622H80.7745V18.6077H80.8711C81.0402 18.0724 81.3299 17.6599 81.7405 17.3701C82.155 17.0763 82.6279 16.9294 83.1591 16.9294C83.2799 16.9294 83.4147 16.9355 83.5636 16.9475C83.7165 16.9556 83.8433 16.9697 83.9439 16.9898V19.0001C83.8514 18.9679 83.7045 18.9397 83.5032 18.9156C83.306 18.8874 83.1149 18.8733 82.9297 18.8733C82.5313 18.8733 82.1731 18.9598 81.8552 19.1329C81.5412 19.3019 81.2937 19.5374 81.1126 19.8392C80.9315 20.1411 80.841 20.4892 80.841 20.8836V26.335H78.6556ZM92.3111 26.335L88.8218 13.9713H91.2305L93.4581 23.0569H93.5728L95.9514 13.9713H98.1428L100.527 23.0629H100.636L102.864 13.9713H105.272L101.783 26.335H99.5736L97.0984 17.6599H97.0018L94.5206 26.335H92.3111ZM106.729 26.335V17.0622H108.914V26.335H106.729ZM107.828 15.7462C107.481 15.7462 107.184 15.6315 106.934 15.4021C106.685 15.1686 106.56 14.8889 106.56 14.5629C106.56 14.2329 106.685 13.9532 106.934 13.7238C107.184 13.4904 107.481 13.3737 107.828 13.3737C108.178 13.3737 108.476 13.4904 108.721 13.7238C108.971 13.9532 109.095 14.2329 109.095 14.5629C109.095 14.8889 108.971 15.1686 108.721 15.4021C108.476 15.6315 108.178 15.7462 107.828 15.7462ZM115.792 17.0622V18.7526H110.461V17.0622H115.792ZM111.777 14.8406H113.963V23.5459C113.963 23.8397 114.007 24.0651 114.095 24.222C114.188 24.375 114.309 24.4796 114.458 24.536C114.607 24.5923 114.772 24.6205 114.953 24.6205C115.089 24.6205 115.214 24.6104 115.327 24.5903C115.444 24.5702 115.532 24.5521 115.593 24.536L115.961 26.2444C115.844 26.2847 115.677 26.3289 115.46 26.3772C115.246 26.4255 114.985 26.4537 114.675 26.4617C114.128 26.4778 113.635 26.3953 113.196 26.2142C112.757 26.0291 112.409 25.7433 112.152 25.357C111.898 24.9706 111.773 24.4877 111.777 23.9081V14.8406ZM120.004 20.9017V26.335H117.819V13.9713H119.956V18.6379H120.064C120.282 18.1147 120.618 17.7021 121.073 17.4003C121.531 17.0944 122.115 16.9415 122.823 16.9415C123.467 16.9415 124.029 17.0763 124.508 17.346C124.987 17.6156 125.357 18.01 125.618 18.5292C125.884 19.0484 126.017 19.6823 126.017 20.4308V26.335H123.831V20.7689C123.831 20.1451 123.67 19.6601 123.349 19.314C123.031 18.9639 122.584 18.7888 122.008 18.7888C121.622 18.7888 121.276 18.8733 120.97 19.0423C120.668 19.2074 120.431 19.4468 120.258 19.7607C120.089 20.0747 120.004 20.455 120.004 20.9017ZM140.352 13.9713H142.591V22.0487C142.591 22.9342 142.382 23.7129 141.963 24.385C141.549 25.0571 140.965 25.5824 140.213 25.9607C139.46 26.335 138.581 26.5221 137.575 26.5221C136.564 26.5221 135.683 26.335 134.93 25.9607C134.178 25.5824 133.594 25.0571 133.18 24.385C132.765 23.7129 132.558 22.9342 132.558 22.0487V13.9713H134.798V21.8616C134.798 22.3767 134.91 22.8356 135.136 23.238C135.365 23.6405 135.687 23.9564 136.102 24.1858C136.516 24.4112 137.007 24.5239 137.575 24.5239C138.142 24.5239 138.633 24.4112 139.048 24.1858C139.466 23.9564 139.788 23.6405 140.013 23.238C140.239 22.8356 140.352 22.3767 140.352 21.8616V13.9713ZM152.258 19.5132L150.266 19.7306C150.209 19.5293 150.111 19.3402 149.97 19.1631C149.833 18.986 149.648 18.8431 149.414 18.7345C149.181 18.6258 148.895 18.5715 148.557 18.5715C148.102 18.5715 147.72 18.6701 147.41 18.8673C147.104 19.0645 146.953 19.32 146.957 19.634C146.953 19.9036 147.052 20.123 147.253 20.292C147.458 20.461 147.797 20.5999 148.267 20.7085L149.849 21.0466C150.726 21.2358 151.378 21.5356 151.805 21.9461C152.236 22.3566 152.453 22.8939 152.457 23.558C152.453 24.1415 152.282 24.6567 151.944 25.1034C151.61 25.5461 151.145 25.8923 150.549 26.1418C149.954 26.3913 149.27 26.5161 148.497 26.5161C147.362 26.5161 146.448 26.2786 145.756 25.8037C145.064 25.3248 144.651 24.6587 144.519 23.8055L146.65 23.6002C146.746 24.0188 146.951 24.3347 147.265 24.548C147.579 24.7613 147.988 24.868 148.491 24.868C149.01 24.868 149.427 24.7613 149.74 24.548C150.058 24.3347 150.217 24.0711 150.217 23.7572C150.217 23.4916 150.115 23.2722 149.909 23.0992C149.708 22.9261 149.394 22.7933 148.968 22.7007L147.386 22.3687C146.497 22.1836 145.839 21.8717 145.412 21.433C144.985 20.9903 144.774 20.4308 144.778 19.7547C144.774 19.1832 144.929 18.6882 145.243 18.2696C145.561 17.847 146.002 17.521 146.565 17.2916C147.133 17.0582 147.787 16.9415 148.527 16.9415C149.614 16.9415 150.469 17.1729 151.093 17.6357C151.721 18.0986 152.109 18.7244 152.258 19.5132Z" fill="#DBA73B"/>
</svg>
