<svg width="250" height="41" viewBox="0 0 250 41" fill="none" xmlns="http://www.w3.org/2000/svg">
<rect y="0.839844" width="250" height="40" rx="8" fill="#FDF9F1"/>
<path d="M19.0564 26.8398V14.4762H23.6927C24.6425 14.4762 25.4394 14.6533 26.0834 15.0075C26.7313 15.3616 27.2203 15.8486 27.5503 16.4684C27.8844 17.0842 28.0514 17.7844 28.0514 18.5692C28.0514 19.3621 27.8844 20.0664 27.5503 20.6822C27.2163 21.2979 26.7233 21.7829 26.0713 22.1371C25.4193 22.4872 24.6164 22.6623 23.6626 22.6623H20.5898V20.821H23.3607C23.9161 20.821 24.3709 20.7244 24.7251 20.5312C25.0792 20.3381 25.3408 20.0724 25.5099 19.7344C25.6829 19.3963 25.7694 19.0079 25.7694 18.5692C25.7694 18.1306 25.6829 17.7442 25.5099 17.4102C25.3408 17.0761 25.0772 16.8165 24.719 16.6314C24.3648 16.4422 23.9081 16.3477 23.3486 16.3477H21.2961V26.8398H19.0564ZM32.4025 27.027C31.8149 27.027 31.2857 26.9223 30.8148 26.7131C30.348 26.4998 29.9777 26.1858 29.704 25.7713C29.4344 25.3568 29.2995 24.8456 29.2995 24.2379C29.2995 23.7147 29.3961 23.2821 29.5893 22.94C29.7825 22.5979 30.0461 22.3242 30.3801 22.119C30.7142 21.9137 31.0905 21.7588 31.5091 21.6541C31.9316 21.5455 32.3683 21.467 32.8191 21.4187C33.3624 21.3623 33.8031 21.312 34.1412 21.2678C34.4792 21.2195 34.7247 21.147 34.8777 21.0504C35.0346 20.9498 35.1131 20.7949 35.1131 20.5856V20.5494C35.1131 20.0946 34.9783 19.7424 34.7086 19.4929C34.439 19.2434 34.0506 19.1186 33.5435 19.1186C33.0082 19.1186 32.5836 19.2353 32.2697 19.4688C31.9598 19.7022 31.7505 19.9779 31.6419 20.2958L29.6014 20.006C29.7624 19.4426 30.028 18.9717 30.3983 18.5934C30.7685 18.2111 31.2213 17.9253 31.7566 17.7362C32.2918 17.543 32.8835 17.4464 33.5314 17.4464C33.9782 17.4464 34.4229 17.4987 34.8656 17.6033C35.3083 17.708 35.7128 17.881 36.079 18.1225C36.4453 18.36 36.7391 18.6839 36.9604 19.0945C37.1858 19.505 37.2985 20.0181 37.2985 20.6339V26.8398H35.1976V25.5661H35.1252C34.9924 25.8236 34.8052 26.0651 34.5637 26.2905C34.3263 26.5118 34.0265 26.6909 33.6642 26.8278C33.306 26.9606 32.8855 27.027 32.4025 27.027ZM32.97 25.4212C33.4087 25.4212 33.789 25.3346 34.111 25.1616C34.4329 24.9845 34.6805 24.7511 34.8535 24.4613C35.0306 24.1715 35.1191 23.8556 35.1191 23.5135V22.4208C35.0507 22.4772 34.934 22.5295 34.769 22.5778C34.608 22.6261 34.4269 22.6683 34.2257 22.7045C34.0244 22.7408 33.8252 22.773 33.628 22.8011C33.4308 22.8293 33.2598 22.8535 33.1149 22.8736C32.7889 22.9179 32.4971 22.9903 32.2395 23.0909C31.9819 23.1915 31.7787 23.3324 31.6298 23.5135C31.4809 23.6906 31.4064 23.92 31.4064 24.2017C31.4064 24.6042 31.5533 24.908 31.8471 25.1133C32.1409 25.3185 32.5152 25.4212 32.97 25.4212ZM39.4959 26.8398V17.5671H41.6149V19.1126H41.7115C41.8805 18.5773 42.1703 18.1648 42.5808 17.875C42.9953 17.5812 43.4682 17.4343 43.9995 17.4343C44.1202 17.4343 44.255 17.4403 44.4039 17.4524C44.5569 17.4605 44.6837 17.4745 44.7843 17.4947V19.505C44.6917 19.4728 44.5448 19.4446 44.3436 19.4205C44.1464 19.3923 43.9552 19.3782 43.7701 19.3782C43.3716 19.3782 43.0134 19.4647 42.6955 19.6378C42.3816 19.8068 42.1341 20.0423 41.9529 20.3441C41.7718 20.646 41.6813 20.9941 41.6813 21.3885V26.8398H39.4959ZM51.3645 17.5671V19.2575H46.0339V17.5671H51.3645ZM47.35 15.3455H49.5353V24.0508C49.5353 24.3446 49.5796 24.57 49.6681 24.7269C49.7607 24.8799 49.8815 24.9845 50.0304 25.0408C50.1793 25.0972 50.3443 25.1254 50.5254 25.1254C50.6622 25.1254 50.787 25.1153 50.8997 25.0952C51.0164 25.075 51.1049 25.0569 51.1653 25.0408L51.5336 26.7493C51.4168 26.7895 51.2498 26.8338 51.0325 26.8821C50.8192 26.9304 50.5576 26.9586 50.2477 26.9666C49.7003 26.9827 49.2073 26.9002 48.7686 26.7191C48.33 26.534 47.9818 26.2482 47.7243 25.8619C47.4707 25.4755 47.3459 24.9925 47.35 24.413V15.3455ZM55.3776 21.4066V26.8398H53.1922V17.5671H55.281V19.1428H55.3896C55.603 18.6236 55.943 18.2111 56.4099 17.9052C56.8808 17.5993 57.4623 17.4464 58.1546 17.4464C58.7945 17.4464 59.3519 17.5832 59.8268 17.8569C60.3057 18.1306 60.676 18.527 60.9376 19.0462C61.2032 19.5653 61.334 20.1952 61.33 20.9357V26.8398H59.1446V21.2738C59.1446 20.654 58.9836 20.169 58.6617 19.8189C58.3437 19.4687 57.903 19.2937 57.3396 19.2937C56.9572 19.2937 56.6172 19.3782 56.3193 19.5472C56.0255 19.7122 55.7941 19.9517 55.6251 20.2656C55.4601 20.5795 55.3776 20.9599 55.3776 21.4066ZM67.6567 27.021C66.727 27.021 65.9241 26.8278 65.248 26.4414C64.5758 26.051 64.0587 25.4996 63.6965 24.7873C63.3343 24.0709 63.1531 23.2277 63.1531 22.2578C63.1531 21.304 63.3343 20.4669 63.6965 19.7464C64.0627 19.022 64.5738 18.4586 65.2298 18.0561C65.8859 17.6496 66.6566 17.4464 67.542 17.4464C68.1135 17.4464 68.6528 17.5389 69.1599 17.7241C69.671 17.9052 70.1218 18.1869 70.5122 18.5692C70.9066 18.9516 71.2165 19.4386 71.4419 20.0302C71.6672 20.6178 71.7799 21.3181 71.7799 22.131V22.8011H64.1794V21.3281H69.6851C69.6811 20.9096 69.5905 20.5373 69.4134 20.2113C69.2364 19.8813 68.9888 19.6217 68.6709 19.4325C68.357 19.2434 67.9907 19.1488 67.5722 19.1488C67.1254 19.1488 66.733 19.2575 66.395 19.4748C66.0569 19.6881 65.7933 19.9698 65.6041 20.32C65.419 20.6661 65.3244 21.0464 65.3204 21.4609V22.7468C65.3204 23.2861 65.419 23.7489 65.6162 24.1353C65.8134 24.5176 66.0891 24.8114 66.4433 25.0167C66.7974 25.2179 67.212 25.3185 67.6869 25.3185C68.0048 25.3185 68.2926 25.2743 68.5502 25.1857C68.8077 25.0932 69.0311 24.9583 69.2203 24.7812C69.4094 24.6042 69.5523 24.3848 69.6489 24.1232L71.6894 24.3526C71.5606 24.8919 71.3151 25.3628 70.9529 25.7653C70.5947 26.1637 70.1359 26.4736 69.5764 26.695C69.017 26.9123 68.3771 27.021 67.6567 27.021ZM73.6287 26.8398V17.5671H75.7477V19.1126H75.8443C76.0133 18.5773 76.3031 18.1648 76.7136 17.875C77.1281 17.5812 77.601 17.4343 78.1323 17.4343C78.253 17.4343 78.3878 17.4403 78.5368 17.4524C78.6897 17.4605 78.8165 17.4745 78.9171 17.4947V19.505C78.8245 19.4728 78.6776 19.4446 78.4764 19.4205C78.2792 19.3923 78.088 19.3782 77.9029 19.3782C77.5044 19.3782 77.1462 19.4647 76.8283 19.6378C76.5144 19.8068 76.2669 20.0423 76.0858 20.3441C75.9047 20.646 75.8141 20.9941 75.8141 21.3885V26.8398H73.6287ZM87.6978 20.0181L85.7056 20.2354C85.6493 20.0342 85.5507 19.8451 85.4098 19.668C85.273 19.4909 85.0878 19.348 84.8544 19.2393C84.621 19.1307 84.3352 19.0763 83.9972 19.0763C83.5424 19.0763 83.16 19.175 82.8501 19.3722C82.5443 19.5694 82.3933 19.8249 82.3974 20.1388C82.3933 20.4085 82.492 20.6278 82.6932 20.7969C82.8984 20.9659 83.2365 21.1048 83.7074 21.2134L85.2891 21.5515C86.1664 21.7406 86.8184 22.0405 87.245 22.451C87.6757 22.8615 87.893 23.3988 87.897 24.0629C87.893 24.6464 87.7219 25.1616 87.3839 25.6083C87.0498 26.051 86.585 26.3971 85.9893 26.6467C85.3937 26.8962 84.7095 27.021 83.9368 27.021C82.8018 27.021 81.8883 26.7835 81.196 26.3086C80.5038 25.8297 80.0913 25.1636 79.9585 24.3104L82.0895 24.1051C82.1861 24.5237 82.3913 24.8396 82.7053 25.0529C83.0192 25.2662 83.4277 25.3729 83.9308 25.3729C84.4499 25.3729 84.8665 25.2662 85.1804 25.0529C85.4983 24.8396 85.6573 24.576 85.6573 24.2621C85.6573 23.9964 85.5547 23.7771 85.3494 23.604C85.1482 23.431 84.8343 23.2982 84.4077 23.2056L82.826 22.8736C81.9366 22.6884 81.2785 22.3765 80.8519 21.9379C80.4253 21.4951 80.214 20.9357 80.218 20.2596C80.214 19.6881 80.369 19.1931 80.6829 18.7745C81.0008 18.3519 81.4415 18.0259 82.005 17.7965C82.5724 17.5631 83.2264 17.4464 83.967 17.4464C85.0536 17.4464 85.9089 17.6778 86.5327 18.1406C87.1605 18.6035 87.5489 19.2293 87.6978 20.0181ZM91.8844 21.4066V26.8398H89.699V14.4762H91.8361V19.1428H91.9448C92.1621 18.6196 92.4982 18.207 92.9529 17.9052C93.4118 17.5993 93.9953 17.4464 94.7037 17.4464C95.3476 17.4464 95.909 17.5812 96.388 17.8509C96.8669 18.1205 97.2372 18.5149 97.4988 19.0341C97.7644 19.5533 97.8972 20.1871 97.8972 20.9357V26.8398H95.7118V21.2738C95.7118 20.65 95.5508 20.165 95.2289 19.8189C94.9109 19.4687 94.4642 19.2937 93.8887 19.2937C93.5023 19.2937 93.1562 19.3782 92.8503 19.5472C92.5485 19.7122 92.311 19.9517 92.138 20.2656C91.9689 20.5795 91.8844 20.9599 91.8844 21.4066ZM100.125 26.8398V17.5671H102.31V26.8398H100.125ZM101.224 16.2511C100.877 16.2511 100.58 16.1364 100.33 15.907C100.081 15.6735 99.9558 15.3938 99.9558 15.0678C99.9558 14.7378 100.081 14.4581 100.33 14.2287C100.58 13.9953 100.877 13.8786 101.224 13.8786C101.574 13.8786 101.872 13.9953 102.117 14.2287C102.367 14.4581 102.491 14.7378 102.491 15.0678C102.491 15.3938 102.367 15.6735 102.117 15.907C101.872 16.1364 101.574 16.2511 101.224 16.2511ZM104.557 30.3171V17.5671H106.707V19.1005H106.833C106.946 18.8751 107.105 18.6357 107.31 18.3821C107.516 18.1245 107.793 17.9052 108.143 17.7241C108.494 17.5389 108.94 17.4464 109.484 17.4464C110.2 17.4464 110.846 17.6295 111.421 17.9957C112.001 18.358 112.46 18.8952 112.798 19.6076C113.14 20.3159 113.311 21.1853 113.311 22.2156C113.311 23.2338 113.144 24.0991 112.81 24.8114C112.476 25.5238 112.021 26.0671 111.446 26.4414C110.87 26.8157 110.218 27.0028 109.49 27.0028C108.958 27.0028 108.518 26.9143 108.168 26.7372C107.817 26.5601 107.536 26.3468 107.322 26.0973C107.113 25.8437 106.95 25.6043 106.833 25.3789H106.743V30.3171H104.557ZM106.701 22.2035C106.701 22.8031 106.785 23.3284 106.954 23.7791C107.127 24.2299 107.375 24.582 107.697 24.8356C108.023 25.0851 108.417 25.2099 108.88 25.2099C109.363 25.2099 109.767 25.0811 110.093 24.8235C110.419 24.5619 110.665 24.2057 110.83 23.755C110.999 23.3002 111.083 22.783 111.083 22.2035C111.083 21.628 111.001 21.1168 110.836 20.6701C110.671 20.2234 110.425 19.8732 110.099 19.6197C109.773 19.3661 109.367 19.2393 108.88 19.2393C108.413 19.2393 108.017 19.3621 107.691 19.6076C107.365 19.8531 107.117 20.1972 106.948 20.6399C106.783 21.0826 106.701 21.6038 106.701 22.2035ZM130.543 20.658C130.543 21.9902 130.294 23.1312 129.795 24.081C129.3 25.0268 128.624 25.7512 127.766 26.2543C126.913 26.7573 125.945 27.0089 124.863 27.0089C123.78 27.0089 122.81 26.7573 121.953 26.2543C121.1 25.7472 120.424 25.0207 119.924 24.0749C119.429 23.1251 119.182 21.9862 119.182 20.658C119.182 19.3259 119.429 18.1869 119.924 17.2411C120.424 16.2913 121.1 15.5649 121.953 15.0618C122.81 14.5587 123.78 14.3072 124.863 14.3072C125.945 14.3072 126.913 14.5587 127.766 15.0618C128.624 15.5649 129.3 16.2913 129.795 17.2411C130.294 18.1869 130.543 19.3259 130.543 20.658ZM128.292 20.658C128.292 19.7203 128.145 18.9295 127.851 18.2855C127.561 17.6375 127.159 17.1486 126.644 16.8185C126.128 16.4845 125.535 16.3175 124.863 16.3175C124.191 16.3175 123.597 16.4845 123.082 16.8185C122.567 17.1486 122.162 17.6375 121.868 18.2855C121.579 18.9295 121.434 19.7203 121.434 20.658C121.434 21.5958 121.579 22.3886 121.868 23.0366C122.162 23.6805 122.567 24.1695 123.082 24.5036C123.597 24.8336 124.191 24.9986 124.863 24.9986C125.535 24.9986 126.128 24.8336 126.644 24.5036C127.159 24.1695 127.561 23.6805 127.851 23.0366C128.145 22.3886 128.292 21.5958 128.292 20.658ZM132.564 30.3171V17.5671H134.713V19.1005H134.84C134.953 18.8751 135.112 18.6357 135.317 18.3821C135.522 18.1245 135.8 17.9052 136.15 17.7241C136.5 17.5389 136.947 17.4464 137.49 17.4464C138.207 17.4464 138.853 17.6295 139.428 17.9957C140.008 18.358 140.467 18.8952 140.805 19.6076C141.147 20.3159 141.318 21.1853 141.318 22.2156C141.318 23.2338 141.151 24.0991 140.817 24.8114C140.483 25.5238 140.028 26.0671 139.452 26.4414C138.877 26.8157 138.225 27.0028 137.496 27.0028C136.965 27.0028 136.525 26.9143 136.174 26.7372C135.824 26.5601 135.542 26.3468 135.329 26.0973C135.12 25.8437 134.957 25.6043 134.84 25.3789H134.75V30.3171H132.564ZM134.707 22.2035C134.707 22.8031 134.792 23.3284 134.961 23.7791C135.134 24.2299 135.382 24.582 135.703 24.8356C136.029 25.0851 136.424 25.2099 136.887 25.2099C137.37 25.2099 137.774 25.0811 138.1 24.8235C138.426 24.5619 138.672 24.2057 138.837 23.755C139.006 23.3002 139.09 22.783 139.09 22.2035C139.09 21.628 139.008 21.1168 138.843 20.6701C138.678 20.2234 138.432 19.8732 138.106 19.6197C137.78 19.3661 137.374 19.2393 136.887 19.2393C136.42 19.2393 136.023 19.3621 135.697 19.6076C135.371 19.8531 135.124 20.1972 134.955 20.6399C134.79 21.0826 134.707 21.6038 134.707 22.2035ZM143.189 30.3171V17.5671H145.338V19.1005H145.465C145.578 18.8751 145.737 18.6357 145.942 18.3821C146.147 18.1245 146.425 17.9052 146.775 17.7241C147.125 17.5389 147.572 17.4464 148.115 17.4464C148.832 17.4464 149.478 17.6295 150.053 17.9957C150.633 18.358 151.092 18.8952 151.43 19.6076C151.772 20.3159 151.943 21.1853 151.943 22.2156C151.943 23.2338 151.776 24.0991 151.442 24.8114C151.108 25.5238 150.653 26.0671 150.077 26.4414C149.502 26.8157 148.85 27.0028 148.121 27.0028C147.59 27.0028 147.15 26.9143 146.799 26.7372C146.449 26.5601 146.167 26.3468 145.954 26.0973C145.745 25.8437 145.582 25.6043 145.465 25.3789H145.375V30.3171H143.189ZM145.332 22.2035C145.332 22.8031 145.417 23.3284 145.586 23.7791C145.759 24.2299 146.007 24.582 146.328 24.8356C146.654 25.0851 147.049 25.2099 147.512 25.2099C147.995 25.2099 148.399 25.0811 148.725 24.8235C149.051 24.5619 149.297 24.2057 149.462 23.755C149.631 23.3002 149.715 22.783 149.715 22.2035C149.715 21.628 149.633 21.1168 149.468 20.6701C149.303 20.2234 149.057 19.8732 148.731 19.6197C148.405 19.3661 147.999 19.2393 147.512 19.2393C147.045 19.2393 146.648 19.3621 146.322 19.6076C145.996 19.8531 145.749 20.1972 145.58 20.6399C145.415 21.0826 145.332 21.6038 145.332 22.2035ZM157.859 27.021C156.953 27.021 156.169 26.8217 155.505 26.4233C154.841 26.0249 154.325 25.4674 153.959 24.7511C153.597 24.0347 153.416 23.1976 153.416 22.2397C153.416 21.2818 153.597 20.4427 153.959 19.7223C154.325 19.0019 154.841 18.4425 155.505 18.044C156.169 17.6456 156.953 17.4464 157.859 17.4464C158.765 17.4464 159.549 17.6456 160.213 18.044C160.877 18.4425 161.391 19.0019 161.753 19.7223C162.119 20.4427 162.302 21.2818 162.302 22.2397C162.302 23.1976 162.119 24.0347 161.753 24.7511C161.391 25.4674 160.877 26.0249 160.213 26.4233C159.549 26.8217 158.765 27.021 157.859 27.021ZM157.871 25.2702C158.362 25.2702 158.773 25.1354 159.103 24.8658C159.433 24.5921 159.678 24.2259 159.839 23.767C160.004 23.3082 160.087 22.7971 160.087 22.2337C160.087 21.6662 160.004 21.1531 159.839 20.6942C159.678 20.2314 159.433 19.8632 159.103 19.5895C158.773 19.3158 158.362 19.179 157.871 19.179C157.368 19.179 156.949 19.3158 156.615 19.5895C156.285 19.8632 156.038 20.2314 155.873 20.6942C155.712 21.1531 155.631 21.6662 155.631 22.2337C155.631 22.7971 155.712 23.3082 155.873 23.767C156.038 24.2259 156.285 24.5921 156.615 24.8658C156.949 25.1354 157.368 25.2702 157.871 25.2702ZM164.157 26.8398V17.5671H166.276V19.1126H166.373C166.542 18.5773 166.831 18.1648 167.242 17.875C167.656 17.5812 168.129 17.4343 168.661 17.4343C168.781 17.4343 168.916 17.4403 169.065 17.4524C169.218 17.4605 169.345 17.4745 169.445 17.4947V19.505C169.353 19.4728 169.206 19.4446 169.005 19.4205C168.807 19.3923 168.616 19.3782 168.431 19.3782C168.033 19.3782 167.675 19.4647 167.357 19.6378C167.043 19.8068 166.795 20.0423 166.614 20.3441C166.433 20.646 166.342 20.9941 166.342 21.3885V26.8398H164.157ZM176.026 17.5671V19.2575H170.695V17.5671H176.026ZM172.011 15.3455H174.196V24.0508C174.196 24.3446 174.241 24.57 174.329 24.7269C174.422 24.8799 174.543 24.9845 174.691 25.0408C174.84 25.0972 175.005 25.1254 175.187 25.1254C175.323 25.1254 175.448 25.1153 175.561 25.0952C175.678 25.075 175.766 25.0569 175.826 25.0408L176.195 26.7493C176.078 26.7895 175.911 26.8338 175.694 26.8821C175.48 26.9304 175.219 26.9586 174.909 26.9666C174.361 26.9827 173.868 26.9002 173.43 26.7191C172.991 26.534 172.643 26.2482 172.385 25.8619C172.132 25.4755 172.007 24.9925 172.011 24.413V15.3455ZM183.763 22.94V17.5671H185.949V26.8398H183.83V25.1918H183.733C183.524 25.7109 183.18 26.1355 182.701 26.4656C182.226 26.7956 181.641 26.9606 180.944 26.9606C180.337 26.9606 179.799 26.8258 179.332 26.5561C178.87 26.2824 178.507 25.886 178.246 25.3668C177.984 24.8436 177.853 24.2118 177.853 23.4712V17.5671H180.039V23.1332C180.039 23.7208 180.2 24.1876 180.522 24.5337C180.844 24.8799 181.266 25.0529 181.789 25.0529C182.111 25.0529 182.423 24.9744 182.725 24.8175C183.027 24.6605 183.275 24.4271 183.468 24.1172C183.665 23.8033 183.763 23.4109 183.763 22.94ZM190.381 21.4066V26.8398H188.196V17.5671H190.285V19.1428H190.394C190.607 18.6236 190.947 18.2111 191.414 17.9052C191.885 17.5993 192.466 17.4464 193.158 17.4464C193.798 17.4464 194.356 17.5832 194.831 17.8569C195.31 18.1306 195.68 18.527 195.941 19.0462C196.207 19.5653 196.338 20.1952 196.334 20.9357V26.8398H194.149V21.2738C194.149 20.654 193.988 20.169 193.666 19.8189C193.348 19.4687 192.907 19.2937 192.343 19.2937C191.961 19.2937 191.621 19.3782 191.323 19.5472C191.029 19.7122 190.798 19.9517 190.629 20.2656C190.464 20.5795 190.381 20.9599 190.381 21.4066ZM198.555 26.8398V17.5671H200.741V26.8398H198.555ZM199.654 16.2511C199.308 16.2511 199.01 16.1364 198.761 15.907C198.511 15.6735 198.386 15.3938 198.386 15.0678C198.386 14.7378 198.511 14.4581 198.761 14.2287C199.01 13.9953 199.308 13.8786 199.654 13.8786C200.004 13.8786 200.302 13.9953 200.548 14.2287C200.797 14.4581 200.922 14.7378 200.922 15.0678C200.922 15.3938 200.797 15.6735 200.548 15.907C200.302 16.1364 200.004 16.2511 199.654 16.2511ZM207.618 17.5671V19.2575H202.288V17.5671H207.618ZM203.604 15.3455H205.789V24.0508C205.789 24.3446 205.834 24.57 205.922 24.7269C206.015 24.8799 206.135 24.9845 206.284 25.0408C206.433 25.0972 206.598 25.1254 206.779 25.1254C206.916 25.1254 207.041 25.1153 207.154 25.0952C207.27 25.075 207.359 25.0569 207.419 25.0408L207.787 26.7493C207.671 26.7895 207.504 26.8338 207.286 26.8821C207.073 26.9304 206.811 26.9586 206.502 26.9666C205.954 26.9827 205.461 26.9002 205.023 26.7191C204.584 26.534 204.236 26.2482 203.978 25.8619C203.725 25.4755 203.6 24.9925 203.604 24.413V15.3455ZM209.446 26.8398V17.5671H211.631V26.8398H209.446ZM210.545 16.2511C210.199 16.2511 209.901 16.1364 209.651 15.907C209.402 15.6735 209.277 15.3938 209.277 15.0678C209.277 14.7378 209.402 14.4581 209.651 14.2287C209.901 13.9953 210.199 13.8786 210.545 13.8786C210.895 13.8786 211.193 13.9953 211.438 14.2287C211.688 14.4581 211.813 14.7378 211.813 15.0678C211.813 15.3938 211.688 15.6735 211.438 15.907C211.193 16.1364 210.895 16.2511 210.545 16.2511ZM217.984 27.021C217.054 27.021 216.251 26.8278 215.575 26.4414C214.903 26.051 214.386 25.4996 214.024 24.7873C213.661 24.0709 213.48 23.2277 213.48 22.2578C213.48 21.304 213.661 20.4669 214.024 19.7464C214.39 19.022 214.901 18.4586 215.557 18.0561C216.213 17.6496 216.984 17.4464 217.869 17.4464C218.441 17.4464 218.98 17.5389 219.487 17.7241C219.998 17.9052 220.449 18.1869 220.839 18.5692C221.234 18.9516 221.544 19.4386 221.769 20.0302C221.994 20.6178 222.107 21.3181 222.107 22.131V22.8011H214.507V21.3281H220.012C220.008 20.9096 219.918 20.5373 219.741 20.2113C219.564 19.8813 219.316 19.6217 218.998 19.4325C218.684 19.2434 218.318 19.1488 217.899 19.1488C217.453 19.1488 217.06 19.2575 216.722 19.4748C216.384 19.6881 216.12 19.9698 215.931 20.32C215.746 20.6661 215.652 21.0464 215.648 21.4609V22.7468C215.648 23.2861 215.746 23.7489 215.943 24.1353C216.141 24.5176 216.416 24.8114 216.77 25.0167C217.125 25.2179 217.539 25.3185 218.014 25.3185C218.332 25.3185 218.62 25.2743 218.877 25.1857C219.135 25.0932 219.358 24.9583 219.547 24.7812C219.737 24.6042 219.879 24.3848 219.976 24.1232L222.017 24.3526C221.888 24.8919 221.642 25.3628 221.28 25.7653C220.922 26.1637 220.463 26.4736 219.904 26.695C219.344 26.9123 218.704 27.021 217.984 27.021ZM231.285 20.0181L229.293 20.2354C229.236 20.0342 229.138 19.8451 228.997 19.668C228.86 19.4909 228.675 19.348 228.441 19.2393C228.208 19.1307 227.922 19.0763 227.584 19.0763C227.129 19.0763 226.747 19.175 226.437 19.3722C226.131 19.5694 225.98 19.8249 225.984 20.1388C225.98 20.4085 226.079 20.6278 226.28 20.7969C226.485 20.9659 226.823 21.1048 227.294 21.2134L228.876 21.5515C229.753 21.7406 230.405 22.0405 230.832 22.451C231.263 22.8615 231.48 23.3988 231.484 24.0629C231.48 24.6464 231.309 25.1616 230.971 25.6083C230.637 26.051 230.172 26.3971 229.576 26.6467C228.981 26.8962 228.296 27.021 227.524 27.021C226.389 27.021 225.475 26.7835 224.783 26.3086C224.091 25.8297 223.678 25.1636 223.545 24.3104L225.676 24.1051C225.773 24.5237 225.978 24.8396 226.292 25.0529C226.606 25.2662 227.015 25.3729 227.518 25.3729C228.037 25.3729 228.453 25.2662 228.767 25.0529C229.085 24.8396 229.244 24.576 229.244 24.2621C229.244 23.9964 229.142 23.7771 228.936 23.604C228.735 23.431 228.421 23.2982 227.995 23.2056L226.413 22.8736C225.523 22.6884 224.865 22.3765 224.439 21.9379C224.012 21.4951 223.801 20.9357 223.805 20.2596C223.801 19.6881 223.956 19.1931 224.27 18.7745C224.588 18.3519 225.028 18.0259 225.592 17.7965C226.159 17.5631 226.813 17.4464 227.554 17.4464C228.641 17.4464 229.496 17.6778 230.12 18.1406C230.747 18.6035 231.136 19.2293 231.285 20.0181Z" fill="#DBA73B"/>
</svg>
