<svg width="87" height="40" viewBox="0 0 87 40" fill="none" xmlns="http://www.w3.org/2000/svg">
<rect width="87" height="40" rx="8" fill="#FDF9F1"/>
<path d="M21.4026 26V13.6364H26.0389C26.9887 13.6364 27.7856 13.8134 28.4296 14.1676C29.0775 14.5218 29.5665 15.0088 29.8965 15.6286C30.2306 16.2443 30.3976 16.9446 30.3976 17.7294C30.3976 18.5223 30.2306 19.2266 29.8965 19.8423C29.5625 20.4581 29.0695 20.9431 28.4175 21.2972C27.7655 21.6474 26.9626 21.8224 26.0087 21.8224H22.9359V19.9812H25.7069C26.2623 19.9812 26.7171 19.8846 27.0712 19.6914C27.4254 19.4982 27.687 19.2326 27.856 18.8945C28.0291 18.5565 28.1156 18.1681 28.1156 17.7294C28.1156 17.2907 28.0291 16.9044 27.856 16.5703C27.687 16.2363 27.4234 15.9767 27.0652 15.7915C26.711 15.6024 26.2542 15.5078 25.6948 15.5078H23.6423V26H21.4026ZM36.2187 26.1811C35.289 26.1811 34.4861 25.9879 33.81 25.6016C33.1379 25.2112 32.6207 24.6598 32.2585 23.9474C31.8963 23.2311 31.7152 22.3879 31.7152 21.418C31.7152 20.4641 31.8963 19.627 32.2585 18.9066C32.6247 18.1822 33.1358 17.6187 33.7919 17.2163C34.4479 16.8098 35.2186 16.6065 36.104 16.6065C36.6755 16.6065 37.2148 16.6991 37.7219 16.8842C38.233 17.0653 38.6838 17.3471 39.0742 17.7294C39.4686 18.1117 39.7785 18.5987 40.0039 19.1903C40.2292 19.7779 40.3419 20.4782 40.3419 21.2912V21.9613H32.7414V20.4883H38.2471C38.2431 20.0697 38.1525 19.6974 37.9755 19.3714C37.7984 19.0414 37.5509 18.7818 37.2329 18.5927C36.919 18.4035 36.5527 18.3089 36.1342 18.3089C35.6875 18.3089 35.2951 18.4176 34.957 18.6349C34.6189 18.8482 34.3553 19.13 34.1661 19.4801C33.981 19.8262 33.8864 20.2066 33.8824 20.6211V21.907C33.8824 22.4463 33.981 22.9091 34.1782 23.2955C34.3754 23.6778 34.6511 23.9716 35.0053 24.1768C35.3594 24.3781 35.774 24.4787 36.2489 24.4787C36.5668 24.4787 36.8546 24.4344 37.1122 24.3459C37.3697 24.2533 37.5931 24.1185 37.7823 23.9414C37.9714 23.7643 38.1143 23.545 38.2109 23.2834L40.2514 23.5128C40.1226 24.0521 39.8771 24.523 39.5149 24.9254C39.1567 25.3239 38.6979 25.6338 38.1385 25.8551C37.579 26.0724 36.9391 26.1811 36.2187 26.1811ZM42.1907 26V16.7273H44.3097V18.2727H44.4063C44.5753 17.7375 44.8651 17.3249 45.2756 17.0352C45.6901 16.7414 46.163 16.5945 46.6943 16.5945C46.815 16.5945 46.9499 16.6005 47.0988 16.6126C47.2517 16.6206 47.3785 16.6347 47.4791 16.6548V18.6651C47.3865 18.6329 47.2396 18.6048 47.0384 18.5806C46.8412 18.5524 46.65 18.5384 46.4649 18.5384C46.0665 18.5384 45.7083 18.6249 45.3903 18.7979C45.0764 18.967 44.8289 19.2024 44.6478 19.5043C44.4667 19.8061 44.3761 20.1542 44.3761 20.5487V26H42.1907ZM50.9232 23.0902L50.9171 20.4521H51.2673L54.5997 16.7273H57.1533L53.0542 21.2912H52.6014L50.9232 23.0902ZM48.931 26V13.6364H51.1163V26H48.931ZM54.7506 26L51.7321 21.7802L53.2051 20.2408L57.3646 26H54.7506ZM65.9385 19.1783L63.9463 19.3956C63.89 19.1944 63.7914 19.0052 63.6505 18.8281C63.5137 18.651 63.3286 18.5082 63.0951 18.3995C62.8617 18.2908 62.576 18.2365 62.2379 18.2365C61.7831 18.2365 61.4008 18.3351 61.0909 18.5323C60.785 18.7295 60.6341 18.9851 60.6381 19.299C60.6341 19.5687 60.7327 19.788 60.9339 19.957C61.1392 20.1261 61.4772 20.2649 61.9481 20.3736L63.5298 20.7116C64.4072 20.9008 65.0591 21.2006 65.4858 21.6112C65.9164 22.0217 66.1337 22.5589 66.1377 23.223C66.1337 23.8066 65.9627 24.3217 65.6246 24.7685C65.2906 25.2112 64.8257 25.5573 64.2301 25.8068C63.6344 26.0563 62.9502 26.1811 62.1775 26.1811C61.0426 26.1811 60.129 25.9437 59.4367 25.4688C58.7445 24.9898 58.332 24.3237 58.1992 23.4705L60.3302 23.2653C60.4268 23.6838 60.6321 23.9998 60.946 24.2131C61.2599 24.4264 61.6684 24.533 62.1715 24.533C62.6907 24.533 63.1072 24.4264 63.4211 24.2131C63.7391 23.9998 63.898 23.7362 63.898 23.4222C63.898 23.1566 63.7954 22.9373 63.5902 22.7642C63.3889 22.5911 63.075 22.4583 62.6484 22.3658L61.0667 22.0337C60.1773 21.8486 59.5193 21.5367 59.0926 21.098C58.666 20.6553 58.4547 20.0959 58.4588 19.4197C58.4547 18.8482 58.6097 18.3532 58.9236 17.9347C59.2416 17.5121 59.6822 17.1861 60.2457 16.9567C60.8132 16.7232 61.4672 16.6065 62.2077 16.6065C63.2943 16.6065 64.1496 16.8379 64.7734 17.3008C65.4012 17.7636 65.7896 18.3894 65.9385 19.1783Z" fill="#DBA73B"/>
</svg>
