<svg width="144" height="41" viewBox="0 0 144 41" fill="none" xmlns="http://www.w3.org/2000/svg">
<rect x="0.5" y="0.839844" width="143" height="40" rx="8" fill="#FDF9F1"/>
<path d="M31.2417 20.658C31.2417 21.9902 30.9921 23.1312 30.4931 24.081C29.998 25.0268 29.3219 25.7512 28.4647 26.2543C27.6114 26.7573 26.6435 27.0089 25.5609 27.0089C24.4783 27.0089 23.5083 26.7573 22.6511 26.2543C21.7979 25.7472 21.1217 25.0207 20.6227 24.0749C20.1277 23.1251 19.8801 21.9862 19.8801 20.658C19.8801 19.3259 20.1277 18.1869 20.6227 17.2411C21.1217 16.2913 21.7979 15.5649 22.6511 15.0618C23.5083 14.5587 24.4783 14.3072 25.5609 14.3072C26.6435 14.3072 27.6114 14.5587 28.4647 15.0618C29.3219 15.5649 29.998 16.2913 30.4931 17.2411C30.9921 18.1869 31.2417 19.3259 31.2417 20.658ZM28.9899 20.658C28.9899 19.7203 28.843 18.9295 28.5492 18.2855C28.2594 17.6375 27.8569 17.1486 27.3418 16.8185C26.8266 16.4845 26.233 16.3175 25.5609 16.3175C24.8888 16.3175 24.2952 16.4845 23.78 16.8185C23.2649 17.1486 22.8604 17.6375 22.5666 18.2855C22.2768 18.9295 22.1319 19.7203 22.1319 20.658C22.1319 21.5958 22.2768 22.3886 22.5666 23.0366C22.8604 23.6805 23.2649 24.1695 23.78 24.5036C24.2952 24.8336 24.8888 24.9986 25.5609 24.9986C26.233 24.9986 26.8266 24.8336 27.3418 24.5036C27.8569 24.1695 28.2594 23.6805 28.5492 23.0366C28.843 22.3886 28.9899 21.5958 28.9899 20.658ZM39.1727 22.94V17.5671H41.358V26.8398H39.2391V25.1918H39.1425C38.9332 25.7109 38.5891 26.1355 38.1102 26.4656C37.6353 26.7956 37.0497 26.9606 36.3534 26.9606C35.7457 26.9606 35.2084 26.8258 34.7416 26.5561C34.2787 26.2824 33.9165 25.886 33.6549 25.3668C33.3933 24.8436 33.2625 24.2118 33.2625 23.4712V17.5671H35.4479V23.1332C35.4479 23.7208 35.6089 24.1876 35.9308 24.5337C36.2528 24.8799 36.6754 25.0529 37.1986 25.0529C37.5206 25.0529 37.8325 24.9744 38.1343 24.8175C38.4362 24.6605 38.6837 24.4271 38.8769 24.1172C39.0741 23.8033 39.1727 23.4109 39.1727 22.94ZM43.6053 26.8398V17.5671H45.7243V19.1126H45.8208C45.9899 18.5773 46.2797 18.1648 46.6902 17.875C47.1047 17.5812 47.5776 17.4343 48.1088 17.4343C48.2296 17.4343 48.3644 17.4403 48.5133 17.4524C48.6663 17.4605 48.793 17.4745 48.8936 17.4947V19.505C48.8011 19.4728 48.6542 19.4446 48.4529 19.4205C48.2557 19.3923 48.0646 19.3782 47.8794 19.3782C47.481 19.3782 47.1228 19.4647 46.8049 19.6378C46.4909 19.8068 46.2434 20.0423 46.0623 20.3441C45.8812 20.646 45.7907 20.9941 45.7907 21.3885V26.8398H43.6053ZM61.378 17.875C61.3217 17.3478 61.0842 16.9373 60.6657 16.6435C60.2511 16.3497 59.7118 16.2028 59.0478 16.2028C58.5809 16.2028 58.1805 16.2732 57.8464 16.4141C57.5124 16.5549 57.2568 16.7461 57.0797 16.9876C56.9026 17.229 56.8121 17.5047 56.8081 17.8146C56.8081 18.0722 56.8664 18.2956 56.9831 18.4847C57.1039 18.6739 57.2669 18.8349 57.4721 18.9677C57.6774 19.0965 57.9048 19.2051 58.1543 19.2937C58.4038 19.3822 58.6554 19.4567 58.9089 19.517L60.068 19.8068C60.5349 19.9155 60.9836 20.0624 61.4142 20.2475C61.8489 20.4326 62.2373 20.6661 62.5794 20.9478C62.9255 21.2295 63.1992 21.5696 63.4004 21.968C63.6016 22.3665 63.7022 22.8333 63.7022 23.3686C63.7022 24.093 63.5171 24.7309 63.1468 25.2823C62.7766 25.8297 62.2413 26.2583 61.541 26.5682C60.8448 26.8741 60.0016 27.027 59.0115 27.027C58.0497 27.027 57.2145 26.8781 56.5062 26.5803C55.8019 26.2824 55.2505 25.8478 54.8521 25.2763C54.4577 24.7048 54.2444 24.0085 54.2122 23.1875H56.4157C56.4479 23.6181 56.5807 23.9763 56.8141 24.2621C57.0475 24.5478 57.3514 24.7611 57.7257 24.902C58.104 25.0429 58.5266 25.1133 58.9934 25.1133C59.4804 25.1133 59.907 25.0408 60.2733 24.896C60.6435 24.747 60.9333 24.5418 61.1426 24.2802C61.3519 24.0146 61.4585 23.7047 61.4625 23.3505C61.4585 23.0285 61.3639 22.7629 61.1788 22.5536C60.9937 22.3403 60.7341 22.1632 60.4 22.0224C60.07 21.8775 59.6837 21.7487 59.2409 21.636L57.8343 21.2738C56.8161 21.0122 56.0112 20.6158 55.4196 20.0845C54.832 19.5492 54.5382 18.8389 54.5382 17.9535C54.5382 17.225 54.7354 16.5871 55.1298 16.0398C55.5282 15.4924 56.0695 15.0678 56.7537 14.766C57.4379 14.4601 58.2127 14.3072 59.0779 14.3072C59.9553 14.3072 60.724 14.4601 61.3841 14.766C62.0481 15.0678 62.5693 15.4884 62.9476 16.0277C63.3259 16.563 63.5211 17.1787 63.5332 17.875H61.378ZM69.7075 27.021C68.7778 27.021 67.9749 26.8278 67.2987 26.4414C66.6266 26.051 66.1095 25.4996 65.7472 24.7873C65.385 24.0709 65.2039 23.2277 65.2039 22.2578C65.2039 21.304 65.385 20.4669 65.7472 19.7464C66.1135 19.022 66.6246 18.4586 67.2806 18.0561C67.9366 17.6496 68.7074 17.4464 69.5928 17.4464C70.1643 17.4464 70.7036 17.5389 71.2107 17.7241C71.7218 17.9052 72.1726 18.1869 72.5629 18.5692C72.9574 18.9516 73.2673 19.4386 73.4926 20.0302C73.718 20.6178 73.8307 21.3181 73.8307 22.131V22.8011H66.2302V21.3281H71.7359C71.7319 20.9096 71.6413 20.5373 71.4642 20.2113C71.2871 19.8813 71.0396 19.6217 70.7217 19.4325C70.4078 19.2434 70.0415 19.1488 69.623 19.1488C69.1762 19.1488 68.7838 19.2575 68.4458 19.4748C68.1077 19.6881 67.8441 19.9698 67.6549 20.32C67.4698 20.6661 67.3752 21.0464 67.3712 21.4609V22.7468C67.3712 23.2861 67.4698 23.7489 67.667 24.1353C67.8642 24.5176 68.1399 24.8114 68.4941 25.0167C68.8482 25.2179 69.2628 25.3185 69.7377 25.3185C70.0556 25.3185 70.3434 25.2743 70.6009 25.1857C70.8585 25.0932 71.0819 24.9583 71.271 24.7812C71.4602 24.6042 71.6031 24.3848 71.6997 24.1232L73.7401 24.3526C73.6114 24.8919 73.3659 25.3628 73.0036 25.7653C72.6454 26.1637 72.1866 26.4736 71.6272 26.695C71.0678 26.9123 70.4279 27.021 69.7075 27.021ZM75.6795 26.8398V17.5671H77.7985V19.1126H77.8951C78.0641 18.5773 78.3539 18.1648 78.7644 17.875C79.1789 17.5812 79.6518 17.4343 80.1831 17.4343C80.3038 17.4343 80.4386 17.4403 80.5875 17.4524C80.7405 17.4605 80.8672 17.4745 80.9679 17.4947V19.505C80.8753 19.4728 80.7284 19.4446 80.5272 19.4205C80.33 19.3923 80.1388 19.3782 79.9537 19.3782C79.5552 19.3782 79.197 19.4647 78.8791 19.6378C78.5652 19.8068 78.3176 20.0423 78.1365 20.3441C77.9554 20.646 77.8649 20.9941 77.8649 21.3885V26.8398H75.6795ZM90.9846 17.5671L87.6824 26.8398H85.2677L81.9655 17.5671H84.2957L86.4268 24.4553H86.5233L88.6604 17.5671H90.9846ZM92.4969 26.8398V17.5671H94.6823V26.8398H92.4969ZM93.5956 16.2511C93.2495 16.2511 92.9517 16.1364 92.7021 15.907C92.4526 15.6735 92.3279 15.3938 92.3279 15.0678C92.3279 14.7378 92.4526 14.4581 92.7021 14.2287C92.9517 13.9953 93.2495 13.8786 93.5956 13.8786C93.9458 13.8786 94.2436 13.9953 94.4891 14.2287C94.7386 14.4581 94.8634 14.7378 94.8634 15.0678C94.8634 15.3938 94.7386 15.6735 94.4891 15.907C94.2436 16.1364 93.9458 16.2511 93.5956 16.2511ZM100.974 27.021C100.049 27.021 99.2537 26.8177 98.5897 26.4112C97.9296 26.0047 97.4205 25.4433 97.0623 24.7269C96.7082 24.0065 96.5311 23.1774 96.5311 22.2397C96.5311 21.2979 96.7122 20.4669 97.0744 19.7464C97.4366 19.022 97.9477 18.4586 98.6078 18.0561C99.2718 17.6496 100.057 17.4464 100.962 17.4464C101.715 17.4464 102.381 17.5852 102.96 17.8629C103.544 18.1366 104.009 18.525 104.355 19.0281C104.701 19.5271 104.898 20.1107 104.947 20.7788H102.858C102.773 20.332 102.572 19.9598 102.254 19.6619C101.94 19.3601 101.52 19.2092 100.992 19.2092C100.546 19.2092 100.153 19.3299 99.8152 19.5714C99.4771 19.8088 99.2135 20.1509 99.0243 20.5977C98.8392 21.0444 98.7466 21.5797 98.7466 22.2035C98.7466 22.8353 98.8392 23.3787 99.0243 23.8335C99.2095 24.2842 99.469 24.6323 99.8031 24.8778C100.141 25.1193 100.538 25.2401 100.992 25.2401C101.314 25.2401 101.602 25.1797 101.856 25.0589C102.113 24.9342 102.329 24.7551 102.502 24.5217C102.675 24.2882 102.793 24.0045 102.858 23.6705H104.947C104.894 24.3265 104.701 24.908 104.367 25.4151C104.033 25.9182 103.578 26.3126 103.003 26.5984C102.427 26.8801 101.751 27.021 100.974 27.021ZM110.846 27.021C109.916 27.021 109.114 26.8278 108.437 26.4414C107.765 26.051 107.248 25.4996 106.886 24.7873C106.524 24.0709 106.343 23.2277 106.343 22.2578C106.343 21.304 106.524 20.4669 106.886 19.7464C107.252 19.022 107.763 18.4586 108.419 18.0561C109.075 17.6496 109.846 17.4464 110.731 17.4464C111.303 17.4464 111.842 17.5389 112.349 17.7241C112.86 17.9052 113.311 18.1869 113.702 18.5692C114.096 18.9516 114.406 19.4386 114.631 20.0302C114.857 20.6178 114.969 21.3181 114.969 22.131V22.8011H107.369V21.3281H112.875C112.871 20.9096 112.78 20.5373 112.603 20.2113C112.426 19.8813 112.178 19.6217 111.86 19.4325C111.546 19.2434 111.18 19.1488 110.762 19.1488C110.315 19.1488 109.922 19.2575 109.584 19.4748C109.246 19.6881 108.983 19.9698 108.794 20.32C108.608 20.6661 108.514 21.0464 108.51 21.4609V22.7468C108.51 23.2861 108.608 23.7489 108.806 24.1353C109.003 24.5176 109.279 24.8114 109.633 25.0167C109.987 25.2179 110.401 25.3185 110.876 25.3185C111.194 25.3185 111.482 25.2743 111.74 25.1857C111.997 25.0932 112.221 24.9583 112.41 24.7812C112.599 24.6042 112.742 24.3848 112.838 24.1232L114.879 24.3526C114.75 24.8919 114.505 25.3628 114.142 25.7653C113.784 26.1637 113.325 26.4736 112.766 26.695C112.206 26.9123 111.567 27.021 110.846 27.021ZM124.147 20.0181L122.155 20.2354C122.098 20.0342 122 19.8451 121.859 19.668C121.722 19.4909 121.537 19.348 121.304 19.2393C121.07 19.1307 120.784 19.0763 120.446 19.0763C119.992 19.0763 119.609 19.175 119.299 19.3722C118.993 19.5694 118.843 19.8249 118.847 20.1388C118.843 20.4085 118.941 20.6278 119.142 20.7969C119.348 20.9659 119.686 21.1048 120.157 21.2134L121.738 21.5515C122.616 21.7406 123.268 22.0405 123.694 22.451C124.125 22.8615 124.342 23.3988 124.346 24.0629C124.342 24.6464 124.171 25.1616 123.833 25.6083C123.499 26.051 123.034 26.3971 122.439 26.6467C121.843 26.8962 121.159 27.021 120.386 27.021C119.251 27.021 118.337 26.7835 117.645 26.3086C116.953 25.8297 116.54 25.1636 116.408 24.3104L118.539 24.1051C118.635 24.5237 118.841 24.8396 119.154 25.0529C119.468 25.2662 119.877 25.3729 120.38 25.3729C120.899 25.3729 121.316 25.2662 121.63 25.0529C121.948 24.8396 122.107 24.576 122.107 24.2621C122.107 23.9964 122.004 23.7771 121.799 23.604C121.597 23.431 121.283 23.2982 120.857 23.2056L119.275 22.8736C118.386 22.6884 117.728 22.3765 117.301 21.9379C116.875 21.4951 116.663 20.9357 116.667 20.2596C116.663 19.6881 116.818 19.1931 117.132 18.7745C117.45 18.3519 117.891 18.0259 118.454 17.7965C119.022 17.5631 119.676 17.4464 120.416 17.4464C121.503 17.4464 122.358 17.6778 122.982 18.1406C123.61 18.6035 123.998 19.2293 124.147 20.0181Z" fill="#DBA73B"/>
</svg>
