<svg width="35" height="29" viewBox="0 0 35 29" fill="none" xmlns="http://www.w3.org/2000/svg">
<path fill-rule="evenodd" clip-rule="evenodd" d="M5 0.75C2.23858 0.75 0 2.98858 0 5.75V23.25C0 26.0114 2.23858 28.25 5 28.25H30C32.7614 28.25 35 26.0114 35 23.25V5.75C35 2.98858 32.7614 0.75 30 0.75H5ZM11.875 5.75C9.80393 5.75 8.125 7.42893 8.125 9.5C8.125 11.5711 9.80393 13.25 11.875 13.25C13.9461 13.25 15.625 11.5711 15.625 9.5C15.625 7.42893 13.9461 5.75 11.875 5.75ZM5.41985 20.2546C6.38483 17.6274 8.90904 15.75 11.8749 15.75C14.8408 15.75 17.365 17.6274 18.33 20.2546C18.5452 20.8405 18.2952 21.4954 17.7443 21.7888C15.993 22.7218 13.9938 23.25 11.8749 23.25C9.75607 23.25 7.75688 22.7218 6.00551 21.7888C5.45463 21.4954 5.20465 20.8405 5.41985 20.2546ZM22.5 8.25C21.8096 8.25 21.25 8.80964 21.25 9.5C21.25 10.1904 21.8096 10.75 22.5 10.75H28.75C29.4404 10.75 30 10.1904 30 9.5C30 8.80964 29.4404 8.25 28.75 8.25H22.5ZM21.25 14.5C21.25 13.8096 21.8096 13.25 22.5 13.25H28.75C29.4404 13.25 30 13.8096 30 14.5C30 15.1904 29.4404 15.75 28.75 15.75H22.5C21.8096 15.75 21.25 15.1904 21.25 14.5ZM22.5 18.25C21.8096 18.25 21.25 18.8096 21.25 19.5C21.25 20.1904 21.8096 20.75 22.5 20.75H28.75C29.4404 20.75 30 20.1904 30 19.5C30 18.8096 29.4404 18.25 28.75 18.25H22.5Z" fill="#DBA73B"/>
</svg>
