<svg width="187" height="42" viewBox="0 0 187 42" fill="none" xmlns="http://www.w3.org/2000/svg">
<circle cx="21" cy="21" r="21" fill="white"/>
<path d="M28.6381 30.1114C27.8055 31.4065 26.6639 32.5391 25.2847 33.449C26.0526 30.4683 25.4815 26.8967 20.386 24.3646L20.3856 24.369C18.6928 23.6203 16.7498 22.7037 14.9691 21.5501C11.6581 19.4062 10.7169 14.9543 12.9304 11.6858C13.748 10.4765 14.8421 9.41534 16.1491 8.55447C15.3812 11.5351 15.95 15.1065 21.0478 17.6389L21.0482 17.6344C22.741 18.3832 24.6861 19.2999 26.4668 20.4536C29.6978 22.5492 30.7209 26.8749 28.6381 30.1114Z" fill="#121933"/>
<path d="M22.5447 15.8233C24.6886 16.0342 26.5975 14.4672 26.8084 12.3234C27.0194 10.1795 25.4524 8.27059 23.3086 8.05966C21.1647 7.84873 19.2558 9.41568 19.0448 11.5595C18.8339 13.7034 20.4009 15.6123 22.5447 15.8233Z" fill="#DBA73B"/>
<path d="M17.929 33.6075C20.0729 33.8184 21.9818 32.2514 22.1927 30.1076C22.4037 27.9637 20.8367 26.0548 18.6928 25.8438C16.549 25.6329 14.64 27.1999 14.4291 29.3437C14.2182 31.4876 15.7851 33.3965 17.929 33.6075Z" fill="#DBA73B"/>
<path d="M64.485 35.3776C70.0738 35.3776 74.6976 32.5639 74.6976 26.7434C74.6976 20.6913 69.5334 19.4196 65.4479 18.3773C62.557 17.6846 60.2451 17.1055 60.2451 15.2183C60.2451 13.4447 62.1324 12.634 64.0218 12.634C66.2178 12.634 68.1458 13.7149 68.1458 16.0654H73.8891C73.8891 10.6696 70.3827 7.354 64.1762 7.354C58.2013 7.354 54.386 10.2835 54.386 15.4499C54.386 21.2682 59.3186 22.4649 63.4041 23.4664C66.3336 24.1206 68.8021 24.6996 68.8021 26.8206C68.8021 28.8237 66.6425 29.9796 64.4464 29.9796C62.0551 29.9796 59.8977 28.7079 59.8977 26.1258H54C54 31.9076 58.2785 35.3776 64.485 35.3776Z" fill="white"/>
<path d="M64.485 35.3776C70.0738 35.3776 74.6976 32.5639 74.6976 26.7434C74.6976 20.6913 69.5334 19.4196 65.4479 18.3773C62.557 17.6846 60.2451 17.1055 60.2451 15.2183C60.2451 13.4447 62.1324 12.634 64.0218 12.634C66.2178 12.634 68.1458 13.7149 68.1458 16.0654H73.8891C73.8891 10.6696 70.3827 7.354 64.1762 7.354C58.2013 7.354 54.386 10.2835 54.386 15.4499C54.386 21.2682 59.3186 22.4649 63.4041 23.4664C66.3336 24.1206 68.8021 24.6996 68.8021 26.8206C68.8021 28.8237 66.6425 29.9796 64.4464 29.9796C62.0551 29.9796 59.8977 28.7079 59.8977 26.1258H54C54 31.9076 58.2785 35.3776 64.485 35.3776Z" fill="white"/>
<path d="M88.8823 35.4549C95.3205 35.4549 100.137 30.7132 100.137 24.4295C100.137 18.1479 95.3205 13.4448 88.8823 13.4448C82.4464 13.4448 77.6274 18.1479 77.6274 24.4295C77.6274 30.7132 82.4464 35.4549 88.8823 35.4549ZM88.8823 30.1342C85.644 30.1342 83.3321 27.8223 83.3321 24.4295C83.3321 21.0775 85.644 18.7248 88.8823 18.7248C92.1207 18.7248 94.4326 21.0775 94.4326 24.4295C94.4326 27.8223 92.1207 30.1342 88.8823 30.1342Z" fill="white"/>
<path d="M88.8823 35.4549C95.3205 35.4549 100.137 30.7132 100.137 24.4295C100.137 18.1479 95.3205 13.4448 88.8823 13.4448C82.4464 13.4448 77.6274 18.1479 77.6274 24.4295C77.6274 30.7132 82.4464 35.4549 88.8823 35.4549ZM88.8823 30.1342C85.644 30.1342 83.3321 27.8223 83.3321 24.4295C83.3321 21.0775 85.644 18.7248 88.8823 18.7248C92.1207 18.7248 94.4326 21.0775 94.4326 24.4295C94.4326 27.8223 92.1207 30.1342 88.8823 30.1342Z" fill="white"/>
<path d="M104.185 34.8371H109.813V6.54541H104.185V34.8371Z" fill="white"/>
<path d="M104.185 34.8371H109.813V6.54541H104.185V34.8371Z" fill="white"/>
<path d="M132.169 14.0239L131.592 15.9883C129.78 14.4078 127.429 13.4448 124.729 13.4448C118.486 13.4448 113.822 18.1479 113.822 24.4295C113.822 30.7132 118.486 35.4549 124.729 35.4549C127.391 35.4549 129.703 34.5285 131.476 32.9479L131.976 34.8373H136.37V14.0239H132.169ZM125.192 30.1342C121.916 30.1342 119.526 27.6679 119.526 24.4295C119.526 21.1547 121.916 18.7248 125.192 18.7248C128.469 18.7248 130.859 21.1547 130.859 24.4295C130.859 27.7065 128.469 30.1342 125.192 30.1342Z" fill="white"/>
<path d="M132.169 14.0239L131.592 15.9883C129.78 14.4078 127.429 13.4448 124.729 13.4448C118.486 13.4448 113.822 18.1479 113.822 24.4295C113.822 30.7132 118.486 35.4549 124.729 35.4549C127.391 35.4549 129.703 34.5285 131.476 32.9479L131.976 34.8373H136.37V14.0239H132.169ZM125.192 30.1342C121.916 30.1342 119.526 27.6679 119.526 24.4295C119.526 21.1547 121.916 18.7248 125.192 18.7248C128.469 18.7248 130.859 21.1547 130.859 24.4295C130.859 27.7065 128.469 30.1342 125.192 30.1342Z" fill="white"/>
<path d="M151.479 35.4549C156.916 35.4549 161.194 31.9078 162.157 26.6663H156.491C155.528 28.901 153.755 30.1342 151.479 30.1342C148.473 30.1342 146.122 27.6293 146.122 24.4295C146.122 21.1933 148.434 18.7248 151.479 18.7248C153.716 18.7248 155.603 19.958 156.491 22.0018H162.08C161.079 16.8762 156.916 13.4448 151.518 13.4448C145.198 13.4448 140.417 18.1479 140.417 24.3909C140.417 30.636 145.198 35.4549 151.479 35.4549Z" fill="white"/>
<path d="M151.479 35.4549C156.916 35.4549 161.194 31.9078 162.157 26.6663H156.491C155.528 28.901 153.755 30.1342 151.479 30.1342C148.473 30.1342 146.122 27.6293 146.122 24.4295C146.122 21.1933 148.434 18.7248 151.479 18.7248C153.716 18.7248 155.603 19.958 156.491 22.0018H162.08C161.079 16.8762 156.916 13.4448 151.518 13.4448C145.198 13.4448 140.417 18.1479 140.417 24.3909C140.417 30.636 145.198 35.4549 151.479 35.4549Z" fill="white"/>
<path d="M186.094 24.3909C186.094 18.3774 181.699 13.4448 175.302 13.4448C169.134 13.4448 164.508 18.1866 164.508 24.4295C164.508 30.6746 169.173 35.4549 175.302 35.4549C180.158 35.4549 184.127 32.564 185.631 28.0153H179.733C178.886 29.5187 177.267 30.443 175.302 30.443C172.563 30.443 170.715 28.8624 170.213 26.0101H185.978C186.055 25.4718 186.094 24.9313 186.094 24.3909ZM175.302 18.2638C177.846 18.2638 179.658 19.6513 180.466 22.1948H170.367C171.024 19.7285 172.795 18.2638 175.302 18.2638Z" fill="white"/>
<path d="M186.094 24.3909C186.094 18.3774 181.699 13.4448 175.302 13.4448C169.134 13.4448 164.508 18.1866 164.508 24.4295C164.508 30.6746 169.173 35.4549 175.302 35.4549C180.158 35.4549 184.127 32.564 185.631 28.0153H179.733C178.886 29.5187 177.267 30.443 175.302 30.443C172.563 30.443 170.715 28.8624 170.213 26.0101H185.978C186.055 25.4718 186.094 24.9313 186.094 24.3909ZM175.302 18.2638C177.846 18.2638 179.658 19.6513 180.466 22.1948H170.367C171.024 19.7285 172.795 18.2638 175.302 18.2638Z" fill="white"/>
</svg>
