<svg width="33" height="37" viewBox="0 0 33 37" fill="none" xmlns="http://www.w3.org/2000/svg">
<path d="M15.1426 0.341654C14.0457 0.546199 12.7569 0.987873 10.7766 1.66667L9.73936 2.01965C4.29627 3.88409 1.57564 4.8145 0.893216 5.78836C0.223466 6.74049 0.208984 9.53172 0.208984 15.0707L15.1426 10.0929V0.341654ZM15.1426 12.9529L0.208984 17.9308V18.2946C0.208984 28.5001 7.88216 33.4527 12.6971 35.5561C13.6203 35.9597 14.2176 36.2204 15.1426 36.338V12.9529ZM17.8578 36.3398V12.9529L32.7915 17.9308V18.2946C32.7915 28.5001 25.1183 33.4527 20.3033 35.5561C19.3801 35.9597 18.7828 36.2222 17.8578 36.3398ZM17.8578 10.0929V0.339844C18.9548 0.544389 20.2436 0.986062 22.2239 1.66486L23.2611 2.01965C28.7042 3.88228 31.4248 4.81269 32.1072 5.78655C32.777 6.73868 32.7915 9.52991 32.7915 15.0671L17.8578 10.0929Z" fill="#DBA73B"/>
</svg>
