<svg width="38" height="38" viewBox="0 0 38 38" fill="none" xmlns="http://www.w3.org/2000/svg">
<path fill-rule="evenodd" clip-rule="evenodd" d="M23.5557 0.839844C24.0844 0.839844 24.5915 1.04988 24.9653 1.42374C25.3392 1.7976 25.5492 2.30466 25.5492 2.83338V5.99114H28.3003C29.3577 5.99114 30.3718 6.4112 31.1196 7.15892C31.8673 7.90664 32.2874 8.92077 32.2874 9.97821V12.7319H35.5275C36.0562 12.7319 36.5633 12.942 36.9372 13.3158C37.311 13.6897 37.521 14.1968 37.521 14.7255C37.521 15.2542 37.311 15.7613 36.9372 16.1351C36.5633 16.509 36.0562 16.719 35.5275 16.719H32.2847V21.849H35.5275C36.0562 21.849 36.5633 22.0591 36.9372 22.4329C37.311 22.8068 37.521 23.3139 37.521 23.8426C37.521 24.3713 37.311 24.8784 36.9372 25.2522C36.5633 25.6261 36.0562 25.8361 35.5275 25.8361H32.2847V28.5819C32.2847 29.6393 31.8646 30.6534 31.1169 31.4012C30.3692 32.1489 29.3551 32.5689 28.2976 32.5689H25.5519V35.8463C25.5519 36.375 25.3418 36.8821 24.968 37.256C24.5941 37.6298 24.087 37.8398 23.5583 37.8398C23.0296 37.8398 22.5225 37.6298 22.1487 37.256C21.7748 36.8821 21.5648 36.375 21.5648 35.8463V32.5689H16.4348V35.8463C16.4348 36.375 16.2247 36.8821 15.8509 37.256C15.477 37.6298 14.9699 37.8398 14.4412 37.8398C13.9125 37.8398 13.4054 37.6298 13.0316 37.256C12.6577 36.8821 12.4477 36.375 12.4477 35.8463V32.5689H9.69662C8.63918 32.5689 7.62506 32.1489 6.87734 31.4012C6.12962 30.6534 5.70955 29.6393 5.70955 28.5819V25.8335H2.47205C1.94333 25.8335 1.43627 25.6234 1.06241 25.2496C0.688548 24.8757 0.478516 24.3686 0.478516 23.8399C0.478516 23.3112 0.688548 22.8041 1.06241 22.4303C1.43627 22.0564 1.94333 21.8464 2.47205 21.8464H5.70955V16.7164H2.47205C1.94333 16.7164 1.43627 16.5063 1.06241 16.1325C0.688548 15.7586 0.478516 15.2515 0.478516 14.7228C0.478516 14.1941 0.688548 13.687 1.06241 13.3132C1.43627 12.9393 1.94333 12.7293 2.47205 12.7293H5.70955V9.98086C5.70955 8.92343 6.12962 7.9093 6.87734 7.16158C7.62506 6.41386 8.63918 5.99379 9.69662 5.99379H12.4477V2.83338C12.4477 2.30466 12.6577 1.7976 13.0316 1.42374C13.4054 1.04988 13.9125 0.839844 14.4412 0.839844C14.9699 0.839844 15.477 1.04988 15.8509 1.42374C16.2247 1.7976 16.4348 2.30466 16.4348 2.83338V5.99114H21.5648V2.83338C21.5648 2.30466 21.7748 1.7976 22.1487 1.42374C22.5225 1.04988 23.0296 0.839844 23.5583 0.839844H23.5557ZM16.9876 12.8755C17.4555 10.7384 20.4963 10.7251 20.9827 12.8595L21.0039 12.9526L21.0465 13.1386C21.2963 14.2011 21.8527 15.1667 22.6466 15.9157C23.4404 16.6647 24.4368 17.164 25.512 17.3516C27.7448 17.7397 27.7448 20.94 25.512 21.3281C24.4305 21.5169 23.429 22.0211 22.6331 22.7773C21.8372 23.5334 21.2824 24.5079 21.0385 25.5783L20.9827 25.8202C20.4963 27.9546 17.4555 27.9386 16.9876 25.8042L16.9398 25.5942C16.7048 24.5204 16.1553 23.541 15.3614 22.7807C14.5675 22.0204 13.5652 21.5138 12.4823 21.3254C10.2548 20.9373 10.2548 17.7424 12.4823 17.3543C13.5614 17.1664 14.5606 16.6625 15.3531 15.9064C16.1457 15.1502 16.6961 14.1759 16.9345 13.1067L16.969 12.9552L16.9876 12.8755Z" fill="#DBA73B"/>
</svg>
