<svg width="144" height="41" viewBox="0 0 144 41" fill="none" xmlns="http://www.w3.org/2000/svg">
<rect x="0.5" y="0.334961" width="143" height="40" rx="8" fill="#FDF9F1"/>
<path d="M20.6302 15.8488V13.9713H30.4946V15.8488H26.6732V26.335H24.4516V15.8488H20.6302ZM35.06 26.5161C34.1303 26.5161 33.3274 26.3229 32.6513 25.9365C31.9792 25.5461 31.462 24.9948 31.0998 24.2824C30.7376 23.566 30.5565 22.7229 30.5565 21.7529C30.5565 20.7991 30.7376 19.962 31.0998 19.2416C31.466 18.5171 31.9772 17.9537 32.6332 17.5512C33.2892 17.1447 34.0599 16.9415 34.9453 16.9415C35.5168 16.9415 36.0561 17.0341 36.5632 17.2192C37.0743 17.4003 37.5251 17.682 37.9155 18.0644C38.3099 18.4467 38.6198 18.9337 38.8452 19.5253C39.0705 20.1129 39.1832 20.8132 39.1832 21.6262V22.2963H31.5827V20.8232H37.0884C37.0844 20.4047 36.9938 20.0324 36.8168 19.7064C36.6397 19.3764 36.3922 19.1168 36.0742 18.9276C35.7603 18.7385 35.3941 18.6439 34.9755 18.6439C34.5288 18.6439 34.1364 18.7526 33.7983 18.9699C33.4602 19.1832 33.1966 19.4649 33.0075 19.8151C32.8223 20.1612 32.7277 20.5415 32.7237 20.9561V22.2419C32.7237 22.7812 32.8223 23.2441 33.0195 23.6304C33.2167 24.0128 33.4924 24.3066 33.8466 24.5118C34.2008 24.713 34.6153 24.8137 35.0902 24.8137C35.4081 24.8137 35.6959 24.7694 35.9535 24.6808C36.2111 24.5883 36.4344 24.4535 36.6236 24.2764C36.8127 24.0993 36.9556 23.8799 37.0522 23.6183L39.0927 23.8477C38.9639 24.387 38.7184 24.8579 38.3562 25.2604C37.998 25.6588 37.5392 25.9687 36.9798 26.1901C36.4203 26.4074 35.7804 26.5161 35.06 26.5161ZM48.3609 19.5132L46.3687 19.7306C46.3124 19.5293 46.2137 19.3402 46.0729 19.1631C45.936 18.986 45.7509 18.8431 45.5175 18.7345C45.2841 18.6258 44.9983 18.5715 44.6602 18.5715C44.2055 18.5715 43.8231 18.6701 43.5132 18.8673C43.2074 19.0645 43.0564 19.32 43.0605 19.634C43.0564 19.9036 43.155 20.123 43.3563 20.292C43.5615 20.461 43.8996 20.5999 44.3705 20.7085L45.9521 21.0466C46.8295 21.2358 47.4815 21.5356 47.9081 21.9461C48.3387 22.3566 48.5561 22.8939 48.5601 23.558C48.5561 24.1415 48.385 24.6567 48.047 25.1034C47.7129 25.5461 47.2481 25.8923 46.6524 26.1418C46.0568 26.3913 45.3726 26.5161 44.5999 26.5161C43.4649 26.5161 42.5513 26.2786 41.8591 25.8037C41.1669 25.3248 40.7544 24.6587 40.6215 23.8055L42.7526 23.6002C42.8492 24.0188 43.0544 24.3347 43.3683 24.548C43.6823 24.7613 44.0908 24.868 44.5938 24.868C45.113 24.868 45.5296 24.7613 45.8435 24.548C46.1614 24.3347 46.3204 24.0711 46.3204 23.7572C46.3204 23.4916 46.2178 23.2722 46.0125 23.0992C45.8113 22.9261 45.4974 22.7933 45.0708 22.7007L43.4891 22.3687C42.5996 22.1836 41.9416 21.8717 41.515 21.433C41.0884 20.9903 40.8771 20.4308 40.8811 19.7547C40.8771 19.1832 41.032 18.6882 41.346 18.2696C41.6639 17.847 42.1046 17.521 42.6681 17.2916C43.2355 17.0582 43.8895 16.9415 44.6301 16.9415C45.7167 16.9415 46.5719 17.1729 47.1958 17.6357C47.8236 18.0986 48.212 18.7244 48.3609 19.5132ZM54.9925 17.0622V18.7526H49.6618V17.0622H54.9925ZM50.9779 14.8406H53.1633V23.5459C53.1633 23.8397 53.2075 24.0651 53.2961 24.222C53.3886 24.375 53.5094 24.4796 53.6583 24.536C53.8072 24.5923 53.9722 24.6205 54.1533 24.6205C54.2902 24.6205 54.4149 24.6104 54.5276 24.5903C54.6443 24.5702 54.7329 24.5521 54.7932 24.536L55.1615 26.2444C55.0448 26.2847 54.8778 26.3289 54.6604 26.3772C54.4471 26.4255 54.1855 26.4537 53.8756 26.4617C53.3283 26.4778 52.8353 26.3953 52.3966 26.2142C51.9579 26.0291 51.6098 25.7433 51.3522 25.357C51.0986 24.9706 50.9739 24.4877 50.9779 23.9081V14.8406ZM56.8201 26.335V17.0622H59.0055V26.335H56.8201ZM57.9189 15.7462C57.5727 15.7462 57.2749 15.6315 57.0254 15.4021C56.7759 15.1686 56.6511 14.8889 56.6511 14.5629C56.6511 14.2329 56.7759 13.9532 57.0254 13.7238C57.2749 13.4904 57.5727 13.3737 57.9189 13.3737C58.269 13.3737 58.5668 13.4904 58.8123 13.7238C59.0618 13.9532 59.1866 14.2329 59.1866 14.5629C59.1866 14.8889 59.0618 15.1686 58.8123 15.4021C58.5668 15.6315 58.269 15.7462 57.9189 15.7462ZM61.2528 26.335V17.0622H63.3415V18.6379H63.4502C63.6434 18.1066 63.9633 17.6921 64.4101 17.3943C64.8568 17.0924 65.3901 16.9415 66.0099 16.9415C66.6377 16.9415 67.1669 17.0944 67.5976 17.4003C68.0322 17.7021 68.3381 18.1147 68.5152 18.6379H68.6118C68.817 18.1227 69.1631 17.7122 69.6501 17.4063C70.1411 17.0964 70.7227 16.9415 71.3948 16.9415C72.248 16.9415 72.9443 17.2111 73.4836 17.7504C74.0229 18.2897 74.2925 19.0766 74.2925 20.1109V26.335H72.1011V20.449C72.1011 19.8734 71.9482 19.4529 71.6423 19.1872C71.3364 18.9176 70.9622 18.7828 70.5194 18.7828C69.9922 18.7828 69.5797 18.9478 69.2819 19.2778C68.9881 19.6038 68.8412 20.0284 68.8412 20.5516V26.335H66.6981V20.3584C66.6981 19.8795 66.5532 19.4971 66.2634 19.2114C65.9777 18.9256 65.6034 18.7828 65.1405 18.7828C64.8266 18.7828 64.5409 18.8633 64.2833 19.0242C64.0257 19.1812 63.8205 19.4046 63.6675 19.6943C63.5146 19.9801 63.4381 20.3141 63.4381 20.6965V26.335H61.2528ZM80.5543 26.5161C79.6488 26.5161 78.864 26.3169 78.1999 25.9184C77.5359 25.52 77.0207 24.9626 76.6545 24.2462C76.2923 23.5298 76.1112 22.6927 76.1112 21.7348C76.1112 20.777 76.2923 19.9378 76.6545 19.2174C77.0207 18.497 77.5359 17.9376 78.1999 17.5392C78.864 17.1407 79.6488 16.9415 80.5543 16.9415C81.4599 16.9415 82.2447 17.1407 82.9087 17.5392C83.5728 17.9376 84.0859 18.497 84.4482 19.2174C84.8144 19.9378 84.9975 20.777 84.9975 21.7348C84.9975 22.6927 84.8144 23.5298 84.4482 24.2462C84.0859 24.9626 83.5728 25.52 82.9087 25.9184C82.2447 26.3169 81.4599 26.5161 80.5543 26.5161ZM80.5664 24.7654C81.0574 24.7654 81.4679 24.6305 81.7979 24.3609C82.128 24.0872 82.3735 23.721 82.5344 23.2622C82.6995 22.8034 82.782 22.2922 82.782 21.7288C82.782 21.1613 82.6995 20.6482 82.5344 20.1894C82.3735 19.7265 82.128 19.3583 81.7979 19.0846C81.4679 18.8109 81.0574 18.6741 80.5664 18.6741C80.0633 18.6741 79.6448 18.8109 79.3107 19.0846C78.9807 19.3583 78.7332 19.7265 78.5682 20.1894C78.4072 20.6482 78.3267 21.1613 78.3267 21.7288C78.3267 22.2922 78.4072 22.8034 78.5682 23.2622C78.7332 23.721 78.9807 24.0872 79.3107 24.3609C79.6448 24.6305 80.0633 24.7654 80.5664 24.7654ZM89.0377 20.9017V26.335H86.8524V17.0622H88.9411V18.6379H89.0498C89.2631 18.1187 89.6032 17.7062 90.07 17.4003C90.5409 17.0944 91.1225 16.9415 91.8147 16.9415C92.4546 16.9415 93.012 17.0783 93.4869 17.352C93.9659 17.6257 94.3361 18.0221 94.5977 18.5413C94.8634 19.0605 94.9942 19.6903 94.9901 20.4308V26.335H92.8048V20.7689C92.8048 20.1491 92.6438 19.6642 92.3218 19.314C92.0039 18.9639 91.5632 18.7888 90.9997 18.7888C90.6174 18.7888 90.2773 18.8733 89.9795 19.0423C89.6857 19.2074 89.4543 19.4468 89.2852 19.7607C89.1202 20.0747 89.0377 20.455 89.0377 20.9017ZM97.2117 26.335V17.0622H99.3971V26.335H97.2117ZM98.3105 15.7462C97.9643 15.7462 97.6665 15.6315 97.417 15.4021C97.1675 15.1686 97.0427 14.8889 97.0427 14.5629C97.0427 14.2329 97.1675 13.9532 97.417 13.7238C97.6665 13.4904 97.9643 13.3737 98.3105 13.3737C98.6606 13.3737 98.9584 13.4904 99.2039 13.7238C99.4535 13.9532 99.5782 14.2329 99.5782 14.5629C99.5782 14.8889 99.4535 15.1686 99.2039 15.4021C98.9584 15.6315 98.6606 15.7462 98.3105 15.7462ZM104.313 26.5221C103.725 26.5221 103.196 26.4175 102.725 26.2082C102.258 25.9949 101.888 25.681 101.614 25.2664C101.345 24.8519 101.21 24.3408 101.21 23.733C101.21 23.2098 101.306 22.7772 101.499 22.4351C101.693 22.093 101.956 21.8193 102.29 21.6141C102.624 21.4088 103.001 21.2539 103.419 21.1492C103.842 21.0406 104.278 20.9621 104.729 20.9138C105.273 20.8575 105.713 20.8071 106.051 20.7629C106.389 20.7146 106.635 20.6421 106.788 20.5455C106.945 20.4449 107.023 20.29 107.023 20.0807V20.0445C107.023 19.5897 106.888 19.2375 106.619 18.988C106.349 18.7385 105.961 18.6137 105.454 18.6137C104.918 18.6137 104.494 18.7304 104.18 18.9639C103.87 19.1973 103.661 19.473 103.552 19.7909L101.512 19.5012C101.673 18.9377 101.938 18.4668 102.308 18.0885C102.679 17.7062 103.131 17.4204 103.667 17.2313C104.202 17.0381 104.794 16.9415 105.442 16.9415C105.888 16.9415 106.333 16.9938 106.776 17.0985C107.218 17.2031 107.623 17.3762 107.989 17.6176C108.355 17.8551 108.649 18.1791 108.871 18.5896C109.096 19.0001 109.209 19.5132 109.209 20.129V26.335H107.108V25.0612H107.035C106.903 25.3187 106.715 25.5602 106.474 25.7856C106.236 26.007 105.937 26.186 105.574 26.3229C105.216 26.4557 104.796 26.5221 104.313 26.5221ZM104.88 24.9163C105.319 24.9163 105.699 24.8298 106.021 24.6567C106.343 24.4796 106.591 24.2462 106.764 23.9564C106.941 23.6666 107.029 23.3507 107.029 23.0086V21.9159C106.961 21.9723 106.844 22.0246 106.679 22.0729C106.518 22.1212 106.337 22.1634 106.136 22.1997C105.935 22.2359 105.735 22.2681 105.538 22.2963C105.341 22.3244 105.17 22.3486 105.025 22.3687C104.699 22.413 104.407 22.4854 104.15 22.586C103.892 22.6866 103.689 22.8275 103.54 23.0086C103.391 23.1857 103.317 23.4151 103.317 23.6968C103.317 24.0993 103.463 24.4031 103.757 24.6084C104.051 24.8137 104.425 24.9163 104.88 24.9163ZM113.591 13.9713V26.335H111.406V13.9713H113.591ZM123.168 19.5132L121.175 19.7306C121.119 19.5293 121.02 19.3402 120.88 19.1631C120.743 18.986 120.558 18.8431 120.324 18.7345C120.091 18.6258 119.805 18.5715 119.467 18.5715C119.012 18.5715 118.63 18.6701 118.32 18.8673C118.014 19.0645 117.863 19.32 117.867 19.634C117.863 19.9036 117.962 20.123 118.163 20.292C118.368 20.461 118.706 20.5999 119.177 20.7085L120.759 21.0466C121.636 21.2358 122.288 21.5356 122.715 21.9461C123.145 22.3566 123.363 22.8939 123.367 23.558C123.363 24.1415 123.192 24.6567 122.854 25.1034C122.52 25.5461 122.055 25.8923 121.459 26.1418C120.863 26.3913 120.179 26.5161 119.407 26.5161C118.272 26.5161 117.358 26.2786 116.666 25.8037C115.974 25.3248 115.561 24.6587 115.428 23.8055L117.559 23.6002C117.656 24.0188 117.861 24.3347 118.175 24.548C118.489 24.7613 118.897 24.868 119.4 24.868C119.92 24.868 120.336 24.7613 120.65 24.548C120.968 24.3347 121.127 24.0711 121.127 23.7572C121.127 23.4916 121.024 23.2722 120.819 23.0992C120.618 22.9261 120.304 22.7933 119.877 22.7007L118.296 22.3687C117.406 22.1836 116.748 21.8717 116.322 21.433C115.895 20.9903 115.684 20.4308 115.688 19.7547C115.684 19.1832 115.839 18.6882 116.153 18.2696C116.471 17.847 116.911 17.521 117.475 17.2916C118.042 17.0582 118.696 16.9415 119.437 16.9415C120.523 16.9415 121.379 17.1729 122.002 17.6357C122.63 18.0986 123.019 18.7244 123.168 19.5132Z" fill="#DBA73B"/>
</svg>
