<svg width="15" height="17" viewBox="0 0 15 17" fill="none" xmlns="http://www.w3.org/2000/svg">
<path d="M13.0367 3.75651C12.9287 3.70065 12.8236 3.63942 12.7217 3.57306C12.4257 3.37732 12.1542 3.14671 11.9132 2.88619C11.3096 2.19576 11.0842 1.49539 11.0017 1.00548H11.0045C10.9355 0.598047 10.964 0.334961 10.969 0.334961H8.22078V10.9601C8.22078 11.1023 8.22078 11.2438 8.21509 11.3832C8.21509 11.4002 8.21296 11.4159 8.21225 11.4351C8.21225 11.4422 8.21225 11.4507 8.21012 11.4585V11.4649C8.18126 11.8461 8.05916 12.2143 7.85458 12.5371C7.65 12.86 7.3692 13.1276 7.03689 13.3165C6.69021 13.5137 6.29808 13.6172 5.89922 13.6166C4.61934 13.6166 3.58122 12.5727 3.58122 11.2836C3.58122 9.99379 4.61934 8.94998 5.89922 8.94998C6.14169 8.94998 6.38273 8.98837 6.61311 9.06374L6.61667 6.26507C5.91701 6.1748 5.20623 6.23056 4.52921 6.42882C3.85218 6.62708 3.22361 6.96354 2.68317 7.41696C2.20951 7.82833 1.81128 8.31921 1.50639 8.86749C1.39049 9.0673 0.952486 9.87149 0.899868 11.1755C0.866449 11.915 1.08901 12.683 1.19495 12.9994V13.0065C1.26108 13.1928 1.5199 13.8299 1.94084 14.3667C2.28029 14.7976 2.68135 15.1762 3.13113 15.4902V15.4831L3.13753 15.4902C4.46718 16.3932 5.9426 16.3342 5.9426 16.3342C6.19786 16.3235 7.05325 16.3342 8.02453 15.8741C9.10177 15.3636 9.71469 14.6035 9.71469 14.6035C10.1066 14.1492 10.4182 13.6315 10.6362 13.0726C10.8851 12.4184 10.9675 11.6349 10.9675 11.322V5.68415C11.001 5.70406 11.4454 5.99772 11.4454 5.99772C11.4454 5.99772 12.0853 6.40799 13.0829 6.67463C13.7982 6.86448 14.7631 6.90501 14.7631 6.90501V4.17673C14.4254 4.21371 13.7392 4.10705 13.036 3.75722" fill="white"/>
</svg>
