<svg width="42" height="38" viewBox="0 0 42 38" fill="none" xmlns="http://www.w3.org/2000/svg">
<path d="M37.6091 2.81342C36.3907 1.7706 34.9439 1.0293 33.3858 0.64953C31.8277 0.269762 30.202 0.262196 28.6405 0.627444C25.5011 1.31484 22.7572 3.20767 20.9998 5.89831C19.2519 3.21639 16.5243 1.32463 13.3999 0.627444C11.8453 0.254037 10.2256 0.244109 8.6666 0.59843C7.10759 0.952752 5.65127 1.66178 4.41082 2.67042C1.18292 5.48972 -0.594465 11.7412 1.42808 18.0744C1.65689 18.7731 1.93065 19.4555 2.24527 20.1174C2.32698 20.2706 2.40257 20.4279 2.46999 20.5873C7.72043 31.2925 19.8557 36.9311 20.3869 37.1966C20.5835 37.2943 20.8007 37.3433 21.0202 37.3397C21.2394 37.341 21.4561 37.2921 21.6535 37.1966C22.1642 36.9719 34.4221 31.3742 39.6317 20.5464L39.7951 20.1991C40.1179 19.5045 40.3978 18.7874 40.6327 18.054C42.5531 11.9251 40.7961 5.67359 37.6091 2.81342ZM36.9758 19.0142C36.6898 19.6557 36.3629 20.2768 35.9952 20.8733H29.2329C28.8964 20.8716 28.5656 20.7867 28.2698 20.6263C27.9739 20.466 27.7223 20.235 27.5373 19.954L25.3921 16.7669L20.8363 25.8786C20.6924 26.1671 20.4823 26.4175 20.2231 26.6092C19.9639 26.801 19.6629 26.9286 19.3449 26.9818H19.0181C18.7478 26.9807 18.4804 26.9259 18.2314 26.8207C17.9824 26.7155 17.7568 26.5619 17.5676 26.3689L12.0311 20.8529H6.08605C5.70984 20.1903 5.36887 19.5084 5.06457 18.8099C4.74866 18.152 4.48896 17.4686 4.28824 16.7669H12.8891C13.158 16.7653 13.4246 16.8167 13.6735 16.9184C13.9225 17.0201 14.1488 17.1699 14.3397 17.3594L18.4256 21.4453L23.2879 11.7208C23.4495 11.3988 23.6933 11.1253 23.9947 10.928C24.2961 10.7306 24.6443 10.6165 25.004 10.5971C25.3591 10.5757 25.7136 10.6474 26.0325 10.805C26.3514 10.9627 26.6236 11.2009 26.8222 11.4961L30.2953 16.7261H37.8543C37.6318 17.514 37.3378 18.2799 36.9758 19.0142Z" fill="#DBA73B"/>
</svg>
