<svg width="24" height="17" viewBox="0 0 24 17" fill="none" xmlns="http://www.w3.org/2000/svg">
<path d="M23.1148 2.83432C22.9848 2.35035 22.73 1.90899 22.3759 1.55442C22.0218 1.19985 21.5808 0.944503 21.0969 0.813942C19.316 0.334961 12.1772 0.334961 12.1772 0.334961C12.1772 0.334961 5.03834 0.334961 3.25745 0.811394C2.77343 0.941532 2.33216 1.19673 1.97798 1.55137C1.62379 1.906 1.36914 2.34759 1.23962 2.83178C0.763183 4.61522 0.763184 8.33496 0.763184 8.33496C0.763184 8.33496 0.763183 12.0547 1.23962 13.8356C1.50204 14.819 2.27656 15.5936 3.25745 15.856C5.03834 16.335 12.1772 16.335 12.1772 16.335C12.1772 16.335 19.316 16.335 21.0969 15.856C22.0804 15.5936 22.8524 14.819 23.1148 13.8356C23.5912 12.0547 23.5912 8.33496 23.5912 8.33496C23.5912 8.33496 23.5912 4.61522 23.1148 2.83432ZM9.90968 11.749V4.92095L15.8205 8.30948L9.90968 11.749Z" fill="white"/>
</svg>
